%TF.GenerationSoftware,KiCad,Pcbnew,5.1.5+dfsg1-2~bpo10+1*%
%TF.CreationDate,Date%
%TF.ProjectId,osw,6f73772e-6b69-4636-9164-5f7063625858,3.0*%
%TF.SameCoordinates,Original*%
%TF.FileFunction,Soldermask,Bot*%
%TF.FilePolarity,Negative*%
%FSLAX46Y46*%
G04 Gerber Fmt 4.6, Leading zero omitted, Abs format (unit mm)*
G04 Created by KiCad*
%MOMM*%
%LPD*%
G04 APERTURE LIST*
%ADD10C,0.652000*%
%ADD11R,2.602000X0.452000*%
%ADD12C,0.100000*%
%ADD13O,1.100000X1.100000*%
%ADD14O,1.600000X2.100000*%
G04 APERTURE END LIST*
D10*
%TO.C,SW2*%
X169852058Y-93280731D03*
X168325386Y-92250978D03*
%TD*%
%TO.C,SW1*%
X151729158Y-92240869D03*
X150202486Y-93270622D03*
%TD*%
%TO.C,SW5*%
X150213342Y-126721369D03*
X151740014Y-127751122D03*
%TD*%
%TO.C,SW4*%
X168200066Y-127772769D03*
X169744478Y-126769816D03*
%TD*%
D11*
%TO.C,U4*%
X149380000Y-108870000D03*
X149380000Y-108170000D03*
X149380000Y-107470000D03*
X149380000Y-106770000D03*
X149380000Y-106070000D03*
X149380000Y-105370000D03*
X149380000Y-109570000D03*
X149380000Y-110270000D03*
X149380000Y-110970000D03*
X149380000Y-111670000D03*
X149380000Y-112370000D03*
X149380000Y-113070000D03*
%TD*%
D12*
%TO.C,R5*%
G36*
X155408957Y-92913333D02*
G01*
X155425751Y-92915824D01*
X155442219Y-92919949D01*
X155458204Y-92925669D01*
X155473552Y-92932928D01*
X155488114Y-92941656D01*
X155501750Y-92951769D01*
X155514329Y-92963171D01*
X155525731Y-92975750D01*
X155535844Y-92989386D01*
X155544572Y-93003948D01*
X155551831Y-93019296D01*
X155557551Y-93035281D01*
X155561676Y-93051749D01*
X155564167Y-93068543D01*
X155565000Y-93085500D01*
X155565000Y-93431500D01*
X155564167Y-93448457D01*
X155561676Y-93465251D01*
X155557551Y-93481719D01*
X155551831Y-93497704D01*
X155544572Y-93513052D01*
X155535844Y-93527614D01*
X155525731Y-93541250D01*
X155514329Y-93553829D01*
X155501750Y-93565231D01*
X155488114Y-93575344D01*
X155473552Y-93584072D01*
X155458204Y-93591331D01*
X155442219Y-93597051D01*
X155425751Y-93601176D01*
X155408957Y-93603667D01*
X155392000Y-93604500D01*
X154996000Y-93604500D01*
X154979043Y-93603667D01*
X154962249Y-93601176D01*
X154945781Y-93597051D01*
X154929796Y-93591331D01*
X154914448Y-93584072D01*
X154899886Y-93575344D01*
X154886250Y-93565231D01*
X154873671Y-93553829D01*
X154862269Y-93541250D01*
X154852156Y-93527614D01*
X154843428Y-93513052D01*
X154836169Y-93497704D01*
X154830449Y-93481719D01*
X154826324Y-93465251D01*
X154823833Y-93448457D01*
X154823000Y-93431500D01*
X154823000Y-93085500D01*
X154823833Y-93068543D01*
X154826324Y-93051749D01*
X154830449Y-93035281D01*
X154836169Y-93019296D01*
X154843428Y-93003948D01*
X154852156Y-92989386D01*
X154862269Y-92975750D01*
X154873671Y-92963171D01*
X154886250Y-92951769D01*
X154899886Y-92941656D01*
X154914448Y-92932928D01*
X154929796Y-92925669D01*
X154945781Y-92919949D01*
X154962249Y-92915824D01*
X154979043Y-92913333D01*
X154996000Y-92912500D01*
X155392000Y-92912500D01*
X155408957Y-92913333D01*
G37*
G36*
X155408957Y-91943333D02*
G01*
X155425751Y-91945824D01*
X155442219Y-91949949D01*
X155458204Y-91955669D01*
X155473552Y-91962928D01*
X155488114Y-91971656D01*
X155501750Y-91981769D01*
X155514329Y-91993171D01*
X155525731Y-92005750D01*
X155535844Y-92019386D01*
X155544572Y-92033948D01*
X155551831Y-92049296D01*
X155557551Y-92065281D01*
X155561676Y-92081749D01*
X155564167Y-92098543D01*
X155565000Y-92115500D01*
X155565000Y-92461500D01*
X155564167Y-92478457D01*
X155561676Y-92495251D01*
X155557551Y-92511719D01*
X155551831Y-92527704D01*
X155544572Y-92543052D01*
X155535844Y-92557614D01*
X155525731Y-92571250D01*
X155514329Y-92583829D01*
X155501750Y-92595231D01*
X155488114Y-92605344D01*
X155473552Y-92614072D01*
X155458204Y-92621331D01*
X155442219Y-92627051D01*
X155425751Y-92631176D01*
X155408957Y-92633667D01*
X155392000Y-92634500D01*
X154996000Y-92634500D01*
X154979043Y-92633667D01*
X154962249Y-92631176D01*
X154945781Y-92627051D01*
X154929796Y-92621331D01*
X154914448Y-92614072D01*
X154899886Y-92605344D01*
X154886250Y-92595231D01*
X154873671Y-92583829D01*
X154862269Y-92571250D01*
X154852156Y-92557614D01*
X154843428Y-92543052D01*
X154836169Y-92527704D01*
X154830449Y-92511719D01*
X154826324Y-92495251D01*
X154823833Y-92478457D01*
X154823000Y-92461500D01*
X154823000Y-92115500D01*
X154823833Y-92098543D01*
X154826324Y-92081749D01*
X154830449Y-92065281D01*
X154836169Y-92049296D01*
X154843428Y-92033948D01*
X154852156Y-92019386D01*
X154862269Y-92005750D01*
X154873671Y-91993171D01*
X154886250Y-91981769D01*
X154899886Y-91971656D01*
X154914448Y-91962928D01*
X154929796Y-91955669D01*
X154945781Y-91949949D01*
X154962249Y-91945824D01*
X154979043Y-91943333D01*
X154996000Y-91942500D01*
X155392000Y-91942500D01*
X155408957Y-91943333D01*
G37*
%TD*%
D13*
%TO.C,U5*%
X162306000Y-126404500D03*
X157734000Y-126404500D03*
D14*
X163068000Y-128627000D03*
X156972000Y-128627000D03*
%TD*%
M02*
