%TF.GenerationSoftware,KiCad,Pcbnew,5.1.5+dfsg1-2~bpo10+1*%
%TF.CreationDate,Date%
%TF.ProjectId,osw,6f73772e-6b69-4636-9164-5f7063625858,3.1*%
%TF.SameCoordinates,Original*%
%TF.FileFunction,OtherDrawing,Comment*%
%FSLAX46Y46*%
G04 Gerber Fmt 4.6, Leading zero omitted, Abs format (unit mm)*
G04 Created by KiCad*
%MOMM*%
%LPD*%
G04 APERTURE LIST*
%ADD10C,0.120000*%
%ADD11C,0.050000*%
%ADD12C,0.100000*%
G04 APERTURE END LIST*
D10*
X112522000Y-134518400D02*
X112522000Y-87985600D01*
X160020000Y-96012000D02*
X169799000Y-96012000D01*
X150241000Y-96012000D02*
X160020000Y-96012000D01*
X148615400Y-93294200D02*
X174599600Y-93294200D01*
X148297900Y-126682500D02*
X174307500Y-126720600D01*
X169799000Y-92011500D02*
X169799000Y-129794000D01*
X173151800Y-91655900D02*
X173101000Y-131940300D01*
X146913600Y-92252800D02*
X146913600Y-127000000D01*
X150228300Y-92303600D02*
X150177500Y-127000000D01*
D11*
X137500000Y-93900000D02*
X182500000Y-93900000D01*
X182500000Y-124500000D02*
X137500000Y-124500000D01*
D12*
%TO.C,U8*%
X154050000Y-88900000D02*
X165950000Y-88900000D01*
X154050000Y-104250000D02*
X154050000Y-88900000D01*
X154050000Y-104250000D02*
X165950000Y-104250000D01*
X166045200Y-104378000D02*
X165950000Y-88900000D01*
%TD*%
%TO.C,U5*%
X158305714Y-131413690D02*
X158305714Y-130913690D01*
X158496190Y-130913690D01*
X158543809Y-130937500D01*
X158567619Y-130961309D01*
X158591428Y-131008928D01*
X158591428Y-131080357D01*
X158567619Y-131127976D01*
X158543809Y-131151785D01*
X158496190Y-131175595D01*
X158305714Y-131175595D01*
X159091428Y-131366071D02*
X159067619Y-131389880D01*
X158996190Y-131413690D01*
X158948571Y-131413690D01*
X158877142Y-131389880D01*
X158829523Y-131342261D01*
X158805714Y-131294642D01*
X158781904Y-131199404D01*
X158781904Y-131127976D01*
X158805714Y-131032738D01*
X158829523Y-130985119D01*
X158877142Y-130937500D01*
X158948571Y-130913690D01*
X158996190Y-130913690D01*
X159067619Y-130937500D01*
X159091428Y-130961309D01*
X159472380Y-131151785D02*
X159543809Y-131175595D01*
X159567619Y-131199404D01*
X159591428Y-131247023D01*
X159591428Y-131318452D01*
X159567619Y-131366071D01*
X159543809Y-131389880D01*
X159496190Y-131413690D01*
X159305714Y-131413690D01*
X159305714Y-130913690D01*
X159472380Y-130913690D01*
X159520000Y-130937500D01*
X159543809Y-130961309D01*
X159567619Y-131008928D01*
X159567619Y-131056547D01*
X159543809Y-131104166D01*
X159520000Y-131127976D01*
X159472380Y-131151785D01*
X159305714Y-131151785D01*
X160186666Y-131151785D02*
X160353333Y-131151785D01*
X160424761Y-131413690D02*
X160186666Y-131413690D01*
X160186666Y-130913690D01*
X160424761Y-130913690D01*
X160853333Y-131413690D02*
X160853333Y-130913690D01*
X160853333Y-131389880D02*
X160805714Y-131413690D01*
X160710476Y-131413690D01*
X160662857Y-131389880D01*
X160639047Y-131366071D01*
X160615238Y-131318452D01*
X160615238Y-131175595D01*
X160639047Y-131127976D01*
X160662857Y-131104166D01*
X160710476Y-131080357D01*
X160805714Y-131080357D01*
X160853333Y-131104166D01*
X161305714Y-131080357D02*
X161305714Y-131485119D01*
X161281904Y-131532738D01*
X161258095Y-131556547D01*
X161210476Y-131580357D01*
X161139047Y-131580357D01*
X161091428Y-131556547D01*
X161305714Y-131389880D02*
X161258095Y-131413690D01*
X161162857Y-131413690D01*
X161115238Y-131389880D01*
X161091428Y-131366071D01*
X161067619Y-131318452D01*
X161067619Y-131175595D01*
X161091428Y-131127976D01*
X161115238Y-131104166D01*
X161162857Y-131080357D01*
X161258095Y-131080357D01*
X161305714Y-131104166D01*
X161734285Y-131389880D02*
X161686666Y-131413690D01*
X161591428Y-131413690D01*
X161543809Y-131389880D01*
X161520000Y-131342261D01*
X161520000Y-131151785D01*
X161543809Y-131104166D01*
X161591428Y-131080357D01*
X161686666Y-131080357D01*
X161734285Y-131104166D01*
X161758095Y-131151785D01*
X161758095Y-131199404D01*
X161520000Y-131247023D01*
%TD*%
M02*
