M48
; DRILL file {KiCad 5.1.5+dfsg1-2~bpo10+1} date Thu Feb 18 16:46:34 2021
; FORMAT={-:-/ absolute / metric / decimal}
; #@! TF.CreationDate,2021-02-18T16:46:34+00:00
; #@! TF.GenerationSoftware,Kicad,Pcbnew,5.1.5+dfsg1-2~bpo10+1
; #@! TF.FileFunction,Plated,1,4,PTH
FMAT,2
METRIC
T1C0.330
T2C0.750
%
G90
G05
T1
X138.684Y-99.06
X138.684Y-105.537
X138.684Y-107.823
X138.684Y-110.871
X138.811Y-100.33
X138.811Y-102.743
X138.811Y-114.173
X138.836Y-97.587
X138.938Y-117.602
X140.589Y-100.838
X140.716Y-118.364
X141.732Y-120.777
X142.24Y-117.475
X142.367Y-118.872
X142.621Y-114.554
X143.764Y-104.14
X144.145Y-101.346
X145.097Y-98.361
X145.288Y-102.362
X145.478Y-121.475
X145.93Y-117.912
X146.875Y-109.414
X146.875Y-110.299
X146.939Y-105.6
X146.939Y-107.505
X146.939Y-120.396
X146.99Y-96.418
X147.511Y-113.093
X147.574Y-108.204
X147.599Y-108.903
X147.794Y-105.367
X147.828Y-94.869
X147.828Y-99.949
X147.828Y-125.222
X148.336Y-116.967
X148.667Y-118.25
X149.225Y-98.044
X149.479Y-100.965
X150.114Y-117.856
X150.368Y-119.38
X151.282Y-97.13
X151.32Y-103.378
X151.32Y-104.457
X151.32Y-105.6
X151.32Y-106.743
X151.32Y-107.823
X151.32Y-108.966
X151.32Y-110.623
X151.32Y-111.509
X151.32Y-112.395
X151.511Y-117.769
X151.511Y-120.539
X151.765Y-95.377
X152.273Y-123.952
X152.527Y-115.57
X153.146Y-122.167
X153.352Y-120.713
X153.797Y-119.253
X153.924Y-90.106
X153.924Y-90.932
X153.924Y-94.234
X153.924Y-95.25
X153.924Y-97.282
X153.924Y-98.234
X154.047Y-92.153
X154.051Y-129.794
X154.116Y-93.036
X154.432Y-106.87
X154.559Y-122.682
X154.94Y-117.094
X155.067Y-129.794
X155.088Y-113.051
X155.194Y-127.889
X155.385Y-125.031
X155.575Y-126.365
X155.702Y-120.015
X155.854Y-103.378
X155.86Y-110.623
X156.157Y-104.701
X156.21Y-108.077
X156.21Y-121.539
X156.334Y-118.242
X156.337Y-122.936
X156.566Y-100.279
X156.566Y-101.295
X157.988Y-104.038
X157.988Y-115.379
X158.359Y-118.58
X159.004Y-104.038
X159.495Y-120.747
X159.775Y-114.037
X161.29Y-124.714
X162.052Y-104.648
X162.179Y-120.777
X162.814Y-124.587
X162.966Y-110.642
X162.966Y-112.149
X163.373Y-99.636
X163.584Y-105.291
X163.697Y-103.054
X163.893Y-108.966
X164.02Y-122.999
X164.211Y-126.111
X164.973Y-129.794
X165.036Y-122.872
X165.481Y-127.762
X165.506Y-114.148
X165.811Y-106.078
X165.989Y-129.794
X166.014Y-108.616
X166.052Y-90.106
X166.052Y-90.868
X166.052Y-92.138
X166.116Y-98.298
X166.116Y-99.251
X166.116Y-112.649
X166.497Y-96.901
X166.724Y-118.554
X166.751Y-107.823
X166.751Y-111.506
X166.751Y-121.856
X167.259Y-104.902
X167.295Y-103.745
X167.64Y-95.123
X167.767Y-111.506
X168.212Y-124.841
X168.783Y-109.029
X169.059Y-121.204
X169.52Y-121.96
X169.799Y-109.029
X170.383Y-103.327
X170.434Y-124.841
X170.815Y-111.506
X170.815Y-121.92
X171.044Y-100.228
X171.044Y-101.803
X171.069Y-95.758
X171.386Y-106.108
X171.806Y-109.068
X171.831Y-121.92
X172.466Y-94.361
X172.847Y-111.506
X172.847Y-121.92
X173.609Y-121.158
X173.863Y-108.902
X173.971Y-103.249
X174.117Y-101.854
X174.18Y-98.615
X174.18Y-100.203
X174.18Y-113.792
X174.371Y-94.488
X174.53Y-104.762
X174.815Y-108.902
X174.854Y-103.327
X174.879Y-112.84
X174.879Y-121.92
X175.07Y-119.825
X175.133Y-108.076
X175.496Y-101.295
X175.885Y-121.93
X175.895Y-111.506
X175.895Y-116.332
X176.149Y-99.568
X176.72Y-100.266
X176.847Y-121.983
X176.911Y-111.506
X177.038Y-118.491
X177.165Y-115.316
X177.285Y-104.902
X177.927Y-95.25
X177.927Y-98.425
X177.927Y-111.506
X177.927Y-121.92
X178.181Y-116.713
X178.75Y-100.705
X178.94Y-111.44
X178.943Y-121.92
X179.07Y-95.313
X179.451Y-100.076
X179.578Y-96.075
X179.761Y-103.068
X179.959Y-121.92
X180.403Y-99.885
X180.53Y-104.965
X180.634Y-106.45
X180.657Y-109.156
X181.046Y-103.188
X181.164Y-97.346
X181.229Y-123.825
X181.267Y-100.085
X181.737Y-109.347
X181.737Y-122.809
X181.932Y-98.552
T2
G00X156.972Y-128.402
M15
G01X156.972Y-128.852
M16
G05
G00X163.068Y-128.402
M15
G01X163.068Y-128.852
M16
G05
T0
M30
