%TF.GenerationSoftware,KiCad,Pcbnew,5.1.5+dfsg1-2~bpo10+1*%
%TF.CreationDate,Date%
%TF.ProjectId,osw,6f73772e-6b69-4636-9164-5f7063625858,3.0*%
%TF.SameCoordinates,Original*%
%TF.FileFunction,Paste,Bot*%
%TF.FilePolarity,Positive*%
%FSLAX46Y46*%
G04 Gerber Fmt 4.6, Leading zero omitted, Abs format (unit mm)*
G04 Created by KiCad*
%MOMM*%
%LPD*%
G04 APERTURE LIST*
%ADD10R,2.500000X0.350000*%
%ADD11C,0.100000*%
G04 APERTURE END LIST*
D10*
%TO.C,U4*%
X149380000Y-108870000D03*
X149380000Y-108170000D03*
X149380000Y-107470000D03*
X149380000Y-106770000D03*
X149380000Y-106070000D03*
X149380000Y-105370000D03*
X149380000Y-109570000D03*
X149380000Y-110270000D03*
X149380000Y-110970000D03*
X149380000Y-111670000D03*
X149380000Y-112370000D03*
X149380000Y-113070000D03*
%TD*%
D11*
%TO.C,R5*%
G36*
X155380958Y-92964210D02*
G01*
X155395276Y-92966334D01*
X155409317Y-92969851D01*
X155422946Y-92974728D01*
X155436031Y-92980917D01*
X155448447Y-92988358D01*
X155460073Y-92996981D01*
X155470798Y-93006702D01*
X155480519Y-93017427D01*
X155489142Y-93029053D01*
X155496583Y-93041469D01*
X155502772Y-93054554D01*
X155507649Y-93068183D01*
X155511166Y-93082224D01*
X155513290Y-93096542D01*
X155514000Y-93111000D01*
X155514000Y-93406000D01*
X155513290Y-93420458D01*
X155511166Y-93434776D01*
X155507649Y-93448817D01*
X155502772Y-93462446D01*
X155496583Y-93475531D01*
X155489142Y-93487947D01*
X155480519Y-93499573D01*
X155470798Y-93510298D01*
X155460073Y-93520019D01*
X155448447Y-93528642D01*
X155436031Y-93536083D01*
X155422946Y-93542272D01*
X155409317Y-93547149D01*
X155395276Y-93550666D01*
X155380958Y-93552790D01*
X155366500Y-93553500D01*
X155021500Y-93553500D01*
X155007042Y-93552790D01*
X154992724Y-93550666D01*
X154978683Y-93547149D01*
X154965054Y-93542272D01*
X154951969Y-93536083D01*
X154939553Y-93528642D01*
X154927927Y-93520019D01*
X154917202Y-93510298D01*
X154907481Y-93499573D01*
X154898858Y-93487947D01*
X154891417Y-93475531D01*
X154885228Y-93462446D01*
X154880351Y-93448817D01*
X154876834Y-93434776D01*
X154874710Y-93420458D01*
X154874000Y-93406000D01*
X154874000Y-93111000D01*
X154874710Y-93096542D01*
X154876834Y-93082224D01*
X154880351Y-93068183D01*
X154885228Y-93054554D01*
X154891417Y-93041469D01*
X154898858Y-93029053D01*
X154907481Y-93017427D01*
X154917202Y-93006702D01*
X154927927Y-92996981D01*
X154939553Y-92988358D01*
X154951969Y-92980917D01*
X154965054Y-92974728D01*
X154978683Y-92969851D01*
X154992724Y-92966334D01*
X155007042Y-92964210D01*
X155021500Y-92963500D01*
X155366500Y-92963500D01*
X155380958Y-92964210D01*
G37*
G36*
X155380958Y-91994210D02*
G01*
X155395276Y-91996334D01*
X155409317Y-91999851D01*
X155422946Y-92004728D01*
X155436031Y-92010917D01*
X155448447Y-92018358D01*
X155460073Y-92026981D01*
X155470798Y-92036702D01*
X155480519Y-92047427D01*
X155489142Y-92059053D01*
X155496583Y-92071469D01*
X155502772Y-92084554D01*
X155507649Y-92098183D01*
X155511166Y-92112224D01*
X155513290Y-92126542D01*
X155514000Y-92141000D01*
X155514000Y-92436000D01*
X155513290Y-92450458D01*
X155511166Y-92464776D01*
X155507649Y-92478817D01*
X155502772Y-92492446D01*
X155496583Y-92505531D01*
X155489142Y-92517947D01*
X155480519Y-92529573D01*
X155470798Y-92540298D01*
X155460073Y-92550019D01*
X155448447Y-92558642D01*
X155436031Y-92566083D01*
X155422946Y-92572272D01*
X155409317Y-92577149D01*
X155395276Y-92580666D01*
X155380958Y-92582790D01*
X155366500Y-92583500D01*
X155021500Y-92583500D01*
X155007042Y-92582790D01*
X154992724Y-92580666D01*
X154978683Y-92577149D01*
X154965054Y-92572272D01*
X154951969Y-92566083D01*
X154939553Y-92558642D01*
X154927927Y-92550019D01*
X154917202Y-92540298D01*
X154907481Y-92529573D01*
X154898858Y-92517947D01*
X154891417Y-92505531D01*
X154885228Y-92492446D01*
X154880351Y-92478817D01*
X154876834Y-92464776D01*
X154874710Y-92450458D01*
X154874000Y-92436000D01*
X154874000Y-92141000D01*
X154874710Y-92126542D01*
X154876834Y-92112224D01*
X154880351Y-92098183D01*
X154885228Y-92084554D01*
X154891417Y-92071469D01*
X154898858Y-92059053D01*
X154907481Y-92047427D01*
X154917202Y-92036702D01*
X154927927Y-92026981D01*
X154939553Y-92018358D01*
X154951969Y-92010917D01*
X154965054Y-92004728D01*
X154978683Y-91999851D01*
X154992724Y-91996334D01*
X155007042Y-91994210D01*
X155021500Y-91993500D01*
X155366500Y-91993500D01*
X155380958Y-91994210D01*
G37*
%TD*%
M02*
