%FSLAX45Y45*%
G04 Gerber Fmt 4.5, Leading zero omitted, Abs format (unit mm)*
G04 Created by KiCad*
%MOMM*%
%LPD*%
G04 APERTURE LIST*
%TA.AperFunction,Profile*%
%ADD10C,0.050000*%
%TD*%
%ADD11C,0.200000*%
%ADD12C,0.300000*%
G04 APERTURE END LIST*
D10*
X17313910Y-12600940D02*
G75*
G02X17466310Y-12448540I152400J0D01*
G01*
X14533880Y-12449810D02*
G75*
G02X14686280Y-12602210I0J-152400D01*
G01*
X15350000Y-13050000D02*
X14686280Y-12602210D01*
X17313910Y-12600940D02*
X16650000Y-13050000D01*
X16650000Y-8950000D02*
X17310100Y-9389110D01*
X15350000Y-8950000D02*
X14690000Y-9390000D01*
X16000000Y-8950000D02*
X15350000Y-8950000D01*
X16000000Y-13050000D02*
X15350000Y-13050000D01*
X16650000Y-13050000D02*
X16000000Y-13050000D01*
X16000000Y-8950000D02*
X16650000Y-8950000D01*
X18250000Y-12450000D02*
X17466310Y-12448540D01*
X18250000Y-9390000D02*
X17310100Y-9389110D01*
X13750000Y-9390000D02*
X14690000Y-9390000D01*
X13750000Y-12450000D02*
X14533880Y-12449810D01*
X13750000Y-11000000D02*
X13750000Y-12450000D01*
X13750000Y-11000000D02*
X13750000Y-9390000D01*
X18250000Y-11000000D02*
X18250000Y-12450000D01*
X18250000Y-11000000D02*
X18250000Y-9390000D01*
D11*
X13851890Y-9889490D02*
X13884910Y-9922510D01*
X13884910Y-9889490D02*
X13851890Y-9922510D01*
X13851890Y-10537190D02*
X13884910Y-10570210D01*
X13884910Y-10537190D02*
X13851890Y-10570210D01*
X13851890Y-10765790D02*
X13884910Y-10798810D01*
X13884910Y-10765790D02*
X13851890Y-10798810D01*
X13851890Y-11070590D02*
X13884910Y-11103610D01*
X13884910Y-11070590D02*
X13851890Y-11103610D01*
X13864590Y-10016490D02*
X13897610Y-10049510D01*
X13897610Y-10016490D02*
X13864590Y-10049510D01*
X13864590Y-10257790D02*
X13897610Y-10290810D01*
X13897610Y-10257790D02*
X13864590Y-10290810D01*
X13864590Y-11400790D02*
X13897610Y-11433810D01*
X13897610Y-11400790D02*
X13864590Y-11433810D01*
X13867130Y-9742170D02*
X13900150Y-9775190D01*
X13900150Y-9742170D02*
X13867130Y-9775190D01*
X13877290Y-11743690D02*
X13910310Y-11776710D01*
X13910310Y-11743690D02*
X13877290Y-11776710D01*
X14042390Y-10067290D02*
X14075410Y-10100310D01*
X14075410Y-10067290D02*
X14042390Y-10100310D01*
X14055090Y-11819890D02*
X14088110Y-11852910D01*
X14088110Y-11819890D02*
X14055090Y-11852910D01*
X14156690Y-12061190D02*
X14189710Y-12094210D01*
X14189710Y-12061190D02*
X14156690Y-12094210D01*
X14207490Y-11730990D02*
X14240510Y-11764010D01*
X14240510Y-11730990D02*
X14207490Y-11764010D01*
X14220190Y-11870690D02*
X14253210Y-11903710D01*
X14253210Y-11870690D02*
X14220190Y-11903710D01*
X14245590Y-11438890D02*
X14278610Y-11471910D01*
X14278610Y-11438890D02*
X14245590Y-11471910D01*
X14359890Y-10397490D02*
X14392910Y-10430510D01*
X14392910Y-10397490D02*
X14359890Y-10430510D01*
X14397990Y-10118090D02*
X14431010Y-10151110D01*
X14431010Y-10118090D02*
X14397990Y-10151110D01*
X14493240Y-9819640D02*
X14526260Y-9852660D01*
X14526260Y-9819640D02*
X14493240Y-9852660D01*
X14512290Y-10219690D02*
X14545310Y-10252710D01*
X14545310Y-10219690D02*
X14512290Y-10252710D01*
X14531340Y-12131040D02*
X14564360Y-12164060D01*
X14564360Y-12131040D02*
X14531340Y-12164060D01*
X14576540Y-11774690D02*
X14609560Y-11807710D01*
X14609560Y-11774690D02*
X14576540Y-11807710D01*
X14671040Y-10924860D02*
X14704060Y-10957880D01*
X14704060Y-10924860D02*
X14671040Y-10957880D01*
X14671040Y-11013440D02*
X14704060Y-11046460D01*
X14704060Y-11013440D02*
X14671040Y-11046460D01*
X14677390Y-10543540D02*
X14710410Y-10576560D01*
X14710410Y-10543540D02*
X14677390Y-10576560D01*
X14677390Y-10734040D02*
X14710410Y-10767060D01*
X14710410Y-10734040D02*
X14677390Y-10767060D01*
X14677390Y-12023090D02*
X14710410Y-12056110D01*
X14710410Y-12023090D02*
X14677390Y-12056110D01*
X14682460Y-9625330D02*
X14715480Y-9658350D01*
X14715480Y-9625330D02*
X14682460Y-9658350D01*
X14734540Y-11292840D02*
X14767560Y-11325860D01*
X14767560Y-11292840D02*
X14734540Y-11325860D01*
X14740890Y-10803890D02*
X14773910Y-10836910D01*
X14773910Y-10803890D02*
X14740890Y-10836910D01*
X14743436Y-10873818D02*
X14776456Y-10906838D01*
X14776456Y-10873818D02*
X14743436Y-10906838D01*
X14762849Y-10520233D02*
X14795869Y-10553253D01*
X14795869Y-10520233D02*
X14762849Y-10553253D01*
X14766290Y-9470390D02*
X14799310Y-9503410D01*
X14799310Y-9470390D02*
X14766290Y-9503410D01*
X14766290Y-9978390D02*
X14799310Y-10011410D01*
X14799310Y-9978390D02*
X14766290Y-10011410D01*
X14766290Y-12505690D02*
X14799310Y-12538710D01*
X14799310Y-12505690D02*
X14766290Y-12538710D01*
X14817090Y-11680190D02*
X14850110Y-11713210D01*
X14850110Y-11680190D02*
X14817090Y-11713210D01*
X14850148Y-11808498D02*
X14883168Y-11841518D01*
X14883168Y-11808498D02*
X14850148Y-11841518D01*
X14905990Y-9787890D02*
X14939010Y-9820910D01*
X14939010Y-9787890D02*
X14905990Y-9820910D01*
X14931390Y-10079990D02*
X14964410Y-10113010D01*
X14964410Y-10079990D02*
X14931390Y-10113010D01*
X14994890Y-11769090D02*
X15027910Y-11802110D01*
X15027910Y-11769090D02*
X14994890Y-11802110D01*
X15020290Y-11921490D02*
X15053310Y-11954510D01*
X15053310Y-11921490D02*
X15020290Y-11954510D01*
X15111730Y-9696450D02*
X15144750Y-9729470D01*
X15144750Y-9696450D02*
X15111730Y-9729470D01*
X15115540Y-10321290D02*
X15148560Y-10354310D01*
X15148560Y-10321290D02*
X15115540Y-10354310D01*
X15115540Y-10429240D02*
X15148560Y-10462260D01*
X15148560Y-10429240D02*
X15115540Y-10462260D01*
X15115540Y-10543540D02*
X15148560Y-10576560D01*
X15148560Y-10543540D02*
X15115540Y-10576560D01*
X15115540Y-10657840D02*
X15148560Y-10690860D01*
X15148560Y-10657840D02*
X15115540Y-10690860D01*
X15115540Y-10765790D02*
X15148560Y-10798810D01*
X15148560Y-10765790D02*
X15115540Y-10798810D01*
X15115540Y-10880090D02*
X15148560Y-10913110D01*
X15148560Y-10880090D02*
X15115540Y-10913110D01*
X15115540Y-11045829D02*
X15148560Y-11078849D01*
X15148560Y-11045829D02*
X15115540Y-11078849D01*
X15115540Y-11134410D02*
X15148560Y-11167430D01*
X15148560Y-11134410D02*
X15115540Y-11167430D01*
X15115540Y-11222990D02*
X15148560Y-11256010D01*
X15148560Y-11222990D02*
X15115540Y-11256010D01*
X15134590Y-11760400D02*
X15167610Y-11793420D01*
X15167610Y-11760400D02*
X15134590Y-11793420D01*
X15134590Y-12037370D02*
X15167610Y-12070390D01*
X15167610Y-12037370D02*
X15134590Y-12070390D01*
X15159990Y-9521190D02*
X15193010Y-9554210D01*
X15193010Y-9521190D02*
X15159990Y-9554210D01*
X15210790Y-12378690D02*
X15243810Y-12411710D01*
X15243810Y-12378690D02*
X15210790Y-12411710D01*
X15236190Y-11540490D02*
X15269210Y-11573510D01*
X15269210Y-11540490D02*
X15236190Y-11573510D01*
X15298090Y-12200190D02*
X15331110Y-12233210D01*
X15331110Y-12200190D02*
X15298090Y-12233210D01*
X15318740Y-12054840D02*
X15351760Y-12087860D01*
X15351760Y-12054840D02*
X15318740Y-12087860D01*
X15363190Y-11908790D02*
X15396210Y-11941810D01*
X15396210Y-11908790D02*
X15363190Y-11941810D01*
X15375890Y-8994140D02*
X15408910Y-9027160D01*
X15408910Y-8994140D02*
X15375890Y-9027160D01*
X15375890Y-9076690D02*
X15408910Y-9109710D01*
X15408910Y-9076690D02*
X15375890Y-9109710D01*
X15375890Y-9406890D02*
X15408910Y-9439910D01*
X15408910Y-9406890D02*
X15375890Y-9439910D01*
X15375890Y-9508490D02*
X15408910Y-9541510D01*
X15408910Y-9508490D02*
X15375890Y-9541510D01*
X15375890Y-9711690D02*
X15408910Y-9744710D01*
X15408910Y-9711690D02*
X15375890Y-9744710D01*
X15375890Y-9806940D02*
X15408910Y-9839960D01*
X15408910Y-9806940D02*
X15375890Y-9839960D01*
X15388212Y-9198809D02*
X15421232Y-9231829D01*
X15421232Y-9198809D02*
X15388212Y-9231829D01*
X15388590Y-12962890D02*
X15421610Y-12995910D01*
X15421610Y-12962890D02*
X15388590Y-12995910D01*
X15395059Y-9287124D02*
X15428079Y-9320144D01*
X15428079Y-9287124D02*
X15395059Y-9320144D01*
X15426690Y-10670540D02*
X15459710Y-10703560D01*
X15459710Y-10670540D02*
X15426690Y-10703560D01*
X15439390Y-12251690D02*
X15472410Y-12284710D01*
X15472410Y-12251690D02*
X15439390Y-12284710D01*
X15477490Y-11692890D02*
X15510510Y-11725910D01*
X15510510Y-11692890D02*
X15477490Y-11725910D01*
X15490190Y-12962890D02*
X15523210Y-12995910D01*
X15523210Y-12962890D02*
X15490190Y-12995910D01*
X15492281Y-11288581D02*
X15525301Y-11321601D01*
X15525301Y-11288581D02*
X15492281Y-11321601D01*
X15502890Y-12772390D02*
X15535910Y-12805410D01*
X15535910Y-12772390D02*
X15502890Y-12805410D01*
X15521940Y-12486640D02*
X15554960Y-12519660D01*
X15554960Y-12486640D02*
X15521940Y-12519660D01*
X15540990Y-12619990D02*
X15574010Y-12653010D01*
X15574010Y-12619990D02*
X15540990Y-12653010D01*
X15553690Y-11984990D02*
X15586710Y-12018010D01*
X15586710Y-11984990D02*
X15553690Y-12018010D01*
X15568930Y-10321290D02*
X15601950Y-10354310D01*
X15601950Y-10321290D02*
X15568930Y-10354310D01*
X15569480Y-11045829D02*
X15602500Y-11078849D01*
X15602500Y-11045829D02*
X15569480Y-11078849D01*
X15599150Y-10453630D02*
X15632170Y-10486650D01*
X15632170Y-10453630D02*
X15599150Y-10486650D01*
X15604490Y-10791190D02*
X15637510Y-10824210D01*
X15637510Y-10791190D02*
X15604490Y-10824210D01*
X15604490Y-12137390D02*
X15637510Y-12170410D01*
X15637510Y-12137390D02*
X15604490Y-12170410D01*
X15616907Y-11807682D02*
X15649927Y-11840702D01*
X15649927Y-11807682D02*
X15616907Y-11840702D01*
X15617190Y-12277090D02*
X15650210Y-12310110D01*
X15650210Y-12277090D02*
X15617190Y-12310110D01*
X15640050Y-10011410D02*
X15673070Y-10044430D01*
X15673070Y-10011410D02*
X15640050Y-10044430D01*
X15640050Y-10113010D02*
X15673070Y-10146030D01*
X15673070Y-10113010D02*
X15640050Y-10146030D01*
X15782290Y-10387330D02*
X15815310Y-10420350D01*
X15815310Y-10387330D02*
X15782290Y-10420350D01*
X15782290Y-11521440D02*
X15815310Y-11554460D01*
X15815310Y-11521440D02*
X15782290Y-11554460D01*
X15819392Y-11841508D02*
X15852412Y-11874528D01*
X15852412Y-11841508D02*
X15819392Y-11874528D01*
X15883890Y-10387330D02*
X15916910Y-10420350D01*
X15916910Y-10387330D02*
X15883890Y-10420350D01*
X15932986Y-12058153D02*
X15966006Y-12091173D01*
X15966006Y-12058153D02*
X15932986Y-12091173D01*
X15960961Y-11387219D02*
X15993981Y-11420239D01*
X15993981Y-11387219D02*
X15960961Y-11420239D01*
X16112490Y-12454890D02*
X16145510Y-12487910D01*
X16145510Y-12454890D02*
X16112490Y-12487910D01*
X16188690Y-10448290D02*
X16221710Y-10481310D01*
X16221710Y-10448290D02*
X16188690Y-10481310D01*
X16201390Y-12061190D02*
X16234410Y-12094210D01*
X16234410Y-12061190D02*
X16201390Y-12094210D01*
X16264890Y-12442190D02*
X16297910Y-12475210D01*
X16297910Y-12442190D02*
X16264890Y-12475210D01*
X16280130Y-11047730D02*
X16313150Y-11080750D01*
X16313150Y-11047730D02*
X16280130Y-11080750D01*
X16280130Y-11198380D02*
X16313150Y-11231400D01*
X16313150Y-11198380D02*
X16280130Y-11231400D01*
X16320770Y-9947120D02*
X16353790Y-9980140D01*
X16353790Y-9947120D02*
X16320770Y-9980140D01*
X16341906Y-10512607D02*
X16374926Y-10545627D01*
X16374926Y-10512607D02*
X16341906Y-10545627D01*
X16353170Y-10288890D02*
X16386190Y-10321910D01*
X16386190Y-10288890D02*
X16353170Y-10321910D01*
X16372840Y-10880090D02*
X16405860Y-10913110D01*
X16405860Y-10880090D02*
X16372840Y-10913110D01*
X16385540Y-12283440D02*
X16418560Y-12316460D01*
X16418560Y-12283440D02*
X16385540Y-12316460D01*
X16404590Y-12594590D02*
X16437610Y-12627610D01*
X16437610Y-12594590D02*
X16404590Y-12627610D01*
X16480790Y-12962890D02*
X16513810Y-12995910D01*
X16513810Y-12962890D02*
X16480790Y-12995910D01*
X16487140Y-12270740D02*
X16520160Y-12303760D01*
X16520160Y-12270740D02*
X16487140Y-12303760D01*
X16531590Y-12759690D02*
X16564610Y-12792710D01*
X16564610Y-12759690D02*
X16531590Y-12792710D01*
X16534130Y-11398250D02*
X16567150Y-11431270D01*
X16567150Y-11398250D02*
X16534130Y-11431270D01*
X16564610Y-10591250D02*
X16597630Y-10624270D01*
X16597630Y-10591250D02*
X16564610Y-10624270D01*
X16582390Y-12962890D02*
X16615410Y-12995910D01*
X16615410Y-12962890D02*
X16582390Y-12995910D01*
X16584930Y-10845080D02*
X16617950Y-10878100D01*
X16617950Y-10845080D02*
X16584930Y-10878100D01*
X16588740Y-8994140D02*
X16621760Y-9027160D01*
X16621760Y-8994140D02*
X16588740Y-9027160D01*
X16588740Y-9070340D02*
X16621760Y-9103360D01*
X16621760Y-9070340D02*
X16588740Y-9103360D01*
X16588740Y-9197340D02*
X16621760Y-9230360D01*
X16621760Y-9197340D02*
X16588740Y-9230360D01*
X16595090Y-9813290D02*
X16628110Y-9846310D01*
X16628110Y-9813290D02*
X16595090Y-9846310D01*
X16595090Y-9908540D02*
X16628110Y-9941560D01*
X16628110Y-9908540D02*
X16595090Y-9941560D01*
X16595090Y-11248390D02*
X16628110Y-11281410D01*
X16628110Y-11248390D02*
X16595090Y-11281410D01*
X16633190Y-9673590D02*
X16666210Y-9706610D01*
X16666210Y-9673590D02*
X16633190Y-9706610D01*
X16655899Y-11838940D02*
X16688919Y-11871960D01*
X16688919Y-11838940D02*
X16655899Y-11871960D01*
X16658590Y-10765790D02*
X16691610Y-10798810D01*
X16691610Y-10765790D02*
X16658590Y-10798810D01*
X16658590Y-11134090D02*
X16691610Y-11167110D01*
X16691610Y-11134090D02*
X16658590Y-11167110D01*
X16658590Y-12169140D02*
X16691610Y-12202160D01*
X16691610Y-12169140D02*
X16658590Y-12202160D01*
X16709390Y-10473690D02*
X16742410Y-10506710D01*
X16742410Y-10473690D02*
X16709390Y-10506710D01*
X16713039Y-10357960D02*
X16746059Y-10390980D01*
X16746059Y-10357960D02*
X16713039Y-10390980D01*
X16747490Y-9495790D02*
X16780510Y-9528810D01*
X16780510Y-9495790D02*
X16747490Y-9528810D01*
X16760190Y-11134090D02*
X16793210Y-11167110D01*
X16793210Y-11134090D02*
X16760190Y-11167110D01*
X16804640Y-12467590D02*
X16837660Y-12500610D01*
X16837660Y-12467590D02*
X16804640Y-12500610D01*
X16861790Y-10886440D02*
X16894810Y-10919460D01*
X16894810Y-10886440D02*
X16861790Y-10919460D01*
X16889355Y-12103882D02*
X16922375Y-12136902D01*
X16922375Y-12103882D02*
X16889355Y-12136902D01*
X16935485Y-12179503D02*
X16968505Y-12212523D01*
X16968505Y-12179503D02*
X16935485Y-12212523D01*
X16963390Y-10886440D02*
X16996410Y-10919460D01*
X16996410Y-10886440D02*
X16963390Y-10919460D01*
X17021810Y-10316210D02*
X17054830Y-10349230D01*
X17054830Y-10316210D02*
X17021810Y-10349230D01*
X17026890Y-12467590D02*
X17059910Y-12500610D01*
X17059910Y-12467590D02*
X17026890Y-12500610D01*
X17064990Y-11134090D02*
X17098010Y-11167110D01*
X17098010Y-11134090D02*
X17064990Y-11167110D01*
X17064990Y-12175490D02*
X17098010Y-12208510D01*
X17098010Y-12175490D02*
X17064990Y-12208510D01*
X17087850Y-10006330D02*
X17120870Y-10039350D01*
X17120870Y-10006330D02*
X17087850Y-10039350D01*
X17087850Y-10163810D02*
X17120870Y-10196830D01*
X17120870Y-10163810D02*
X17087850Y-10196830D01*
X17090390Y-9559290D02*
X17123410Y-9592310D01*
X17123410Y-9559290D02*
X17090390Y-9592310D01*
X17122140Y-10594340D02*
X17155160Y-10627360D01*
X17155160Y-10594340D02*
X17122140Y-10627360D01*
X17164050Y-10890250D02*
X17197070Y-10923270D01*
X17197070Y-10890250D02*
X17164050Y-10923270D01*
X17166590Y-12175490D02*
X17199610Y-12208510D01*
X17199610Y-12175490D02*
X17166590Y-12208510D01*
X17230090Y-9419590D02*
X17263110Y-9452610D01*
X17263110Y-9419590D02*
X17230090Y-9452610D01*
X17268190Y-11134090D02*
X17301210Y-11167110D01*
X17301210Y-11134090D02*
X17268190Y-11167110D01*
X17268190Y-12175490D02*
X17301210Y-12208510D01*
X17301210Y-12175490D02*
X17268190Y-12208510D01*
X17344390Y-12099290D02*
X17377410Y-12132310D01*
X17377410Y-12099290D02*
X17344390Y-12132310D01*
X17369790Y-10873740D02*
X17402810Y-10906760D01*
X17402810Y-10873740D02*
X17369790Y-10906760D01*
X17380613Y-10308424D02*
X17413633Y-10341444D01*
X17413633Y-10308424D02*
X17380613Y-10341444D01*
X17395190Y-10168890D02*
X17428210Y-10201910D01*
X17428210Y-10168890D02*
X17395190Y-10201910D01*
X17401540Y-9845040D02*
X17434560Y-9878060D01*
X17434560Y-9845040D02*
X17401540Y-9878060D01*
X17401540Y-10003790D02*
X17434560Y-10036810D01*
X17434560Y-10003790D02*
X17401540Y-10036810D01*
X17401540Y-11362690D02*
X17434560Y-11395710D01*
X17434560Y-11362690D02*
X17401540Y-11395710D01*
X17420590Y-9432290D02*
X17453610Y-9465310D01*
X17453610Y-9432290D02*
X17420590Y-9465310D01*
X17436480Y-10459722D02*
X17469500Y-10492742D01*
X17469500Y-10459722D02*
X17436480Y-10492742D01*
X17465040Y-10873740D02*
X17498060Y-10906760D01*
X17498060Y-10873740D02*
X17465040Y-10906760D01*
X17468850Y-10316210D02*
X17501870Y-10349230D01*
X17501870Y-10316210D02*
X17468850Y-10349230D01*
X17471390Y-11267440D02*
X17504410Y-11300460D01*
X17504410Y-11267440D02*
X17471390Y-11300460D01*
X17471390Y-12175490D02*
X17504410Y-12208510D01*
X17504410Y-12175490D02*
X17471390Y-12208510D01*
X17490440Y-11965940D02*
X17523460Y-11998960D01*
X17523460Y-11965940D02*
X17490440Y-11998960D01*
X17496838Y-10791064D02*
X17529858Y-10824084D01*
X17529858Y-10791064D02*
X17496838Y-10824084D01*
X17533140Y-10113010D02*
X17566160Y-10146030D01*
X17566160Y-10113010D02*
X17533140Y-10146030D01*
X17571980Y-12176500D02*
X17605000Y-12209520D01*
X17605000Y-12176500D02*
X17571980Y-12209520D01*
X17572990Y-11134090D02*
X17606010Y-11167110D01*
X17606010Y-11134090D02*
X17572990Y-11167110D01*
X17572990Y-11616690D02*
X17606010Y-11649710D01*
X17606010Y-11616690D02*
X17572990Y-11649710D01*
X17598390Y-9940290D02*
X17631410Y-9973310D01*
X17631410Y-9940290D02*
X17598390Y-9973310D01*
X17655540Y-10010140D02*
X17688560Y-10043160D01*
X17688560Y-10010140D02*
X17655540Y-10043160D01*
X17668240Y-12181840D02*
X17701260Y-12214860D01*
X17701260Y-12181840D02*
X17668240Y-12214860D01*
X17674590Y-11134090D02*
X17707610Y-11167110D01*
X17707610Y-11134090D02*
X17674590Y-11167110D01*
X17687290Y-11832590D02*
X17720310Y-11865610D01*
X17720310Y-11832590D02*
X17687290Y-11865610D01*
X17699990Y-11515090D02*
X17733010Y-11548110D01*
X17733010Y-11515090D02*
X17699990Y-11548110D01*
X17712001Y-10473690D02*
X17745021Y-10506710D01*
X17745021Y-10473690D02*
X17712001Y-10506710D01*
X17776190Y-9508490D02*
X17809210Y-9541510D01*
X17809210Y-9508490D02*
X17776190Y-9541510D01*
X17776190Y-9825990D02*
X17809210Y-9859010D01*
X17809210Y-9825990D02*
X17776190Y-9859010D01*
X17776190Y-11134090D02*
X17809210Y-11167110D01*
X17809210Y-11134090D02*
X17776190Y-11167110D01*
X17776190Y-12175490D02*
X17809210Y-12208510D01*
X17809210Y-12175490D02*
X17776190Y-12208510D01*
X17801590Y-11654790D02*
X17834610Y-11687810D01*
X17834610Y-11654790D02*
X17801590Y-11687810D01*
X17858529Y-10053996D02*
X17891549Y-10087016D01*
X17891549Y-10053996D02*
X17858529Y-10087016D01*
X17877501Y-11127451D02*
X17910521Y-11160471D01*
X17910521Y-11127451D02*
X17877501Y-11160471D01*
X17877790Y-12175490D02*
X17910810Y-12208510D01*
X17910810Y-12175490D02*
X17877790Y-12208510D01*
X17890490Y-9514840D02*
X17923510Y-9547860D01*
X17923510Y-9514840D02*
X17890490Y-9547860D01*
X17928590Y-9991090D02*
X17961610Y-10024110D01*
X17961610Y-9991090D02*
X17928590Y-10024110D01*
X17941290Y-9591040D02*
X17974310Y-9624060D01*
X17974310Y-9591040D02*
X17941290Y-9624060D01*
X17959550Y-10290280D02*
X17992570Y-10323300D01*
X17992570Y-10290280D02*
X17959550Y-10323300D01*
X17979390Y-12175490D02*
X18012410Y-12208510D01*
X18012410Y-12175490D02*
X17979390Y-12208510D01*
X18023840Y-9972040D02*
X18056860Y-10005060D01*
X18056860Y-9972040D02*
X18023840Y-10005060D01*
X18036540Y-10480040D02*
X18069560Y-10513060D01*
X18069560Y-10480040D02*
X18036540Y-10513060D01*
X18046934Y-10628448D02*
X18079954Y-10661468D01*
X18079954Y-10628448D02*
X18046934Y-10661468D01*
X18049240Y-10899140D02*
X18082260Y-10932160D01*
X18082260Y-10899140D02*
X18049240Y-10932160D01*
X18088130Y-10302240D02*
X18121150Y-10335260D01*
X18121150Y-10302240D02*
X18088130Y-10335260D01*
X18099890Y-9718040D02*
X18132910Y-9751060D01*
X18132910Y-9718040D02*
X18099890Y-9751060D01*
X18106390Y-12365990D02*
X18139410Y-12399010D01*
X18139410Y-12365990D02*
X18106390Y-12399010D01*
X18110152Y-9991958D02*
X18143172Y-10024978D01*
X18143172Y-9991958D02*
X18110152Y-10024978D01*
X18157190Y-10918190D02*
X18190210Y-10951210D01*
X18190210Y-10918190D02*
X18157190Y-10951210D01*
X18157190Y-12264390D02*
X18190210Y-12297410D01*
X18190210Y-12264390D02*
X18157190Y-12297410D01*
X18176700Y-9838690D02*
X18209720Y-9871710D01*
X18209720Y-9838690D02*
X18176700Y-9871710D01*
X15734700Y-12862700D02*
G75*
G03X15734700Y-12862700I-37500J0D01*
G01*
X15669700Y-12840200D02*
X15669700Y-12885200D01*
X15724700Y-12840200D02*
X15724700Y-12885200D01*
X15669700Y-12885200D02*
G75*
G03X15724700Y-12885200I27500J0D01*
G01*
X15724700Y-12840200D02*
G75*
G03X15669700Y-12840200I-27500J0D01*
G01*
X16344300Y-12862700D02*
G75*
G03X16344300Y-12862700I-37500J0D01*
G01*
X16279300Y-12840200D02*
X16279300Y-12885200D01*
X16334300Y-12840200D02*
X16334300Y-12885200D01*
X16279300Y-12885200D02*
G75*
G03X16334300Y-12885200I27500J0D01*
G01*
X16334300Y-12840200D02*
G75*
G03X16279300Y-12840200I-27500J0D01*
G01*
D12*
X14033928Y-13518214D02*
X14033928Y-13218214D01*
X14105357Y-13218214D01*
X14148214Y-13232500D01*
X14176786Y-13261071D01*
X14191071Y-13289643D01*
X14205357Y-13346786D01*
X14205357Y-13389643D01*
X14191071Y-13446786D01*
X14176786Y-13475357D01*
X14148214Y-13503929D01*
X14105357Y-13518214D01*
X14033928Y-13518214D01*
X14333928Y-13518214D02*
X14333928Y-13318214D01*
X14333928Y-13375357D02*
X14348214Y-13346786D01*
X14362500Y-13332500D01*
X14391071Y-13318214D01*
X14419643Y-13318214D01*
X14519643Y-13518214D02*
X14519643Y-13318214D01*
X14519643Y-13218214D02*
X14505357Y-13232500D01*
X14519643Y-13246786D01*
X14533928Y-13232500D01*
X14519643Y-13218214D01*
X14519643Y-13246786D01*
X14705357Y-13518214D02*
X14676786Y-13503929D01*
X14662500Y-13475357D01*
X14662500Y-13218214D01*
X14862500Y-13518214D02*
X14833928Y-13503929D01*
X14819643Y-13475357D01*
X14819643Y-13218214D01*
X15205357Y-13518214D02*
X15205357Y-13218214D01*
X15305357Y-13432500D01*
X15405357Y-13218214D01*
X15405357Y-13518214D01*
X15676786Y-13518214D02*
X15676786Y-13361071D01*
X15662500Y-13332500D01*
X15633928Y-13318214D01*
X15576786Y-13318214D01*
X15548214Y-13332500D01*
X15676786Y-13503929D02*
X15648214Y-13518214D01*
X15576786Y-13518214D01*
X15548214Y-13503929D01*
X15533928Y-13475357D01*
X15533928Y-13446786D01*
X15548214Y-13418214D01*
X15576786Y-13403929D01*
X15648214Y-13403929D01*
X15676786Y-13389643D01*
X15819643Y-13318214D02*
X15819643Y-13618214D01*
X15819643Y-13332500D02*
X15848214Y-13318214D01*
X15905357Y-13318214D01*
X15933928Y-13332500D01*
X15948214Y-13346786D01*
X15962500Y-13375357D01*
X15962500Y-13461071D01*
X15948214Y-13489643D01*
X15933928Y-13503929D01*
X15905357Y-13518214D01*
X15848214Y-13518214D01*
X15819643Y-13503929D01*
X16091071Y-13489643D02*
X16105357Y-13503929D01*
X16091071Y-13518214D01*
X16076786Y-13503929D01*
X16091071Y-13489643D01*
X16091071Y-13518214D01*
X16091071Y-13332500D02*
X16105357Y-13346786D01*
X16091071Y-13361071D01*
X16076786Y-13346786D01*
X16091071Y-13332500D01*
X16091071Y-13361071D01*
X13714480Y-13995990D02*
X13747500Y-14029010D01*
X13747500Y-13995990D02*
X13714480Y-14029010D01*
X14091071Y-13848214D02*
X14119643Y-13848214D01*
X14148214Y-13862500D01*
X14162500Y-13876786D01*
X14176786Y-13905357D01*
X14191071Y-13962500D01*
X14191071Y-14033929D01*
X14176786Y-14091071D01*
X14162500Y-14119643D01*
X14148214Y-14133929D01*
X14119643Y-14148214D01*
X14091071Y-14148214D01*
X14062500Y-14133929D01*
X14048214Y-14119643D01*
X14033928Y-14091071D01*
X14019643Y-14033929D01*
X14019643Y-13962500D01*
X14033928Y-13905357D01*
X14048214Y-13876786D01*
X14062500Y-13862500D01*
X14091071Y-13848214D01*
X14319643Y-14119643D02*
X14333928Y-14133929D01*
X14319643Y-14148214D01*
X14305357Y-14133929D01*
X14319643Y-14119643D01*
X14319643Y-14148214D01*
X14433928Y-13848214D02*
X14619643Y-13848214D01*
X14519643Y-13962500D01*
X14562500Y-13962500D01*
X14591071Y-13976786D01*
X14605357Y-13991071D01*
X14619643Y-14019643D01*
X14619643Y-14091071D01*
X14605357Y-14119643D01*
X14591071Y-14133929D01*
X14562500Y-14148214D01*
X14476786Y-14148214D01*
X14448214Y-14133929D01*
X14433928Y-14119643D01*
X14719643Y-13848214D02*
X14905357Y-13848214D01*
X14805357Y-13962500D01*
X14848214Y-13962500D01*
X14876786Y-13976786D01*
X14891071Y-13991071D01*
X14905357Y-14019643D01*
X14905357Y-14091071D01*
X14891071Y-14119643D01*
X14876786Y-14133929D01*
X14848214Y-14148214D01*
X14762500Y-14148214D01*
X14733928Y-14133929D01*
X14719643Y-14119643D01*
X15033928Y-14148214D02*
X15033928Y-13948214D01*
X15033928Y-13976786D02*
X15048214Y-13962500D01*
X15076786Y-13948214D01*
X15119643Y-13948214D01*
X15148214Y-13962500D01*
X15162500Y-13991071D01*
X15162500Y-14148214D01*
X15162500Y-13991071D02*
X15176786Y-13962500D01*
X15205357Y-13948214D01*
X15248214Y-13948214D01*
X15276786Y-13962500D01*
X15291071Y-13991071D01*
X15291071Y-14148214D01*
X15433928Y-14148214D02*
X15433928Y-13948214D01*
X15433928Y-13976786D02*
X15448214Y-13962500D01*
X15476786Y-13948214D01*
X15519643Y-13948214D01*
X15548214Y-13962500D01*
X15562500Y-13991071D01*
X15562500Y-14148214D01*
X15562500Y-13991071D02*
X15576786Y-13962500D01*
X15605357Y-13948214D01*
X15648214Y-13948214D01*
X15676786Y-13962500D01*
X15691071Y-13991071D01*
X15691071Y-14148214D01*
X16276786Y-13833929D02*
X16019643Y-14219643D01*
X16662500Y-13848214D02*
X16691071Y-13848214D01*
X16719643Y-13862500D01*
X16733928Y-13876786D01*
X16748214Y-13905357D01*
X16762500Y-13962500D01*
X16762500Y-14033929D01*
X16748214Y-14091071D01*
X16733928Y-14119643D01*
X16719643Y-14133929D01*
X16691071Y-14148214D01*
X16662500Y-14148214D01*
X16633928Y-14133929D01*
X16619643Y-14119643D01*
X16605357Y-14091071D01*
X16591071Y-14033929D01*
X16591071Y-13962500D01*
X16605357Y-13905357D01*
X16619643Y-13876786D01*
X16633928Y-13862500D01*
X16662500Y-13848214D01*
X16891071Y-14119643D02*
X16905357Y-14133929D01*
X16891071Y-14148214D01*
X16876786Y-14133929D01*
X16891071Y-14119643D01*
X16891071Y-14148214D01*
X17091071Y-13848214D02*
X17119643Y-13848214D01*
X17148214Y-13862500D01*
X17162500Y-13876786D01*
X17176786Y-13905357D01*
X17191071Y-13962500D01*
X17191071Y-14033929D01*
X17176786Y-14091071D01*
X17162500Y-14119643D01*
X17148214Y-14133929D01*
X17119643Y-14148214D01*
X17091071Y-14148214D01*
X17062500Y-14133929D01*
X17048214Y-14119643D01*
X17033928Y-14091071D01*
X17019643Y-14033929D01*
X17019643Y-13962500D01*
X17033928Y-13905357D01*
X17048214Y-13876786D01*
X17062500Y-13862500D01*
X17091071Y-13848214D01*
X17476786Y-14148214D02*
X17305357Y-14148214D01*
X17391071Y-14148214D02*
X17391071Y-13848214D01*
X17362500Y-13891071D01*
X17333928Y-13919643D01*
X17305357Y-13933929D01*
X17576786Y-13848214D02*
X17762500Y-13848214D01*
X17662500Y-13962500D01*
X17705357Y-13962500D01*
X17733928Y-13976786D01*
X17748214Y-13991071D01*
X17762500Y-14019643D01*
X17762500Y-14091071D01*
X17748214Y-14119643D01*
X17733928Y-14133929D01*
X17705357Y-14148214D01*
X17619643Y-14148214D01*
X17591071Y-14133929D01*
X17576786Y-14119643D01*
X17876786Y-13848214D02*
X17876786Y-13905357D01*
X17991071Y-13848214D02*
X17991071Y-13905357D01*
X18433928Y-14262500D02*
X18419643Y-14248214D01*
X18391071Y-14205357D01*
X18376786Y-14176786D01*
X18362500Y-14133929D01*
X18348214Y-14062500D01*
X18348214Y-14005357D01*
X18362500Y-13933929D01*
X18376786Y-13891071D01*
X18391071Y-13862500D01*
X18419643Y-13819643D01*
X18433928Y-13805357D01*
X18705357Y-14148214D02*
X18533928Y-14148214D01*
X18619643Y-14148214D02*
X18619643Y-13848214D01*
X18591071Y-13891071D01*
X18562500Y-13919643D01*
X18533928Y-13933929D01*
X18848214Y-14148214D02*
X18905357Y-14148214D01*
X18933928Y-14133929D01*
X18948214Y-14119643D01*
X18976786Y-14076786D01*
X18991071Y-14019643D01*
X18991071Y-13905357D01*
X18976786Y-13876786D01*
X18962500Y-13862500D01*
X18933928Y-13848214D01*
X18876786Y-13848214D01*
X18848214Y-13862500D01*
X18833928Y-13876786D01*
X18819643Y-13905357D01*
X18819643Y-13976786D01*
X18833928Y-14005357D01*
X18848214Y-14019643D01*
X18876786Y-14033929D01*
X18933928Y-14033929D01*
X18962500Y-14019643D01*
X18976786Y-14005357D01*
X18991071Y-13976786D01*
X19091071Y-13848214D02*
X19276786Y-13848214D01*
X19176786Y-13962500D01*
X19219643Y-13962500D01*
X19248214Y-13976786D01*
X19262500Y-13991071D01*
X19276786Y-14019643D01*
X19276786Y-14091071D01*
X19262500Y-14119643D01*
X19248214Y-14133929D01*
X19219643Y-14148214D01*
X19133928Y-14148214D01*
X19105357Y-14133929D01*
X19091071Y-14119643D01*
X19633928Y-14148214D02*
X19633928Y-13848214D01*
X19762500Y-14148214D02*
X19762500Y-13991071D01*
X19748214Y-13962500D01*
X19719643Y-13948214D01*
X19676786Y-13948214D01*
X19648214Y-13962500D01*
X19633928Y-13976786D01*
X19948214Y-14148214D02*
X19919643Y-14133929D01*
X19905357Y-14119643D01*
X19891071Y-14091071D01*
X19891071Y-14005357D01*
X19905357Y-13976786D01*
X19919643Y-13962500D01*
X19948214Y-13948214D01*
X19991071Y-13948214D01*
X20019643Y-13962500D01*
X20033928Y-13976786D01*
X20048214Y-14005357D01*
X20048214Y-14091071D01*
X20033928Y-14119643D01*
X20019643Y-14133929D01*
X19991071Y-14148214D01*
X19948214Y-14148214D01*
X20219643Y-14148214D02*
X20191071Y-14133929D01*
X20176786Y-14105357D01*
X20176786Y-13848214D01*
X20448214Y-14133929D02*
X20419643Y-14148214D01*
X20362500Y-14148214D01*
X20333928Y-14133929D01*
X20319643Y-14105357D01*
X20319643Y-13991071D01*
X20333928Y-13962500D01*
X20362500Y-13948214D01*
X20419643Y-13948214D01*
X20448214Y-13962500D01*
X20462500Y-13991071D01*
X20462500Y-14019643D01*
X20319643Y-14048214D01*
X20576786Y-14133929D02*
X20605357Y-14148214D01*
X20662500Y-14148214D01*
X20691071Y-14133929D01*
X20705357Y-14105357D01*
X20705357Y-14091071D01*
X20691071Y-14062500D01*
X20662500Y-14048214D01*
X20619643Y-14048214D01*
X20591071Y-14033929D01*
X20576786Y-14005357D01*
X20576786Y-13991071D01*
X20591071Y-13962500D01*
X20619643Y-13948214D01*
X20662500Y-13948214D01*
X20691071Y-13962500D01*
X20805357Y-14262500D02*
X20819643Y-14248214D01*
X20848214Y-14205357D01*
X20862500Y-14176786D01*
X20876786Y-14133929D01*
X20891071Y-14062500D01*
X20891071Y-14005357D01*
X20876786Y-13933929D01*
X20862500Y-13891071D01*
X20848214Y-13862500D01*
X20819643Y-13819643D01*
X20805357Y-13805357D01*
X13747500Y-14408500D02*
G75*
G03X13747500Y-14408500I-37500J0D01*
G01*
X14091071Y-14244214D02*
X14119643Y-14244214D01*
X14148214Y-14258500D01*
X14162500Y-14272786D01*
X14176786Y-14301357D01*
X14191071Y-14358500D01*
X14191071Y-14429929D01*
X14176786Y-14487071D01*
X14162500Y-14515643D01*
X14148214Y-14529929D01*
X14119643Y-14544214D01*
X14091071Y-14544214D01*
X14062500Y-14529929D01*
X14048214Y-14515643D01*
X14033928Y-14487071D01*
X14019643Y-14429929D01*
X14019643Y-14358500D01*
X14033928Y-14301357D01*
X14048214Y-14272786D01*
X14062500Y-14258500D01*
X14091071Y-14244214D01*
X14319643Y-14515643D02*
X14333928Y-14529929D01*
X14319643Y-14544214D01*
X14305357Y-14529929D01*
X14319643Y-14515643D01*
X14319643Y-14544214D01*
X14433928Y-14244214D02*
X14633928Y-14244214D01*
X14505357Y-14544214D01*
X14891071Y-14244214D02*
X14748214Y-14244214D01*
X14733928Y-14387071D01*
X14748214Y-14372786D01*
X14776786Y-14358500D01*
X14848214Y-14358500D01*
X14876786Y-14372786D01*
X14891071Y-14387071D01*
X14905357Y-14415643D01*
X14905357Y-14487071D01*
X14891071Y-14515643D01*
X14876786Y-14529929D01*
X14848214Y-14544214D01*
X14776786Y-14544214D01*
X14748214Y-14529929D01*
X14733928Y-14515643D01*
X15033928Y-14544214D02*
X15033928Y-14344214D01*
X15033928Y-14372786D02*
X15048214Y-14358500D01*
X15076786Y-14344214D01*
X15119643Y-14344214D01*
X15148214Y-14358500D01*
X15162500Y-14387071D01*
X15162500Y-14544214D01*
X15162500Y-14387071D02*
X15176786Y-14358500D01*
X15205357Y-14344214D01*
X15248214Y-14344214D01*
X15276786Y-14358500D01*
X15291071Y-14387071D01*
X15291071Y-14544214D01*
X15433928Y-14544214D02*
X15433928Y-14344214D01*
X15433928Y-14372786D02*
X15448214Y-14358500D01*
X15476786Y-14344214D01*
X15519643Y-14344214D01*
X15548214Y-14358500D01*
X15562500Y-14387071D01*
X15562500Y-14544214D01*
X15562500Y-14387071D02*
X15576786Y-14358500D01*
X15605357Y-14344214D01*
X15648214Y-14344214D01*
X15676786Y-14358500D01*
X15691071Y-14387071D01*
X15691071Y-14544214D01*
X16276786Y-14229929D02*
X16019643Y-14615643D01*
X16662500Y-14244214D02*
X16691071Y-14244214D01*
X16719643Y-14258500D01*
X16733928Y-14272786D01*
X16748214Y-14301357D01*
X16762500Y-14358500D01*
X16762500Y-14429929D01*
X16748214Y-14487071D01*
X16733928Y-14515643D01*
X16719643Y-14529929D01*
X16691071Y-14544214D01*
X16662500Y-14544214D01*
X16633928Y-14529929D01*
X16619643Y-14515643D01*
X16605357Y-14487071D01*
X16591071Y-14429929D01*
X16591071Y-14358500D01*
X16605357Y-14301357D01*
X16619643Y-14272786D01*
X16633928Y-14258500D01*
X16662500Y-14244214D01*
X16891071Y-14515643D02*
X16905357Y-14529929D01*
X16891071Y-14544214D01*
X16876786Y-14529929D01*
X16891071Y-14515643D01*
X16891071Y-14544214D01*
X17091071Y-14244214D02*
X17119643Y-14244214D01*
X17148214Y-14258500D01*
X17162500Y-14272786D01*
X17176786Y-14301357D01*
X17191071Y-14358500D01*
X17191071Y-14429929D01*
X17176786Y-14487071D01*
X17162500Y-14515643D01*
X17148214Y-14529929D01*
X17119643Y-14544214D01*
X17091071Y-14544214D01*
X17062500Y-14529929D01*
X17048214Y-14515643D01*
X17033928Y-14487071D01*
X17019643Y-14429929D01*
X17019643Y-14358500D01*
X17033928Y-14301357D01*
X17048214Y-14272786D01*
X17062500Y-14258500D01*
X17091071Y-14244214D01*
X17291071Y-14244214D02*
X17476786Y-14244214D01*
X17376786Y-14358500D01*
X17419643Y-14358500D01*
X17448214Y-14372786D01*
X17462500Y-14387071D01*
X17476786Y-14415643D01*
X17476786Y-14487071D01*
X17462500Y-14515643D01*
X17448214Y-14529929D01*
X17419643Y-14544214D01*
X17333928Y-14544214D01*
X17305357Y-14529929D01*
X17291071Y-14515643D01*
X17662500Y-14244214D02*
X17691071Y-14244214D01*
X17719643Y-14258500D01*
X17733928Y-14272786D01*
X17748214Y-14301357D01*
X17762500Y-14358500D01*
X17762500Y-14429929D01*
X17748214Y-14487071D01*
X17733928Y-14515643D01*
X17719643Y-14529929D01*
X17691071Y-14544214D01*
X17662500Y-14544214D01*
X17633928Y-14529929D01*
X17619643Y-14515643D01*
X17605357Y-14487071D01*
X17591071Y-14429929D01*
X17591071Y-14358500D01*
X17605357Y-14301357D01*
X17619643Y-14272786D01*
X17633928Y-14258500D01*
X17662500Y-14244214D01*
X17876786Y-14244214D02*
X17876786Y-14301357D01*
X17991071Y-14244214D02*
X17991071Y-14301357D01*
X18433928Y-14658500D02*
X18419643Y-14644214D01*
X18391071Y-14601357D01*
X18376786Y-14572786D01*
X18362500Y-14529929D01*
X18348214Y-14458500D01*
X18348214Y-14401357D01*
X18362500Y-14329929D01*
X18376786Y-14287071D01*
X18391071Y-14258500D01*
X18419643Y-14215643D01*
X18433928Y-14201357D01*
X18605357Y-14244214D02*
X18633928Y-14244214D01*
X18662500Y-14258500D01*
X18676786Y-14272786D01*
X18691071Y-14301357D01*
X18705357Y-14358500D01*
X18705357Y-14429929D01*
X18691071Y-14487071D01*
X18676786Y-14515643D01*
X18662500Y-14529929D01*
X18633928Y-14544214D01*
X18605357Y-14544214D01*
X18576786Y-14529929D01*
X18562500Y-14515643D01*
X18548214Y-14487071D01*
X18533928Y-14429929D01*
X18533928Y-14358500D01*
X18548214Y-14301357D01*
X18562500Y-14272786D01*
X18576786Y-14258500D01*
X18605357Y-14244214D01*
X19062500Y-14544214D02*
X19062500Y-14244214D01*
X19191071Y-14544214D02*
X19191071Y-14387071D01*
X19176786Y-14358500D01*
X19148214Y-14344214D01*
X19105357Y-14344214D01*
X19076786Y-14358500D01*
X19062500Y-14372786D01*
X19376786Y-14544214D02*
X19348214Y-14529929D01*
X19333928Y-14515643D01*
X19319643Y-14487071D01*
X19319643Y-14401357D01*
X19333928Y-14372786D01*
X19348214Y-14358500D01*
X19376786Y-14344214D01*
X19419643Y-14344214D01*
X19448214Y-14358500D01*
X19462500Y-14372786D01*
X19476786Y-14401357D01*
X19476786Y-14487071D01*
X19462500Y-14515643D01*
X19448214Y-14529929D01*
X19419643Y-14544214D01*
X19376786Y-14544214D01*
X19648214Y-14544214D02*
X19619643Y-14529929D01*
X19605357Y-14501357D01*
X19605357Y-14244214D01*
X19876786Y-14529929D02*
X19848214Y-14544214D01*
X19791071Y-14544214D01*
X19762500Y-14529929D01*
X19748214Y-14501357D01*
X19748214Y-14387071D01*
X19762500Y-14358500D01*
X19791071Y-14344214D01*
X19848214Y-14344214D01*
X19876786Y-14358500D01*
X19891071Y-14387071D01*
X19891071Y-14415643D01*
X19748214Y-14444214D01*
X20005357Y-14529929D02*
X20033928Y-14544214D01*
X20091071Y-14544214D01*
X20119643Y-14529929D01*
X20133928Y-14501357D01*
X20133928Y-14487071D01*
X20119643Y-14458500D01*
X20091071Y-14444214D01*
X20048214Y-14444214D01*
X20019643Y-14429929D01*
X20005357Y-14401357D01*
X20005357Y-14387071D01*
X20019643Y-14358500D01*
X20048214Y-14344214D01*
X20091071Y-14344214D01*
X20119643Y-14358500D01*
X20491071Y-14429929D02*
X20719643Y-14429929D01*
X20605357Y-14544214D02*
X20605357Y-14315643D01*
X21076786Y-14272786D02*
X21091071Y-14258500D01*
X21119643Y-14244214D01*
X21191071Y-14244214D01*
X21219643Y-14258500D01*
X21233928Y-14272786D01*
X21248214Y-14301357D01*
X21248214Y-14329929D01*
X21233928Y-14372786D01*
X21062500Y-14544214D01*
X21248214Y-14544214D01*
X21591071Y-14529929D02*
X21619643Y-14544214D01*
X21676786Y-14544214D01*
X21705357Y-14529929D01*
X21719643Y-14501357D01*
X21719643Y-14487071D01*
X21705357Y-14458500D01*
X21676786Y-14444214D01*
X21633928Y-14444214D01*
X21605357Y-14429929D01*
X21591071Y-14401357D01*
X21591071Y-14387071D01*
X21605357Y-14358500D01*
X21633928Y-14344214D01*
X21676786Y-14344214D01*
X21705357Y-14358500D01*
X21891071Y-14544214D02*
X21862500Y-14529929D01*
X21848214Y-14501357D01*
X21848214Y-14244214D01*
X22048214Y-14544214D02*
X22019643Y-14529929D01*
X22005357Y-14515643D01*
X21991071Y-14487071D01*
X21991071Y-14401357D01*
X22005357Y-14372786D01*
X22019643Y-14358500D01*
X22048214Y-14344214D01*
X22091071Y-14344214D01*
X22119643Y-14358500D01*
X22133928Y-14372786D01*
X22148214Y-14401357D01*
X22148214Y-14487071D01*
X22133928Y-14515643D01*
X22119643Y-14529929D01*
X22091071Y-14544214D01*
X22048214Y-14544214D01*
X22233928Y-14344214D02*
X22348214Y-14344214D01*
X22276786Y-14244214D02*
X22276786Y-14501357D01*
X22291071Y-14529929D01*
X22319643Y-14544214D01*
X22348214Y-14544214D01*
X22433928Y-14529929D02*
X22462500Y-14544214D01*
X22519643Y-14544214D01*
X22548214Y-14529929D01*
X22562500Y-14501357D01*
X22562500Y-14487071D01*
X22548214Y-14458500D01*
X22519643Y-14444214D01*
X22476786Y-14444214D01*
X22448214Y-14429929D01*
X22433928Y-14401357D01*
X22433928Y-14387071D01*
X22448214Y-14358500D01*
X22476786Y-14344214D01*
X22519643Y-14344214D01*
X22548214Y-14358500D01*
X22662500Y-14658500D02*
X22676786Y-14644214D01*
X22705357Y-14601357D01*
X22719643Y-14572786D01*
X22733928Y-14529929D01*
X22748214Y-14458500D01*
X22748214Y-14401357D01*
X22733928Y-14329929D01*
X22719643Y-14287071D01*
X22705357Y-14258500D01*
X22676786Y-14215643D01*
X22662500Y-14201357D01*
M02*
