%TF.GenerationSoftware,KiCad,Pcbnew,5.1.5+dfsg1-2~bpo10+1*%
%TF.CreationDate,Date%
%TF.ProjectId,osw,6f73772e-6b69-4636-9164-5f7063625858,3.0*%
%TF.SameCoordinates,Original*%
%TF.FileFunction,Plated,1,4,PTH,Mixed*%
%TF.FilePolarity,Positive*%
%FSLAX46Y46*%
G04 Gerber Fmt 4.6, Leading zero omitted, Abs format (unit mm)*
G04 Created by KiCad*
%MOMM*%
%LPD*%
G04 APERTURE LIST*
%TA.AperFunction,ViaDrill*%
%ADD10C,0.330200*%
%TD*%
G04 aperture for slot hole*
%TA.AperFunction,ComponentDrill*%
%ADD11C,0.750000*%
%TD*%
G04 APERTURE END LIST*
D10*
X138684000Y-99060000D03*
X138684000Y-105537000D03*
X138684000Y-107823000D03*
X138684000Y-110871000D03*
X138811000Y-100330000D03*
X138811000Y-102743000D03*
X138811000Y-114173000D03*
X138836400Y-97586800D03*
X138938000Y-117602000D03*
X140589000Y-100838000D03*
X140716000Y-118364000D03*
X141732000Y-120777000D03*
X142240000Y-117475000D03*
X142367000Y-118872000D03*
X142621000Y-114554000D03*
X143764000Y-104140000D03*
X144145000Y-101346000D03*
X145097500Y-98361500D03*
X145288000Y-102362000D03*
X145478500Y-121475500D03*
X145930500Y-117912000D03*
X146875500Y-109413697D03*
X146875500Y-110299500D03*
X146939000Y-105600500D03*
X146939000Y-107505500D03*
X146939000Y-120396000D03*
X146989700Y-96418400D03*
X147510500Y-113093500D03*
X147574000Y-108204000D03*
X147599460Y-108903280D03*
X147793590Y-105367430D03*
X147828000Y-94869000D03*
X147828000Y-99949000D03*
X147828000Y-125222000D03*
X148336000Y-116967000D03*
X148666585Y-118250085D03*
X149225000Y-98044000D03*
X149479000Y-100965000D03*
X150114000Y-117856000D03*
X150368000Y-119380000D03*
X151282400Y-97129600D03*
X151320500Y-103378000D03*
X151320500Y-104457500D03*
X151320500Y-105600500D03*
X151320500Y-106743500D03*
X151320500Y-107823000D03*
X151320500Y-108966000D03*
X151320500Y-110623394D03*
X151320500Y-111509197D03*
X151320500Y-112395000D03*
X151511000Y-117769100D03*
X151511000Y-120538801D03*
X151765000Y-95377000D03*
X152273000Y-123952000D03*
X152527000Y-115570000D03*
X153146001Y-122166999D03*
X153352500Y-120713500D03*
X153797000Y-119253000D03*
X153924000Y-90106500D03*
X153924000Y-90932000D03*
X153924000Y-94234000D03*
X153924000Y-95250000D03*
X153924000Y-97282000D03*
X153924000Y-98234500D03*
X154047216Y-92153192D03*
X154051000Y-129794000D03*
X154115686Y-93036344D03*
X154432000Y-106870500D03*
X154559000Y-122682000D03*
X154940000Y-117094000D03*
X155067000Y-129794000D03*
X155087915Y-113050915D03*
X155194000Y-127889000D03*
X155384500Y-125031500D03*
X155575000Y-126365000D03*
X155702000Y-120015000D03*
X155854400Y-103377999D03*
X155859900Y-110623393D03*
X156156599Y-104701401D03*
X156210000Y-108077000D03*
X156210000Y-121539000D03*
X156334170Y-118241924D03*
X156337000Y-122936000D03*
X156565600Y-100279200D03*
X156565600Y-101295200D03*
X157988000Y-104038401D03*
X157988000Y-115379500D03*
X158359016Y-118580180D03*
X159004000Y-104038400D03*
X159494965Y-120746635D03*
X159774713Y-114037287D03*
X161290000Y-124714000D03*
X162052000Y-104648000D03*
X162179000Y-120777000D03*
X162814000Y-124587000D03*
X162966400Y-110642400D03*
X162966400Y-112148900D03*
X163372800Y-99636300D03*
X163584165Y-105291165D03*
X163696799Y-103054001D03*
X163893500Y-108966000D03*
X164020500Y-122999500D03*
X164211000Y-126111000D03*
X164973000Y-129794000D03*
X165036500Y-122872500D03*
X165481000Y-127762000D03*
X165506400Y-114147600D03*
X165811200Y-106077600D03*
X165989000Y-129794000D03*
X166014400Y-108615900D03*
X166052500Y-90106500D03*
X166052500Y-90868500D03*
X166052500Y-92138500D03*
X166116000Y-98298000D03*
X166116000Y-99250500D03*
X166116000Y-112649000D03*
X166497000Y-96901000D03*
X166724090Y-118554500D03*
X166751000Y-107823000D03*
X166751000Y-111506000D03*
X166751000Y-121856500D03*
X167259000Y-104902000D03*
X167295495Y-103744695D03*
X167640000Y-95123000D03*
X167767000Y-111506000D03*
X168211500Y-124841000D03*
X168783000Y-109029500D03*
X169058651Y-121203920D03*
X169519950Y-121960126D03*
X169799000Y-109029500D03*
X170383200Y-103327200D03*
X170434000Y-124841000D03*
X170815000Y-111506000D03*
X170815000Y-121920000D03*
X171043600Y-100228400D03*
X171043600Y-101803200D03*
X171069000Y-95758000D03*
X171386500Y-106108500D03*
X171805600Y-109067600D03*
X171831000Y-121920000D03*
X172466000Y-94361000D03*
X172847000Y-111506000D03*
X172847000Y-121920000D03*
X173609000Y-121158000D03*
X173863000Y-108902500D03*
X173971226Y-103249344D03*
X174117000Y-101854000D03*
X174180500Y-98615500D03*
X174180500Y-100203000D03*
X174180500Y-113792000D03*
X174371000Y-94488000D03*
X174529903Y-104762323D03*
X174815500Y-108902500D03*
X174853600Y-103327200D03*
X174879000Y-112839500D03*
X174879000Y-121920000D03*
X175069500Y-119824500D03*
X175133484Y-108075740D03*
X175496500Y-101295200D03*
X175884901Y-121930099D03*
X175895000Y-111506000D03*
X175895000Y-116332000D03*
X176149000Y-99568000D03*
X176720500Y-100266500D03*
X176847500Y-121983500D03*
X176911000Y-111506000D03*
X177038000Y-118491000D03*
X177165000Y-115316000D03*
X177285110Y-104902000D03*
X177927000Y-95250000D03*
X177927000Y-98425000D03*
X177927000Y-111506000D03*
X177927000Y-121920000D03*
X178181000Y-116713000D03*
X178750394Y-100705063D03*
X178940111Y-111439611D03*
X178943000Y-121920000D03*
X179070000Y-95313500D03*
X179451000Y-100076000D03*
X179578000Y-96075500D03*
X179760600Y-103067902D03*
X179959000Y-121920000D03*
X180403500Y-99885500D03*
X180530500Y-104965500D03*
X180634441Y-106449579D03*
X180657500Y-109156500D03*
X181046400Y-103187500D03*
X181164000Y-97345500D03*
X181229000Y-123825000D03*
X181266618Y-100084681D03*
X181737000Y-109347000D03*
X181737000Y-122809000D03*
X181932100Y-98552000D03*
D11*
%TO.C,U5*%
X156972000Y-128852000D02*
X156972000Y-128402000D01*
X163068000Y-128852000D02*
X163068000Y-128402000D01*
M02*
