%FSLAX45Y45*%
G04 Gerber Fmt 4.5, Leading zero omitted, Abs format (unit mm)*
G04 Created by KiCad*
%MOMM*%
%LPD*%
G04 APERTURE LIST*
%TA.AperFunction,Profile*%
%ADD10C,0.050000*%
%TD*%
%ADD11C,0.200000*%
%ADD12C,0.300000*%
G04 APERTURE END LIST*
D10*
X15350000Y-13050000D02*
X14450000Y-12450000D01*
X17550000Y-12450000D02*
X16650000Y-13050000D01*
X16650000Y-8950000D02*
X17270000Y-9390000D01*
X15350000Y-8950000D02*
X14690000Y-9390000D01*
X16000000Y-8950000D02*
X15350000Y-8950000D01*
X16000000Y-13050000D02*
X15350000Y-13050000D01*
X16650000Y-13050000D02*
X16000000Y-13050000D01*
X16000000Y-8950000D02*
X16650000Y-8950000D01*
X18250000Y-12450000D02*
X17550000Y-12450000D01*
X18250000Y-9390000D02*
X17270000Y-9390000D01*
X13750000Y-9390000D02*
X14690000Y-9390000D01*
X13750000Y-12450000D02*
X14450000Y-12450000D01*
X13750000Y-11000000D02*
X13750000Y-12450000D01*
X13750000Y-11000000D02*
X13750000Y-9390000D01*
X18250000Y-11000000D02*
X18250000Y-12450000D01*
X18250000Y-11000000D02*
X18250000Y-9390000D01*
D11*
X13792500Y-9432500D02*
X13832500Y-9472500D01*
X13832500Y-9432500D02*
X13792500Y-9472500D01*
X13797600Y-9530400D02*
X13837600Y-9570400D01*
X13837600Y-9530400D02*
X13797600Y-9570400D01*
X13801410Y-11470960D02*
X13841410Y-11510960D01*
X13841410Y-11470960D02*
X13801410Y-11510960D01*
X13802680Y-9968550D02*
X13842680Y-10008550D01*
X13842680Y-9968550D02*
X13802680Y-10008550D01*
X13802680Y-10104786D02*
X13842680Y-10144786D01*
X13842680Y-10104786D02*
X13802680Y-10144786D01*
X13802680Y-10241023D02*
X13842680Y-10281023D01*
X13842680Y-10241023D02*
X13802680Y-10281023D01*
X13802680Y-10377259D02*
X13842680Y-10417259D01*
X13842680Y-10377259D02*
X13802680Y-10417259D01*
X13802680Y-10513495D02*
X13842680Y-10553495D01*
X13842680Y-10513495D02*
X13802680Y-10553495D01*
X13802680Y-10649732D02*
X13842680Y-10689732D01*
X13842680Y-10649732D02*
X13802680Y-10689732D01*
X13802680Y-10785968D02*
X13842680Y-10825968D01*
X13842680Y-10785968D02*
X13802680Y-10825968D01*
X13802680Y-10922204D02*
X13842680Y-10962204D01*
X13842680Y-10922204D02*
X13802680Y-10962204D01*
X13802680Y-11058440D02*
X13842680Y-11098440D01*
X13842680Y-11058440D02*
X13802680Y-11098440D01*
X13802680Y-11194677D02*
X13842680Y-11234677D01*
X13842680Y-11194677D02*
X13802680Y-11234677D01*
X13802680Y-11330913D02*
X13842680Y-11370913D01*
X13842680Y-11330913D02*
X13802680Y-11370913D01*
X13802680Y-11600500D02*
X13842680Y-11640500D01*
X13842680Y-11600500D02*
X13802680Y-11640500D01*
X13817920Y-11879900D02*
X13857920Y-11919900D01*
X13857920Y-11879900D02*
X13817920Y-11919900D01*
X13817920Y-12032300D02*
X13857920Y-12072300D01*
X13857920Y-12032300D02*
X13817920Y-12072300D01*
X13817920Y-12179620D02*
X13857920Y-12219620D01*
X13857920Y-12179620D02*
X13817920Y-12219620D01*
X13817920Y-12329480D02*
X13857920Y-12369480D01*
X13857920Y-12329480D02*
X13817920Y-12369480D01*
X13878880Y-10735630D02*
X13918880Y-10775630D01*
X13918880Y-10735630D02*
X13878880Y-10775630D01*
X13894120Y-9433880D02*
X13934120Y-9473880D01*
X13934120Y-9433880D02*
X13894120Y-9473880D01*
X13917946Y-11631505D02*
X13957946Y-11671505D01*
X13957946Y-11631505D02*
X13917946Y-11671505D01*
X13961430Y-10818180D02*
X14001430Y-10858180D01*
X14001430Y-10818180D02*
X13961430Y-10858180D01*
X14042710Y-10895650D02*
X14082710Y-10935650D01*
X14082710Y-10895650D02*
X14042710Y-10935650D01*
X14092114Y-11879774D02*
X14132114Y-11919774D01*
X14132114Y-11879774D02*
X14092114Y-11919774D01*
X14102400Y-11539540D02*
X14142400Y-11579540D01*
X14142400Y-11539540D02*
X14102400Y-11579540D01*
X14113830Y-9433880D02*
X14153830Y-9473880D01*
X14153830Y-9433880D02*
X14113830Y-9473880D01*
X14118910Y-10966770D02*
X14158910Y-11006770D01*
X14158910Y-10966770D02*
X14118910Y-11006770D01*
X14135420Y-10401620D02*
X14175420Y-10441620D01*
X14175420Y-10401620D02*
X14135420Y-10441620D01*
X14141770Y-10124760D02*
X14181770Y-10164760D01*
X14181770Y-10124760D02*
X14141770Y-10164760D01*
X14144310Y-10522270D02*
X14184310Y-10562270D01*
X14184310Y-10522270D02*
X14144310Y-10562270D01*
X14155740Y-12184700D02*
X14195740Y-12224700D01*
X14195740Y-12184700D02*
X14155740Y-12224700D01*
X14198920Y-11707180D02*
X14238920Y-11747180D01*
X14238920Y-11707180D02*
X14198920Y-11747180D01*
X14217970Y-9430070D02*
X14257970Y-9470070D01*
X14257970Y-9430070D02*
X14217970Y-9470070D01*
X14235750Y-10616250D02*
X14275750Y-10656250D01*
X14275750Y-10616250D02*
X14235750Y-10656250D01*
X14239560Y-9903780D02*
X14279560Y-9943780D01*
X14279560Y-9903780D02*
X14239560Y-9943780D01*
X14309410Y-11166160D02*
X14349410Y-11206160D01*
X14349410Y-11166160D02*
X14309410Y-11206160D01*
X14318300Y-10689910D02*
X14358300Y-10729910D01*
X14358300Y-10689910D02*
X14318300Y-10729910D01*
X14320840Y-9809800D02*
X14360840Y-9849800D01*
X14360840Y-9809800D02*
X14320840Y-9849800D01*
X14332270Y-9430070D02*
X14372270Y-9470070D01*
X14372270Y-9430070D02*
X14332270Y-9470070D01*
X14361480Y-11335070D02*
X14401480Y-11375070D01*
X14401480Y-11335070D02*
X14361480Y-11375070D01*
X14364020Y-12227880D02*
X14404020Y-12267880D01*
X14404020Y-12227880D02*
X14364020Y-12267880D01*
X14407200Y-10767380D02*
X14447200Y-10807380D01*
X14447200Y-10767380D02*
X14407200Y-10807380D01*
X14437680Y-9430070D02*
X14477680Y-9470070D01*
X14477680Y-9430070D02*
X14437680Y-9470070D01*
X14487210Y-10855010D02*
X14527210Y-10895010D01*
X14527210Y-10855010D02*
X14487210Y-10895010D01*
X14534200Y-12377740D02*
X14574200Y-12417740D01*
X14574200Y-12377740D02*
X14534200Y-12417740D01*
X14536740Y-11895140D02*
X14576740Y-11935140D01*
X14576740Y-11895140D02*
X14536740Y-11935140D01*
X14536740Y-11976420D02*
X14576740Y-12016420D01*
X14576740Y-11976420D02*
X14536740Y-12016420D01*
X14563410Y-9430070D02*
X14603410Y-9470070D01*
X14603410Y-9430070D02*
X14563410Y-9470070D01*
X14618020Y-11895140D02*
X14658020Y-11935140D01*
X14658020Y-11895140D02*
X14618020Y-11935140D01*
X14618020Y-11976420D02*
X14658020Y-12016420D01*
X14658020Y-11976420D02*
X14618020Y-12016420D01*
X14635800Y-12481880D02*
X14675800Y-12521880D01*
X14675800Y-12481880D02*
X14635800Y-12521880D01*
X14673900Y-10805480D02*
X14713900Y-10845480D01*
X14713900Y-10805480D02*
X14673900Y-10845480D01*
X14684060Y-11798620D02*
X14724060Y-11838620D01*
X14724060Y-11798620D02*
X14684060Y-11838620D01*
X14687870Y-11327450D02*
X14727870Y-11367450D01*
X14727870Y-11327450D02*
X14687870Y-11367450D01*
X14689140Y-11211880D02*
X14729140Y-11251880D01*
X14729140Y-11211880D02*
X14689140Y-11251880D01*
X14690857Y-12069577D02*
X14730857Y-12109577D01*
X14730857Y-12069577D02*
X14690857Y-12109577D01*
X14723430Y-12536490D02*
X14763430Y-12576490D01*
X14763430Y-12536490D02*
X14723430Y-12576490D01*
X14745020Y-10863900D02*
X14785020Y-10903900D01*
X14785020Y-10863900D02*
X14745020Y-10903900D01*
X14811060Y-11958640D02*
X14851060Y-11998640D01*
X14851060Y-11958640D02*
X14811060Y-11998640D01*
X14813600Y-12593640D02*
X14853600Y-12633640D01*
X14853600Y-12593640D02*
X14813600Y-12633640D01*
X14835190Y-9873300D02*
X14875190Y-9913300D01*
X14875190Y-9873300D02*
X14835190Y-9913300D01*
X14841540Y-12194860D02*
X14881540Y-12234860D01*
X14881540Y-12194860D02*
X14841540Y-12234860D01*
X14915200Y-10587040D02*
X14955200Y-10627040D01*
X14955200Y-10587040D02*
X14915200Y-10627040D01*
X14925360Y-10480360D02*
X14965360Y-10520360D01*
X14965360Y-10480360D02*
X14925360Y-10520360D01*
X14925360Y-11006140D02*
X14965360Y-11046140D01*
X14965360Y-11006140D02*
X14925360Y-11046140D01*
X14925360Y-11145840D02*
X14965360Y-11185840D01*
X14965360Y-11145840D02*
X14925360Y-11185840D01*
X15005370Y-10151430D02*
X15045370Y-10191430D01*
X15045370Y-10151430D02*
X15005370Y-10191430D01*
X15077760Y-9802180D02*
X15117760Y-9842180D01*
X15117760Y-9802180D02*
X15077760Y-9842180D01*
X15077760Y-10264460D02*
X15117760Y-10304460D01*
X15117760Y-10264460D02*
X15077760Y-10304460D01*
X15077760Y-10369870D02*
X15117760Y-10409870D01*
X15117760Y-10369870D02*
X15077760Y-10409870D01*
X15166660Y-12344720D02*
X15206660Y-12384720D01*
X15206660Y-12344720D02*
X15166660Y-12384720D01*
X15214920Y-11910380D02*
X15254920Y-11950380D01*
X15254920Y-11910380D02*
X15214920Y-11950380D01*
X15240320Y-9474520D02*
X15280320Y-9514520D01*
X15280320Y-9474520D02*
X15240320Y-9514520D01*
X15259370Y-9059230D02*
X15299370Y-9099230D01*
X15299370Y-9059230D02*
X15259370Y-9099230D01*
X15288580Y-12398060D02*
X15328580Y-12438060D01*
X15328580Y-12398060D02*
X15288580Y-12438060D01*
X15306360Y-11082340D02*
X15346360Y-11122340D01*
X15346360Y-11082340D02*
X15306360Y-11122340D01*
X15364780Y-8992500D02*
X15404780Y-9032500D01*
X15404780Y-8992500D02*
X15364780Y-9032500D01*
X15364780Y-9108760D02*
X15404780Y-9148760D01*
X15404780Y-9108760D02*
X15364780Y-9148760D01*
X15364780Y-9405940D02*
X15404780Y-9445940D01*
X15404780Y-9405940D02*
X15364780Y-9445940D01*
X15364780Y-9510080D02*
X15404780Y-9550080D01*
X15404780Y-9510080D02*
X15364780Y-9550080D01*
X15364780Y-9708200D02*
X15404780Y-9748200D01*
X15404780Y-9708200D02*
X15364780Y-9748200D01*
X15364780Y-9804720D02*
X15404780Y-9844720D01*
X15404780Y-9804720D02*
X15364780Y-9844720D01*
X15386370Y-12137710D02*
X15426370Y-12177710D01*
X15426370Y-12137710D02*
X15386370Y-12177710D01*
X15387640Y-10327960D02*
X15427640Y-10367960D01*
X15427640Y-10327960D02*
X15387640Y-10367960D01*
X15389940Y-10942309D02*
X15429940Y-10982309D01*
X15429940Y-10942309D02*
X15389940Y-10982309D01*
X15390211Y-10842309D02*
X15430211Y-10882309D01*
X15430211Y-10842309D02*
X15390211Y-10882309D01*
X15392720Y-10429560D02*
X15432720Y-10469560D01*
X15432720Y-10429560D02*
X15392720Y-10469560D01*
X15401610Y-12345990D02*
X15441610Y-12385990D01*
X15441610Y-12345990D02*
X15401610Y-12385990D01*
X15435900Y-10556500D02*
X15475900Y-10596500D01*
X15475900Y-10556500D02*
X15435900Y-10596500D01*
X15440980Y-12649520D02*
X15480980Y-12689520D01*
X15480980Y-12649520D02*
X15440980Y-12689520D01*
X15443520Y-12441240D02*
X15483520Y-12481240D01*
X15483520Y-12441240D02*
X15443520Y-12481240D01*
X15474000Y-12949240D02*
X15514000Y-12989240D01*
X15514000Y-12949240D02*
X15474000Y-12989240D01*
X15513614Y-10834446D02*
X15553614Y-10874446D01*
X15553614Y-10834446D02*
X15513614Y-10874446D01*
X15538760Y-10719120D02*
X15578760Y-10759120D01*
X15578760Y-10719120D02*
X15538760Y-10759120D01*
X15579900Y-12153200D02*
X15619900Y-12193200D01*
X15619900Y-12153200D02*
X15579900Y-12193200D01*
X15588300Y-12428540D02*
X15628300Y-12468540D01*
X15628300Y-12428540D02*
X15588300Y-12468540D01*
X15761020Y-10714040D02*
X15801020Y-10754040D01*
X15801020Y-10714040D02*
X15761020Y-10754040D01*
X15768640Y-11531920D02*
X15808640Y-11571920D01*
X15808640Y-11531920D02*
X15768640Y-11571920D01*
X15799120Y-11854500D02*
X15839120Y-11894500D01*
X15839120Y-11854500D02*
X15799120Y-11894500D01*
X15799120Y-12250700D02*
X15839120Y-12290700D01*
X15839120Y-12250700D02*
X15799120Y-12290700D01*
X15799120Y-12956860D02*
X15839120Y-12996860D01*
X15839120Y-12956860D02*
X15799120Y-12996860D01*
X15851190Y-10415000D02*
X15891190Y-10455000D01*
X15891190Y-10415000D02*
X15851190Y-10455000D01*
X15860080Y-11410000D02*
X15900080Y-11450000D01*
X15900080Y-11410000D02*
X15860080Y-11450000D01*
X15915000Y-12669686D02*
X15955000Y-12709686D01*
X15955000Y-12669686D02*
X15915000Y-12709686D01*
X15963837Y-12442384D02*
X16003837Y-12482384D01*
X16003837Y-12442384D02*
X15963837Y-12482384D01*
X15976920Y-12029760D02*
X16016920Y-12069760D01*
X16016920Y-12029760D02*
X15976920Y-12069760D01*
X15984540Y-11653840D02*
X16024540Y-11693840D01*
X16024540Y-11653840D02*
X15984540Y-11693840D01*
X16111850Y-12251999D02*
X16151850Y-12291999D01*
X16151850Y-12251999D02*
X16111850Y-12291999D01*
X16112321Y-12458111D02*
X16152321Y-12498111D01*
X16152321Y-12458111D02*
X16112321Y-12498111D01*
X16136940Y-12032300D02*
X16176940Y-12072300D01*
X16176940Y-12032300D02*
X16136940Y-12072300D01*
X16138210Y-12141520D02*
X16178210Y-12181520D01*
X16178210Y-12141520D02*
X16138210Y-12181520D01*
X16145830Y-10569260D02*
X16185830Y-10609260D01*
X16185830Y-10569260D02*
X16145830Y-10609260D01*
X16149640Y-10726740D02*
X16189640Y-10766740D01*
X16189640Y-10726740D02*
X16149640Y-10766740D01*
X16150910Y-12354880D02*
X16190910Y-12394880D01*
X16190910Y-12354880D02*
X16150910Y-12394880D01*
X16153450Y-10855020D02*
X16193450Y-10895020D01*
X16193450Y-10855020D02*
X16153450Y-10895020D01*
X16167420Y-12961940D02*
X16207420Y-13001940D01*
X16207420Y-12961940D02*
X16167420Y-13001940D01*
X16182660Y-10416860D02*
X16222660Y-10456860D01*
X16222660Y-10416860D02*
X16182660Y-10456860D01*
X16294420Y-10310180D02*
X16334420Y-10350180D01*
X16334420Y-10310180D02*
X16294420Y-10350180D01*
X16305850Y-10406700D02*
X16345850Y-10446700D01*
X16345850Y-10406700D02*
X16305850Y-10446700D01*
X16397290Y-10310180D02*
X16437290Y-10350180D01*
X16437290Y-10310180D02*
X16397290Y-10350180D01*
X16429040Y-11816400D02*
X16469040Y-11856400D01*
X16469040Y-11816400D02*
X16429040Y-11856400D01*
X16507780Y-12969560D02*
X16547780Y-13009560D01*
X16547780Y-12969560D02*
X16507780Y-13009560D01*
X16545880Y-11333800D02*
X16585880Y-11373800D01*
X16585880Y-11333800D02*
X16545880Y-11373800D01*
X16548420Y-10561640D02*
X16588420Y-10601640D01*
X16588420Y-10561640D02*
X16548420Y-10601640D01*
X16589060Y-10409240D02*
X16629060Y-10449240D01*
X16629060Y-10409240D02*
X16589060Y-10449240D01*
X16594140Y-8992500D02*
X16634140Y-9032500D01*
X16634140Y-8992500D02*
X16594140Y-9032500D01*
X16594140Y-9106220D02*
X16634140Y-9146220D01*
X16634140Y-9106220D02*
X16594140Y-9146220D01*
X16594140Y-9207820D02*
X16634140Y-9247820D01*
X16634140Y-9207820D02*
X16594140Y-9247820D01*
X16594140Y-9309420D02*
X16634140Y-9349420D01*
X16634140Y-9309420D02*
X16594140Y-9349420D01*
X16594140Y-9809800D02*
X16634140Y-9849800D01*
X16634140Y-9809800D02*
X16594140Y-9849800D01*
X16594140Y-9906320D02*
X16634140Y-9946320D01*
X16634140Y-9906320D02*
X16594140Y-9946320D01*
X16614460Y-11839260D02*
X16654460Y-11879260D01*
X16654460Y-11839260D02*
X16614460Y-11879260D01*
X16652560Y-11443020D02*
X16692560Y-11483020D01*
X16692560Y-11443020D02*
X16652560Y-11483020D01*
X16660180Y-10331770D02*
X16700180Y-10371770D01*
X16700180Y-10331770D02*
X16660180Y-10371770D01*
X16662720Y-10833420D02*
X16702720Y-10873420D01*
X16702720Y-10833420D02*
X16662720Y-10873420D01*
X16662720Y-10935020D02*
X16702720Y-10975020D01*
X16702720Y-10935020D02*
X16662720Y-10975020D01*
X16665260Y-11237280D02*
X16705260Y-11277280D01*
X16705260Y-11237280D02*
X16665260Y-11277280D01*
X16665260Y-12052620D02*
X16705260Y-12092620D01*
X16705260Y-12052620D02*
X16665260Y-12092620D01*
X16708920Y-11338400D02*
X16748920Y-11378400D01*
X16748920Y-11338400D02*
X16708920Y-11378400D01*
X16710980Y-12461560D02*
X16750980Y-12501560D01*
X16750980Y-12461560D02*
X16710980Y-12501560D01*
X16718600Y-9087170D02*
X16758600Y-9127170D01*
X16758600Y-9087170D02*
X16718600Y-9127170D01*
X16731300Y-12248200D02*
X16771300Y-12288200D01*
X16771300Y-12248200D02*
X16731300Y-12288200D01*
X16825280Y-12474260D02*
X16865280Y-12514260D01*
X16865280Y-12474260D02*
X16825280Y-12514260D01*
X16848140Y-10632760D02*
X16888140Y-10672760D01*
X16888140Y-10632760D02*
X16848140Y-10672760D01*
X16868460Y-9601520D02*
X16908460Y-9641520D01*
X16908460Y-9601520D02*
X16868460Y-9641520D01*
X16924340Y-11948480D02*
X16964340Y-11988480D01*
X16964340Y-11948480D02*
X16924340Y-11988480D01*
X16939580Y-11638600D02*
X16979580Y-11678600D01*
X16979580Y-11638600D02*
X16939580Y-11678600D01*
X16939580Y-11742740D02*
X16979580Y-11782740D01*
X16979580Y-11742740D02*
X16939580Y-11782740D01*
X16942120Y-12149140D02*
X16982120Y-12189140D01*
X16982120Y-12149140D02*
X16942120Y-12189140D01*
X16962440Y-10485440D02*
X17002440Y-10525440D01*
X17002440Y-10485440D02*
X16962440Y-10525440D01*
X16966250Y-11473500D02*
X17006250Y-11513500D01*
X17006250Y-11473500D02*
X16966250Y-11513500D01*
X16967520Y-10998520D02*
X17007520Y-11038520D01*
X17007520Y-10998520D02*
X16967520Y-11038520D01*
X16969262Y-10722458D02*
X17009262Y-10762458D01*
X17009262Y-10722458D02*
X16969262Y-10762458D01*
X16990380Y-10058720D02*
X17030380Y-10098720D01*
X17030380Y-10058720D02*
X16990380Y-10098720D01*
X16991650Y-9747570D02*
X17031650Y-9787570D01*
X17031650Y-9747570D02*
X16991650Y-9787570D01*
X16991650Y-9910130D02*
X17031650Y-9950130D01*
X17031650Y-9910130D02*
X16991650Y-9950130D01*
X17058960Y-10421940D02*
X17098960Y-10461940D01*
X17098960Y-10421940D02*
X17058960Y-10461940D01*
X17081820Y-11839260D02*
X17121820Y-11879260D01*
X17121820Y-11839260D02*
X17081820Y-11879260D01*
X17155480Y-11608120D02*
X17195480Y-11648120D01*
X17195480Y-11608120D02*
X17155480Y-11648120D01*
X17155480Y-11719880D02*
X17195480Y-11759880D01*
X17195480Y-11719880D02*
X17155480Y-11759880D01*
X17155480Y-12603800D02*
X17195480Y-12643800D01*
X17195480Y-12603800D02*
X17155480Y-12643800D01*
X17226600Y-12180890D02*
X17266600Y-12220890D01*
X17266600Y-12180890D02*
X17226600Y-12220890D01*
X17226600Y-12299000D02*
X17266600Y-12339000D01*
X17266600Y-12299000D02*
X17226600Y-12339000D01*
X17236760Y-12433620D02*
X17276760Y-12473620D01*
X17276760Y-12433620D02*
X17236760Y-12473620D01*
X17236760Y-12540300D02*
X17276760Y-12580300D01*
X17276760Y-12540300D02*
X17236760Y-12580300D01*
X17254540Y-11719880D02*
X17294540Y-11759880D01*
X17294540Y-11719880D02*
X17254540Y-11759880D01*
X17285020Y-9601520D02*
X17325020Y-9641520D01*
X17325020Y-9601520D02*
X17285020Y-9641520D01*
X17385350Y-9432610D02*
X17425350Y-9472610D01*
X17425350Y-9432610D02*
X17385350Y-9472610D01*
X17424779Y-10128121D02*
X17464779Y-10168121D01*
X17464779Y-10128121D02*
X17424779Y-10168121D01*
X17432340Y-11956100D02*
X17472340Y-11996100D01*
X17472340Y-11956100D02*
X17432340Y-11996100D01*
X17442500Y-10317800D02*
X17482500Y-10357800D01*
X17482500Y-10317800D02*
X17442500Y-10357800D01*
X17488220Y-10726200D02*
X17528220Y-10766200D01*
X17528220Y-10726200D02*
X17488220Y-10766200D01*
X17499069Y-10406700D02*
X17539069Y-10446700D01*
X17539069Y-10406700D02*
X17499069Y-10446700D01*
X17528860Y-11732580D02*
X17568860Y-11772580D01*
X17568860Y-11732580D02*
X17528860Y-11772580D01*
X17546640Y-11956100D02*
X17586640Y-11996100D01*
X17586640Y-11956100D02*
X17546640Y-11996100D01*
X17649510Y-11730040D02*
X17689510Y-11770040D01*
X17689510Y-11730040D02*
X17649510Y-11770040D01*
X17669830Y-11952290D02*
X17709830Y-11992290D01*
X17709830Y-11952290D02*
X17669830Y-11992290D01*
X17677450Y-10305100D02*
X17717450Y-10345100D01*
X17717450Y-10305100D02*
X17677450Y-10345100D01*
X17711740Y-10741980D02*
X17751740Y-10781980D01*
X17751740Y-10741980D02*
X17711740Y-10781980D01*
X17725710Y-9858060D02*
X17765710Y-9898060D01*
X17765710Y-9858060D02*
X17725710Y-9898060D01*
X17762540Y-11730040D02*
X17802540Y-11770040D01*
X17802540Y-11730040D02*
X17762540Y-11770040D01*
X17771430Y-9432610D02*
X17811430Y-9472610D01*
X17811430Y-9432610D02*
X17771430Y-9472610D01*
X17777780Y-11958640D02*
X17817780Y-11998640D01*
X17817780Y-11958640D02*
X17777780Y-11998640D01*
X17782860Y-10970881D02*
X17822860Y-11010881D01*
X17822860Y-10970881D02*
X17782860Y-11010881D01*
X17813340Y-10477820D02*
X17853340Y-10517820D01*
X17853340Y-10477820D02*
X17813340Y-10517820D01*
X17853980Y-11737660D02*
X17893980Y-11777660D01*
X17893980Y-11737660D02*
X17853980Y-11777660D01*
X17857790Y-11042970D02*
X17897790Y-11082970D01*
X17897790Y-11042970D02*
X17857790Y-11082970D01*
X17861600Y-9926640D02*
X17901600Y-9966640D01*
X17901600Y-9926640D02*
X17861600Y-9966640D01*
X17874300Y-9511350D02*
X17914300Y-9551350D01*
X17914300Y-9511350D02*
X17874300Y-9551350D01*
X17874300Y-9638350D02*
X17914300Y-9678350D01*
X17914300Y-9638350D02*
X17874300Y-9678350D01*
X17883190Y-11192830D02*
X17923190Y-11232830D01*
X17923190Y-11192830D02*
X17883190Y-11232830D01*
X17886030Y-10303530D02*
X17926030Y-10343530D01*
X17926030Y-10303530D02*
X17886030Y-10343530D01*
X17888280Y-11343960D02*
X17928280Y-11383960D01*
X17928280Y-11343960D02*
X17888280Y-11383960D01*
X17909860Y-10636570D02*
X17949860Y-10676570D01*
X17949860Y-10636570D02*
X17909860Y-10676570D01*
X17918056Y-11839414D02*
X17958056Y-11879414D01*
X17958056Y-11839414D02*
X17918056Y-11879414D01*
X17955580Y-10830880D02*
X17995580Y-10870880D01*
X17995580Y-10830880D02*
X17955580Y-10870880D01*
X17956723Y-11443210D02*
X17996723Y-11483210D01*
X17996723Y-11443210D02*
X17956723Y-11483210D01*
X17975900Y-12151680D02*
X18015900Y-12191680D01*
X18015900Y-12151680D02*
X17975900Y-12191680D01*
X18001873Y-10291764D02*
X18041873Y-10331764D01*
X18041873Y-10291764D02*
X18001873Y-10331764D01*
X18014000Y-9981250D02*
X18054000Y-10021250D01*
X18054000Y-9981250D02*
X18014000Y-10021250D01*
X18095280Y-10645460D02*
X18135280Y-10685460D01*
X18135280Y-10645460D02*
X18095280Y-10685460D01*
X18097820Y-11234740D02*
X18137820Y-11274740D01*
X18137820Y-11234740D02*
X18097820Y-11274740D01*
X18101600Y-11541600D02*
X18141600Y-11581600D01*
X18141600Y-11541600D02*
X18101600Y-11581600D01*
X18101600Y-11643200D02*
X18141600Y-11683200D01*
X18141600Y-11643200D02*
X18101600Y-11683200D01*
X18101600Y-12151200D02*
X18141600Y-12191200D01*
X18141600Y-12151200D02*
X18101600Y-12191200D01*
X18101872Y-10292236D02*
X18141872Y-10332236D01*
X18141872Y-10292236D02*
X18101872Y-10332236D01*
X18166400Y-9433880D02*
X18206400Y-9473880D01*
X18206400Y-9433880D02*
X18166400Y-9473880D01*
X18166400Y-9891080D02*
X18206400Y-9931080D01*
X18206400Y-9891080D02*
X18166400Y-9931080D01*
X18167500Y-10035860D02*
X18207500Y-10075860D01*
X18207500Y-10035860D02*
X18167500Y-10075860D01*
X15732700Y-12862700D02*
G75*
G03X15732700Y-12862700I-37500J0D01*
G01*
X15667700Y-12840200D02*
X15667700Y-12885200D01*
X15722700Y-12840200D02*
X15722700Y-12885200D01*
X15667700Y-12885200D02*
G75*
G03X15722700Y-12885200I27500J0D01*
G01*
X15722700Y-12840200D02*
G75*
G03X15667700Y-12840200I-27500J0D01*
G01*
X16342300Y-12862700D02*
G75*
G03X16342300Y-12862700I-37500J0D01*
G01*
X16277300Y-12840200D02*
X16277300Y-12885200D01*
X16332300Y-12840200D02*
X16332300Y-12885200D01*
X16277300Y-12885200D02*
G75*
G03X16332300Y-12885200I27500J0D01*
G01*
X16332300Y-12840200D02*
G75*
G03X16277300Y-12840200I-27500J0D01*
G01*
D12*
X286429Y-465714D02*
X286429Y-165714D01*
X357857Y-165714D01*
X400714Y-180000D01*
X429286Y-208571D01*
X443571Y-237143D01*
X457857Y-294286D01*
X457857Y-337143D01*
X443571Y-394286D01*
X429286Y-422857D01*
X400714Y-451428D01*
X357857Y-465714D01*
X286429Y-465714D01*
X586429Y-465714D02*
X586429Y-265714D01*
X586429Y-322857D02*
X600714Y-294286D01*
X615000Y-280000D01*
X643571Y-265714D01*
X672143Y-265714D01*
X772143Y-465714D02*
X772143Y-265714D01*
X772143Y-165714D02*
X757857Y-180000D01*
X772143Y-194286D01*
X786428Y-180000D01*
X772143Y-165714D01*
X772143Y-194286D01*
X957857Y-465714D02*
X929286Y-451428D01*
X915000Y-422857D01*
X915000Y-165714D01*
X1115000Y-465714D02*
X1086429Y-451428D01*
X1072143Y-422857D01*
X1072143Y-165714D01*
X1457857Y-465714D02*
X1457857Y-165714D01*
X1557857Y-380000D01*
X1657857Y-165714D01*
X1657857Y-465714D01*
X1929286Y-465714D02*
X1929286Y-308571D01*
X1915000Y-280000D01*
X1886428Y-265714D01*
X1829286Y-265714D01*
X1800714Y-280000D01*
X1929286Y-451428D02*
X1900714Y-465714D01*
X1829286Y-465714D01*
X1800714Y-451428D01*
X1786428Y-422857D01*
X1786428Y-394286D01*
X1800714Y-365714D01*
X1829286Y-351428D01*
X1900714Y-351428D01*
X1929286Y-337143D01*
X2072143Y-265714D02*
X2072143Y-565714D01*
X2072143Y-280000D02*
X2100714Y-265714D01*
X2157857Y-265714D01*
X2186429Y-280000D01*
X2200714Y-294286D01*
X2215000Y-322857D01*
X2215000Y-408571D01*
X2200714Y-437143D01*
X2186429Y-451428D01*
X2157857Y-465714D01*
X2100714Y-465714D01*
X2072143Y-451428D01*
X2343571Y-437143D02*
X2357857Y-451428D01*
X2343571Y-465714D01*
X2329286Y-451428D01*
X2343571Y-437143D01*
X2343571Y-465714D01*
X2343571Y-280000D02*
X2357857Y-294286D01*
X2343571Y-308571D01*
X2329286Y-294286D01*
X2343571Y-280000D01*
X2343571Y-308571D01*
X-40000Y-940000D02*
X0Y-980000D01*
X0Y-940000D02*
X-40000Y-980000D01*
X343571Y-795714D02*
X372143Y-795714D01*
X400714Y-810000D01*
X415000Y-824286D01*
X429286Y-852857D01*
X443571Y-910000D01*
X443571Y-981428D01*
X429286Y-1038571D01*
X415000Y-1067143D01*
X400714Y-1081429D01*
X372143Y-1095714D01*
X343571Y-1095714D01*
X315000Y-1081429D01*
X300714Y-1067143D01*
X286429Y-1038571D01*
X272143Y-981428D01*
X272143Y-910000D01*
X286429Y-852857D01*
X300714Y-824286D01*
X315000Y-810000D01*
X343571Y-795714D01*
X572143Y-1067143D02*
X586429Y-1081429D01*
X572143Y-1095714D01*
X557857Y-1081429D01*
X572143Y-1067143D01*
X572143Y-1095714D01*
X843571Y-895714D02*
X843571Y-1095714D01*
X772143Y-781428D02*
X700714Y-995714D01*
X886428Y-995714D01*
X1057857Y-795714D02*
X1086429Y-795714D01*
X1115000Y-810000D01*
X1129286Y-824286D01*
X1143571Y-852857D01*
X1157857Y-910000D01*
X1157857Y-981428D01*
X1143571Y-1038571D01*
X1129286Y-1067143D01*
X1115000Y-1081429D01*
X1086429Y-1095714D01*
X1057857Y-1095714D01*
X1029286Y-1081429D01*
X1015000Y-1067143D01*
X1000714Y-1038571D01*
X986428Y-981428D01*
X986428Y-910000D01*
X1000714Y-852857D01*
X1015000Y-824286D01*
X1029286Y-810000D01*
X1057857Y-795714D01*
X1286429Y-1095714D02*
X1286429Y-895714D01*
X1286429Y-924286D02*
X1300714Y-910000D01*
X1329286Y-895714D01*
X1372143Y-895714D01*
X1400714Y-910000D01*
X1415000Y-938571D01*
X1415000Y-1095714D01*
X1415000Y-938571D02*
X1429286Y-910000D01*
X1457857Y-895714D01*
X1500714Y-895714D01*
X1529286Y-910000D01*
X1543571Y-938571D01*
X1543571Y-1095714D01*
X1686428Y-1095714D02*
X1686428Y-895714D01*
X1686428Y-924286D02*
X1700714Y-910000D01*
X1729286Y-895714D01*
X1772143Y-895714D01*
X1800714Y-910000D01*
X1815000Y-938571D01*
X1815000Y-1095714D01*
X1815000Y-938571D02*
X1829286Y-910000D01*
X1857857Y-895714D01*
X1900714Y-895714D01*
X1929286Y-910000D01*
X1943571Y-938571D01*
X1943571Y-1095714D01*
X2529286Y-781428D02*
X2272143Y-1167143D01*
X2915000Y-795714D02*
X2943571Y-795714D01*
X2972143Y-810000D01*
X2986428Y-824286D01*
X3000714Y-852857D01*
X3015000Y-910000D01*
X3015000Y-981428D01*
X3000714Y-1038571D01*
X2986428Y-1067143D01*
X2972143Y-1081429D01*
X2943571Y-1095714D01*
X2915000Y-1095714D01*
X2886428Y-1081429D01*
X2872143Y-1067143D01*
X2857857Y-1038571D01*
X2843571Y-981428D01*
X2843571Y-910000D01*
X2857857Y-852857D01*
X2872143Y-824286D01*
X2886428Y-810000D01*
X2915000Y-795714D01*
X3143571Y-1067143D02*
X3157857Y-1081429D01*
X3143571Y-1095714D01*
X3129286Y-1081429D01*
X3143571Y-1067143D01*
X3143571Y-1095714D01*
X3343571Y-795714D02*
X3372143Y-795714D01*
X3400714Y-810000D01*
X3415000Y-824286D01*
X3429286Y-852857D01*
X3443571Y-910000D01*
X3443571Y-981428D01*
X3429286Y-1038571D01*
X3415000Y-1067143D01*
X3400714Y-1081429D01*
X3372143Y-1095714D01*
X3343571Y-1095714D01*
X3315000Y-1081429D01*
X3300714Y-1067143D01*
X3286428Y-1038571D01*
X3272143Y-981428D01*
X3272143Y-910000D01*
X3286428Y-852857D01*
X3300714Y-824286D01*
X3315000Y-810000D01*
X3343571Y-795714D01*
X3729286Y-1095714D02*
X3557857Y-1095714D01*
X3643571Y-1095714D02*
X3643571Y-795714D01*
X3615000Y-838571D01*
X3586428Y-867143D01*
X3557857Y-881428D01*
X3986428Y-795714D02*
X3929286Y-795714D01*
X3900714Y-810000D01*
X3886428Y-824286D01*
X3857857Y-867143D01*
X3843571Y-924286D01*
X3843571Y-1038571D01*
X3857857Y-1067143D01*
X3872143Y-1081429D01*
X3900714Y-1095714D01*
X3957857Y-1095714D01*
X3986428Y-1081429D01*
X4000714Y-1067143D01*
X4015000Y-1038571D01*
X4015000Y-967143D01*
X4000714Y-938571D01*
X3986428Y-924286D01*
X3957857Y-910000D01*
X3900714Y-910000D01*
X3872143Y-924286D01*
X3857857Y-938571D01*
X3843571Y-967143D01*
X4129286Y-795714D02*
X4129286Y-852857D01*
X4243571Y-795714D02*
X4243571Y-852857D01*
X4686429Y-1210000D02*
X4672143Y-1195714D01*
X4643571Y-1152857D01*
X4629286Y-1124286D01*
X4615000Y-1081429D01*
X4600714Y-1010000D01*
X4600714Y-952857D01*
X4615000Y-881428D01*
X4629286Y-838571D01*
X4643571Y-810000D01*
X4672143Y-767143D01*
X4686429Y-752857D01*
X4786429Y-824286D02*
X4800714Y-810000D01*
X4829286Y-795714D01*
X4900714Y-795714D01*
X4929286Y-810000D01*
X4943571Y-824286D01*
X4957857Y-852857D01*
X4957857Y-881428D01*
X4943571Y-924286D01*
X4772143Y-1095714D01*
X4957857Y-1095714D01*
X5243571Y-1095714D02*
X5072143Y-1095714D01*
X5157857Y-1095714D02*
X5157857Y-795714D01*
X5129286Y-838571D01*
X5100714Y-867143D01*
X5072143Y-881428D01*
X5429286Y-795714D02*
X5457857Y-795714D01*
X5486429Y-810000D01*
X5500714Y-824286D01*
X5515000Y-852857D01*
X5529286Y-910000D01*
X5529286Y-981428D01*
X5515000Y-1038571D01*
X5500714Y-1067143D01*
X5486429Y-1081429D01*
X5457857Y-1095714D01*
X5429286Y-1095714D01*
X5400714Y-1081429D01*
X5386429Y-1067143D01*
X5372143Y-1038571D01*
X5357857Y-981428D01*
X5357857Y-910000D01*
X5372143Y-852857D01*
X5386429Y-824286D01*
X5400714Y-810000D01*
X5429286Y-795714D01*
X5886428Y-1095714D02*
X5886428Y-795714D01*
X6015000Y-1095714D02*
X6015000Y-938571D01*
X6000714Y-910000D01*
X5972143Y-895714D01*
X5929286Y-895714D01*
X5900714Y-910000D01*
X5886428Y-924286D01*
X6200714Y-1095714D02*
X6172143Y-1081429D01*
X6157857Y-1067143D01*
X6143571Y-1038571D01*
X6143571Y-952857D01*
X6157857Y-924286D01*
X6172143Y-910000D01*
X6200714Y-895714D01*
X6243571Y-895714D01*
X6272143Y-910000D01*
X6286428Y-924286D01*
X6300714Y-952857D01*
X6300714Y-1038571D01*
X6286428Y-1067143D01*
X6272143Y-1081429D01*
X6243571Y-1095714D01*
X6200714Y-1095714D01*
X6472143Y-1095714D02*
X6443571Y-1081429D01*
X6429286Y-1052857D01*
X6429286Y-795714D01*
X6700714Y-1081429D02*
X6672143Y-1095714D01*
X6615000Y-1095714D01*
X6586428Y-1081429D01*
X6572143Y-1052857D01*
X6572143Y-938571D01*
X6586428Y-910000D01*
X6615000Y-895714D01*
X6672143Y-895714D01*
X6700714Y-910000D01*
X6715000Y-938571D01*
X6715000Y-967143D01*
X6572143Y-995714D01*
X6829286Y-1081429D02*
X6857857Y-1095714D01*
X6915000Y-1095714D01*
X6943571Y-1081429D01*
X6957857Y-1052857D01*
X6957857Y-1038571D01*
X6943571Y-1010000D01*
X6915000Y-995714D01*
X6872143Y-995714D01*
X6843571Y-981428D01*
X6829286Y-952857D01*
X6829286Y-938571D01*
X6843571Y-910000D01*
X6872143Y-895714D01*
X6915000Y-895714D01*
X6943571Y-910000D01*
X7057857Y-1210000D02*
X7072143Y-1195714D01*
X7100714Y-1152857D01*
X7115000Y-1124286D01*
X7129286Y-1081429D01*
X7143571Y-1010000D01*
X7143571Y-952857D01*
X7129286Y-881428D01*
X7115000Y-838571D01*
X7100714Y-810000D01*
X7072143Y-767143D01*
X7057857Y-752857D01*
X0Y-1356000D02*
G75*
G03X0Y-1356000I-37500J0D01*
G01*
X343571Y-1191714D02*
X372143Y-1191714D01*
X400714Y-1206000D01*
X415000Y-1220286D01*
X429286Y-1248857D01*
X443571Y-1306000D01*
X443571Y-1377429D01*
X429286Y-1434571D01*
X415000Y-1463143D01*
X400714Y-1477428D01*
X372143Y-1491714D01*
X343571Y-1491714D01*
X315000Y-1477428D01*
X300714Y-1463143D01*
X286429Y-1434571D01*
X272143Y-1377429D01*
X272143Y-1306000D01*
X286429Y-1248857D01*
X300714Y-1220286D01*
X315000Y-1206000D01*
X343571Y-1191714D01*
X572143Y-1463143D02*
X586429Y-1477428D01*
X572143Y-1491714D01*
X557857Y-1477428D01*
X572143Y-1463143D01*
X572143Y-1491714D01*
X686429Y-1191714D02*
X886428Y-1191714D01*
X757857Y-1491714D01*
X1143571Y-1191714D02*
X1000714Y-1191714D01*
X986428Y-1334571D01*
X1000714Y-1320286D01*
X1029286Y-1306000D01*
X1100714Y-1306000D01*
X1129286Y-1320286D01*
X1143571Y-1334571D01*
X1157857Y-1363143D01*
X1157857Y-1434571D01*
X1143571Y-1463143D01*
X1129286Y-1477428D01*
X1100714Y-1491714D01*
X1029286Y-1491714D01*
X1000714Y-1477428D01*
X986428Y-1463143D01*
X1286429Y-1491714D02*
X1286429Y-1291714D01*
X1286429Y-1320286D02*
X1300714Y-1306000D01*
X1329286Y-1291714D01*
X1372143Y-1291714D01*
X1400714Y-1306000D01*
X1415000Y-1334571D01*
X1415000Y-1491714D01*
X1415000Y-1334571D02*
X1429286Y-1306000D01*
X1457857Y-1291714D01*
X1500714Y-1291714D01*
X1529286Y-1306000D01*
X1543571Y-1334571D01*
X1543571Y-1491714D01*
X1686428Y-1491714D02*
X1686428Y-1291714D01*
X1686428Y-1320286D02*
X1700714Y-1306000D01*
X1729286Y-1291714D01*
X1772143Y-1291714D01*
X1800714Y-1306000D01*
X1815000Y-1334571D01*
X1815000Y-1491714D01*
X1815000Y-1334571D02*
X1829286Y-1306000D01*
X1857857Y-1291714D01*
X1900714Y-1291714D01*
X1929286Y-1306000D01*
X1943571Y-1334571D01*
X1943571Y-1491714D01*
X2529286Y-1177429D02*
X2272143Y-1563143D01*
X2915000Y-1191714D02*
X2943571Y-1191714D01*
X2972143Y-1206000D01*
X2986428Y-1220286D01*
X3000714Y-1248857D01*
X3015000Y-1306000D01*
X3015000Y-1377429D01*
X3000714Y-1434571D01*
X2986428Y-1463143D01*
X2972143Y-1477428D01*
X2943571Y-1491714D01*
X2915000Y-1491714D01*
X2886428Y-1477428D01*
X2872143Y-1463143D01*
X2857857Y-1434571D01*
X2843571Y-1377429D01*
X2843571Y-1306000D01*
X2857857Y-1248857D01*
X2872143Y-1220286D01*
X2886428Y-1206000D01*
X2915000Y-1191714D01*
X3143571Y-1463143D02*
X3157857Y-1477428D01*
X3143571Y-1491714D01*
X3129286Y-1477428D01*
X3143571Y-1463143D01*
X3143571Y-1491714D01*
X3343571Y-1191714D02*
X3372143Y-1191714D01*
X3400714Y-1206000D01*
X3415000Y-1220286D01*
X3429286Y-1248857D01*
X3443571Y-1306000D01*
X3443571Y-1377429D01*
X3429286Y-1434571D01*
X3415000Y-1463143D01*
X3400714Y-1477428D01*
X3372143Y-1491714D01*
X3343571Y-1491714D01*
X3315000Y-1477428D01*
X3300714Y-1463143D01*
X3286428Y-1434571D01*
X3272143Y-1377429D01*
X3272143Y-1306000D01*
X3286428Y-1248857D01*
X3300714Y-1220286D01*
X3315000Y-1206000D01*
X3343571Y-1191714D01*
X3543571Y-1191714D02*
X3729286Y-1191714D01*
X3629286Y-1306000D01*
X3672143Y-1306000D01*
X3700714Y-1320286D01*
X3715000Y-1334571D01*
X3729286Y-1363143D01*
X3729286Y-1434571D01*
X3715000Y-1463143D01*
X3700714Y-1477428D01*
X3672143Y-1491714D01*
X3586428Y-1491714D01*
X3557857Y-1477428D01*
X3543571Y-1463143D01*
X3915000Y-1191714D02*
X3943571Y-1191714D01*
X3972143Y-1206000D01*
X3986428Y-1220286D01*
X4000714Y-1248857D01*
X4015000Y-1306000D01*
X4015000Y-1377429D01*
X4000714Y-1434571D01*
X3986428Y-1463143D01*
X3972143Y-1477428D01*
X3943571Y-1491714D01*
X3915000Y-1491714D01*
X3886428Y-1477428D01*
X3872143Y-1463143D01*
X3857857Y-1434571D01*
X3843571Y-1377429D01*
X3843571Y-1306000D01*
X3857857Y-1248857D01*
X3872143Y-1220286D01*
X3886428Y-1206000D01*
X3915000Y-1191714D01*
X4129286Y-1191714D02*
X4129286Y-1248857D01*
X4243571Y-1191714D02*
X4243571Y-1248857D01*
X4686429Y-1606000D02*
X4672143Y-1591714D01*
X4643571Y-1548857D01*
X4629286Y-1520286D01*
X4615000Y-1477428D01*
X4600714Y-1406000D01*
X4600714Y-1348857D01*
X4615000Y-1277429D01*
X4629286Y-1234571D01*
X4643571Y-1206000D01*
X4672143Y-1163143D01*
X4686429Y-1148857D01*
X4857857Y-1191714D02*
X4886429Y-1191714D01*
X4915000Y-1206000D01*
X4929286Y-1220286D01*
X4943571Y-1248857D01*
X4957857Y-1306000D01*
X4957857Y-1377429D01*
X4943571Y-1434571D01*
X4929286Y-1463143D01*
X4915000Y-1477428D01*
X4886429Y-1491714D01*
X4857857Y-1491714D01*
X4829286Y-1477428D01*
X4815000Y-1463143D01*
X4800714Y-1434571D01*
X4786429Y-1377429D01*
X4786429Y-1306000D01*
X4800714Y-1248857D01*
X4815000Y-1220286D01*
X4829286Y-1206000D01*
X4857857Y-1191714D01*
X5315000Y-1491714D02*
X5315000Y-1191714D01*
X5443571Y-1491714D02*
X5443571Y-1334571D01*
X5429286Y-1306000D01*
X5400714Y-1291714D01*
X5357857Y-1291714D01*
X5329286Y-1306000D01*
X5315000Y-1320286D01*
X5629286Y-1491714D02*
X5600714Y-1477428D01*
X5586429Y-1463143D01*
X5572143Y-1434571D01*
X5572143Y-1348857D01*
X5586429Y-1320286D01*
X5600714Y-1306000D01*
X5629286Y-1291714D01*
X5672143Y-1291714D01*
X5700714Y-1306000D01*
X5715000Y-1320286D01*
X5729286Y-1348857D01*
X5729286Y-1434571D01*
X5715000Y-1463143D01*
X5700714Y-1477428D01*
X5672143Y-1491714D01*
X5629286Y-1491714D01*
X5900714Y-1491714D02*
X5872143Y-1477428D01*
X5857857Y-1448857D01*
X5857857Y-1191714D01*
X6129286Y-1477428D02*
X6100714Y-1491714D01*
X6043571Y-1491714D01*
X6015000Y-1477428D01*
X6000714Y-1448857D01*
X6000714Y-1334571D01*
X6015000Y-1306000D01*
X6043571Y-1291714D01*
X6100714Y-1291714D01*
X6129286Y-1306000D01*
X6143571Y-1334571D01*
X6143571Y-1363143D01*
X6000714Y-1391714D01*
X6257857Y-1477428D02*
X6286428Y-1491714D01*
X6343571Y-1491714D01*
X6372143Y-1477428D01*
X6386428Y-1448857D01*
X6386428Y-1434571D01*
X6372143Y-1406000D01*
X6343571Y-1391714D01*
X6300714Y-1391714D01*
X6272143Y-1377429D01*
X6257857Y-1348857D01*
X6257857Y-1334571D01*
X6272143Y-1306000D01*
X6300714Y-1291714D01*
X6343571Y-1291714D01*
X6372143Y-1306000D01*
X6743571Y-1377429D02*
X6972143Y-1377429D01*
X6857857Y-1491714D02*
X6857857Y-1263143D01*
X7329286Y-1220286D02*
X7343571Y-1206000D01*
X7372143Y-1191714D01*
X7443571Y-1191714D01*
X7472143Y-1206000D01*
X7486428Y-1220286D01*
X7500714Y-1248857D01*
X7500714Y-1277429D01*
X7486428Y-1320286D01*
X7315000Y-1491714D01*
X7500714Y-1491714D01*
X7843571Y-1477428D02*
X7872143Y-1491714D01*
X7929286Y-1491714D01*
X7957857Y-1477428D01*
X7972143Y-1448857D01*
X7972143Y-1434571D01*
X7957857Y-1406000D01*
X7929286Y-1391714D01*
X7886428Y-1391714D01*
X7857857Y-1377429D01*
X7843571Y-1348857D01*
X7843571Y-1334571D01*
X7857857Y-1306000D01*
X7886428Y-1291714D01*
X7929286Y-1291714D01*
X7957857Y-1306000D01*
X8143571Y-1491714D02*
X8115000Y-1477428D01*
X8100714Y-1448857D01*
X8100714Y-1191714D01*
X8300714Y-1491714D02*
X8272143Y-1477428D01*
X8257857Y-1463143D01*
X8243571Y-1434571D01*
X8243571Y-1348857D01*
X8257857Y-1320286D01*
X8272143Y-1306000D01*
X8300714Y-1291714D01*
X8343571Y-1291714D01*
X8372143Y-1306000D01*
X8386428Y-1320286D01*
X8400714Y-1348857D01*
X8400714Y-1434571D01*
X8386428Y-1463143D01*
X8372143Y-1477428D01*
X8343571Y-1491714D01*
X8300714Y-1491714D01*
X8486429Y-1291714D02*
X8600714Y-1291714D01*
X8529286Y-1191714D02*
X8529286Y-1448857D01*
X8543571Y-1477428D01*
X8572143Y-1491714D01*
X8600714Y-1491714D01*
X8686429Y-1477428D02*
X8715000Y-1491714D01*
X8772143Y-1491714D01*
X8800714Y-1477428D01*
X8815000Y-1448857D01*
X8815000Y-1434571D01*
X8800714Y-1406000D01*
X8772143Y-1391714D01*
X8729286Y-1391714D01*
X8700714Y-1377429D01*
X8686429Y-1348857D01*
X8686429Y-1334571D01*
X8700714Y-1306000D01*
X8729286Y-1291714D01*
X8772143Y-1291714D01*
X8800714Y-1306000D01*
X8915000Y-1606000D02*
X8929286Y-1591714D01*
X8957857Y-1548857D01*
X8972143Y-1520286D01*
X8986429Y-1477428D01*
X9000714Y-1406000D01*
X9000714Y-1348857D01*
X8986429Y-1277429D01*
X8972143Y-1234571D01*
X8957857Y-1206000D01*
X8929286Y-1163143D01*
X8915000Y-1148857D01*
M02*
