%TF.GenerationSoftware,KiCad,Pcbnew,5.1.5+dfsg1-2~bpo10+1*%
%TF.CreationDate,Date%
%TF.ProjectId,osw,6f73772e-6b69-4636-9164-5f7063625858,3.0*%
%TF.SameCoordinates,Original*%
%TF.FileFunction,Other,Fab,Top*%
%FSLAX46Y46*%
G04 Gerber Fmt 4.6, Leading zero omitted, Abs format (unit mm)*
G04 Created by KiCad*
%MOMM*%
%LPD*%
G04 APERTURE LIST*
%ADD10C,0.150000*%
%ADD11C,0.100000*%
%ADD12C,0.050000*%
%ADD13C,0.060000*%
G04 APERTURE END LIST*
D10*
%TO.C,U7*%
X182297000Y-110213000D02*
X182297000Y-123213000D01*
X164347000Y-110213000D02*
X164347000Y-123213000D01*
X182297000Y-110213000D02*
X164347000Y-110213000D01*
X182297000Y-123213000D02*
X164347000Y-123213000D01*
D11*
%TO.C,C12*%
X160172500Y-111804500D02*
X161772500Y-111804500D01*
X160172500Y-112604500D02*
X160172500Y-111804500D01*
X161772500Y-112604500D02*
X160172500Y-112604500D01*
X161772500Y-111804500D02*
X161772500Y-112604500D01*
%TO.C,U3*%
X157435000Y-114476000D02*
X158410000Y-113501000D01*
X157435000Y-118401000D02*
X157435000Y-114476000D01*
X161335000Y-118401000D02*
X157435000Y-118401000D01*
X161335000Y-113501000D02*
X161335000Y-118401000D01*
X158410000Y-113501000D02*
X161335000Y-113501000D01*
%TO.C,R25*%
X175602900Y-102194732D02*
X175602900Y-101394732D01*
X175602900Y-101394732D02*
X177202900Y-101394732D01*
X177202900Y-101394732D02*
X177202900Y-102194732D01*
X177202900Y-102194732D02*
X175602900Y-102194732D01*
%TO.C,R24*%
X175602900Y-103780115D02*
X175602900Y-102980115D01*
X175602900Y-102980115D02*
X177202900Y-102980115D01*
X177202900Y-102980115D02*
X177202900Y-103780115D01*
X177202900Y-103780115D02*
X175602900Y-103780115D01*
%TO.C,R23*%
X173393000Y-103041500D02*
X173393000Y-103841500D01*
X173393000Y-103841500D02*
X171793000Y-103841500D01*
X171793000Y-103841500D02*
X171793000Y-103041500D01*
X171793000Y-103041500D02*
X173393000Y-103041500D01*
%TO.C,R20*%
X171818400Y-102254000D02*
X171818400Y-101454000D01*
X171818400Y-101454000D02*
X173418400Y-101454000D01*
X173418400Y-101454000D02*
X173418400Y-102254000D01*
X173418400Y-102254000D02*
X171818400Y-102254000D01*
%TO.C,R3*%
X171793000Y-100603000D02*
X171793000Y-99803000D01*
X171793000Y-99803000D02*
X173393000Y-99803000D01*
X173393000Y-99803000D02*
X173393000Y-100603000D01*
X173393000Y-100603000D02*
X171793000Y-100603000D01*
D10*
%TO.C,U8*%
X155200000Y-89250000D02*
X164800000Y-89250000D01*
X155200000Y-103050000D02*
X164800000Y-103050000D01*
X164800000Y-103050000D02*
X164800000Y-89250000D01*
X155200000Y-103050000D02*
X155200000Y-89250000D01*
D11*
%TO.C,R18*%
X171767600Y-98162583D02*
X173367600Y-98162583D01*
X171767600Y-98962583D02*
X171767600Y-98162583D01*
X173367600Y-98962583D02*
X171767600Y-98962583D01*
X173367600Y-98162583D02*
X173367600Y-98962583D01*
%TO.C,C11*%
X171767600Y-96577200D02*
X173367600Y-96577200D01*
X171767600Y-97377200D02*
X171767600Y-96577200D01*
X173367600Y-97377200D02*
X171767600Y-97377200D01*
X173367600Y-96577200D02*
X173367600Y-97377200D01*
%TO.C,C21*%
X169582900Y-97377200D02*
X167982900Y-97377200D01*
X169582900Y-96577200D02*
X169582900Y-97377200D01*
X167982900Y-96577200D02*
X169582900Y-96577200D01*
X167982900Y-97377200D02*
X167982900Y-96577200D01*
%TO.C,C22*%
X148564500Y-98444000D02*
X146964500Y-98444000D01*
X148564500Y-97644000D02*
X148564500Y-98444000D01*
X146964500Y-97644000D02*
X148564500Y-97644000D01*
X146964500Y-98444000D02*
X146964500Y-97644000D01*
%TO.C,C20*%
X169582900Y-98962583D02*
X167982900Y-98962583D01*
X169582900Y-98162583D02*
X169582900Y-98962583D01*
X167982900Y-98162583D02*
X169582900Y-98162583D01*
X167982900Y-98962583D02*
X167982900Y-98162583D01*
D12*
%TO.C,XS1*%
X152200000Y-100450000D02*
X138900000Y-100450000D01*
X152200000Y-115150000D02*
X138200000Y-115150000D01*
X152200000Y-100450000D02*
X152200000Y-115150000D01*
X138900000Y-100450000D02*
X138900000Y-107800000D01*
X138200000Y-112450000D02*
X138200000Y-115150000D01*
X133600000Y-112450000D02*
X138200000Y-112450000D01*
X132900000Y-101950000D02*
X132900000Y-111750000D01*
X133600000Y-101250000D02*
X138900000Y-101250000D01*
X138500000Y-111300000D02*
X138200000Y-112500000D01*
X138800000Y-109500000D02*
X138500000Y-111300000D01*
X138900000Y-107800000D02*
X138800000Y-109500000D01*
X151700000Y-115150000D02*
X152200000Y-114650000D01*
X132900000Y-101950000D02*
G75*
G02X133600000Y-101250000I700000J0D01*
G01*
X132900000Y-111750000D02*
G75*
G03X133600000Y-112450000I700000J0D01*
G01*
D11*
%TO.C,U13*%
X158866000Y-105462500D02*
X159516000Y-104812500D01*
X160666000Y-104812500D02*
X159516000Y-104812500D01*
X158866000Y-105462500D02*
X158866000Y-107912500D01*
X160666000Y-107912500D02*
X158866000Y-107912500D01*
X160666000Y-104812500D02*
X160666000Y-107912500D01*
%TO.C,U10*%
X172010500Y-105208500D02*
X172660500Y-104558500D01*
X173810500Y-104558500D02*
X172660500Y-104558500D01*
X172010500Y-105208500D02*
X172010500Y-107658500D01*
X173810500Y-107658500D02*
X172010500Y-107658500D01*
X173810500Y-104558500D02*
X173810500Y-107658500D01*
%TO.C,R22*%
X142964000Y-95967500D02*
X142964000Y-95167500D01*
X142964000Y-95167500D02*
X144564000Y-95167500D01*
X144564000Y-95167500D02*
X144564000Y-95967500D01*
X144564000Y-95967500D02*
X142964000Y-95967500D01*
%TO.C,R21*%
X142964000Y-97631200D02*
X142964000Y-96831200D01*
X142964000Y-96831200D02*
X144564000Y-96831200D01*
X144564000Y-96831200D02*
X144564000Y-97631200D01*
X144564000Y-97631200D02*
X142964000Y-97631200D01*
%TO.C,R12*%
X177203000Y-104565500D02*
X177203000Y-105365500D01*
X177203000Y-105365500D02*
X175603000Y-105365500D01*
X175603000Y-105365500D02*
X175603000Y-104565500D01*
X175603000Y-104565500D02*
X177203000Y-104565500D01*
%TO.C,R2*%
X168008400Y-103718732D02*
X168008400Y-102918732D01*
X168008400Y-102918732D02*
X169608400Y-102918732D01*
X169608400Y-102918732D02*
X169608400Y-103718732D01*
X169608400Y-103718732D02*
X168008400Y-103718732D01*
%TO.C,C19*%
X162458500Y-107270500D02*
X162458500Y-106470500D01*
X162458500Y-106470500D02*
X164058500Y-106470500D01*
X164058500Y-106470500D02*
X164058500Y-107270500D01*
X164058500Y-107270500D02*
X162458500Y-107270500D01*
%TO.C,C18*%
X175603000Y-108540500D02*
X175603000Y-107740500D01*
X175603000Y-107740500D02*
X177203000Y-107740500D01*
X177203000Y-107740500D02*
X177203000Y-108540500D01*
X177203000Y-108540500D02*
X175603000Y-108540500D01*
%TO.C,C17*%
X162458500Y-105683000D02*
X162458500Y-104883000D01*
X162458500Y-104883000D02*
X164058500Y-104883000D01*
X164058500Y-104883000D02*
X164058500Y-105683000D01*
X164058500Y-105683000D02*
X162458500Y-105683000D01*
%TO.C,C16*%
X175603000Y-106953000D02*
X175603000Y-106153000D01*
X175603000Y-106153000D02*
X177203000Y-106153000D01*
X177203000Y-106153000D02*
X177203000Y-106953000D01*
X177203000Y-106953000D02*
X175603000Y-106953000D01*
%TO.C,C15*%
X157435500Y-107480000D02*
X156635500Y-107480000D01*
X156635500Y-107480000D02*
X156635500Y-105880000D01*
X156635500Y-105880000D02*
X157435500Y-105880000D01*
X157435500Y-105880000D02*
X157435500Y-107480000D01*
%TO.C,C14*%
X170516500Y-107226000D02*
X169716500Y-107226000D01*
X169716500Y-107226000D02*
X169716500Y-105626000D01*
X169716500Y-105626000D02*
X170516500Y-105626000D01*
X170516500Y-105626000D02*
X170516500Y-107226000D01*
%TO.C,C6*%
X155867000Y-108470500D02*
X154267000Y-108470500D01*
X154267000Y-108470500D02*
X154267000Y-105270500D01*
X154267000Y-105270500D02*
X155867000Y-105270500D01*
X155867000Y-105270500D02*
X155867000Y-108470500D01*
%TO.C,C5*%
X168948000Y-108026000D02*
X167348000Y-108026000D01*
X167348000Y-108026000D02*
X167348000Y-104826000D01*
X167348000Y-104826000D02*
X168948000Y-104826000D01*
X168948000Y-104826000D02*
X168948000Y-108026000D01*
%TO.C,U2*%
X181594000Y-100600000D02*
X181594000Y-102600000D01*
X181594000Y-102600000D02*
X179594000Y-102600000D01*
X179594000Y-102600000D02*
X179594000Y-101100000D01*
X179594000Y-101100000D02*
X180094000Y-100600000D01*
X180094000Y-100600000D02*
X181594000Y-100600000D01*
%TO.C,U9*%
X151437000Y-119737000D02*
X147787000Y-119737000D01*
X147787000Y-119737000D02*
X147787000Y-116737000D01*
X147787000Y-116737000D02*
X152187000Y-116737000D01*
X152187000Y-116737000D02*
X152187000Y-118987000D01*
X152187000Y-118987000D02*
X151437000Y-119737000D01*
%TO.C,R19*%
X155149500Y-116929000D02*
X155149500Y-118529000D01*
X154349500Y-116929000D02*
X155149500Y-116929000D01*
X154349500Y-118529000D02*
X154349500Y-116929000D01*
X155149500Y-118529000D02*
X154349500Y-118529000D01*
%TO.C,C13*%
X175603000Y-99866500D02*
X177203000Y-99866500D01*
X175603000Y-100666500D02*
X175603000Y-99866500D01*
X177203000Y-100666500D02*
X175603000Y-100666500D01*
X177203000Y-99866500D02*
X177203000Y-100666500D01*
%TO.C,C10*%
X169582900Y-100547966D02*
X167982900Y-100547966D01*
X169582900Y-99747966D02*
X169582900Y-100547966D01*
X167982900Y-99747966D02*
X169582900Y-99747966D01*
X167982900Y-100547966D02*
X167982900Y-99747966D01*
%TO.C,C9*%
X156299000Y-119234000D02*
X157899000Y-119234000D01*
X156299000Y-120034000D02*
X156299000Y-119234000D01*
X157899000Y-120034000D02*
X156299000Y-120034000D01*
X157899000Y-119234000D02*
X157899000Y-120034000D01*
%TO.C,C8*%
X181013000Y-108477000D02*
X179413000Y-108477000D01*
X181013000Y-107677000D02*
X181013000Y-108477000D01*
X179413000Y-107677000D02*
X181013000Y-107677000D01*
X179413000Y-108477000D02*
X179413000Y-107677000D01*
%TO.C,C7*%
X148577200Y-96818400D02*
X146977200Y-96818400D01*
X148577200Y-96018400D02*
X148577200Y-96818400D01*
X146977200Y-96018400D02*
X148577200Y-96018400D01*
X146977200Y-96818400D02*
X146977200Y-96018400D01*
%TO.C,R17*%
X161772500Y-111017000D02*
X160172500Y-111017000D01*
X161772500Y-110217000D02*
X161772500Y-111017000D01*
X160172500Y-110217000D02*
X161772500Y-110217000D01*
X160172500Y-111017000D02*
X160172500Y-110217000D01*
%TO.C,R16*%
X157962500Y-111017000D02*
X156362500Y-111017000D01*
X157962500Y-110217000D02*
X157962500Y-111017000D01*
X156362500Y-110217000D02*
X157962500Y-110217000D01*
X156362500Y-111017000D02*
X156362500Y-110217000D01*
%TO.C,R7*%
X179387600Y-105310466D02*
X179387600Y-104510466D01*
X179387600Y-104510466D02*
X180987600Y-104510466D01*
X180987600Y-104510466D02*
X180987600Y-105310466D01*
X180987600Y-105310466D02*
X179387600Y-105310466D01*
%TO.C,R6*%
X179387600Y-106895849D02*
X179387600Y-106095849D01*
X179387600Y-106095849D02*
X180987600Y-106095849D01*
X180987600Y-106095849D02*
X180987600Y-106895849D01*
X180987600Y-106895849D02*
X179387600Y-106895849D01*
%TO.C,U1*%
X177714000Y-94260500D02*
X180639000Y-94260500D01*
X180639000Y-94260500D02*
X180639000Y-99160500D01*
X180639000Y-99160500D02*
X176739000Y-99160500D01*
X176739000Y-99160500D02*
X176739000Y-95235500D01*
X176739000Y-95235500D02*
X177714000Y-94260500D01*
D10*
%TO.C,U6*%
X159583500Y-120864500D02*
X161583500Y-120864500D01*
X161583500Y-120864500D02*
X161583500Y-123864500D01*
X161583500Y-123864500D02*
X158583500Y-123864500D01*
X158583500Y-123864500D02*
X158583500Y-121864500D01*
X158583500Y-121864500D02*
X159583500Y-120864500D01*
D11*
%TO.C,U11*%
X152411000Y-121147000D02*
X153061000Y-121797000D01*
X153061000Y-122947000D02*
X153061000Y-121797000D01*
X152411000Y-121147000D02*
X149961000Y-121147000D01*
X149961000Y-122947000D02*
X149961000Y-121147000D01*
X153061000Y-122947000D02*
X149961000Y-122947000D01*
%TO.C,R11*%
X167982900Y-102133349D02*
X167982900Y-101333349D01*
X167982900Y-101333349D02*
X169582900Y-101333349D01*
X169582900Y-101333349D02*
X169582900Y-102133349D01*
X169582900Y-102133349D02*
X167982900Y-102133349D01*
%TO.C,R10*%
X150736400Y-98444000D02*
X150736400Y-97644000D01*
X150736400Y-97644000D02*
X152336400Y-97644000D01*
X152336400Y-97644000D02*
X152336400Y-98444000D01*
X152336400Y-98444000D02*
X150736400Y-98444000D01*
%TO.C,R14*%
X155149500Y-115481000D02*
X154349500Y-115481000D01*
X154349500Y-115481000D02*
X154349500Y-113881000D01*
X154349500Y-113881000D02*
X155149500Y-113881000D01*
X155149500Y-113881000D02*
X155149500Y-115481000D01*
%TO.C,R4*%
X160109000Y-120034000D02*
X160109000Y-119234000D01*
X160109000Y-119234000D02*
X161709000Y-119234000D01*
X161709000Y-119234000D02*
X161709000Y-120034000D01*
X161709000Y-120034000D02*
X160109000Y-120034000D01*
%TO.C,R15*%
X154140000Y-123590000D02*
X154140000Y-122790000D01*
X154140000Y-122790000D02*
X155740000Y-122790000D01*
X155740000Y-122790000D02*
X155740000Y-123590000D01*
X155740000Y-123590000D02*
X154140000Y-123590000D01*
%TO.C,R13*%
X146647000Y-123590000D02*
X146647000Y-122790000D01*
X146647000Y-122790000D02*
X148247000Y-122790000D01*
X148247000Y-122790000D02*
X148247000Y-123590000D01*
X148247000Y-123590000D02*
X146647000Y-123590000D01*
%TO.C,R1*%
X162458500Y-108858000D02*
X162458500Y-108058000D01*
X162458500Y-108058000D02*
X164058500Y-108058000D01*
X164058500Y-108058000D02*
X164058500Y-108858000D01*
X164058500Y-108858000D02*
X162458500Y-108858000D01*
%TO.C,Q1*%
X140527000Y-97343000D02*
X140527000Y-94893000D01*
X139977000Y-97913000D02*
X139127000Y-97913000D01*
X140527000Y-97343000D02*
X139977000Y-97913000D01*
X139127000Y-97913000D02*
X139127000Y-94873000D01*
X140527000Y-94873000D02*
X139127000Y-94873000D01*
%TO.C,D1*%
X145253000Y-123428000D02*
X145253000Y-121728000D01*
X145253000Y-121728000D02*
X144953000Y-121428000D01*
X144953000Y-121428000D02*
X144053000Y-121428000D01*
X144053000Y-121428000D02*
X144053000Y-123428000D01*
X144053000Y-123428000D02*
X145253000Y-123428000D01*
%TO.C,C4*%
X144691000Y-118662500D02*
X144691000Y-119462500D01*
X144691000Y-119462500D02*
X143091000Y-119462500D01*
X143091000Y-119462500D02*
X143091000Y-118662500D01*
X143091000Y-118662500D02*
X144691000Y-118662500D01*
%TO.C,C3*%
X144678200Y-117100400D02*
X144678200Y-117900400D01*
X144678200Y-117900400D02*
X143078200Y-117900400D01*
X143078200Y-117900400D02*
X143078200Y-117100400D01*
X143078200Y-117100400D02*
X144678200Y-117100400D01*
%TO.C,C2*%
X148247000Y-121139000D02*
X148247000Y-121939000D01*
X148247000Y-121939000D02*
X146647000Y-121939000D01*
X146647000Y-121939000D02*
X146647000Y-121139000D01*
X146647000Y-121139000D02*
X148247000Y-121139000D01*
%TO.C,C1*%
X155740000Y-121139000D02*
X155740000Y-121939000D01*
X155740000Y-121939000D02*
X154140000Y-121939000D01*
X154140000Y-121939000D02*
X154140000Y-121139000D01*
X154140000Y-121139000D02*
X155740000Y-121139000D01*
%TO.C,R9*%
X154660500Y-124682300D02*
X154660500Y-125482300D01*
X154660500Y-125482300D02*
X153060500Y-125482300D01*
X153060500Y-125482300D02*
X153060500Y-124682300D01*
X153060500Y-124682300D02*
X154660500Y-124682300D01*
%TO.C,R8*%
X165316000Y-125482300D02*
X165316000Y-124682300D01*
X165316000Y-124682300D02*
X166916000Y-124682300D01*
X166916000Y-124682300D02*
X166916000Y-125482300D01*
X166916000Y-125482300D02*
X165316000Y-125482300D01*
D12*
%TO.C,U5*%
X163720000Y-130550000D02*
X163720000Y-125550000D01*
X155920000Y-131050000D02*
X164120000Y-131050000D01*
X156320000Y-125550000D02*
X156320000Y-130550000D01*
X164120000Y-131050000D02*
X164120000Y-130550000D01*
X164120000Y-130550000D02*
X163720000Y-130550000D01*
X155920000Y-131050000D02*
X155920000Y-130550000D01*
X155920000Y-130550000D02*
X156320000Y-130550000D01*
X163720000Y-125550000D02*
X156320000Y-125550000D01*
%TD*%
%TO.C,U7*%
D11*
X176803857Y-119546333D02*
X176803857Y-119355857D01*
X176637190Y-119474904D02*
X177065761Y-119474904D01*
X177113380Y-119451095D01*
X177137190Y-119403476D01*
X177137190Y-119355857D01*
X176803857Y-119260619D02*
X176803857Y-119070142D01*
X176637190Y-119189190D02*
X177065761Y-119189190D01*
X177113380Y-119165380D01*
X177137190Y-119117761D01*
X177137190Y-119070142D01*
X176803857Y-118689190D02*
X177208619Y-118689190D01*
X177256238Y-118713000D01*
X177280047Y-118736809D01*
X177303857Y-118784428D01*
X177303857Y-118855857D01*
X177280047Y-118903476D01*
X177113380Y-118689190D02*
X177137190Y-118736809D01*
X177137190Y-118832047D01*
X177113380Y-118879666D01*
X177089571Y-118903476D01*
X177041952Y-118927285D01*
X176899095Y-118927285D01*
X176851476Y-118903476D01*
X176827666Y-118879666D01*
X176803857Y-118832047D01*
X176803857Y-118736809D01*
X176827666Y-118689190D01*
X177137190Y-118379666D02*
X177113380Y-118427285D01*
X177089571Y-118451095D01*
X177041952Y-118474904D01*
X176899095Y-118474904D01*
X176851476Y-118451095D01*
X176827666Y-118427285D01*
X176803857Y-118379666D01*
X176803857Y-118308238D01*
X176827666Y-118260619D01*
X176851476Y-118236809D01*
X176899095Y-118213000D01*
X177041952Y-118213000D01*
X177089571Y-118236809D01*
X177113380Y-118260619D01*
X177137190Y-118308238D01*
X177137190Y-118379666D01*
X176946714Y-117998714D02*
X176946714Y-117617761D01*
X176637190Y-117427285D02*
X176637190Y-117117761D01*
X176827666Y-117284428D01*
X176827666Y-117213000D01*
X176851476Y-117165380D01*
X176875285Y-117141571D01*
X176922904Y-117117761D01*
X177041952Y-117117761D01*
X177089571Y-117141571D01*
X177113380Y-117165380D01*
X177137190Y-117213000D01*
X177137190Y-117355857D01*
X177113380Y-117403476D01*
X177089571Y-117427285D01*
X176684809Y-116927285D02*
X176661000Y-116903476D01*
X176637190Y-116855857D01*
X176637190Y-116736809D01*
X176661000Y-116689190D01*
X176684809Y-116665380D01*
X176732428Y-116641571D01*
X176780047Y-116641571D01*
X176851476Y-116665380D01*
X177137190Y-116951095D01*
X177137190Y-116641571D01*
X176946714Y-116427285D02*
X176946714Y-116046333D01*
X177137190Y-115808238D02*
X176803857Y-115808238D01*
X176851476Y-115808238D02*
X176827666Y-115784428D01*
X176803857Y-115736809D01*
X176803857Y-115665380D01*
X176827666Y-115617761D01*
X176875285Y-115593952D01*
X177137190Y-115593952D01*
X176875285Y-115593952D02*
X176827666Y-115570142D01*
X176803857Y-115522523D01*
X176803857Y-115451095D01*
X176827666Y-115403476D01*
X176875285Y-115379666D01*
X177137190Y-115379666D01*
X177137190Y-115141571D02*
X176803857Y-115141571D01*
X176637190Y-115141571D02*
X176661000Y-115165380D01*
X176684809Y-115141571D01*
X176661000Y-115117761D01*
X176637190Y-115141571D01*
X176684809Y-115141571D01*
X177113380Y-114689190D02*
X177137190Y-114736809D01*
X177137190Y-114832047D01*
X177113380Y-114879666D01*
X177089571Y-114903476D01*
X177041952Y-114927285D01*
X176899095Y-114927285D01*
X176851476Y-114903476D01*
X176827666Y-114879666D01*
X176803857Y-114832047D01*
X176803857Y-114736809D01*
X176827666Y-114689190D01*
X177137190Y-114474904D02*
X176803857Y-114474904D01*
X176899095Y-114474904D02*
X176851476Y-114451095D01*
X176827666Y-114427285D01*
X176803857Y-114379666D01*
X176803857Y-114332047D01*
X177137190Y-114093952D02*
X177113380Y-114141571D01*
X177089571Y-114165380D01*
X177041952Y-114189190D01*
X176899095Y-114189190D01*
X176851476Y-114165380D01*
X176827666Y-114141571D01*
X176803857Y-114093952D01*
X176803857Y-114022523D01*
X176827666Y-113974904D01*
X176851476Y-113951095D01*
X176899095Y-113927285D01*
X177041952Y-113927285D01*
X177089571Y-113951095D01*
X177113380Y-113974904D01*
X177137190Y-114022523D01*
X177137190Y-114093952D01*
%TO.C,J1*%
X139451590Y-121527866D02*
X139808733Y-121527866D01*
X139880161Y-121551676D01*
X139927780Y-121599295D01*
X139951590Y-121670723D01*
X139951590Y-121718342D01*
X139951590Y-121027866D02*
X139951590Y-121313580D01*
X139951590Y-121170723D02*
X139451590Y-121170723D01*
X139523019Y-121218342D01*
X139570638Y-121265961D01*
X139594447Y-121313580D01*
%TO.C,C12*%
D13*
X160715357Y-112347357D02*
X160696309Y-112366404D01*
X160639166Y-112385452D01*
X160601071Y-112385452D01*
X160543928Y-112366404D01*
X160505833Y-112328309D01*
X160486785Y-112290214D01*
X160467738Y-112214023D01*
X160467738Y-112156880D01*
X160486785Y-112080690D01*
X160505833Y-112042595D01*
X160543928Y-112004500D01*
X160601071Y-111985452D01*
X160639166Y-111985452D01*
X160696309Y-112004500D01*
X160715357Y-112023547D01*
X161096309Y-112385452D02*
X160867738Y-112385452D01*
X160982023Y-112385452D02*
X160982023Y-111985452D01*
X160943928Y-112042595D01*
X160905833Y-112080690D01*
X160867738Y-112099738D01*
X161248690Y-112023547D02*
X161267738Y-112004500D01*
X161305833Y-111985452D01*
X161401071Y-111985452D01*
X161439166Y-112004500D01*
X161458214Y-112023547D01*
X161477261Y-112061642D01*
X161477261Y-112099738D01*
X161458214Y-112156880D01*
X161229642Y-112385452D01*
X161477261Y-112385452D01*
%TO.C,U3*%
D10*
X158638333Y-115414333D02*
X158638333Y-116207666D01*
X158685000Y-116301000D01*
X158731666Y-116347666D01*
X158825000Y-116394333D01*
X159011666Y-116394333D01*
X159105000Y-116347666D01*
X159151666Y-116301000D01*
X159198333Y-116207666D01*
X159198333Y-115414333D01*
X159571666Y-115414333D02*
X160178333Y-115414333D01*
X159851666Y-115787666D01*
X159991666Y-115787666D01*
X160085000Y-115834333D01*
X160131666Y-115881000D01*
X160178333Y-115974333D01*
X160178333Y-116207666D01*
X160131666Y-116301000D01*
X160085000Y-116347666D01*
X159991666Y-116394333D01*
X159711666Y-116394333D01*
X159618333Y-116347666D01*
X159571666Y-116301000D01*
%TO.C,R25*%
D11*
X176368776Y-102008222D02*
X176083061Y-102008222D01*
X176225919Y-102008222D02*
X176225919Y-101508222D01*
X176178300Y-101579651D01*
X176130680Y-101627270D01*
X176083061Y-101651079D01*
X176583061Y-102008222D02*
X176583061Y-101508222D01*
X176630680Y-101817746D02*
X176773538Y-102008222D01*
X176773538Y-101674889D02*
X176583061Y-101865365D01*
D13*
X176145757Y-101975684D02*
X176012423Y-101785208D01*
X175917185Y-101975684D02*
X175917185Y-101575684D01*
X176069566Y-101575684D01*
X176107661Y-101594732D01*
X176126709Y-101613779D01*
X176145757Y-101651874D01*
X176145757Y-101709017D01*
X176126709Y-101747112D01*
X176107661Y-101766160D01*
X176069566Y-101785208D01*
X175917185Y-101785208D01*
X176298138Y-101613779D02*
X176317185Y-101594732D01*
X176355280Y-101575684D01*
X176450519Y-101575684D01*
X176488614Y-101594732D01*
X176507661Y-101613779D01*
X176526709Y-101651874D01*
X176526709Y-101689970D01*
X176507661Y-101747112D01*
X176279090Y-101975684D01*
X176526709Y-101975684D01*
X176888614Y-101575684D02*
X176698138Y-101575684D01*
X176679090Y-101766160D01*
X176698138Y-101747112D01*
X176736233Y-101728065D01*
X176831471Y-101728065D01*
X176869566Y-101747112D01*
X176888614Y-101766160D01*
X176907661Y-101804255D01*
X176907661Y-101899493D01*
X176888614Y-101937589D01*
X176869566Y-101956636D01*
X176831471Y-101975684D01*
X176736233Y-101975684D01*
X176698138Y-101956636D01*
X176679090Y-101937589D01*
%TO.C,R24*%
D11*
X176368876Y-103606305D02*
X176083161Y-103606305D01*
X176226019Y-103606305D02*
X176226019Y-103106305D01*
X176178400Y-103177734D01*
X176130780Y-103225353D01*
X176083161Y-103249162D01*
X176583161Y-103606305D02*
X176583161Y-103106305D01*
X176630780Y-103415829D02*
X176773638Y-103606305D01*
X176773638Y-103272972D02*
X176583161Y-103463448D01*
D13*
X176145757Y-103561067D02*
X176012423Y-103370591D01*
X175917185Y-103561067D02*
X175917185Y-103161067D01*
X176069566Y-103161067D01*
X176107661Y-103180115D01*
X176126709Y-103199162D01*
X176145757Y-103237257D01*
X176145757Y-103294400D01*
X176126709Y-103332495D01*
X176107661Y-103351543D01*
X176069566Y-103370591D01*
X175917185Y-103370591D01*
X176298138Y-103199162D02*
X176317185Y-103180115D01*
X176355280Y-103161067D01*
X176450519Y-103161067D01*
X176488614Y-103180115D01*
X176507661Y-103199162D01*
X176526709Y-103237257D01*
X176526709Y-103275353D01*
X176507661Y-103332495D01*
X176279090Y-103561067D01*
X176526709Y-103561067D01*
X176869566Y-103294400D02*
X176869566Y-103561067D01*
X176774328Y-103142019D02*
X176679090Y-103427734D01*
X176926709Y-103427734D01*
%TO.C,R23*%
D11*
X172271571Y-103201190D02*
X172033476Y-103201190D01*
X172009666Y-103439285D01*
X172033476Y-103415476D01*
X172081095Y-103391666D01*
X172200142Y-103391666D01*
X172247761Y-103415476D01*
X172271571Y-103439285D01*
X172295380Y-103486904D01*
X172295380Y-103605952D01*
X172271571Y-103653571D01*
X172247761Y-103677380D01*
X172200142Y-103701190D01*
X172081095Y-103701190D01*
X172033476Y-103677380D01*
X172009666Y-103653571D01*
X172723952Y-103201190D02*
X172628714Y-103201190D01*
X172581095Y-103225000D01*
X172557285Y-103248809D01*
X172509666Y-103320238D01*
X172485857Y-103415476D01*
X172485857Y-103605952D01*
X172509666Y-103653571D01*
X172533476Y-103677380D01*
X172581095Y-103701190D01*
X172676333Y-103701190D01*
X172723952Y-103677380D01*
X172747761Y-103653571D01*
X172771571Y-103605952D01*
X172771571Y-103486904D01*
X172747761Y-103439285D01*
X172723952Y-103415476D01*
X172676333Y-103391666D01*
X172581095Y-103391666D01*
X172533476Y-103415476D01*
X172509666Y-103439285D01*
X172485857Y-103486904D01*
X172985857Y-103701190D02*
X172985857Y-103201190D01*
X173033476Y-103510714D02*
X173176333Y-103701190D01*
X173176333Y-103367857D02*
X172985857Y-103558333D01*
D13*
X172335857Y-103622452D02*
X172202523Y-103431976D01*
X172107285Y-103622452D02*
X172107285Y-103222452D01*
X172259666Y-103222452D01*
X172297761Y-103241500D01*
X172316809Y-103260547D01*
X172335857Y-103298642D01*
X172335857Y-103355785D01*
X172316809Y-103393880D01*
X172297761Y-103412928D01*
X172259666Y-103431976D01*
X172107285Y-103431976D01*
X172488238Y-103260547D02*
X172507285Y-103241500D01*
X172545380Y-103222452D01*
X172640619Y-103222452D01*
X172678714Y-103241500D01*
X172697761Y-103260547D01*
X172716809Y-103298642D01*
X172716809Y-103336738D01*
X172697761Y-103393880D01*
X172469190Y-103622452D01*
X172716809Y-103622452D01*
X172850142Y-103222452D02*
X173097761Y-103222452D01*
X172964428Y-103374833D01*
X173021571Y-103374833D01*
X173059666Y-103393880D01*
X173078714Y-103412928D01*
X173097761Y-103451023D01*
X173097761Y-103546261D01*
X173078714Y-103584357D01*
X173059666Y-103603404D01*
X173021571Y-103622452D01*
X172907285Y-103622452D01*
X172869190Y-103603404D01*
X172850142Y-103584357D01*
%TO.C,R20*%
D11*
X172320780Y-102016690D02*
X172035066Y-102016690D01*
X172177923Y-102016690D02*
X172177923Y-101516690D01*
X172130304Y-101588119D01*
X172082685Y-101635738D01*
X172035066Y-101659547D01*
X172630304Y-101516690D02*
X172677923Y-101516690D01*
X172725542Y-101540500D01*
X172749352Y-101564309D01*
X172773161Y-101611928D01*
X172796971Y-101707166D01*
X172796971Y-101826214D01*
X172773161Y-101921452D01*
X172749352Y-101969071D01*
X172725542Y-101992880D01*
X172677923Y-102016690D01*
X172630304Y-102016690D01*
X172582685Y-101992880D01*
X172558876Y-101969071D01*
X172535066Y-101921452D01*
X172511257Y-101826214D01*
X172511257Y-101707166D01*
X172535066Y-101611928D01*
X172558876Y-101564309D01*
X172582685Y-101540500D01*
X172630304Y-101516690D01*
X173011257Y-102016690D02*
X173011257Y-101516690D01*
X173058876Y-101826214D02*
X173201733Y-102016690D01*
X173201733Y-101683357D02*
X173011257Y-101873833D01*
D13*
X172361257Y-102034952D02*
X172227923Y-101844476D01*
X172132685Y-102034952D02*
X172132685Y-101634952D01*
X172285066Y-101634952D01*
X172323161Y-101654000D01*
X172342209Y-101673047D01*
X172361257Y-101711142D01*
X172361257Y-101768285D01*
X172342209Y-101806380D01*
X172323161Y-101825428D01*
X172285066Y-101844476D01*
X172132685Y-101844476D01*
X172513638Y-101673047D02*
X172532685Y-101654000D01*
X172570780Y-101634952D01*
X172666019Y-101634952D01*
X172704114Y-101654000D01*
X172723161Y-101673047D01*
X172742209Y-101711142D01*
X172742209Y-101749238D01*
X172723161Y-101806380D01*
X172494590Y-102034952D01*
X172742209Y-102034952D01*
X172989828Y-101634952D02*
X173027923Y-101634952D01*
X173066019Y-101654000D01*
X173085066Y-101673047D01*
X173104114Y-101711142D01*
X173123161Y-101787333D01*
X173123161Y-101882571D01*
X173104114Y-101958761D01*
X173085066Y-101996857D01*
X173066019Y-102015904D01*
X173027923Y-102034952D01*
X172989828Y-102034952D01*
X172951733Y-102015904D01*
X172932685Y-101996857D01*
X172913638Y-101958761D01*
X172894590Y-101882571D01*
X172894590Y-101787333D01*
X172913638Y-101711142D01*
X172932685Y-101673047D01*
X172951733Y-101654000D01*
X172989828Y-101634952D01*
%TO.C,R3*%
D11*
X172533476Y-101859190D02*
X172247761Y-101859190D01*
X172390619Y-101859190D02*
X172390619Y-101359190D01*
X172343000Y-101430619D01*
X172295380Y-101478238D01*
X172247761Y-101502047D01*
X172747761Y-101859190D02*
X172747761Y-101359190D01*
X172795380Y-101668714D02*
X172938238Y-101859190D01*
X172938238Y-101525857D02*
X172747761Y-101716333D01*
X172509666Y-100429190D02*
X172343000Y-100191095D01*
X172223952Y-100429190D02*
X172223952Y-99929190D01*
X172414428Y-99929190D01*
X172462047Y-99953000D01*
X172485857Y-99976809D01*
X172509666Y-100024428D01*
X172509666Y-100095857D01*
X172485857Y-100143476D01*
X172462047Y-100167285D01*
X172414428Y-100191095D01*
X172223952Y-100191095D01*
X172676333Y-99929190D02*
X172985857Y-99929190D01*
X172819190Y-100119666D01*
X172890619Y-100119666D01*
X172938238Y-100143476D01*
X172962047Y-100167285D01*
X172985857Y-100214904D01*
X172985857Y-100333952D01*
X172962047Y-100381571D01*
X172938238Y-100405380D01*
X172890619Y-100429190D01*
X172747761Y-100429190D01*
X172700142Y-100405380D01*
X172676333Y-100381571D01*
%TO.C,SW2*%
X170088437Y-89228203D02*
X170134340Y-89287885D01*
X170233035Y-89354455D01*
X170285827Y-89361345D01*
X170318880Y-89354920D01*
X170365247Y-89328756D01*
X170391876Y-89289278D01*
X170398765Y-89236486D01*
X170392340Y-89203433D01*
X170366176Y-89157065D01*
X170300534Y-89084070D01*
X170274370Y-89037703D01*
X170267946Y-89004650D01*
X170274835Y-88951858D01*
X170301463Y-88912380D01*
X170347830Y-88886216D01*
X170380883Y-88879791D01*
X170433675Y-88886680D01*
X170532370Y-88953251D01*
X170578273Y-89012932D01*
X170729760Y-89086392D02*
X170548859Y-89567481D01*
X170827527Y-89324653D01*
X170706771Y-89673994D01*
X171085062Y-89326046D01*
X170838054Y-89819985D02*
X171153878Y-90033011D01*
X171279201Y-90060104D02*
X171558798Y-89645585D01*
X171716710Y-89752098D01*
X171742874Y-89798465D01*
X171749299Y-89831518D01*
X171742409Y-89884310D01*
X171702467Y-89943527D01*
X171656100Y-89969691D01*
X171623047Y-89976116D01*
X171570255Y-89969227D01*
X171412343Y-89862714D01*
X172057769Y-90183181D02*
X171871371Y-90459527D01*
X171880118Y-90063354D02*
X171733663Y-90280483D01*
X171726773Y-90333275D01*
X171752937Y-90379642D01*
X171812154Y-90419585D01*
X171864946Y-90426474D01*
X171897999Y-90420049D01*
X172062336Y-90559615D02*
X172088500Y-90605982D01*
X172167456Y-90659239D01*
X172220248Y-90666128D01*
X172266615Y-90639964D01*
X172279929Y-90620225D01*
X172286819Y-90567433D01*
X172260655Y-90521066D01*
X172201438Y-90481124D01*
X172175274Y-90434756D01*
X172182163Y-90381964D01*
X172195477Y-90362225D01*
X172241845Y-90336061D01*
X172294637Y-90342951D01*
X172353854Y-90382893D01*
X172380017Y-90429260D01*
X172404324Y-90819008D02*
X172683920Y-90404489D01*
X172581975Y-90938835D02*
X172728430Y-90721706D01*
X172735319Y-90668914D01*
X172709155Y-90622547D01*
X172649938Y-90582605D01*
X172597146Y-90575715D01*
X172564093Y-90582140D01*
%TO.C,SW1*%
X147289374Y-91043383D02*
X147361905Y-91023180D01*
X147460600Y-90956609D01*
X147486764Y-90910242D01*
X147493189Y-90877189D01*
X147486300Y-90824397D01*
X147459671Y-90784919D01*
X147413304Y-90758755D01*
X147380251Y-90752330D01*
X147327459Y-90759220D01*
X147235189Y-90792737D01*
X147182397Y-90799626D01*
X147149344Y-90793201D01*
X147102977Y-90767038D01*
X147076348Y-90727560D01*
X147069459Y-90674767D01*
X147075884Y-90641714D01*
X147102048Y-90595347D01*
X147200743Y-90528777D01*
X147273274Y-90508573D01*
X147398133Y-90395635D02*
X147776424Y-90743584D01*
X147655668Y-90394242D01*
X147934336Y-90637071D01*
X147753434Y-90155981D01*
X148118876Y-90570036D02*
X148434700Y-90357010D01*
X148506767Y-90250961D02*
X148227170Y-89836442D01*
X148385082Y-89729930D01*
X148437874Y-89723040D01*
X148470927Y-89729465D01*
X148517295Y-89755629D01*
X148557237Y-89814846D01*
X148564126Y-89867638D01*
X148557701Y-89900691D01*
X148531537Y-89947058D01*
X148373625Y-90053571D01*
X148912539Y-89575192D02*
X149098936Y-89851538D01*
X148734888Y-89695019D02*
X148881343Y-89912148D01*
X148927710Y-89938312D01*
X148980502Y-89931422D01*
X149039719Y-89891480D01*
X149065883Y-89845113D01*
X149072308Y-89812060D01*
X149263273Y-89711972D02*
X149316065Y-89705082D01*
X149395021Y-89651826D01*
X149421185Y-89605459D01*
X149414296Y-89552667D01*
X149400982Y-89532928D01*
X149354614Y-89506764D01*
X149301822Y-89513653D01*
X149242605Y-89553595D01*
X149189813Y-89560485D01*
X149143446Y-89534321D01*
X149130132Y-89514582D01*
X149123243Y-89461790D01*
X149149407Y-89415422D01*
X149208624Y-89375480D01*
X149261416Y-89368591D01*
X149631889Y-89492057D02*
X149352293Y-89077538D01*
X149809540Y-89372230D02*
X149663085Y-89155101D01*
X149616717Y-89128937D01*
X149563925Y-89135826D01*
X149504708Y-89175768D01*
X149478545Y-89222136D01*
X149472120Y-89255189D01*
%TO.C,SW5*%
X154530188Y-131471165D02*
X154589870Y-131425262D01*
X154656440Y-131326567D01*
X154663330Y-131273775D01*
X154656905Y-131240722D01*
X154630741Y-131194355D01*
X154591263Y-131167726D01*
X154538471Y-131160837D01*
X154505418Y-131167262D01*
X154459050Y-131193426D01*
X154386055Y-131259068D01*
X154339688Y-131285232D01*
X154306635Y-131291656D01*
X154253843Y-131284767D01*
X154214365Y-131258139D01*
X154188201Y-131211772D01*
X154181776Y-131178719D01*
X154188665Y-131125927D01*
X154255236Y-131027232D01*
X154314917Y-130981329D01*
X154388377Y-130829842D02*
X154869466Y-131010743D01*
X154626638Y-130732075D01*
X154975979Y-130852831D01*
X154628031Y-130474540D01*
X155121970Y-130721548D02*
X155334996Y-130405724D01*
X155362089Y-130280401D02*
X154947570Y-130000804D01*
X155054083Y-129842892D01*
X155100450Y-129816728D01*
X155133503Y-129810303D01*
X155186295Y-129817193D01*
X155245512Y-129857135D01*
X155271676Y-129903502D01*
X155278101Y-129936555D01*
X155271212Y-129989347D01*
X155164699Y-130147259D01*
X155485166Y-129501833D02*
X155761512Y-129688231D01*
X155365339Y-129679484D02*
X155582468Y-129825939D01*
X155635260Y-129832829D01*
X155681627Y-129806665D01*
X155721570Y-129747448D01*
X155728459Y-129694656D01*
X155722034Y-129661603D01*
X155861600Y-129497266D02*
X155907967Y-129471102D01*
X155961224Y-129392146D01*
X155968113Y-129339354D01*
X155941949Y-129292987D01*
X155922210Y-129279673D01*
X155869418Y-129272783D01*
X155823051Y-129298947D01*
X155783109Y-129358164D01*
X155736741Y-129384328D01*
X155683949Y-129377439D01*
X155664210Y-129364125D01*
X155638046Y-129317757D01*
X155644936Y-129264965D01*
X155684878Y-129205748D01*
X155731245Y-129179585D01*
X156120993Y-129155278D02*
X155706474Y-128875682D01*
X156240820Y-128977627D02*
X156023691Y-128831172D01*
X155970899Y-128824283D01*
X155924532Y-128850447D01*
X155884590Y-128909664D01*
X155877700Y-128962456D01*
X155884125Y-128995509D01*
%TO.C,SW4*%
X169782851Y-131038143D02*
X169855724Y-131019208D01*
X169955565Y-130954370D01*
X169982534Y-130908467D01*
X169989535Y-130875531D01*
X169983568Y-130822626D01*
X169957633Y-130782690D01*
X169911730Y-130755721D01*
X169878794Y-130748720D01*
X169825889Y-130754687D01*
X169733048Y-130786589D01*
X169680144Y-130792556D01*
X169647208Y-130785555D01*
X169601305Y-130758586D01*
X169575369Y-130718649D01*
X169569402Y-130665745D01*
X169576403Y-130632809D01*
X169603372Y-130586905D01*
X169703214Y-130522067D01*
X169776087Y-130503133D01*
X169902898Y-130392391D02*
X170275059Y-130746889D01*
X170160418Y-130395493D01*
X170434806Y-130643148D01*
X170262328Y-130158975D01*
X170620488Y-130579344D02*
X170939981Y-130371862D01*
X171013888Y-130267088D02*
X170741568Y-129847752D01*
X170901315Y-129744012D01*
X170954219Y-129738045D01*
X170987155Y-129745045D01*
X171033059Y-129772015D01*
X171071961Y-129831920D01*
X171077928Y-129884824D01*
X171070928Y-129917760D01*
X171043958Y-129963663D01*
X170884212Y-130067404D01*
X171431392Y-129598503D02*
X171612938Y-129878060D01*
X171251677Y-129715211D02*
X171394320Y-129934863D01*
X171440224Y-129961832D01*
X171493128Y-129955865D01*
X171553033Y-129916962D01*
X171580002Y-129871059D01*
X171587003Y-129838123D01*
X171779686Y-129741383D02*
X171832590Y-129735416D01*
X171912463Y-129683546D01*
X171939432Y-129637642D01*
X171933465Y-129584738D01*
X171920498Y-129564770D01*
X171874594Y-129537800D01*
X171821690Y-129543767D01*
X171761785Y-129582670D01*
X171708881Y-129588637D01*
X171662977Y-129561668D01*
X171650010Y-129541700D01*
X171644043Y-129488795D01*
X171671012Y-129442892D01*
X171730917Y-129403989D01*
X171783821Y-129398022D01*
X172152083Y-129527935D02*
X171879764Y-129108599D01*
X172331799Y-129411226D02*
X172189155Y-129191574D01*
X172143251Y-129164605D01*
X172090347Y-129170572D01*
X172030442Y-129209475D01*
X172003473Y-129255379D01*
X171996472Y-129288314D01*
%TO.C,U8*%
X160273809Y-95869047D02*
X159869047Y-95869047D01*
X159821428Y-95892857D01*
X159797619Y-95916666D01*
X159773809Y-95964285D01*
X159773809Y-96059523D01*
X159797619Y-96107142D01*
X159821428Y-96130952D01*
X159869047Y-96154761D01*
X160273809Y-96154761D01*
X160059523Y-96464285D02*
X160083333Y-96416666D01*
X160107142Y-96392857D01*
X160154761Y-96369047D01*
X160178571Y-96369047D01*
X160226190Y-96392857D01*
X160250000Y-96416666D01*
X160273809Y-96464285D01*
X160273809Y-96559523D01*
X160250000Y-96607142D01*
X160226190Y-96630952D01*
X160178571Y-96654761D01*
X160154761Y-96654761D01*
X160107142Y-96630952D01*
X160083333Y-96607142D01*
X160059523Y-96559523D01*
X160059523Y-96464285D01*
X160035714Y-96416666D01*
X160011904Y-96392857D01*
X159964285Y-96369047D01*
X159869047Y-96369047D01*
X159821428Y-96392857D01*
X159797619Y-96416666D01*
X159773809Y-96464285D01*
X159773809Y-96559523D01*
X159797619Y-96607142D01*
X159821428Y-96630952D01*
X159869047Y-96654761D01*
X159964285Y-96654761D01*
X160011904Y-96630952D01*
X160035714Y-96607142D01*
X160059523Y-96559523D01*
%TO.C,R18*%
X171817600Y-96906392D02*
X171841409Y-96882583D01*
X171889028Y-96858773D01*
X172008076Y-96858773D01*
X172055695Y-96882583D01*
X172079504Y-96906392D01*
X172103314Y-96954011D01*
X172103314Y-97001630D01*
X172079504Y-97073059D01*
X171793790Y-97358773D01*
X172103314Y-97358773D01*
X172317600Y-97311154D02*
X172341409Y-97334963D01*
X172317600Y-97358773D01*
X172293790Y-97334963D01*
X172317600Y-97311154D01*
X172317600Y-97358773D01*
X172531885Y-96906392D02*
X172555695Y-96882583D01*
X172603314Y-96858773D01*
X172722361Y-96858773D01*
X172769980Y-96882583D01*
X172793790Y-96906392D01*
X172817600Y-96954011D01*
X172817600Y-97001630D01*
X172793790Y-97073059D01*
X172508076Y-97358773D01*
X172817600Y-97358773D01*
X173031885Y-97358773D02*
X173031885Y-96858773D01*
X173317600Y-97358773D02*
X173103314Y-97073059D01*
X173317600Y-96858773D02*
X173031885Y-97144487D01*
X172246171Y-98788773D02*
X172079504Y-98550678D01*
X171960457Y-98788773D02*
X171960457Y-98288773D01*
X172150933Y-98288773D01*
X172198552Y-98312583D01*
X172222361Y-98336392D01*
X172246171Y-98384011D01*
X172246171Y-98455440D01*
X172222361Y-98503059D01*
X172198552Y-98526868D01*
X172150933Y-98550678D01*
X171960457Y-98550678D01*
X172722361Y-98788773D02*
X172436647Y-98788773D01*
X172579504Y-98788773D02*
X172579504Y-98288773D01*
X172531885Y-98360202D01*
X172484266Y-98407821D01*
X172436647Y-98431630D01*
X173008076Y-98503059D02*
X172960457Y-98479249D01*
X172936647Y-98455440D01*
X172912838Y-98407821D01*
X172912838Y-98384011D01*
X172936647Y-98336392D01*
X172960457Y-98312583D01*
X173008076Y-98288773D01*
X173103314Y-98288773D01*
X173150933Y-98312583D01*
X173174742Y-98336392D01*
X173198552Y-98384011D01*
X173198552Y-98407821D01*
X173174742Y-98455440D01*
X173150933Y-98479249D01*
X173103314Y-98503059D01*
X173008076Y-98503059D01*
X172960457Y-98526868D01*
X172936647Y-98550678D01*
X172912838Y-98598297D01*
X172912838Y-98693535D01*
X172936647Y-98741154D01*
X172960457Y-98764963D01*
X173008076Y-98788773D01*
X173103314Y-98788773D01*
X173150933Y-98764963D01*
X173174742Y-98741154D01*
X173198552Y-98693535D01*
X173198552Y-98598297D01*
X173174742Y-98550678D01*
X173150933Y-98526868D01*
X173103314Y-98503059D01*
%TO.C,C11*%
X171960457Y-95273390D02*
X172008076Y-95273390D01*
X172055695Y-95297200D01*
X172079504Y-95321009D01*
X172103314Y-95368628D01*
X172127123Y-95463866D01*
X172127123Y-95582914D01*
X172103314Y-95678152D01*
X172079504Y-95725771D01*
X172055695Y-95749580D01*
X172008076Y-95773390D01*
X171960457Y-95773390D01*
X171912838Y-95749580D01*
X171889028Y-95725771D01*
X171865219Y-95678152D01*
X171841409Y-95582914D01*
X171841409Y-95463866D01*
X171865219Y-95368628D01*
X171889028Y-95321009D01*
X171912838Y-95297200D01*
X171960457Y-95273390D01*
X172341409Y-95725771D02*
X172365219Y-95749580D01*
X172341409Y-95773390D01*
X172317600Y-95749580D01*
X172341409Y-95725771D01*
X172341409Y-95773390D01*
X172841409Y-95773390D02*
X172555695Y-95773390D01*
X172698552Y-95773390D02*
X172698552Y-95273390D01*
X172650933Y-95344819D01*
X172603314Y-95392438D01*
X172555695Y-95416247D01*
X173269980Y-95440057D02*
X173269980Y-95773390D01*
X173055695Y-95440057D02*
X173055695Y-95701961D01*
X173079504Y-95749580D01*
X173127123Y-95773390D01*
X173198552Y-95773390D01*
X173246171Y-95749580D01*
X173269980Y-95725771D01*
X172246171Y-97155771D02*
X172222361Y-97179580D01*
X172150933Y-97203390D01*
X172103314Y-97203390D01*
X172031885Y-97179580D01*
X171984266Y-97131961D01*
X171960457Y-97084342D01*
X171936647Y-96989104D01*
X171936647Y-96917676D01*
X171960457Y-96822438D01*
X171984266Y-96774819D01*
X172031885Y-96727200D01*
X172103314Y-96703390D01*
X172150933Y-96703390D01*
X172222361Y-96727200D01*
X172246171Y-96751009D01*
X172722361Y-97203390D02*
X172436647Y-97203390D01*
X172579504Y-97203390D02*
X172579504Y-96703390D01*
X172531885Y-96774819D01*
X172484266Y-96822438D01*
X172436647Y-96846247D01*
X173198552Y-97203390D02*
X172912838Y-97203390D01*
X173055695Y-97203390D02*
X173055695Y-96703390D01*
X173008076Y-96774819D01*
X172960457Y-96822438D01*
X172912838Y-96846247D01*
%TO.C,C21*%
X168461471Y-98633390D02*
X168175757Y-98633390D01*
X168318614Y-98633390D02*
X168318614Y-98133390D01*
X168270995Y-98204819D01*
X168223376Y-98252438D01*
X168175757Y-98276247D01*
X168770995Y-98133390D02*
X168818614Y-98133390D01*
X168866233Y-98157200D01*
X168890042Y-98181009D01*
X168913852Y-98228628D01*
X168937661Y-98323866D01*
X168937661Y-98442914D01*
X168913852Y-98538152D01*
X168890042Y-98585771D01*
X168866233Y-98609580D01*
X168818614Y-98633390D01*
X168770995Y-98633390D01*
X168723376Y-98609580D01*
X168699566Y-98585771D01*
X168675757Y-98538152D01*
X168651947Y-98442914D01*
X168651947Y-98323866D01*
X168675757Y-98228628D01*
X168699566Y-98181009D01*
X168723376Y-98157200D01*
X168770995Y-98133390D01*
X169151947Y-98300057D02*
X169151947Y-98800057D01*
X169151947Y-98323866D02*
X169199566Y-98300057D01*
X169294804Y-98300057D01*
X169342423Y-98323866D01*
X169366233Y-98347676D01*
X169390042Y-98395295D01*
X169390042Y-98538152D01*
X169366233Y-98585771D01*
X169342423Y-98609580D01*
X169294804Y-98633390D01*
X169199566Y-98633390D01*
X169151947Y-98609580D01*
X168936171Y-98924228D02*
X168959980Y-98948038D01*
X168983790Y-99019466D01*
X168983790Y-99067085D01*
X168959980Y-99138514D01*
X168912361Y-99186133D01*
X168864742Y-99209942D01*
X168769504Y-99233752D01*
X168698076Y-99233752D01*
X168602838Y-99209942D01*
X168555219Y-99186133D01*
X168507600Y-99138514D01*
X168483790Y-99067085D01*
X168483790Y-99019466D01*
X168507600Y-98948038D01*
X168531409Y-98924228D01*
X168531409Y-98733752D02*
X168507600Y-98709942D01*
X168483790Y-98662323D01*
X168483790Y-98543276D01*
X168507600Y-98495657D01*
X168531409Y-98471847D01*
X168579028Y-98448038D01*
X168626647Y-98448038D01*
X168698076Y-98471847D01*
X168983790Y-98757561D01*
X168983790Y-98448038D01*
X168983790Y-97971847D02*
X168983790Y-98257561D01*
X168983790Y-98114704D02*
X168483790Y-98114704D01*
X168555219Y-98162323D01*
X168602838Y-98209942D01*
X168626647Y-98257561D01*
%TO.C,C22*%
X147157357Y-97820990D02*
X147204976Y-97820990D01*
X147252595Y-97844800D01*
X147276404Y-97868609D01*
X147300214Y-97916228D01*
X147324023Y-98011466D01*
X147324023Y-98130514D01*
X147300214Y-98225752D01*
X147276404Y-98273371D01*
X147252595Y-98297180D01*
X147204976Y-98320990D01*
X147157357Y-98320990D01*
X147109738Y-98297180D01*
X147085928Y-98273371D01*
X147062119Y-98225752D01*
X147038309Y-98130514D01*
X147038309Y-98011466D01*
X147062119Y-97916228D01*
X147085928Y-97868609D01*
X147109738Y-97844800D01*
X147157357Y-97820990D01*
X147538309Y-98273371D02*
X147562119Y-98297180D01*
X147538309Y-98320990D01*
X147514500Y-98297180D01*
X147538309Y-98273371D01*
X147538309Y-98320990D01*
X148038309Y-98320990D02*
X147752595Y-98320990D01*
X147895452Y-98320990D02*
X147895452Y-97820990D01*
X147847833Y-97892419D01*
X147800214Y-97940038D01*
X147752595Y-97963847D01*
X148466880Y-97987657D02*
X148466880Y-98320990D01*
X148252595Y-97987657D02*
X148252595Y-98249561D01*
X148276404Y-98297180D01*
X148324023Y-98320990D01*
X148395452Y-98320990D01*
X148443071Y-98297180D01*
X148466880Y-98273371D01*
X147443071Y-98222571D02*
X147419261Y-98246380D01*
X147347833Y-98270190D01*
X147300214Y-98270190D01*
X147228785Y-98246380D01*
X147181166Y-98198761D01*
X147157357Y-98151142D01*
X147133547Y-98055904D01*
X147133547Y-97984476D01*
X147157357Y-97889238D01*
X147181166Y-97841619D01*
X147228785Y-97794000D01*
X147300214Y-97770190D01*
X147347833Y-97770190D01*
X147419261Y-97794000D01*
X147443071Y-97817809D01*
X147633547Y-97817809D02*
X147657357Y-97794000D01*
X147704976Y-97770190D01*
X147824023Y-97770190D01*
X147871642Y-97794000D01*
X147895452Y-97817809D01*
X147919261Y-97865428D01*
X147919261Y-97913047D01*
X147895452Y-97984476D01*
X147609738Y-98270190D01*
X147919261Y-98270190D01*
X148109738Y-97817809D02*
X148133547Y-97794000D01*
X148181166Y-97770190D01*
X148300214Y-97770190D01*
X148347833Y-97794000D01*
X148371642Y-97817809D01*
X148395452Y-97865428D01*
X148395452Y-97913047D01*
X148371642Y-97984476D01*
X148085928Y-98270190D01*
X148395452Y-98270190D01*
%TO.C,C20*%
X168223376Y-100218773D02*
X167937661Y-100218773D01*
X168080519Y-100218773D02*
X168080519Y-99718773D01*
X168032900Y-99790202D01*
X167985280Y-99837821D01*
X167937661Y-99861630D01*
X168532900Y-99718773D02*
X168580519Y-99718773D01*
X168628138Y-99742583D01*
X168651947Y-99766392D01*
X168675757Y-99814011D01*
X168699566Y-99909249D01*
X168699566Y-100028297D01*
X168675757Y-100123535D01*
X168651947Y-100171154D01*
X168628138Y-100194963D01*
X168580519Y-100218773D01*
X168532900Y-100218773D01*
X168485280Y-100194963D01*
X168461471Y-100171154D01*
X168437661Y-100123535D01*
X168413852Y-100028297D01*
X168413852Y-99909249D01*
X168437661Y-99814011D01*
X168461471Y-99766392D01*
X168485280Y-99742583D01*
X168532900Y-99718773D01*
X169009090Y-99718773D02*
X169056709Y-99718773D01*
X169104328Y-99742583D01*
X169128138Y-99766392D01*
X169151947Y-99814011D01*
X169175757Y-99909249D01*
X169175757Y-100028297D01*
X169151947Y-100123535D01*
X169128138Y-100171154D01*
X169104328Y-100194963D01*
X169056709Y-100218773D01*
X169009090Y-100218773D01*
X168961471Y-100194963D01*
X168937661Y-100171154D01*
X168913852Y-100123535D01*
X168890042Y-100028297D01*
X168890042Y-99909249D01*
X168913852Y-99814011D01*
X168937661Y-99766392D01*
X168961471Y-99742583D01*
X169009090Y-99718773D01*
X169390042Y-99885440D02*
X169390042Y-100385440D01*
X169390042Y-99909249D02*
X169437661Y-99885440D01*
X169532900Y-99885440D01*
X169580519Y-99909249D01*
X169604328Y-99933059D01*
X169628138Y-99980678D01*
X169628138Y-100123535D01*
X169604328Y-100171154D01*
X169580519Y-100194963D01*
X169532900Y-100218773D01*
X169437661Y-100218773D01*
X169390042Y-100194963D01*
X168461471Y-98741154D02*
X168437661Y-98764963D01*
X168366233Y-98788773D01*
X168318614Y-98788773D01*
X168247185Y-98764963D01*
X168199566Y-98717344D01*
X168175757Y-98669725D01*
X168151947Y-98574487D01*
X168151947Y-98503059D01*
X168175757Y-98407821D01*
X168199566Y-98360202D01*
X168247185Y-98312583D01*
X168318614Y-98288773D01*
X168366233Y-98288773D01*
X168437661Y-98312583D01*
X168461471Y-98336392D01*
X168651947Y-98336392D02*
X168675757Y-98312583D01*
X168723376Y-98288773D01*
X168842423Y-98288773D01*
X168890042Y-98312583D01*
X168913852Y-98336392D01*
X168937661Y-98384011D01*
X168937661Y-98431630D01*
X168913852Y-98503059D01*
X168628138Y-98788773D01*
X168937661Y-98788773D01*
X169247185Y-98288773D02*
X169294804Y-98288773D01*
X169342423Y-98312583D01*
X169366233Y-98336392D01*
X169390042Y-98384011D01*
X169413852Y-98479249D01*
X169413852Y-98598297D01*
X169390042Y-98693535D01*
X169366233Y-98741154D01*
X169342423Y-98764963D01*
X169294804Y-98788773D01*
X169247185Y-98788773D01*
X169199566Y-98764963D01*
X169175757Y-98741154D01*
X169151947Y-98693535D01*
X169128138Y-98598297D01*
X169128138Y-98479249D01*
X169151947Y-98384011D01*
X169175757Y-98336392D01*
X169199566Y-98312583D01*
X169247185Y-98288773D01*
%TO.C,XS1*%
X140926190Y-108442857D02*
X141426190Y-108109523D01*
X140926190Y-108109523D02*
X141426190Y-108442857D01*
X141402380Y-107942857D02*
X141426190Y-107871428D01*
X141426190Y-107752380D01*
X141402380Y-107704761D01*
X141378571Y-107680952D01*
X141330952Y-107657142D01*
X141283333Y-107657142D01*
X141235714Y-107680952D01*
X141211904Y-107704761D01*
X141188095Y-107752380D01*
X141164285Y-107847619D01*
X141140476Y-107895238D01*
X141116666Y-107919047D01*
X141069047Y-107942857D01*
X141021428Y-107942857D01*
X140973809Y-107919047D01*
X140950000Y-107895238D01*
X140926190Y-107847619D01*
X140926190Y-107728571D01*
X140950000Y-107657142D01*
X141426190Y-107180952D02*
X141426190Y-107466666D01*
X141426190Y-107323809D02*
X140926190Y-107323809D01*
X140997619Y-107371428D01*
X141045238Y-107419047D01*
X141069047Y-107466666D01*
X142402380Y-113490476D02*
X142426190Y-113419047D01*
X142426190Y-113300000D01*
X142402380Y-113252380D01*
X142378571Y-113228571D01*
X142330952Y-113204761D01*
X142283333Y-113204761D01*
X142235714Y-113228571D01*
X142211904Y-113252380D01*
X142188095Y-113300000D01*
X142164285Y-113395238D01*
X142140476Y-113442857D01*
X142116666Y-113466666D01*
X142069047Y-113490476D01*
X142021428Y-113490476D01*
X141973809Y-113466666D01*
X141950000Y-113442857D01*
X141926190Y-113395238D01*
X141926190Y-113276190D01*
X141950000Y-113204761D01*
X142426190Y-112990476D02*
X141926190Y-112990476D01*
X141926190Y-112871428D01*
X141950000Y-112800000D01*
X141997619Y-112752380D01*
X142045238Y-112728571D01*
X142140476Y-112704761D01*
X142211904Y-112704761D01*
X142307142Y-112728571D01*
X142354761Y-112752380D01*
X142402380Y-112800000D01*
X142426190Y-112871428D01*
X142426190Y-112990476D01*
X142473809Y-112609523D02*
X142473809Y-112228571D01*
X142402380Y-111919047D02*
X142426190Y-111966666D01*
X142426190Y-112061904D01*
X142402380Y-112109523D01*
X142354761Y-112133333D01*
X142164285Y-112133333D01*
X142116666Y-112109523D01*
X142092857Y-112061904D01*
X142092857Y-111966666D01*
X142116666Y-111919047D01*
X142164285Y-111895238D01*
X142211904Y-111895238D01*
X142259523Y-112133333D01*
X142426190Y-111680952D02*
X141926190Y-111680952D01*
X142116666Y-111680952D02*
X142092857Y-111633333D01*
X142092857Y-111538095D01*
X142116666Y-111490476D01*
X142140476Y-111466666D01*
X142188095Y-111442857D01*
X142330952Y-111442857D01*
X142378571Y-111466666D01*
X142402380Y-111490476D01*
X142426190Y-111538095D01*
X142426190Y-111633333D01*
X142402380Y-111680952D01*
X142426190Y-111014285D02*
X142164285Y-111014285D01*
X142116666Y-111038095D01*
X142092857Y-111085714D01*
X142092857Y-111180952D01*
X142116666Y-111228571D01*
X142402380Y-111014285D02*
X142426190Y-111061904D01*
X142426190Y-111180952D01*
X142402380Y-111228571D01*
X142354761Y-111252380D01*
X142307142Y-111252380D01*
X142259523Y-111228571D01*
X142235714Y-111180952D01*
X142235714Y-111061904D01*
X142211904Y-111014285D01*
X142092857Y-110823809D02*
X142426190Y-110704761D01*
X142092857Y-110585714D02*
X142426190Y-110704761D01*
X142545238Y-110752380D01*
X142569047Y-110776190D01*
X142592857Y-110823809D01*
X142235714Y-110395238D02*
X142235714Y-110014285D01*
X142092857Y-109561904D02*
X142426190Y-109561904D01*
X142092857Y-109776190D02*
X142354761Y-109776190D01*
X142402380Y-109752380D01*
X142426190Y-109704761D01*
X142426190Y-109633333D01*
X142402380Y-109585714D01*
X142378571Y-109561904D01*
X142402380Y-109347619D02*
X142426190Y-109276190D01*
X142426190Y-109157142D01*
X142402380Y-109109523D01*
X142378571Y-109085714D01*
X142330952Y-109061904D01*
X142283333Y-109061904D01*
X142235714Y-109085714D01*
X142211904Y-109109523D01*
X142188095Y-109157142D01*
X142164285Y-109252380D01*
X142140476Y-109300000D01*
X142116666Y-109323809D01*
X142069047Y-109347619D01*
X142021428Y-109347619D01*
X141973809Y-109323809D01*
X141950000Y-109300000D01*
X141926190Y-109252380D01*
X141926190Y-109133333D01*
X141950000Y-109061904D01*
X142426190Y-108847619D02*
X141926190Y-108847619D01*
X141926190Y-108728571D01*
X141950000Y-108657142D01*
X141997619Y-108609523D01*
X142045238Y-108585714D01*
X142140476Y-108561904D01*
X142211904Y-108561904D01*
X142307142Y-108585714D01*
X142354761Y-108609523D01*
X142402380Y-108657142D01*
X142426190Y-108728571D01*
X142426190Y-108847619D01*
X142235714Y-108347619D02*
X142235714Y-107966666D01*
X142092857Y-107728571D02*
X142592857Y-107728571D01*
X142116666Y-107728571D02*
X142092857Y-107680952D01*
X142092857Y-107585714D01*
X142116666Y-107538095D01*
X142140476Y-107514285D01*
X142188095Y-107490476D01*
X142330952Y-107490476D01*
X142378571Y-107514285D01*
X142402380Y-107538095D01*
X142426190Y-107585714D01*
X142426190Y-107680952D01*
X142402380Y-107728571D01*
X142092857Y-107061904D02*
X142426190Y-107061904D01*
X142092857Y-107276190D02*
X142354761Y-107276190D01*
X142402380Y-107252380D01*
X142426190Y-107204761D01*
X142426190Y-107133333D01*
X142402380Y-107085714D01*
X142378571Y-107061904D01*
X142402380Y-106847619D02*
X142426190Y-106800000D01*
X142426190Y-106704761D01*
X142402380Y-106657142D01*
X142354761Y-106633333D01*
X142330952Y-106633333D01*
X142283333Y-106657142D01*
X142259523Y-106704761D01*
X142259523Y-106776190D01*
X142235714Y-106823809D01*
X142188095Y-106847619D01*
X142164285Y-106847619D01*
X142116666Y-106823809D01*
X142092857Y-106776190D01*
X142092857Y-106704761D01*
X142116666Y-106657142D01*
X142426190Y-106419047D02*
X141926190Y-106419047D01*
X142426190Y-106204761D02*
X142164285Y-106204761D01*
X142116666Y-106228571D01*
X142092857Y-106276190D01*
X142092857Y-106347619D01*
X142116666Y-106395238D01*
X142140476Y-106419047D01*
X142473809Y-106085714D02*
X142473809Y-105704761D01*
X142092857Y-105585714D02*
X142592857Y-105585714D01*
X142116666Y-105585714D02*
X142092857Y-105538095D01*
X142092857Y-105442857D01*
X142116666Y-105395238D01*
X142140476Y-105371428D01*
X142188095Y-105347619D01*
X142330952Y-105347619D01*
X142378571Y-105371428D01*
X142402380Y-105395238D01*
X142426190Y-105442857D01*
X142426190Y-105538095D01*
X142402380Y-105585714D01*
X142092857Y-104919047D02*
X142426190Y-104919047D01*
X142092857Y-105133333D02*
X142354761Y-105133333D01*
X142402380Y-105109523D01*
X142426190Y-105061904D01*
X142426190Y-104990476D01*
X142402380Y-104942857D01*
X142378571Y-104919047D01*
X142402380Y-104704761D02*
X142426190Y-104657142D01*
X142426190Y-104561904D01*
X142402380Y-104514285D01*
X142354761Y-104490476D01*
X142330952Y-104490476D01*
X142283333Y-104514285D01*
X142259523Y-104561904D01*
X142259523Y-104633333D01*
X142235714Y-104680952D01*
X142188095Y-104704761D01*
X142164285Y-104704761D01*
X142116666Y-104680952D01*
X142092857Y-104633333D01*
X142092857Y-104561904D01*
X142116666Y-104514285D01*
X142426190Y-104276190D02*
X141926190Y-104276190D01*
X142426190Y-104061904D02*
X142164285Y-104061904D01*
X142116666Y-104085714D01*
X142092857Y-104133333D01*
X142092857Y-104204761D01*
X142116666Y-104252380D01*
X142140476Y-104276190D01*
X142473809Y-103942857D02*
X142473809Y-103561904D01*
X142402380Y-103466666D02*
X142426190Y-103395238D01*
X142426190Y-103276190D01*
X142402380Y-103228571D01*
X142378571Y-103204761D01*
X142330952Y-103180952D01*
X142283333Y-103180952D01*
X142235714Y-103204761D01*
X142211904Y-103228571D01*
X142188095Y-103276190D01*
X142164285Y-103371428D01*
X142140476Y-103419047D01*
X142116666Y-103442857D01*
X142069047Y-103466666D01*
X142021428Y-103466666D01*
X141973809Y-103442857D01*
X141950000Y-103419047D01*
X141926190Y-103371428D01*
X141926190Y-103252380D01*
X141950000Y-103180952D01*
X142426190Y-102966666D02*
X141926190Y-102966666D01*
X142283333Y-102800000D01*
X141926190Y-102633333D01*
X142426190Y-102633333D01*
X142426190Y-102395238D02*
X141926190Y-102395238D01*
X141926190Y-102276190D01*
X141950000Y-102204761D01*
X141997619Y-102157142D01*
X142045238Y-102133333D01*
X142140476Y-102109523D01*
X142211904Y-102109523D01*
X142307142Y-102133333D01*
X142354761Y-102157142D01*
X142402380Y-102204761D01*
X142426190Y-102276190D01*
X142426190Y-102395238D01*
%TO.C,U13*%
X159492190Y-106981547D02*
X159896952Y-106981547D01*
X159944571Y-106957738D01*
X159968380Y-106933928D01*
X159992190Y-106886309D01*
X159992190Y-106791071D01*
X159968380Y-106743452D01*
X159944571Y-106719642D01*
X159896952Y-106695833D01*
X159492190Y-106695833D01*
X159992190Y-106195833D02*
X159992190Y-106481547D01*
X159992190Y-106338690D02*
X159492190Y-106338690D01*
X159563619Y-106386309D01*
X159611238Y-106433928D01*
X159635047Y-106481547D01*
X159492190Y-106029166D02*
X159492190Y-105719642D01*
X159682666Y-105886309D01*
X159682666Y-105814880D01*
X159706476Y-105767261D01*
X159730285Y-105743452D01*
X159777904Y-105719642D01*
X159896952Y-105719642D01*
X159944571Y-105743452D01*
X159968380Y-105767261D01*
X159992190Y-105814880D01*
X159992190Y-105957738D01*
X159968380Y-106005357D01*
X159944571Y-106029166D01*
%TO.C,U10*%
X172636690Y-106727547D02*
X173041452Y-106727547D01*
X173089071Y-106703738D01*
X173112880Y-106679928D01*
X173136690Y-106632309D01*
X173136690Y-106537071D01*
X173112880Y-106489452D01*
X173089071Y-106465642D01*
X173041452Y-106441833D01*
X172636690Y-106441833D01*
X173136690Y-105941833D02*
X173136690Y-106227547D01*
X173136690Y-106084690D02*
X172636690Y-106084690D01*
X172708119Y-106132309D01*
X172755738Y-106179928D01*
X172779547Y-106227547D01*
X172636690Y-105632309D02*
X172636690Y-105584690D01*
X172660500Y-105537071D01*
X172684309Y-105513261D01*
X172731928Y-105489452D01*
X172827166Y-105465642D01*
X172946214Y-105465642D01*
X173041452Y-105489452D01*
X173089071Y-105513261D01*
X173112880Y-105537071D01*
X173136690Y-105584690D01*
X173136690Y-105632309D01*
X173112880Y-105679928D01*
X173089071Y-105703738D01*
X173041452Y-105727547D01*
X172946214Y-105751357D01*
X172827166Y-105751357D01*
X172731928Y-105727547D01*
X172684309Y-105703738D01*
X172660500Y-105679928D01*
X172636690Y-105632309D01*
%TO.C,R22*%
X143671942Y-95742890D02*
X143386228Y-95742890D01*
X143529085Y-95742890D02*
X143529085Y-95242890D01*
X143481466Y-95314319D01*
X143433847Y-95361938D01*
X143386228Y-95385747D01*
X143886228Y-95742890D02*
X143886228Y-95242890D01*
X144052895Y-95600033D01*
X144219561Y-95242890D01*
X144219561Y-95742890D01*
X143442571Y-95793690D02*
X143275904Y-95555595D01*
X143156857Y-95793690D02*
X143156857Y-95293690D01*
X143347333Y-95293690D01*
X143394952Y-95317500D01*
X143418761Y-95341309D01*
X143442571Y-95388928D01*
X143442571Y-95460357D01*
X143418761Y-95507976D01*
X143394952Y-95531785D01*
X143347333Y-95555595D01*
X143156857Y-95555595D01*
X143633047Y-95341309D02*
X143656857Y-95317500D01*
X143704476Y-95293690D01*
X143823523Y-95293690D01*
X143871142Y-95317500D01*
X143894952Y-95341309D01*
X143918761Y-95388928D01*
X143918761Y-95436547D01*
X143894952Y-95507976D01*
X143609238Y-95793690D01*
X143918761Y-95793690D01*
X144109238Y-95341309D02*
X144133047Y-95317500D01*
X144180666Y-95293690D01*
X144299714Y-95293690D01*
X144347333Y-95317500D01*
X144371142Y-95341309D01*
X144394952Y-95388928D01*
X144394952Y-95436547D01*
X144371142Y-95507976D01*
X144085428Y-95793690D01*
X144394952Y-95793690D01*
%TO.C,R21*%
X143466380Y-97406590D02*
X143180666Y-97406590D01*
X143323523Y-97406590D02*
X143323523Y-96906590D01*
X143275904Y-96978019D01*
X143228285Y-97025638D01*
X143180666Y-97049447D01*
X143775904Y-96906590D02*
X143823523Y-96906590D01*
X143871142Y-96930400D01*
X143894952Y-96954209D01*
X143918761Y-97001828D01*
X143942571Y-97097066D01*
X143942571Y-97216114D01*
X143918761Y-97311352D01*
X143894952Y-97358971D01*
X143871142Y-97382780D01*
X143823523Y-97406590D01*
X143775904Y-97406590D01*
X143728285Y-97382780D01*
X143704476Y-97358971D01*
X143680666Y-97311352D01*
X143656857Y-97216114D01*
X143656857Y-97097066D01*
X143680666Y-97001828D01*
X143704476Y-96954209D01*
X143728285Y-96930400D01*
X143775904Y-96906590D01*
X144156857Y-97406590D02*
X144156857Y-96906590D01*
X144204476Y-97216114D02*
X144347333Y-97406590D01*
X144347333Y-97073257D02*
X144156857Y-97263733D01*
X143442571Y-97457390D02*
X143275904Y-97219295D01*
X143156857Y-97457390D02*
X143156857Y-96957390D01*
X143347333Y-96957390D01*
X143394952Y-96981200D01*
X143418761Y-97005009D01*
X143442571Y-97052628D01*
X143442571Y-97124057D01*
X143418761Y-97171676D01*
X143394952Y-97195485D01*
X143347333Y-97219295D01*
X143156857Y-97219295D01*
X143633047Y-97005009D02*
X143656857Y-96981200D01*
X143704476Y-96957390D01*
X143823523Y-96957390D01*
X143871142Y-96981200D01*
X143894952Y-97005009D01*
X143918761Y-97052628D01*
X143918761Y-97100247D01*
X143894952Y-97171676D01*
X143609238Y-97457390D01*
X143918761Y-97457390D01*
X144394952Y-97457390D02*
X144109238Y-97457390D01*
X144252095Y-97457390D02*
X144252095Y-96957390D01*
X144204476Y-97028819D01*
X144156857Y-97076438D01*
X144109238Y-97100247D01*
%TO.C,R12*%
X175962523Y-103261690D02*
X175724428Y-103261690D01*
X175700619Y-103499785D01*
X175724428Y-103475976D01*
X175772047Y-103452166D01*
X175891095Y-103452166D01*
X175938714Y-103475976D01*
X175962523Y-103499785D01*
X175986333Y-103547404D01*
X175986333Y-103666452D01*
X175962523Y-103714071D01*
X175938714Y-103737880D01*
X175891095Y-103761690D01*
X175772047Y-103761690D01*
X175724428Y-103737880D01*
X175700619Y-103714071D01*
X176200619Y-103714071D02*
X176224428Y-103737880D01*
X176200619Y-103761690D01*
X176176809Y-103737880D01*
X176200619Y-103714071D01*
X176200619Y-103761690D01*
X176653000Y-103261690D02*
X176557761Y-103261690D01*
X176510142Y-103285500D01*
X176486333Y-103309309D01*
X176438714Y-103380738D01*
X176414904Y-103475976D01*
X176414904Y-103666452D01*
X176438714Y-103714071D01*
X176462523Y-103737880D01*
X176510142Y-103761690D01*
X176605380Y-103761690D01*
X176653000Y-103737880D01*
X176676809Y-103714071D01*
X176700619Y-103666452D01*
X176700619Y-103547404D01*
X176676809Y-103499785D01*
X176653000Y-103475976D01*
X176605380Y-103452166D01*
X176510142Y-103452166D01*
X176462523Y-103475976D01*
X176438714Y-103499785D01*
X176414904Y-103547404D01*
X176914904Y-103761690D02*
X176914904Y-103261690D01*
X176962523Y-103571214D02*
X177105380Y-103761690D01*
X177105380Y-103428357D02*
X176914904Y-103618833D01*
X176081571Y-105191690D02*
X175914904Y-104953595D01*
X175795857Y-105191690D02*
X175795857Y-104691690D01*
X175986333Y-104691690D01*
X176033952Y-104715500D01*
X176057761Y-104739309D01*
X176081571Y-104786928D01*
X176081571Y-104858357D01*
X176057761Y-104905976D01*
X176033952Y-104929785D01*
X175986333Y-104953595D01*
X175795857Y-104953595D01*
X176557761Y-105191690D02*
X176272047Y-105191690D01*
X176414904Y-105191690D02*
X176414904Y-104691690D01*
X176367285Y-104763119D01*
X176319666Y-104810738D01*
X176272047Y-104834547D01*
X176748238Y-104739309D02*
X176772047Y-104715500D01*
X176819666Y-104691690D01*
X176938714Y-104691690D01*
X176986333Y-104715500D01*
X177010142Y-104739309D01*
X177033952Y-104786928D01*
X177033952Y-104834547D01*
X177010142Y-104905976D01*
X176724428Y-105191690D01*
X177033952Y-105191690D01*
%TO.C,R2*%
X168748876Y-104974922D02*
X168463161Y-104974922D01*
X168606019Y-104974922D02*
X168606019Y-104474922D01*
X168558400Y-104546351D01*
X168510780Y-104593970D01*
X168463161Y-104617779D01*
X168963161Y-104974922D02*
X168963161Y-104474922D01*
X169010780Y-104784446D02*
X169153638Y-104974922D01*
X169153638Y-104641589D02*
X168963161Y-104832065D01*
X168725066Y-103544922D02*
X168558400Y-103306827D01*
X168439352Y-103544922D02*
X168439352Y-103044922D01*
X168629828Y-103044922D01*
X168677447Y-103068732D01*
X168701257Y-103092541D01*
X168725066Y-103140160D01*
X168725066Y-103211589D01*
X168701257Y-103259208D01*
X168677447Y-103283017D01*
X168629828Y-103306827D01*
X168439352Y-103306827D01*
X168915542Y-103092541D02*
X168939352Y-103068732D01*
X168986971Y-103044922D01*
X169106019Y-103044922D01*
X169153638Y-103068732D01*
X169177447Y-103092541D01*
X169201257Y-103140160D01*
X169201257Y-103187779D01*
X169177447Y-103259208D01*
X168891733Y-103544922D01*
X169201257Y-103544922D01*
%TO.C,C19*%
X162651357Y-108026690D02*
X162698976Y-108026690D01*
X162746595Y-108050500D01*
X162770404Y-108074309D01*
X162794214Y-108121928D01*
X162818023Y-108217166D01*
X162818023Y-108336214D01*
X162794214Y-108431452D01*
X162770404Y-108479071D01*
X162746595Y-108502880D01*
X162698976Y-108526690D01*
X162651357Y-108526690D01*
X162603738Y-108502880D01*
X162579928Y-108479071D01*
X162556119Y-108431452D01*
X162532309Y-108336214D01*
X162532309Y-108217166D01*
X162556119Y-108121928D01*
X162579928Y-108074309D01*
X162603738Y-108050500D01*
X162651357Y-108026690D01*
X163032309Y-108479071D02*
X163056119Y-108502880D01*
X163032309Y-108526690D01*
X163008500Y-108502880D01*
X163032309Y-108479071D01*
X163032309Y-108526690D01*
X163532309Y-108526690D02*
X163246595Y-108526690D01*
X163389452Y-108526690D02*
X163389452Y-108026690D01*
X163341833Y-108098119D01*
X163294214Y-108145738D01*
X163246595Y-108169547D01*
X163960880Y-108193357D02*
X163960880Y-108526690D01*
X163746595Y-108193357D02*
X163746595Y-108455261D01*
X163770404Y-108502880D01*
X163818023Y-108526690D01*
X163889452Y-108526690D01*
X163937071Y-108502880D01*
X163960880Y-108479071D01*
X162937071Y-107049071D02*
X162913261Y-107072880D01*
X162841833Y-107096690D01*
X162794214Y-107096690D01*
X162722785Y-107072880D01*
X162675166Y-107025261D01*
X162651357Y-106977642D01*
X162627547Y-106882404D01*
X162627547Y-106810976D01*
X162651357Y-106715738D01*
X162675166Y-106668119D01*
X162722785Y-106620500D01*
X162794214Y-106596690D01*
X162841833Y-106596690D01*
X162913261Y-106620500D01*
X162937071Y-106644309D01*
X163413261Y-107096690D02*
X163127547Y-107096690D01*
X163270404Y-107096690D02*
X163270404Y-106596690D01*
X163222785Y-106668119D01*
X163175166Y-106715738D01*
X163127547Y-106739547D01*
X163651357Y-107096690D02*
X163746595Y-107096690D01*
X163794214Y-107072880D01*
X163818023Y-107049071D01*
X163865642Y-106977642D01*
X163889452Y-106882404D01*
X163889452Y-106691928D01*
X163865642Y-106644309D01*
X163841833Y-106620500D01*
X163794214Y-106596690D01*
X163698976Y-106596690D01*
X163651357Y-106620500D01*
X163627547Y-106644309D01*
X163603738Y-106691928D01*
X163603738Y-106810976D01*
X163627547Y-106858595D01*
X163651357Y-106882404D01*
X163698976Y-106906214D01*
X163794214Y-106906214D01*
X163841833Y-106882404D01*
X163865642Y-106858595D01*
X163889452Y-106810976D01*
%TO.C,C18*%
X175795857Y-109296690D02*
X175843476Y-109296690D01*
X175891095Y-109320500D01*
X175914904Y-109344309D01*
X175938714Y-109391928D01*
X175962523Y-109487166D01*
X175962523Y-109606214D01*
X175938714Y-109701452D01*
X175914904Y-109749071D01*
X175891095Y-109772880D01*
X175843476Y-109796690D01*
X175795857Y-109796690D01*
X175748238Y-109772880D01*
X175724428Y-109749071D01*
X175700619Y-109701452D01*
X175676809Y-109606214D01*
X175676809Y-109487166D01*
X175700619Y-109391928D01*
X175724428Y-109344309D01*
X175748238Y-109320500D01*
X175795857Y-109296690D01*
X176176809Y-109749071D02*
X176200619Y-109772880D01*
X176176809Y-109796690D01*
X176153000Y-109772880D01*
X176176809Y-109749071D01*
X176176809Y-109796690D01*
X176676809Y-109796690D02*
X176391095Y-109796690D01*
X176533952Y-109796690D02*
X176533952Y-109296690D01*
X176486333Y-109368119D01*
X176438714Y-109415738D01*
X176391095Y-109439547D01*
X177105380Y-109463357D02*
X177105380Y-109796690D01*
X176891095Y-109463357D02*
X176891095Y-109725261D01*
X176914904Y-109772880D01*
X176962523Y-109796690D01*
X177033952Y-109796690D01*
X177081571Y-109772880D01*
X177105380Y-109749071D01*
X176081571Y-108319071D02*
X176057761Y-108342880D01*
X175986333Y-108366690D01*
X175938714Y-108366690D01*
X175867285Y-108342880D01*
X175819666Y-108295261D01*
X175795857Y-108247642D01*
X175772047Y-108152404D01*
X175772047Y-108080976D01*
X175795857Y-107985738D01*
X175819666Y-107938119D01*
X175867285Y-107890500D01*
X175938714Y-107866690D01*
X175986333Y-107866690D01*
X176057761Y-107890500D01*
X176081571Y-107914309D01*
X176557761Y-108366690D02*
X176272047Y-108366690D01*
X176414904Y-108366690D02*
X176414904Y-107866690D01*
X176367285Y-107938119D01*
X176319666Y-107985738D01*
X176272047Y-108009547D01*
X176843476Y-108080976D02*
X176795857Y-108057166D01*
X176772047Y-108033357D01*
X176748238Y-107985738D01*
X176748238Y-107961928D01*
X176772047Y-107914309D01*
X176795857Y-107890500D01*
X176843476Y-107866690D01*
X176938714Y-107866690D01*
X176986333Y-107890500D01*
X177010142Y-107914309D01*
X177033952Y-107961928D01*
X177033952Y-107985738D01*
X177010142Y-108033357D01*
X176986333Y-108057166D01*
X176938714Y-108080976D01*
X176843476Y-108080976D01*
X176795857Y-108104785D01*
X176772047Y-108128595D01*
X176748238Y-108176214D01*
X176748238Y-108271452D01*
X176772047Y-108319071D01*
X176795857Y-108342880D01*
X176843476Y-108366690D01*
X176938714Y-108366690D01*
X176986333Y-108342880D01*
X177010142Y-108319071D01*
X177033952Y-108271452D01*
X177033952Y-108176214D01*
X177010142Y-108128595D01*
X176986333Y-108104785D01*
X176938714Y-108080976D01*
%TO.C,C17*%
X162770404Y-106605857D02*
X162770404Y-106939190D01*
X162651357Y-106415380D02*
X162532309Y-106772523D01*
X162841833Y-106772523D01*
X163032309Y-106891571D02*
X163056119Y-106915380D01*
X163032309Y-106939190D01*
X163008500Y-106915380D01*
X163032309Y-106891571D01*
X163032309Y-106939190D01*
X163222785Y-106439190D02*
X163556119Y-106439190D01*
X163341833Y-106939190D01*
X163960880Y-106605857D02*
X163960880Y-106939190D01*
X163746595Y-106605857D02*
X163746595Y-106867761D01*
X163770404Y-106915380D01*
X163818023Y-106939190D01*
X163889452Y-106939190D01*
X163937071Y-106915380D01*
X163960880Y-106891571D01*
X162937071Y-105461571D02*
X162913261Y-105485380D01*
X162841833Y-105509190D01*
X162794214Y-105509190D01*
X162722785Y-105485380D01*
X162675166Y-105437761D01*
X162651357Y-105390142D01*
X162627547Y-105294904D01*
X162627547Y-105223476D01*
X162651357Y-105128238D01*
X162675166Y-105080619D01*
X162722785Y-105033000D01*
X162794214Y-105009190D01*
X162841833Y-105009190D01*
X162913261Y-105033000D01*
X162937071Y-105056809D01*
X163413261Y-105509190D02*
X163127547Y-105509190D01*
X163270404Y-105509190D02*
X163270404Y-105009190D01*
X163222785Y-105080619D01*
X163175166Y-105128238D01*
X163127547Y-105152047D01*
X163579928Y-105009190D02*
X163913261Y-105009190D01*
X163698976Y-105509190D01*
%TO.C,C16*%
X175914904Y-107875857D02*
X175914904Y-108209190D01*
X175795857Y-107685380D02*
X175676809Y-108042523D01*
X175986333Y-108042523D01*
X176176809Y-108161571D02*
X176200619Y-108185380D01*
X176176809Y-108209190D01*
X176153000Y-108185380D01*
X176176809Y-108161571D01*
X176176809Y-108209190D01*
X176367285Y-107709190D02*
X176700619Y-107709190D01*
X176486333Y-108209190D01*
X177105380Y-107875857D02*
X177105380Y-108209190D01*
X176891095Y-107875857D02*
X176891095Y-108137761D01*
X176914904Y-108185380D01*
X176962523Y-108209190D01*
X177033952Y-108209190D01*
X177081571Y-108185380D01*
X177105380Y-108161571D01*
X176081571Y-106731571D02*
X176057761Y-106755380D01*
X175986333Y-106779190D01*
X175938714Y-106779190D01*
X175867285Y-106755380D01*
X175819666Y-106707761D01*
X175795857Y-106660142D01*
X175772047Y-106564904D01*
X175772047Y-106493476D01*
X175795857Y-106398238D01*
X175819666Y-106350619D01*
X175867285Y-106303000D01*
X175938714Y-106279190D01*
X175986333Y-106279190D01*
X176057761Y-106303000D01*
X176081571Y-106326809D01*
X176557761Y-106779190D02*
X176272047Y-106779190D01*
X176414904Y-106779190D02*
X176414904Y-106279190D01*
X176367285Y-106350619D01*
X176319666Y-106398238D01*
X176272047Y-106422047D01*
X176986333Y-106279190D02*
X176891095Y-106279190D01*
X176843476Y-106303000D01*
X176819666Y-106326809D01*
X176772047Y-106398238D01*
X176748238Y-106493476D01*
X176748238Y-106683952D01*
X176772047Y-106731571D01*
X176795857Y-106755380D01*
X176843476Y-106779190D01*
X176938714Y-106779190D01*
X176986333Y-106755380D01*
X177010142Y-106731571D01*
X177033952Y-106683952D01*
X177033952Y-106564904D01*
X177010142Y-106517285D01*
X176986333Y-106493476D01*
X176938714Y-106469666D01*
X176843476Y-106469666D01*
X176795857Y-106493476D01*
X176772047Y-106517285D01*
X176748238Y-106564904D01*
%TO.C,C15*%
X158191690Y-107287142D02*
X158191690Y-107239523D01*
X158215500Y-107191904D01*
X158239309Y-107168095D01*
X158286928Y-107144285D01*
X158382166Y-107120476D01*
X158501214Y-107120476D01*
X158596452Y-107144285D01*
X158644071Y-107168095D01*
X158667880Y-107191904D01*
X158691690Y-107239523D01*
X158691690Y-107287142D01*
X158667880Y-107334761D01*
X158644071Y-107358571D01*
X158596452Y-107382380D01*
X158501214Y-107406190D01*
X158382166Y-107406190D01*
X158286928Y-107382380D01*
X158239309Y-107358571D01*
X158215500Y-107334761D01*
X158191690Y-107287142D01*
X158644071Y-106906190D02*
X158667880Y-106882380D01*
X158691690Y-106906190D01*
X158667880Y-106930000D01*
X158644071Y-106906190D01*
X158691690Y-106906190D01*
X158691690Y-106406190D02*
X158691690Y-106691904D01*
X158691690Y-106549047D02*
X158191690Y-106549047D01*
X158263119Y-106596666D01*
X158310738Y-106644285D01*
X158334547Y-106691904D01*
X158358357Y-105977619D02*
X158691690Y-105977619D01*
X158358357Y-106191904D02*
X158620261Y-106191904D01*
X158667880Y-106168095D01*
X158691690Y-106120476D01*
X158691690Y-106049047D01*
X158667880Y-106001428D01*
X158644071Y-105977619D01*
X157214071Y-107001428D02*
X157237880Y-107025238D01*
X157261690Y-107096666D01*
X157261690Y-107144285D01*
X157237880Y-107215714D01*
X157190261Y-107263333D01*
X157142642Y-107287142D01*
X157047404Y-107310952D01*
X156975976Y-107310952D01*
X156880738Y-107287142D01*
X156833119Y-107263333D01*
X156785500Y-107215714D01*
X156761690Y-107144285D01*
X156761690Y-107096666D01*
X156785500Y-107025238D01*
X156809309Y-107001428D01*
X157261690Y-106525238D02*
X157261690Y-106810952D01*
X157261690Y-106668095D02*
X156761690Y-106668095D01*
X156833119Y-106715714D01*
X156880738Y-106763333D01*
X156904547Y-106810952D01*
X156761690Y-106072857D02*
X156761690Y-106310952D01*
X156999785Y-106334761D01*
X156975976Y-106310952D01*
X156952166Y-106263333D01*
X156952166Y-106144285D01*
X156975976Y-106096666D01*
X156999785Y-106072857D01*
X157047404Y-106049047D01*
X157166452Y-106049047D01*
X157214071Y-106072857D01*
X157237880Y-106096666D01*
X157261690Y-106144285D01*
X157261690Y-106263333D01*
X157237880Y-106310952D01*
X157214071Y-106334761D01*
%TO.C,C14*%
X171272690Y-107033142D02*
X171272690Y-106985523D01*
X171296500Y-106937904D01*
X171320309Y-106914095D01*
X171367928Y-106890285D01*
X171463166Y-106866476D01*
X171582214Y-106866476D01*
X171677452Y-106890285D01*
X171725071Y-106914095D01*
X171748880Y-106937904D01*
X171772690Y-106985523D01*
X171772690Y-107033142D01*
X171748880Y-107080761D01*
X171725071Y-107104571D01*
X171677452Y-107128380D01*
X171582214Y-107152190D01*
X171463166Y-107152190D01*
X171367928Y-107128380D01*
X171320309Y-107104571D01*
X171296500Y-107080761D01*
X171272690Y-107033142D01*
X171725071Y-106652190D02*
X171748880Y-106628380D01*
X171772690Y-106652190D01*
X171748880Y-106676000D01*
X171725071Y-106652190D01*
X171772690Y-106652190D01*
X171772690Y-106152190D02*
X171772690Y-106437904D01*
X171772690Y-106295047D02*
X171272690Y-106295047D01*
X171344119Y-106342666D01*
X171391738Y-106390285D01*
X171415547Y-106437904D01*
X171439357Y-105723619D02*
X171772690Y-105723619D01*
X171439357Y-105937904D02*
X171701261Y-105937904D01*
X171748880Y-105914095D01*
X171772690Y-105866476D01*
X171772690Y-105795047D01*
X171748880Y-105747428D01*
X171725071Y-105723619D01*
X170295071Y-106747428D02*
X170318880Y-106771238D01*
X170342690Y-106842666D01*
X170342690Y-106890285D01*
X170318880Y-106961714D01*
X170271261Y-107009333D01*
X170223642Y-107033142D01*
X170128404Y-107056952D01*
X170056976Y-107056952D01*
X169961738Y-107033142D01*
X169914119Y-107009333D01*
X169866500Y-106961714D01*
X169842690Y-106890285D01*
X169842690Y-106842666D01*
X169866500Y-106771238D01*
X169890309Y-106747428D01*
X170342690Y-106271238D02*
X170342690Y-106556952D01*
X170342690Y-106414095D02*
X169842690Y-106414095D01*
X169914119Y-106461714D01*
X169961738Y-106509333D01*
X169985547Y-106556952D01*
X170009357Y-105842666D02*
X170342690Y-105842666D01*
X169818880Y-105961714D02*
X170176023Y-106080761D01*
X170176023Y-105771238D01*
%TO.C,C6*%
X155407490Y-107430023D02*
X155407490Y-107715738D01*
X155407490Y-107572880D02*
X154907490Y-107572880D01*
X154978919Y-107620500D01*
X155026538Y-107668119D01*
X155050347Y-107715738D01*
X154907490Y-107120500D02*
X154907490Y-107072880D01*
X154931300Y-107025261D01*
X154955109Y-107001452D01*
X155002728Y-106977642D01*
X155097966Y-106953833D01*
X155217014Y-106953833D01*
X155312252Y-106977642D01*
X155359871Y-107001452D01*
X155383680Y-107025261D01*
X155407490Y-107072880D01*
X155407490Y-107120500D01*
X155383680Y-107168119D01*
X155359871Y-107191928D01*
X155312252Y-107215738D01*
X155217014Y-107239547D01*
X155097966Y-107239547D01*
X155002728Y-107215738D01*
X154955109Y-107191928D01*
X154931300Y-107168119D01*
X154907490Y-107120500D01*
X154907490Y-106644309D02*
X154907490Y-106596690D01*
X154931300Y-106549071D01*
X154955109Y-106525261D01*
X155002728Y-106501452D01*
X155097966Y-106477642D01*
X155217014Y-106477642D01*
X155312252Y-106501452D01*
X155359871Y-106525261D01*
X155383680Y-106549071D01*
X155407490Y-106596690D01*
X155407490Y-106644309D01*
X155383680Y-106691928D01*
X155359871Y-106715738D01*
X155312252Y-106739547D01*
X155217014Y-106763357D01*
X155097966Y-106763357D01*
X155002728Y-106739547D01*
X154955109Y-106715738D01*
X154931300Y-106691928D01*
X154907490Y-106644309D01*
X155074157Y-106049071D02*
X155407490Y-106049071D01*
X155074157Y-106263357D02*
X155336061Y-106263357D01*
X155383680Y-106239547D01*
X155407490Y-106191928D01*
X155407490Y-106120500D01*
X155383680Y-106072880D01*
X155359871Y-106049071D01*
X155245571Y-106953833D02*
X155269380Y-106977642D01*
X155293190Y-107049071D01*
X155293190Y-107096690D01*
X155269380Y-107168119D01*
X155221761Y-107215738D01*
X155174142Y-107239547D01*
X155078904Y-107263357D01*
X155007476Y-107263357D01*
X154912238Y-107239547D01*
X154864619Y-107215738D01*
X154817000Y-107168119D01*
X154793190Y-107096690D01*
X154793190Y-107049071D01*
X154817000Y-106977642D01*
X154840809Y-106953833D01*
X154793190Y-106525261D02*
X154793190Y-106620500D01*
X154817000Y-106668119D01*
X154840809Y-106691928D01*
X154912238Y-106739547D01*
X155007476Y-106763357D01*
X155197952Y-106763357D01*
X155245571Y-106739547D01*
X155269380Y-106715738D01*
X155293190Y-106668119D01*
X155293190Y-106572880D01*
X155269380Y-106525261D01*
X155245571Y-106501452D01*
X155197952Y-106477642D01*
X155078904Y-106477642D01*
X155031285Y-106501452D01*
X155007476Y-106525261D01*
X154983666Y-106572880D01*
X154983666Y-106668119D01*
X155007476Y-106715738D01*
X155031285Y-106739547D01*
X155078904Y-106763357D01*
%TO.C,C5*%
X168615490Y-106960123D02*
X168615490Y-107245838D01*
X168615490Y-107102980D02*
X168115490Y-107102980D01*
X168186919Y-107150600D01*
X168234538Y-107198219D01*
X168258347Y-107245838D01*
X168115490Y-106650600D02*
X168115490Y-106602980D01*
X168139300Y-106555361D01*
X168163109Y-106531552D01*
X168210728Y-106507742D01*
X168305966Y-106483933D01*
X168425014Y-106483933D01*
X168520252Y-106507742D01*
X168567871Y-106531552D01*
X168591680Y-106555361D01*
X168615490Y-106602980D01*
X168615490Y-106650600D01*
X168591680Y-106698219D01*
X168567871Y-106722028D01*
X168520252Y-106745838D01*
X168425014Y-106769647D01*
X168305966Y-106769647D01*
X168210728Y-106745838D01*
X168163109Y-106722028D01*
X168139300Y-106698219D01*
X168115490Y-106650600D01*
X168115490Y-106174409D02*
X168115490Y-106126790D01*
X168139300Y-106079171D01*
X168163109Y-106055361D01*
X168210728Y-106031552D01*
X168305966Y-106007742D01*
X168425014Y-106007742D01*
X168520252Y-106031552D01*
X168567871Y-106055361D01*
X168591680Y-106079171D01*
X168615490Y-106126790D01*
X168615490Y-106174409D01*
X168591680Y-106222028D01*
X168567871Y-106245838D01*
X168520252Y-106269647D01*
X168425014Y-106293457D01*
X168305966Y-106293457D01*
X168210728Y-106269647D01*
X168163109Y-106245838D01*
X168139300Y-106222028D01*
X168115490Y-106174409D01*
X168282157Y-105579171D02*
X168615490Y-105579171D01*
X168282157Y-105793457D02*
X168544061Y-105793457D01*
X168591680Y-105769647D01*
X168615490Y-105722028D01*
X168615490Y-105650600D01*
X168591680Y-105602980D01*
X168567871Y-105579171D01*
X168326571Y-106509333D02*
X168350380Y-106533142D01*
X168374190Y-106604571D01*
X168374190Y-106652190D01*
X168350380Y-106723619D01*
X168302761Y-106771238D01*
X168255142Y-106795047D01*
X168159904Y-106818857D01*
X168088476Y-106818857D01*
X167993238Y-106795047D01*
X167945619Y-106771238D01*
X167898000Y-106723619D01*
X167874190Y-106652190D01*
X167874190Y-106604571D01*
X167898000Y-106533142D01*
X167921809Y-106509333D01*
X167874190Y-106056952D02*
X167874190Y-106295047D01*
X168112285Y-106318857D01*
X168088476Y-106295047D01*
X168064666Y-106247428D01*
X168064666Y-106128380D01*
X168088476Y-106080761D01*
X168112285Y-106056952D01*
X168159904Y-106033142D01*
X168278952Y-106033142D01*
X168326571Y-106056952D01*
X168350380Y-106080761D01*
X168374190Y-106128380D01*
X168374190Y-106247428D01*
X168350380Y-106295047D01*
X168326571Y-106318857D01*
%TO.C,U2*%
X178843785Y-102863071D02*
X178867595Y-102791642D01*
X178891404Y-102767833D01*
X178939023Y-102744023D01*
X179010452Y-102744023D01*
X179058071Y-102767833D01*
X179081880Y-102791642D01*
X179105690Y-102839261D01*
X179105690Y-103029738D01*
X178605690Y-103029738D01*
X178605690Y-102863071D01*
X178629500Y-102815452D01*
X178653309Y-102791642D01*
X178700928Y-102767833D01*
X178748547Y-102767833D01*
X178796166Y-102791642D01*
X178819976Y-102815452D01*
X178843785Y-102863071D01*
X178843785Y-103029738D01*
X179105690Y-102529738D02*
X178605690Y-102529738D01*
X178962833Y-102363071D01*
X178605690Y-102196404D01*
X179105690Y-102196404D01*
X178962833Y-101982119D02*
X178962833Y-101744023D01*
X179105690Y-102029738D02*
X178605690Y-101863071D01*
X179105690Y-101696404D01*
X178772357Y-101315452D02*
X179105690Y-101315452D01*
X178581880Y-101434500D02*
X178939023Y-101553547D01*
X178939023Y-101244023D01*
X178605690Y-100958309D02*
X178605690Y-100910690D01*
X178629500Y-100863071D01*
X178653309Y-100839261D01*
X178700928Y-100815452D01*
X178796166Y-100791642D01*
X178915214Y-100791642D01*
X179010452Y-100815452D01*
X179058071Y-100839261D01*
X179081880Y-100863071D01*
X179105690Y-100910690D01*
X179105690Y-100958309D01*
X179081880Y-101005928D01*
X179058071Y-101029738D01*
X179010452Y-101053547D01*
X178915214Y-101077357D01*
X178796166Y-101077357D01*
X178700928Y-101053547D01*
X178653309Y-101029738D01*
X178629500Y-101005928D01*
X178605690Y-100958309D01*
X178605690Y-100482119D02*
X178605690Y-100434500D01*
X178629500Y-100386880D01*
X178653309Y-100363071D01*
X178700928Y-100339261D01*
X178796166Y-100315452D01*
X178915214Y-100315452D01*
X179010452Y-100339261D01*
X179058071Y-100363071D01*
X179081880Y-100386880D01*
X179105690Y-100434500D01*
X179105690Y-100482119D01*
X179081880Y-100529738D01*
X179058071Y-100553547D01*
X179010452Y-100577357D01*
X178915214Y-100601166D01*
X178796166Y-100601166D01*
X178700928Y-100577357D01*
X178653309Y-100553547D01*
X178629500Y-100529738D01*
X178605690Y-100482119D01*
X180213047Y-101326190D02*
X180213047Y-101730952D01*
X180236857Y-101778571D01*
X180260666Y-101802380D01*
X180308285Y-101826190D01*
X180403523Y-101826190D01*
X180451142Y-101802380D01*
X180474952Y-101778571D01*
X180498761Y-101730952D01*
X180498761Y-101326190D01*
X180713047Y-101373809D02*
X180736857Y-101350000D01*
X180784476Y-101326190D01*
X180903523Y-101326190D01*
X180951142Y-101350000D01*
X180974952Y-101373809D01*
X180998761Y-101421428D01*
X180998761Y-101469047D01*
X180974952Y-101540476D01*
X180689238Y-101826190D01*
X180998761Y-101826190D01*
%TO.C,U9*%
X148189380Y-115513190D02*
X148475095Y-115513190D01*
X148332238Y-116013190D02*
X148332238Y-115513190D01*
X148641761Y-116013190D02*
X148641761Y-115513190D01*
X148832238Y-115513190D01*
X148879857Y-115537000D01*
X148903666Y-115560809D01*
X148927476Y-115608428D01*
X148927476Y-115679857D01*
X148903666Y-115727476D01*
X148879857Y-115751285D01*
X148832238Y-115775095D01*
X148641761Y-115775095D01*
X149117952Y-115989380D02*
X149189380Y-116013190D01*
X149308428Y-116013190D01*
X149356047Y-115989380D01*
X149379857Y-115965571D01*
X149403666Y-115917952D01*
X149403666Y-115870333D01*
X149379857Y-115822714D01*
X149356047Y-115798904D01*
X149308428Y-115775095D01*
X149213190Y-115751285D01*
X149165571Y-115727476D01*
X149141761Y-115703666D01*
X149117952Y-115656047D01*
X149117952Y-115608428D01*
X149141761Y-115560809D01*
X149165571Y-115537000D01*
X149213190Y-115513190D01*
X149332238Y-115513190D01*
X149403666Y-115537000D01*
X149594142Y-115560809D02*
X149617952Y-115537000D01*
X149665571Y-115513190D01*
X149784619Y-115513190D01*
X149832238Y-115537000D01*
X149856047Y-115560809D01*
X149879857Y-115608428D01*
X149879857Y-115656047D01*
X149856047Y-115727476D01*
X149570333Y-116013190D01*
X149879857Y-116013190D01*
X150356047Y-116013190D02*
X150070333Y-116013190D01*
X150213190Y-116013190D02*
X150213190Y-115513190D01*
X150165571Y-115584619D01*
X150117952Y-115632238D01*
X150070333Y-115656047D01*
X150832238Y-116013190D02*
X150546523Y-116013190D01*
X150689380Y-116013190D02*
X150689380Y-115513190D01*
X150641761Y-115584619D01*
X150594142Y-115632238D01*
X150546523Y-115656047D01*
X151284619Y-115513190D02*
X151046523Y-115513190D01*
X151022714Y-115751285D01*
X151046523Y-115727476D01*
X151094142Y-115703666D01*
X151213190Y-115703666D01*
X151260809Y-115727476D01*
X151284619Y-115751285D01*
X151308428Y-115798904D01*
X151308428Y-115917952D01*
X151284619Y-115965571D01*
X151260809Y-115989380D01*
X151213190Y-116013190D01*
X151094142Y-116013190D01*
X151046523Y-115989380D01*
X151022714Y-115965571D01*
X151498904Y-115870333D02*
X151737000Y-115870333D01*
X151451285Y-116013190D02*
X151617952Y-115513190D01*
X151784619Y-116013190D01*
X149606047Y-117963190D02*
X149606047Y-118367952D01*
X149629857Y-118415571D01*
X149653666Y-118439380D01*
X149701285Y-118463190D01*
X149796523Y-118463190D01*
X149844142Y-118439380D01*
X149867952Y-118415571D01*
X149891761Y-118367952D01*
X149891761Y-117963190D01*
X150153666Y-118463190D02*
X150248904Y-118463190D01*
X150296523Y-118439380D01*
X150320333Y-118415571D01*
X150367952Y-118344142D01*
X150391761Y-118248904D01*
X150391761Y-118058428D01*
X150367952Y-118010809D01*
X150344142Y-117987000D01*
X150296523Y-117963190D01*
X150201285Y-117963190D01*
X150153666Y-117987000D01*
X150129857Y-118010809D01*
X150106047Y-118058428D01*
X150106047Y-118177476D01*
X150129857Y-118225095D01*
X150153666Y-118248904D01*
X150201285Y-118272714D01*
X150296523Y-118272714D01*
X150344142Y-118248904D01*
X150367952Y-118225095D01*
X150391761Y-118177476D01*
%TO.C,R19*%
X154586809Y-118550428D02*
X154563000Y-118526619D01*
X154539190Y-118479000D01*
X154539190Y-118359952D01*
X154563000Y-118312333D01*
X154586809Y-118288523D01*
X154634428Y-118264714D01*
X154682047Y-118264714D01*
X154753476Y-118288523D01*
X155039190Y-118574238D01*
X155039190Y-118264714D01*
X154539190Y-117955190D02*
X154539190Y-117907571D01*
X154563000Y-117859952D01*
X154586809Y-117836142D01*
X154634428Y-117812333D01*
X154729666Y-117788523D01*
X154848714Y-117788523D01*
X154943952Y-117812333D01*
X154991571Y-117836142D01*
X155015380Y-117859952D01*
X155039190Y-117907571D01*
X155039190Y-117955190D01*
X155015380Y-118002809D01*
X154991571Y-118026619D01*
X154943952Y-118050428D01*
X154848714Y-118074238D01*
X154729666Y-118074238D01*
X154634428Y-118050428D01*
X154586809Y-118026619D01*
X154563000Y-118002809D01*
X154539190Y-117955190D01*
X154539190Y-117479000D02*
X154539190Y-117431380D01*
X154563000Y-117383761D01*
X154586809Y-117359952D01*
X154634428Y-117336142D01*
X154729666Y-117312333D01*
X154848714Y-117312333D01*
X154943952Y-117336142D01*
X154991571Y-117359952D01*
X155015380Y-117383761D01*
X155039190Y-117431380D01*
X155039190Y-117479000D01*
X155015380Y-117526619D01*
X154991571Y-117550428D01*
X154943952Y-117574238D01*
X154848714Y-117598047D01*
X154729666Y-117598047D01*
X154634428Y-117574238D01*
X154586809Y-117550428D01*
X154563000Y-117526619D01*
X154539190Y-117479000D01*
X155039190Y-117098047D02*
X154539190Y-117098047D01*
X154848714Y-117050428D02*
X155039190Y-116907571D01*
X154705857Y-116907571D02*
X154896333Y-117098047D01*
X154975690Y-118050428D02*
X154737595Y-118217095D01*
X154975690Y-118336142D02*
X154475690Y-118336142D01*
X154475690Y-118145666D01*
X154499500Y-118098047D01*
X154523309Y-118074238D01*
X154570928Y-118050428D01*
X154642357Y-118050428D01*
X154689976Y-118074238D01*
X154713785Y-118098047D01*
X154737595Y-118145666D01*
X154737595Y-118336142D01*
X154975690Y-117574238D02*
X154975690Y-117859952D01*
X154975690Y-117717095D02*
X154475690Y-117717095D01*
X154547119Y-117764714D01*
X154594738Y-117812333D01*
X154618547Y-117859952D01*
X154975690Y-117336142D02*
X154975690Y-117240904D01*
X154951880Y-117193285D01*
X154928071Y-117169476D01*
X154856642Y-117121857D01*
X154761404Y-117098047D01*
X154570928Y-117098047D01*
X154523309Y-117121857D01*
X154499500Y-117145666D01*
X154475690Y-117193285D01*
X154475690Y-117288523D01*
X154499500Y-117336142D01*
X154523309Y-117359952D01*
X154570928Y-117383761D01*
X154689976Y-117383761D01*
X154737595Y-117359952D01*
X154761404Y-117336142D01*
X154785214Y-117288523D01*
X154785214Y-117193285D01*
X154761404Y-117145666D01*
X154737595Y-117121857D01*
X154689976Y-117098047D01*
%TO.C,C13*%
X175795857Y-98562690D02*
X175843476Y-98562690D01*
X175891095Y-98586500D01*
X175914904Y-98610309D01*
X175938714Y-98657928D01*
X175962523Y-98753166D01*
X175962523Y-98872214D01*
X175938714Y-98967452D01*
X175914904Y-99015071D01*
X175891095Y-99038880D01*
X175843476Y-99062690D01*
X175795857Y-99062690D01*
X175748238Y-99038880D01*
X175724428Y-99015071D01*
X175700619Y-98967452D01*
X175676809Y-98872214D01*
X175676809Y-98753166D01*
X175700619Y-98657928D01*
X175724428Y-98610309D01*
X175748238Y-98586500D01*
X175795857Y-98562690D01*
X176176809Y-99015071D02*
X176200619Y-99038880D01*
X176176809Y-99062690D01*
X176153000Y-99038880D01*
X176176809Y-99015071D01*
X176176809Y-99062690D01*
X176676809Y-99062690D02*
X176391095Y-99062690D01*
X176533952Y-99062690D02*
X176533952Y-98562690D01*
X176486333Y-98634119D01*
X176438714Y-98681738D01*
X176391095Y-98705547D01*
X177105380Y-98729357D02*
X177105380Y-99062690D01*
X176891095Y-98729357D02*
X176891095Y-98991261D01*
X176914904Y-99038880D01*
X176962523Y-99062690D01*
X177033952Y-99062690D01*
X177081571Y-99038880D01*
X177105380Y-99015071D01*
X176081571Y-100445071D02*
X176057761Y-100468880D01*
X175986333Y-100492690D01*
X175938714Y-100492690D01*
X175867285Y-100468880D01*
X175819666Y-100421261D01*
X175795857Y-100373642D01*
X175772047Y-100278404D01*
X175772047Y-100206976D01*
X175795857Y-100111738D01*
X175819666Y-100064119D01*
X175867285Y-100016500D01*
X175938714Y-99992690D01*
X175986333Y-99992690D01*
X176057761Y-100016500D01*
X176081571Y-100040309D01*
X176557761Y-100492690D02*
X176272047Y-100492690D01*
X176414904Y-100492690D02*
X176414904Y-99992690D01*
X176367285Y-100064119D01*
X176319666Y-100111738D01*
X176272047Y-100135547D01*
X176724428Y-99992690D02*
X177033952Y-99992690D01*
X176867285Y-100183166D01*
X176938714Y-100183166D01*
X176986333Y-100206976D01*
X177010142Y-100230785D01*
X177033952Y-100278404D01*
X177033952Y-100397452D01*
X177010142Y-100445071D01*
X176986333Y-100468880D01*
X176938714Y-100492690D01*
X176795857Y-100492690D01*
X176748238Y-100468880D01*
X176724428Y-100445071D01*
%TO.C,C10*%
X168175757Y-101304156D02*
X168223376Y-101304156D01*
X168270995Y-101327966D01*
X168294804Y-101351775D01*
X168318614Y-101399394D01*
X168342423Y-101494632D01*
X168342423Y-101613680D01*
X168318614Y-101708918D01*
X168294804Y-101756537D01*
X168270995Y-101780346D01*
X168223376Y-101804156D01*
X168175757Y-101804156D01*
X168128138Y-101780346D01*
X168104328Y-101756537D01*
X168080519Y-101708918D01*
X168056709Y-101613680D01*
X168056709Y-101494632D01*
X168080519Y-101399394D01*
X168104328Y-101351775D01*
X168128138Y-101327966D01*
X168175757Y-101304156D01*
X168556709Y-101756537D02*
X168580519Y-101780346D01*
X168556709Y-101804156D01*
X168532900Y-101780346D01*
X168556709Y-101756537D01*
X168556709Y-101804156D01*
X169056709Y-101804156D02*
X168770995Y-101804156D01*
X168913852Y-101804156D02*
X168913852Y-101304156D01*
X168866233Y-101375585D01*
X168818614Y-101423204D01*
X168770995Y-101447013D01*
X169485280Y-101470823D02*
X169485280Y-101804156D01*
X169270995Y-101470823D02*
X169270995Y-101732727D01*
X169294804Y-101780346D01*
X169342423Y-101804156D01*
X169413852Y-101804156D01*
X169461471Y-101780346D01*
X169485280Y-101756537D01*
X168461471Y-100326537D02*
X168437661Y-100350346D01*
X168366233Y-100374156D01*
X168318614Y-100374156D01*
X168247185Y-100350346D01*
X168199566Y-100302727D01*
X168175757Y-100255108D01*
X168151947Y-100159870D01*
X168151947Y-100088442D01*
X168175757Y-99993204D01*
X168199566Y-99945585D01*
X168247185Y-99897966D01*
X168318614Y-99874156D01*
X168366233Y-99874156D01*
X168437661Y-99897966D01*
X168461471Y-99921775D01*
X168937661Y-100374156D02*
X168651947Y-100374156D01*
X168794804Y-100374156D02*
X168794804Y-99874156D01*
X168747185Y-99945585D01*
X168699566Y-99993204D01*
X168651947Y-100017013D01*
X169247185Y-99874156D02*
X169294804Y-99874156D01*
X169342423Y-99897966D01*
X169366233Y-99921775D01*
X169390042Y-99969394D01*
X169413852Y-100064632D01*
X169413852Y-100183680D01*
X169390042Y-100278918D01*
X169366233Y-100326537D01*
X169342423Y-100350346D01*
X169294804Y-100374156D01*
X169247185Y-100374156D01*
X169199566Y-100350346D01*
X169175757Y-100326537D01*
X169151947Y-100278918D01*
X169128138Y-100183680D01*
X169128138Y-100064632D01*
X169151947Y-99969394D01*
X169175757Y-99921775D01*
X169199566Y-99897966D01*
X169247185Y-99874156D01*
%TO.C,C9*%
X156491857Y-117930190D02*
X156539476Y-117930190D01*
X156587095Y-117954000D01*
X156610904Y-117977809D01*
X156634714Y-118025428D01*
X156658523Y-118120666D01*
X156658523Y-118239714D01*
X156634714Y-118334952D01*
X156610904Y-118382571D01*
X156587095Y-118406380D01*
X156539476Y-118430190D01*
X156491857Y-118430190D01*
X156444238Y-118406380D01*
X156420428Y-118382571D01*
X156396619Y-118334952D01*
X156372809Y-118239714D01*
X156372809Y-118120666D01*
X156396619Y-118025428D01*
X156420428Y-117977809D01*
X156444238Y-117954000D01*
X156491857Y-117930190D01*
X156872809Y-118382571D02*
X156896619Y-118406380D01*
X156872809Y-118430190D01*
X156849000Y-118406380D01*
X156872809Y-118382571D01*
X156872809Y-118430190D01*
X157372809Y-118430190D02*
X157087095Y-118430190D01*
X157229952Y-118430190D02*
X157229952Y-117930190D01*
X157182333Y-118001619D01*
X157134714Y-118049238D01*
X157087095Y-118073047D01*
X157801380Y-118096857D02*
X157801380Y-118430190D01*
X157587095Y-118096857D02*
X157587095Y-118358761D01*
X157610904Y-118406380D01*
X157658523Y-118430190D01*
X157729952Y-118430190D01*
X157777571Y-118406380D01*
X157801380Y-118382571D01*
X157015666Y-119812571D02*
X156991857Y-119836380D01*
X156920428Y-119860190D01*
X156872809Y-119860190D01*
X156801380Y-119836380D01*
X156753761Y-119788761D01*
X156729952Y-119741142D01*
X156706142Y-119645904D01*
X156706142Y-119574476D01*
X156729952Y-119479238D01*
X156753761Y-119431619D01*
X156801380Y-119384000D01*
X156872809Y-119360190D01*
X156920428Y-119360190D01*
X156991857Y-119384000D01*
X157015666Y-119407809D01*
X157253761Y-119860190D02*
X157349000Y-119860190D01*
X157396619Y-119836380D01*
X157420428Y-119812571D01*
X157468047Y-119741142D01*
X157491857Y-119645904D01*
X157491857Y-119455428D01*
X157468047Y-119407809D01*
X157444238Y-119384000D01*
X157396619Y-119360190D01*
X157301380Y-119360190D01*
X157253761Y-119384000D01*
X157229952Y-119407809D01*
X157206142Y-119455428D01*
X157206142Y-119574476D01*
X157229952Y-119622095D01*
X157253761Y-119645904D01*
X157301380Y-119669714D01*
X157396619Y-119669714D01*
X157444238Y-119645904D01*
X157468047Y-119622095D01*
X157491857Y-119574476D01*
%TO.C,C8*%
X179605857Y-109233190D02*
X179653476Y-109233190D01*
X179701095Y-109257000D01*
X179724904Y-109280809D01*
X179748714Y-109328428D01*
X179772523Y-109423666D01*
X179772523Y-109542714D01*
X179748714Y-109637952D01*
X179724904Y-109685571D01*
X179701095Y-109709380D01*
X179653476Y-109733190D01*
X179605857Y-109733190D01*
X179558238Y-109709380D01*
X179534428Y-109685571D01*
X179510619Y-109637952D01*
X179486809Y-109542714D01*
X179486809Y-109423666D01*
X179510619Y-109328428D01*
X179534428Y-109280809D01*
X179558238Y-109257000D01*
X179605857Y-109233190D01*
X179986809Y-109685571D02*
X180010619Y-109709380D01*
X179986809Y-109733190D01*
X179963000Y-109709380D01*
X179986809Y-109685571D01*
X179986809Y-109733190D01*
X180486809Y-109733190D02*
X180201095Y-109733190D01*
X180343952Y-109733190D02*
X180343952Y-109233190D01*
X180296333Y-109304619D01*
X180248714Y-109352238D01*
X180201095Y-109376047D01*
X180915380Y-109399857D02*
X180915380Y-109733190D01*
X180701095Y-109399857D02*
X180701095Y-109661761D01*
X180724904Y-109709380D01*
X180772523Y-109733190D01*
X180843952Y-109733190D01*
X180891571Y-109709380D01*
X180915380Y-109685571D01*
X180129666Y-108255571D02*
X180105857Y-108279380D01*
X180034428Y-108303190D01*
X179986809Y-108303190D01*
X179915380Y-108279380D01*
X179867761Y-108231761D01*
X179843952Y-108184142D01*
X179820142Y-108088904D01*
X179820142Y-108017476D01*
X179843952Y-107922238D01*
X179867761Y-107874619D01*
X179915380Y-107827000D01*
X179986809Y-107803190D01*
X180034428Y-107803190D01*
X180105857Y-107827000D01*
X180129666Y-107850809D01*
X180415380Y-108017476D02*
X180367761Y-107993666D01*
X180343952Y-107969857D01*
X180320142Y-107922238D01*
X180320142Y-107898428D01*
X180343952Y-107850809D01*
X180367761Y-107827000D01*
X180415380Y-107803190D01*
X180510619Y-107803190D01*
X180558238Y-107827000D01*
X180582047Y-107850809D01*
X180605857Y-107898428D01*
X180605857Y-107922238D01*
X180582047Y-107969857D01*
X180558238Y-107993666D01*
X180510619Y-108017476D01*
X180415380Y-108017476D01*
X180367761Y-108041285D01*
X180343952Y-108065095D01*
X180320142Y-108112714D01*
X180320142Y-108207952D01*
X180343952Y-108255571D01*
X180367761Y-108279380D01*
X180415380Y-108303190D01*
X180510619Y-108303190D01*
X180558238Y-108279380D01*
X180582047Y-108255571D01*
X180605857Y-108207952D01*
X180605857Y-108112714D01*
X180582047Y-108065095D01*
X180558238Y-108041285D01*
X180510619Y-108017476D01*
%TO.C,C7*%
X147119357Y-96144590D02*
X147166976Y-96144590D01*
X147214595Y-96168400D01*
X147238404Y-96192209D01*
X147262214Y-96239828D01*
X147286023Y-96335066D01*
X147286023Y-96454114D01*
X147262214Y-96549352D01*
X147238404Y-96596971D01*
X147214595Y-96620780D01*
X147166976Y-96644590D01*
X147119357Y-96644590D01*
X147071738Y-96620780D01*
X147047928Y-96596971D01*
X147024119Y-96549352D01*
X147000309Y-96454114D01*
X147000309Y-96335066D01*
X147024119Y-96239828D01*
X147047928Y-96192209D01*
X147071738Y-96168400D01*
X147119357Y-96144590D01*
X147500309Y-96596971D02*
X147524119Y-96620780D01*
X147500309Y-96644590D01*
X147476500Y-96620780D01*
X147500309Y-96596971D01*
X147500309Y-96644590D01*
X148000309Y-96644590D02*
X147714595Y-96644590D01*
X147857452Y-96644590D02*
X147857452Y-96144590D01*
X147809833Y-96216019D01*
X147762214Y-96263638D01*
X147714595Y-96287447D01*
X148428880Y-96311257D02*
X148428880Y-96644590D01*
X148214595Y-96311257D02*
X148214595Y-96573161D01*
X148238404Y-96620780D01*
X148286023Y-96644590D01*
X148357452Y-96644590D01*
X148405071Y-96620780D01*
X148428880Y-96596971D01*
X147693866Y-96596971D02*
X147670057Y-96620780D01*
X147598628Y-96644590D01*
X147551009Y-96644590D01*
X147479580Y-96620780D01*
X147431961Y-96573161D01*
X147408152Y-96525542D01*
X147384342Y-96430304D01*
X147384342Y-96358876D01*
X147408152Y-96263638D01*
X147431961Y-96216019D01*
X147479580Y-96168400D01*
X147551009Y-96144590D01*
X147598628Y-96144590D01*
X147670057Y-96168400D01*
X147693866Y-96192209D01*
X147860533Y-96144590D02*
X148193866Y-96144590D01*
X147979580Y-96644590D01*
%TO.C,R17*%
X160674880Y-112273190D02*
X160389166Y-112273190D01*
X160532023Y-112273190D02*
X160532023Y-111773190D01*
X160484404Y-111844619D01*
X160436785Y-111892238D01*
X160389166Y-111916047D01*
X160984404Y-111773190D02*
X161032023Y-111773190D01*
X161079642Y-111797000D01*
X161103452Y-111820809D01*
X161127261Y-111868428D01*
X161151071Y-111963666D01*
X161151071Y-112082714D01*
X161127261Y-112177952D01*
X161103452Y-112225571D01*
X161079642Y-112249380D01*
X161032023Y-112273190D01*
X160984404Y-112273190D01*
X160936785Y-112249380D01*
X160912976Y-112225571D01*
X160889166Y-112177952D01*
X160865357Y-112082714D01*
X160865357Y-111963666D01*
X160889166Y-111868428D01*
X160912976Y-111820809D01*
X160936785Y-111797000D01*
X160984404Y-111773190D01*
X161365357Y-112273190D02*
X161365357Y-111773190D01*
X161412976Y-112082714D02*
X161555833Y-112273190D01*
X161555833Y-111939857D02*
X161365357Y-112130333D01*
X160651071Y-110843190D02*
X160484404Y-110605095D01*
X160365357Y-110843190D02*
X160365357Y-110343190D01*
X160555833Y-110343190D01*
X160603452Y-110367000D01*
X160627261Y-110390809D01*
X160651071Y-110438428D01*
X160651071Y-110509857D01*
X160627261Y-110557476D01*
X160603452Y-110581285D01*
X160555833Y-110605095D01*
X160365357Y-110605095D01*
X161127261Y-110843190D02*
X160841547Y-110843190D01*
X160984404Y-110843190D02*
X160984404Y-110343190D01*
X160936785Y-110414619D01*
X160889166Y-110462238D01*
X160841547Y-110486047D01*
X161293928Y-110343190D02*
X161627261Y-110343190D01*
X161412976Y-110843190D01*
%TO.C,R16*%
X156341071Y-111820809D02*
X156364880Y-111797000D01*
X156412500Y-111773190D01*
X156531547Y-111773190D01*
X156579166Y-111797000D01*
X156602976Y-111820809D01*
X156626785Y-111868428D01*
X156626785Y-111916047D01*
X156602976Y-111987476D01*
X156317261Y-112273190D01*
X156626785Y-112273190D01*
X156936309Y-111773190D02*
X156983928Y-111773190D01*
X157031547Y-111797000D01*
X157055357Y-111820809D01*
X157079166Y-111868428D01*
X157102976Y-111963666D01*
X157102976Y-112082714D01*
X157079166Y-112177952D01*
X157055357Y-112225571D01*
X157031547Y-112249380D01*
X156983928Y-112273190D01*
X156936309Y-112273190D01*
X156888690Y-112249380D01*
X156864880Y-112225571D01*
X156841071Y-112177952D01*
X156817261Y-112082714D01*
X156817261Y-111963666D01*
X156841071Y-111868428D01*
X156864880Y-111820809D01*
X156888690Y-111797000D01*
X156936309Y-111773190D01*
X157412500Y-111773190D02*
X157460119Y-111773190D01*
X157507738Y-111797000D01*
X157531547Y-111820809D01*
X157555357Y-111868428D01*
X157579166Y-111963666D01*
X157579166Y-112082714D01*
X157555357Y-112177952D01*
X157531547Y-112225571D01*
X157507738Y-112249380D01*
X157460119Y-112273190D01*
X157412500Y-112273190D01*
X157364880Y-112249380D01*
X157341071Y-112225571D01*
X157317261Y-112177952D01*
X157293452Y-112082714D01*
X157293452Y-111963666D01*
X157317261Y-111868428D01*
X157341071Y-111820809D01*
X157364880Y-111797000D01*
X157412500Y-111773190D01*
X157793452Y-112273190D02*
X157793452Y-111773190D01*
X157841071Y-112082714D02*
X157983928Y-112273190D01*
X157983928Y-111939857D02*
X157793452Y-112130333D01*
X156841071Y-110843190D02*
X156674404Y-110605095D01*
X156555357Y-110843190D02*
X156555357Y-110343190D01*
X156745833Y-110343190D01*
X156793452Y-110367000D01*
X156817261Y-110390809D01*
X156841071Y-110438428D01*
X156841071Y-110509857D01*
X156817261Y-110557476D01*
X156793452Y-110581285D01*
X156745833Y-110605095D01*
X156555357Y-110605095D01*
X157317261Y-110843190D02*
X157031547Y-110843190D01*
X157174404Y-110843190D02*
X157174404Y-110343190D01*
X157126785Y-110414619D01*
X157079166Y-110462238D01*
X157031547Y-110486047D01*
X157745833Y-110343190D02*
X157650595Y-110343190D01*
X157602976Y-110367000D01*
X157579166Y-110390809D01*
X157531547Y-110462238D01*
X157507738Y-110557476D01*
X157507738Y-110747952D01*
X157531547Y-110795571D01*
X157555357Y-110819380D01*
X157602976Y-110843190D01*
X157698214Y-110843190D01*
X157745833Y-110819380D01*
X157769642Y-110795571D01*
X157793452Y-110747952D01*
X157793452Y-110628904D01*
X157769642Y-110581285D01*
X157745833Y-110557476D01*
X157698214Y-110533666D01*
X157602976Y-110533666D01*
X157555357Y-110557476D01*
X157531547Y-110581285D01*
X157507738Y-110628904D01*
%TO.C,R7*%
X180128076Y-106566656D02*
X179842361Y-106566656D01*
X179985219Y-106566656D02*
X179985219Y-106066656D01*
X179937600Y-106138085D01*
X179889980Y-106185704D01*
X179842361Y-106209513D01*
X180342361Y-106566656D02*
X180342361Y-106066656D01*
X180389980Y-106376180D02*
X180532838Y-106566656D01*
X180532838Y-106233323D02*
X180342361Y-106423799D01*
X180104266Y-105136656D02*
X179937600Y-104898561D01*
X179818552Y-105136656D02*
X179818552Y-104636656D01*
X180009028Y-104636656D01*
X180056647Y-104660466D01*
X180080457Y-104684275D01*
X180104266Y-104731894D01*
X180104266Y-104803323D01*
X180080457Y-104850942D01*
X180056647Y-104874751D01*
X180009028Y-104898561D01*
X179818552Y-104898561D01*
X180270933Y-104636656D02*
X180604266Y-104636656D01*
X180389980Y-105136656D01*
%TO.C,R6*%
X180128076Y-108152039D02*
X179842361Y-108152039D01*
X179985219Y-108152039D02*
X179985219Y-107652039D01*
X179937600Y-107723468D01*
X179889980Y-107771087D01*
X179842361Y-107794896D01*
X180342361Y-108152039D02*
X180342361Y-107652039D01*
X180389980Y-107961563D02*
X180532838Y-108152039D01*
X180532838Y-107818706D02*
X180342361Y-108009182D01*
X180104266Y-106722039D02*
X179937600Y-106483944D01*
X179818552Y-106722039D02*
X179818552Y-106222039D01*
X180009028Y-106222039D01*
X180056647Y-106245849D01*
X180080457Y-106269658D01*
X180104266Y-106317277D01*
X180104266Y-106388706D01*
X180080457Y-106436325D01*
X180056647Y-106460134D01*
X180009028Y-106483944D01*
X179818552Y-106483944D01*
X180532838Y-106222039D02*
X180437600Y-106222039D01*
X180389980Y-106245849D01*
X180366171Y-106269658D01*
X180318552Y-106341087D01*
X180294742Y-106436325D01*
X180294742Y-106626801D01*
X180318552Y-106674420D01*
X180342361Y-106698229D01*
X180389980Y-106722039D01*
X180485219Y-106722039D01*
X180532838Y-106698229D01*
X180556647Y-106674420D01*
X180580457Y-106626801D01*
X180580457Y-106507753D01*
X180556647Y-106460134D01*
X180532838Y-106436325D01*
X180485219Y-106412515D01*
X180389980Y-106412515D01*
X180342361Y-106436325D01*
X180318552Y-106460134D01*
X180294742Y-106507753D01*
%TO.C,U1*%
X176797761Y-98225190D02*
X176797761Y-97725190D01*
X176916809Y-97725190D01*
X176988238Y-97749000D01*
X177035857Y-97796619D01*
X177059666Y-97844238D01*
X177083476Y-97939476D01*
X177083476Y-98010904D01*
X177059666Y-98106142D01*
X177035857Y-98153761D01*
X176988238Y-98201380D01*
X176916809Y-98225190D01*
X176797761Y-98225190D01*
X177273952Y-98201380D02*
X177345380Y-98225190D01*
X177464428Y-98225190D01*
X177512047Y-98201380D01*
X177535857Y-98177571D01*
X177559666Y-98129952D01*
X177559666Y-98082333D01*
X177535857Y-98034714D01*
X177512047Y-98010904D01*
X177464428Y-97987095D01*
X177369190Y-97963285D01*
X177321571Y-97939476D01*
X177297761Y-97915666D01*
X177273952Y-97868047D01*
X177273952Y-97820428D01*
X177297761Y-97772809D01*
X177321571Y-97749000D01*
X177369190Y-97725190D01*
X177488238Y-97725190D01*
X177559666Y-97749000D01*
X177726333Y-97725190D02*
X178035857Y-97725190D01*
X177869190Y-97915666D01*
X177940619Y-97915666D01*
X177988238Y-97939476D01*
X178012047Y-97963285D01*
X178035857Y-98010904D01*
X178035857Y-98129952D01*
X178012047Y-98177571D01*
X177988238Y-98201380D01*
X177940619Y-98225190D01*
X177797761Y-98225190D01*
X177750142Y-98201380D01*
X177726333Y-98177571D01*
X178226333Y-97772809D02*
X178250142Y-97749000D01*
X178297761Y-97725190D01*
X178416809Y-97725190D01*
X178464428Y-97749000D01*
X178488238Y-97772809D01*
X178512047Y-97820428D01*
X178512047Y-97868047D01*
X178488238Y-97939476D01*
X178202523Y-98225190D01*
X178512047Y-98225190D01*
X178678714Y-97725190D02*
X178988238Y-97725190D01*
X178821571Y-97915666D01*
X178893000Y-97915666D01*
X178940619Y-97939476D01*
X178964428Y-97963285D01*
X178988238Y-98010904D01*
X178988238Y-98129952D01*
X178964428Y-98177571D01*
X178940619Y-98201380D01*
X178893000Y-98225190D01*
X178750142Y-98225190D01*
X178702523Y-98201380D01*
X178678714Y-98177571D01*
X179464428Y-98225190D02*
X179178714Y-98225190D01*
X179321571Y-98225190D02*
X179321571Y-97725190D01*
X179273952Y-97796619D01*
X179226333Y-97844238D01*
X179178714Y-97868047D01*
X179678714Y-98225190D02*
X179678714Y-97725190D01*
X179845380Y-98082333D01*
X180012047Y-97725190D01*
X180012047Y-98225190D01*
X180202523Y-97725190D02*
X180535857Y-97725190D01*
X180202523Y-98225190D01*
X180535857Y-98225190D01*
X178308047Y-96436690D02*
X178308047Y-96841452D01*
X178331857Y-96889071D01*
X178355666Y-96912880D01*
X178403285Y-96936690D01*
X178498523Y-96936690D01*
X178546142Y-96912880D01*
X178569952Y-96889071D01*
X178593761Y-96841452D01*
X178593761Y-96436690D01*
X179093761Y-96936690D02*
X178808047Y-96936690D01*
X178950904Y-96936690D02*
X178950904Y-96436690D01*
X178903285Y-96508119D01*
X178855666Y-96555738D01*
X178808047Y-96579547D01*
%TO.C,U6*%
X159035880Y-125143071D02*
X159012071Y-125166880D01*
X158940642Y-125190690D01*
X158893023Y-125190690D01*
X158821595Y-125166880D01*
X158773976Y-125119261D01*
X158750166Y-125071642D01*
X158726357Y-124976404D01*
X158726357Y-124904976D01*
X158750166Y-124809738D01*
X158773976Y-124762119D01*
X158821595Y-124714500D01*
X158893023Y-124690690D01*
X158940642Y-124690690D01*
X159012071Y-124714500D01*
X159035880Y-124738309D01*
X159250166Y-125190690D02*
X159250166Y-124690690D01*
X159250166Y-124928785D02*
X159535880Y-124928785D01*
X159535880Y-125190690D02*
X159535880Y-124690690D01*
X159726357Y-124690690D02*
X160035880Y-124690690D01*
X159869214Y-124881166D01*
X159940642Y-124881166D01*
X159988261Y-124904976D01*
X160012071Y-124928785D01*
X160035880Y-124976404D01*
X160035880Y-125095452D01*
X160012071Y-125143071D01*
X159988261Y-125166880D01*
X159940642Y-125190690D01*
X159797785Y-125190690D01*
X159750166Y-125166880D01*
X159726357Y-125143071D01*
X160464452Y-124857357D02*
X160464452Y-125190690D01*
X160345404Y-124666880D02*
X160226357Y-125024023D01*
X160535880Y-125024023D01*
X160821595Y-124690690D02*
X160869214Y-124690690D01*
X160916833Y-124714500D01*
X160940642Y-124738309D01*
X160964452Y-124785928D01*
X160988261Y-124881166D01*
X160988261Y-125000214D01*
X160964452Y-125095452D01*
X160940642Y-125143071D01*
X160916833Y-125166880D01*
X160869214Y-125190690D01*
X160821595Y-125190690D01*
X160773976Y-125166880D01*
X160750166Y-125143071D01*
X160726357Y-125095452D01*
X160702547Y-125000214D01*
X160702547Y-124881166D01*
X160726357Y-124785928D01*
X160750166Y-124738309D01*
X160773976Y-124714500D01*
X160821595Y-124690690D01*
X161202547Y-124928785D02*
X161369214Y-124928785D01*
X161440642Y-125190690D02*
X161202547Y-125190690D01*
X161202547Y-124690690D01*
X161440642Y-124690690D01*
X159702547Y-122090690D02*
X159702547Y-122495452D01*
X159726357Y-122543071D01*
X159750166Y-122566880D01*
X159797785Y-122590690D01*
X159893023Y-122590690D01*
X159940642Y-122566880D01*
X159964452Y-122543071D01*
X159988261Y-122495452D01*
X159988261Y-122090690D01*
X160440642Y-122090690D02*
X160345404Y-122090690D01*
X160297785Y-122114500D01*
X160273976Y-122138309D01*
X160226357Y-122209738D01*
X160202547Y-122304976D01*
X160202547Y-122495452D01*
X160226357Y-122543071D01*
X160250166Y-122566880D01*
X160297785Y-122590690D01*
X160393023Y-122590690D01*
X160440642Y-122566880D01*
X160464452Y-122543071D01*
X160488261Y-122495452D01*
X160488261Y-122376404D01*
X160464452Y-122328785D01*
X160440642Y-122304976D01*
X160393023Y-122281166D01*
X160297785Y-122281166D01*
X160250166Y-122304976D01*
X160226357Y-122328785D01*
X160202547Y-122376404D01*
%TO.C,U11*%
X150891952Y-121773190D02*
X150891952Y-122177952D01*
X150915761Y-122225571D01*
X150939571Y-122249380D01*
X150987190Y-122273190D01*
X151082428Y-122273190D01*
X151130047Y-122249380D01*
X151153857Y-122225571D01*
X151177666Y-122177952D01*
X151177666Y-121773190D01*
X151677666Y-122273190D02*
X151391952Y-122273190D01*
X151534809Y-122273190D02*
X151534809Y-121773190D01*
X151487190Y-121844619D01*
X151439571Y-121892238D01*
X151391952Y-121916047D01*
X152153857Y-122273190D02*
X151868142Y-122273190D01*
X152011000Y-122273190D02*
X152011000Y-121773190D01*
X151963380Y-121844619D01*
X151915761Y-121892238D01*
X151868142Y-121916047D01*
%TO.C,R11*%
X168485280Y-103389539D02*
X168199566Y-103389539D01*
X168342423Y-103389539D02*
X168342423Y-102889539D01*
X168294804Y-102960968D01*
X168247185Y-103008587D01*
X168199566Y-103032396D01*
X168794804Y-102889539D02*
X168842423Y-102889539D01*
X168890042Y-102913349D01*
X168913852Y-102937158D01*
X168937661Y-102984777D01*
X168961471Y-103080015D01*
X168961471Y-103199063D01*
X168937661Y-103294301D01*
X168913852Y-103341920D01*
X168890042Y-103365729D01*
X168842423Y-103389539D01*
X168794804Y-103389539D01*
X168747185Y-103365729D01*
X168723376Y-103341920D01*
X168699566Y-103294301D01*
X168675757Y-103199063D01*
X168675757Y-103080015D01*
X168699566Y-102984777D01*
X168723376Y-102937158D01*
X168747185Y-102913349D01*
X168794804Y-102889539D01*
X169175757Y-103389539D02*
X169175757Y-102889539D01*
X169223376Y-103199063D02*
X169366233Y-103389539D01*
X169366233Y-103056206D02*
X169175757Y-103246682D01*
X168461471Y-101959539D02*
X168294804Y-101721444D01*
X168175757Y-101959539D02*
X168175757Y-101459539D01*
X168366233Y-101459539D01*
X168413852Y-101483349D01*
X168437661Y-101507158D01*
X168461471Y-101554777D01*
X168461471Y-101626206D01*
X168437661Y-101673825D01*
X168413852Y-101697634D01*
X168366233Y-101721444D01*
X168175757Y-101721444D01*
X168937661Y-101959539D02*
X168651947Y-101959539D01*
X168794804Y-101959539D02*
X168794804Y-101459539D01*
X168747185Y-101530968D01*
X168699566Y-101578587D01*
X168651947Y-101602396D01*
X169413852Y-101959539D02*
X169128138Y-101959539D01*
X169270995Y-101959539D02*
X169270995Y-101459539D01*
X169223376Y-101530968D01*
X169175757Y-101578587D01*
X169128138Y-101602396D01*
%TO.C,R10*%
X151238780Y-98219390D02*
X150953066Y-98219390D01*
X151095923Y-98219390D02*
X151095923Y-97719390D01*
X151048304Y-97790819D01*
X151000685Y-97838438D01*
X150953066Y-97862247D01*
X151548304Y-97719390D02*
X151595923Y-97719390D01*
X151643542Y-97743200D01*
X151667352Y-97767009D01*
X151691161Y-97814628D01*
X151714971Y-97909866D01*
X151714971Y-98028914D01*
X151691161Y-98124152D01*
X151667352Y-98171771D01*
X151643542Y-98195580D01*
X151595923Y-98219390D01*
X151548304Y-98219390D01*
X151500685Y-98195580D01*
X151476876Y-98171771D01*
X151453066Y-98124152D01*
X151429257Y-98028914D01*
X151429257Y-97909866D01*
X151453066Y-97814628D01*
X151476876Y-97767009D01*
X151500685Y-97743200D01*
X151548304Y-97719390D01*
X151929257Y-98219390D02*
X151929257Y-97719390D01*
X151976876Y-98028914D02*
X152119733Y-98219390D01*
X152119733Y-97886057D02*
X151929257Y-98076533D01*
X151214971Y-98270190D02*
X151048304Y-98032095D01*
X150929257Y-98270190D02*
X150929257Y-97770190D01*
X151119733Y-97770190D01*
X151167352Y-97794000D01*
X151191161Y-97817809D01*
X151214971Y-97865428D01*
X151214971Y-97936857D01*
X151191161Y-97984476D01*
X151167352Y-98008285D01*
X151119733Y-98032095D01*
X150929257Y-98032095D01*
X151691161Y-98270190D02*
X151405447Y-98270190D01*
X151548304Y-98270190D02*
X151548304Y-97770190D01*
X151500685Y-97841619D01*
X151453066Y-97889238D01*
X151405447Y-97913047D01*
X152000685Y-97770190D02*
X152048304Y-97770190D01*
X152095923Y-97794000D01*
X152119733Y-97817809D01*
X152143542Y-97865428D01*
X152167352Y-97960666D01*
X152167352Y-98079714D01*
X152143542Y-98174952D01*
X152119733Y-98222571D01*
X152095923Y-98246380D01*
X152048304Y-98270190D01*
X152000685Y-98270190D01*
X151953066Y-98246380D01*
X151929257Y-98222571D01*
X151905447Y-98174952D01*
X151881638Y-98079714D01*
X151881638Y-97960666D01*
X151905447Y-97865428D01*
X151929257Y-97817809D01*
X151953066Y-97794000D01*
X152000685Y-97770190D01*
%TO.C,R14*%
X154427290Y-115330942D02*
X154427290Y-115569038D01*
X154665385Y-115592847D01*
X154641576Y-115569038D01*
X154617766Y-115521419D01*
X154617766Y-115402371D01*
X154641576Y-115354752D01*
X154665385Y-115330942D01*
X154713004Y-115307133D01*
X154832052Y-115307133D01*
X154879671Y-115330942D01*
X154903480Y-115354752D01*
X154927290Y-115402371D01*
X154927290Y-115521419D01*
X154903480Y-115569038D01*
X154879671Y-115592847D01*
X154927290Y-114830942D02*
X154927290Y-115116657D01*
X154927290Y-114973800D02*
X154427290Y-114973800D01*
X154498719Y-115021419D01*
X154546338Y-115069038D01*
X154570147Y-115116657D01*
X154427290Y-114521419D02*
X154427290Y-114473800D01*
X154451100Y-114426180D01*
X154474909Y-114402371D01*
X154522528Y-114378561D01*
X154617766Y-114354752D01*
X154736814Y-114354752D01*
X154832052Y-114378561D01*
X154879671Y-114402371D01*
X154903480Y-114426180D01*
X154927290Y-114473800D01*
X154927290Y-114521419D01*
X154903480Y-114569038D01*
X154879671Y-114592847D01*
X154832052Y-114616657D01*
X154736814Y-114640466D01*
X154617766Y-114640466D01*
X154522528Y-114616657D01*
X154474909Y-114592847D01*
X154451100Y-114569038D01*
X154427290Y-114521419D01*
X154927290Y-113854752D02*
X154689195Y-114021419D01*
X154927290Y-114140466D02*
X154427290Y-114140466D01*
X154427290Y-113949990D01*
X154451100Y-113902371D01*
X154474909Y-113878561D01*
X154522528Y-113854752D01*
X154593957Y-113854752D01*
X154641576Y-113878561D01*
X154665385Y-113902371D01*
X154689195Y-113949990D01*
X154689195Y-114140466D01*
X154975690Y-115002428D02*
X154737595Y-115169095D01*
X154975690Y-115288142D02*
X154475690Y-115288142D01*
X154475690Y-115097666D01*
X154499500Y-115050047D01*
X154523309Y-115026238D01*
X154570928Y-115002428D01*
X154642357Y-115002428D01*
X154689976Y-115026238D01*
X154713785Y-115050047D01*
X154737595Y-115097666D01*
X154737595Y-115288142D01*
X154975690Y-114526238D02*
X154975690Y-114811952D01*
X154975690Y-114669095D02*
X154475690Y-114669095D01*
X154547119Y-114716714D01*
X154594738Y-114764333D01*
X154618547Y-114811952D01*
X154642357Y-114097666D02*
X154975690Y-114097666D01*
X154451880Y-114216714D02*
X154809023Y-114335761D01*
X154809023Y-114026238D01*
%TO.C,R4*%
X160278047Y-120956857D02*
X160278047Y-121290190D01*
X160159000Y-120766380D02*
X160039952Y-121123523D01*
X160349476Y-121123523D01*
X160492333Y-120790190D02*
X160825666Y-120790190D01*
X160611380Y-121290190D01*
X161111380Y-120790190D02*
X161159000Y-120790190D01*
X161206619Y-120814000D01*
X161230428Y-120837809D01*
X161254238Y-120885428D01*
X161278047Y-120980666D01*
X161278047Y-121099714D01*
X161254238Y-121194952D01*
X161230428Y-121242571D01*
X161206619Y-121266380D01*
X161159000Y-121290190D01*
X161111380Y-121290190D01*
X161063761Y-121266380D01*
X161039952Y-121242571D01*
X161016142Y-121194952D01*
X160992333Y-121099714D01*
X160992333Y-120980666D01*
X161016142Y-120885428D01*
X161039952Y-120837809D01*
X161063761Y-120814000D01*
X161111380Y-120790190D01*
X161778047Y-121290190D02*
X161611380Y-121052095D01*
X161492333Y-121290190D02*
X161492333Y-120790190D01*
X161682809Y-120790190D01*
X161730428Y-120814000D01*
X161754238Y-120837809D01*
X161778047Y-120885428D01*
X161778047Y-120956857D01*
X161754238Y-121004476D01*
X161730428Y-121028285D01*
X161682809Y-121052095D01*
X161492333Y-121052095D01*
X160825666Y-119860190D02*
X160659000Y-119622095D01*
X160539952Y-119860190D02*
X160539952Y-119360190D01*
X160730428Y-119360190D01*
X160778047Y-119384000D01*
X160801857Y-119407809D01*
X160825666Y-119455428D01*
X160825666Y-119526857D01*
X160801857Y-119574476D01*
X160778047Y-119598285D01*
X160730428Y-119622095D01*
X160539952Y-119622095D01*
X161254238Y-119526857D02*
X161254238Y-119860190D01*
X161135190Y-119336380D02*
X161016142Y-119693523D01*
X161325666Y-119693523D01*
%TO.C,R15*%
X154813866Y-122894590D02*
X154575771Y-122894590D01*
X154551961Y-123132685D01*
X154575771Y-123108876D01*
X154623390Y-123085066D01*
X154742438Y-123085066D01*
X154790057Y-123108876D01*
X154813866Y-123132685D01*
X154837676Y-123180304D01*
X154837676Y-123299352D01*
X154813866Y-123346971D01*
X154790057Y-123370780D01*
X154742438Y-123394590D01*
X154623390Y-123394590D01*
X154575771Y-123370780D01*
X154551961Y-123346971D01*
X155051961Y-123394590D02*
X155051961Y-122894590D01*
X155099580Y-123204114D02*
X155242438Y-123394590D01*
X155242438Y-123061257D02*
X155051961Y-123251733D01*
X154626571Y-123394590D02*
X154459904Y-123156495D01*
X154340857Y-123394590D02*
X154340857Y-122894590D01*
X154531333Y-122894590D01*
X154578952Y-122918400D01*
X154602761Y-122942209D01*
X154626571Y-122989828D01*
X154626571Y-123061257D01*
X154602761Y-123108876D01*
X154578952Y-123132685D01*
X154531333Y-123156495D01*
X154340857Y-123156495D01*
X155102761Y-123394590D02*
X154817047Y-123394590D01*
X154959904Y-123394590D02*
X154959904Y-122894590D01*
X154912285Y-122966019D01*
X154864666Y-123013638D01*
X154817047Y-123037447D01*
X155555142Y-122894590D02*
X155317047Y-122894590D01*
X155293238Y-123132685D01*
X155317047Y-123108876D01*
X155364666Y-123085066D01*
X155483714Y-123085066D01*
X155531333Y-123108876D01*
X155555142Y-123132685D01*
X155578952Y-123180304D01*
X155578952Y-123299352D01*
X155555142Y-123346971D01*
X155531333Y-123370780D01*
X155483714Y-123394590D01*
X155364666Y-123394590D01*
X155317047Y-123370780D01*
X155293238Y-123346971D01*
%TO.C,R13*%
X146828747Y-123120957D02*
X146828747Y-123454290D01*
X146709700Y-122930480D02*
X146590652Y-123287623D01*
X146900176Y-123287623D01*
X147043033Y-122954290D02*
X147376366Y-122954290D01*
X147162080Y-123454290D01*
X147662080Y-122954290D02*
X147709700Y-122954290D01*
X147757319Y-122978100D01*
X147781128Y-123001909D01*
X147804938Y-123049528D01*
X147828747Y-123144766D01*
X147828747Y-123263814D01*
X147804938Y-123359052D01*
X147781128Y-123406671D01*
X147757319Y-123430480D01*
X147709700Y-123454290D01*
X147662080Y-123454290D01*
X147614461Y-123430480D01*
X147590652Y-123406671D01*
X147566842Y-123359052D01*
X147543033Y-123263814D01*
X147543033Y-123144766D01*
X147566842Y-123049528D01*
X147590652Y-123001909D01*
X147614461Y-122978100D01*
X147662080Y-122954290D01*
X148328747Y-123454290D02*
X148162080Y-123216195D01*
X148043033Y-123454290D02*
X148043033Y-122954290D01*
X148233509Y-122954290D01*
X148281128Y-122978100D01*
X148304938Y-123001909D01*
X148328747Y-123049528D01*
X148328747Y-123120957D01*
X148304938Y-123168576D01*
X148281128Y-123192385D01*
X148233509Y-123216195D01*
X148043033Y-123216195D01*
X147125571Y-123416190D02*
X146958904Y-123178095D01*
X146839857Y-123416190D02*
X146839857Y-122916190D01*
X147030333Y-122916190D01*
X147077952Y-122940000D01*
X147101761Y-122963809D01*
X147125571Y-123011428D01*
X147125571Y-123082857D01*
X147101761Y-123130476D01*
X147077952Y-123154285D01*
X147030333Y-123178095D01*
X146839857Y-123178095D01*
X147601761Y-123416190D02*
X147316047Y-123416190D01*
X147458904Y-123416190D02*
X147458904Y-122916190D01*
X147411285Y-122987619D01*
X147363666Y-123035238D01*
X147316047Y-123059047D01*
X147768428Y-122916190D02*
X148077952Y-122916190D01*
X147911285Y-123106666D01*
X147982714Y-123106666D01*
X148030333Y-123130476D01*
X148054142Y-123154285D01*
X148077952Y-123201904D01*
X148077952Y-123320952D01*
X148054142Y-123368571D01*
X148030333Y-123392380D01*
X147982714Y-123416190D01*
X147839857Y-123416190D01*
X147792238Y-123392380D01*
X147768428Y-123368571D01*
%TO.C,R1*%
X162877547Y-108231809D02*
X162901357Y-108208000D01*
X162948976Y-108184190D01*
X163068023Y-108184190D01*
X163115642Y-108208000D01*
X163139452Y-108231809D01*
X163163261Y-108279428D01*
X163163261Y-108327047D01*
X163139452Y-108398476D01*
X162853738Y-108684190D01*
X163163261Y-108684190D01*
X163353738Y-108231809D02*
X163377547Y-108208000D01*
X163425166Y-108184190D01*
X163544214Y-108184190D01*
X163591833Y-108208000D01*
X163615642Y-108231809D01*
X163639452Y-108279428D01*
X163639452Y-108327047D01*
X163615642Y-108398476D01*
X163329928Y-108684190D01*
X163639452Y-108684190D01*
X163175166Y-108684190D02*
X163008500Y-108446095D01*
X162889452Y-108684190D02*
X162889452Y-108184190D01*
X163079928Y-108184190D01*
X163127547Y-108208000D01*
X163151357Y-108231809D01*
X163175166Y-108279428D01*
X163175166Y-108350857D01*
X163151357Y-108398476D01*
X163127547Y-108422285D01*
X163079928Y-108446095D01*
X162889452Y-108446095D01*
X163651357Y-108684190D02*
X163365642Y-108684190D01*
X163508500Y-108684190D02*
X163508500Y-108184190D01*
X163460880Y-108255619D01*
X163413261Y-108303238D01*
X163365642Y-108327047D01*
%TO.C,Q1*%
X139600809Y-97699342D02*
X139577000Y-97675533D01*
X139553190Y-97627914D01*
X139553190Y-97508866D01*
X139577000Y-97461247D01*
X139600809Y-97437438D01*
X139648428Y-97413628D01*
X139696047Y-97413628D01*
X139767476Y-97437438D01*
X140053190Y-97723152D01*
X140053190Y-97413628D01*
X140053190Y-97199342D02*
X139553190Y-97199342D01*
X140053190Y-96913628D01*
X139553190Y-96913628D01*
X139553190Y-96723152D02*
X139553190Y-96389819D01*
X140053190Y-96604104D01*
X139553190Y-96104104D02*
X139553190Y-96056485D01*
X139577000Y-96008866D01*
X139600809Y-95985057D01*
X139648428Y-95961247D01*
X139743666Y-95937438D01*
X139862714Y-95937438D01*
X139957952Y-95961247D01*
X140005571Y-95985057D01*
X140029380Y-96008866D01*
X140053190Y-96056485D01*
X140053190Y-96104104D01*
X140029380Y-96151723D01*
X140005571Y-96175533D01*
X139957952Y-96199342D01*
X139862714Y-96223152D01*
X139743666Y-96223152D01*
X139648428Y-96199342D01*
X139600809Y-96175533D01*
X139577000Y-96151723D01*
X139553190Y-96104104D01*
X139553190Y-95627914D02*
X139553190Y-95580295D01*
X139577000Y-95532676D01*
X139600809Y-95508866D01*
X139648428Y-95485057D01*
X139743666Y-95461247D01*
X139862714Y-95461247D01*
X139957952Y-95485057D01*
X140005571Y-95508866D01*
X140029380Y-95532676D01*
X140053190Y-95580295D01*
X140053190Y-95627914D01*
X140029380Y-95675533D01*
X140005571Y-95699342D01*
X139957952Y-95723152D01*
X139862714Y-95746961D01*
X139743666Y-95746961D01*
X139648428Y-95723152D01*
X139600809Y-95699342D01*
X139577000Y-95675533D01*
X139553190Y-95627914D01*
X139600809Y-95270771D02*
X139577000Y-95246961D01*
X139553190Y-95199342D01*
X139553190Y-95080295D01*
X139577000Y-95032676D01*
X139600809Y-95008866D01*
X139648428Y-94985057D01*
X139696047Y-94985057D01*
X139767476Y-95008866D01*
X140053190Y-95294580D01*
X140053190Y-94985057D01*
X140100809Y-96440619D02*
X140077000Y-96488238D01*
X140029380Y-96535857D01*
X139957952Y-96607285D01*
X139934142Y-96654904D01*
X139934142Y-96702523D01*
X140053190Y-96678714D02*
X140029380Y-96726333D01*
X139981761Y-96773952D01*
X139886523Y-96797761D01*
X139719857Y-96797761D01*
X139624619Y-96773952D01*
X139577000Y-96726333D01*
X139553190Y-96678714D01*
X139553190Y-96583476D01*
X139577000Y-96535857D01*
X139624619Y-96488238D01*
X139719857Y-96464428D01*
X139886523Y-96464428D01*
X139981761Y-96488238D01*
X140029380Y-96535857D01*
X140053190Y-96583476D01*
X140053190Y-96678714D01*
X140053190Y-95988238D02*
X140053190Y-96273952D01*
X140053190Y-96131095D02*
X139553190Y-96131095D01*
X139624619Y-96178714D01*
X139672238Y-96226333D01*
X139696047Y-96273952D01*
%TO.C,D1*%
X144917290Y-123935928D02*
X144917290Y-124174023D01*
X144417290Y-124174023D01*
X144655385Y-123769261D02*
X144655385Y-123602595D01*
X144917290Y-123531166D02*
X144917290Y-123769261D01*
X144417290Y-123769261D01*
X144417290Y-123531166D01*
X144917290Y-123316880D02*
X144417290Y-123316880D01*
X144417290Y-123197833D01*
X144441100Y-123126404D01*
X144488719Y-123078785D01*
X144536338Y-123054976D01*
X144631576Y-123031166D01*
X144703004Y-123031166D01*
X144798242Y-123054976D01*
X144845861Y-123078785D01*
X144893480Y-123126404D01*
X144917290Y-123197833D01*
X144917290Y-123316880D01*
X144964909Y-122935928D02*
X144964909Y-122554976D01*
X144441100Y-122174023D02*
X144417290Y-122221642D01*
X144417290Y-122293071D01*
X144441100Y-122364500D01*
X144488719Y-122412119D01*
X144536338Y-122435928D01*
X144631576Y-122459738D01*
X144703004Y-122459738D01*
X144798242Y-122435928D01*
X144845861Y-122412119D01*
X144893480Y-122364500D01*
X144917290Y-122293071D01*
X144917290Y-122245452D01*
X144893480Y-122174023D01*
X144869671Y-122150214D01*
X144703004Y-122150214D01*
X144703004Y-122245452D01*
X144917290Y-121935928D02*
X144583957Y-121935928D01*
X144679195Y-121935928D02*
X144631576Y-121912119D01*
X144607766Y-121888309D01*
X144583957Y-121840690D01*
X144583957Y-121793071D01*
X144893480Y-121435928D02*
X144917290Y-121483547D01*
X144917290Y-121578785D01*
X144893480Y-121626404D01*
X144845861Y-121650214D01*
X144655385Y-121650214D01*
X144607766Y-121626404D01*
X144583957Y-121578785D01*
X144583957Y-121483547D01*
X144607766Y-121435928D01*
X144655385Y-121412119D01*
X144703004Y-121412119D01*
X144750623Y-121650214D01*
X144893480Y-121007357D02*
X144917290Y-121054976D01*
X144917290Y-121150214D01*
X144893480Y-121197833D01*
X144845861Y-121221642D01*
X144655385Y-121221642D01*
X144607766Y-121197833D01*
X144583957Y-121150214D01*
X144583957Y-121054976D01*
X144607766Y-121007357D01*
X144655385Y-120983547D01*
X144703004Y-120983547D01*
X144750623Y-121221642D01*
X144583957Y-120769261D02*
X144917290Y-120769261D01*
X144631576Y-120769261D02*
X144607766Y-120745452D01*
X144583957Y-120697833D01*
X144583957Y-120626404D01*
X144607766Y-120578785D01*
X144655385Y-120554976D01*
X144917290Y-120554976D01*
X144879190Y-122797047D02*
X144379190Y-122797047D01*
X144379190Y-122678000D01*
X144403000Y-122606571D01*
X144450619Y-122558952D01*
X144498238Y-122535142D01*
X144593476Y-122511333D01*
X144664904Y-122511333D01*
X144760142Y-122535142D01*
X144807761Y-122558952D01*
X144855380Y-122606571D01*
X144879190Y-122678000D01*
X144879190Y-122797047D01*
X144879190Y-122035142D02*
X144879190Y-122320857D01*
X144879190Y-122178000D02*
X144379190Y-122178000D01*
X144450619Y-122225619D01*
X144498238Y-122273238D01*
X144522047Y-122320857D01*
%TO.C,C4*%
X143283857Y-117358690D02*
X143331476Y-117358690D01*
X143379095Y-117382500D01*
X143402904Y-117406309D01*
X143426714Y-117453928D01*
X143450523Y-117549166D01*
X143450523Y-117668214D01*
X143426714Y-117763452D01*
X143402904Y-117811071D01*
X143379095Y-117834880D01*
X143331476Y-117858690D01*
X143283857Y-117858690D01*
X143236238Y-117834880D01*
X143212428Y-117811071D01*
X143188619Y-117763452D01*
X143164809Y-117668214D01*
X143164809Y-117549166D01*
X143188619Y-117453928D01*
X143212428Y-117406309D01*
X143236238Y-117382500D01*
X143283857Y-117358690D01*
X143664809Y-117811071D02*
X143688619Y-117834880D01*
X143664809Y-117858690D01*
X143641000Y-117834880D01*
X143664809Y-117811071D01*
X143664809Y-117858690D01*
X144164809Y-117858690D02*
X143879095Y-117858690D01*
X144021952Y-117858690D02*
X144021952Y-117358690D01*
X143974333Y-117430119D01*
X143926714Y-117477738D01*
X143879095Y-117501547D01*
X144593380Y-117525357D02*
X144593380Y-117858690D01*
X144379095Y-117525357D02*
X144379095Y-117787261D01*
X144402904Y-117834880D01*
X144450523Y-117858690D01*
X144521952Y-117858690D01*
X144569571Y-117834880D01*
X144593380Y-117811071D01*
X144069571Y-119145833D02*
X144093380Y-119169642D01*
X144117190Y-119241071D01*
X144117190Y-119288690D01*
X144093380Y-119360119D01*
X144045761Y-119407738D01*
X143998142Y-119431547D01*
X143902904Y-119455357D01*
X143831476Y-119455357D01*
X143736238Y-119431547D01*
X143688619Y-119407738D01*
X143641000Y-119360119D01*
X143617190Y-119288690D01*
X143617190Y-119241071D01*
X143641000Y-119169642D01*
X143664809Y-119145833D01*
X143783857Y-118717261D02*
X144117190Y-118717261D01*
X143593380Y-118836309D02*
X143950523Y-118955357D01*
X143950523Y-118645833D01*
%TO.C,C3*%
X143271057Y-115796590D02*
X143318676Y-115796590D01*
X143366295Y-115820400D01*
X143390104Y-115844209D01*
X143413914Y-115891828D01*
X143437723Y-115987066D01*
X143437723Y-116106114D01*
X143413914Y-116201352D01*
X143390104Y-116248971D01*
X143366295Y-116272780D01*
X143318676Y-116296590D01*
X143271057Y-116296590D01*
X143223438Y-116272780D01*
X143199628Y-116248971D01*
X143175819Y-116201352D01*
X143152009Y-116106114D01*
X143152009Y-115987066D01*
X143175819Y-115891828D01*
X143199628Y-115844209D01*
X143223438Y-115820400D01*
X143271057Y-115796590D01*
X143652009Y-116248971D02*
X143675819Y-116272780D01*
X143652009Y-116296590D01*
X143628200Y-116272780D01*
X143652009Y-116248971D01*
X143652009Y-116296590D01*
X144152009Y-116296590D02*
X143866295Y-116296590D01*
X144009152Y-116296590D02*
X144009152Y-115796590D01*
X143961533Y-115868019D01*
X143913914Y-115915638D01*
X143866295Y-115939447D01*
X144580580Y-115963257D02*
X144580580Y-116296590D01*
X144366295Y-115963257D02*
X144366295Y-116225161D01*
X144390104Y-116272780D01*
X144437723Y-116296590D01*
X144509152Y-116296590D01*
X144556771Y-116272780D01*
X144580580Y-116248971D01*
X143794866Y-117678971D02*
X143771057Y-117702780D01*
X143699628Y-117726590D01*
X143652009Y-117726590D01*
X143580580Y-117702780D01*
X143532961Y-117655161D01*
X143509152Y-117607542D01*
X143485342Y-117512304D01*
X143485342Y-117440876D01*
X143509152Y-117345638D01*
X143532961Y-117298019D01*
X143580580Y-117250400D01*
X143652009Y-117226590D01*
X143699628Y-117226590D01*
X143771057Y-117250400D01*
X143794866Y-117274209D01*
X143961533Y-117226590D02*
X144271057Y-117226590D01*
X144104390Y-117417066D01*
X144175819Y-117417066D01*
X144223438Y-117440876D01*
X144247247Y-117464685D01*
X144271057Y-117512304D01*
X144271057Y-117631352D01*
X144247247Y-117678971D01*
X144223438Y-117702780D01*
X144175819Y-117726590D01*
X144032961Y-117726590D01*
X143985342Y-117702780D01*
X143961533Y-117678971D01*
%TO.C,C2*%
X146744619Y-121381057D02*
X146744619Y-121714390D01*
X146625571Y-121190580D02*
X146506523Y-121547723D01*
X146816047Y-121547723D01*
X147006523Y-121666771D02*
X147030333Y-121690580D01*
X147006523Y-121714390D01*
X146982714Y-121690580D01*
X147006523Y-121666771D01*
X147006523Y-121714390D01*
X147197000Y-121214390D02*
X147530333Y-121214390D01*
X147316047Y-121714390D01*
X147935095Y-121381057D02*
X147935095Y-121714390D01*
X147720809Y-121381057D02*
X147720809Y-121642961D01*
X147744619Y-121690580D01*
X147792238Y-121714390D01*
X147863666Y-121714390D01*
X147911285Y-121690580D01*
X147935095Y-121666771D01*
X148339857Y-121452485D02*
X148173190Y-121452485D01*
X148173190Y-121714390D02*
X148173190Y-121214390D01*
X148411285Y-121214390D01*
X147363666Y-121717571D02*
X147339857Y-121741380D01*
X147268428Y-121765190D01*
X147220809Y-121765190D01*
X147149380Y-121741380D01*
X147101761Y-121693761D01*
X147077952Y-121646142D01*
X147054142Y-121550904D01*
X147054142Y-121479476D01*
X147077952Y-121384238D01*
X147101761Y-121336619D01*
X147149380Y-121289000D01*
X147220809Y-121265190D01*
X147268428Y-121265190D01*
X147339857Y-121289000D01*
X147363666Y-121312809D01*
X147554142Y-121312809D02*
X147577952Y-121289000D01*
X147625571Y-121265190D01*
X147744619Y-121265190D01*
X147792238Y-121289000D01*
X147816047Y-121312809D01*
X147839857Y-121360428D01*
X147839857Y-121408047D01*
X147816047Y-121479476D01*
X147530333Y-121765190D01*
X147839857Y-121765190D01*
%TO.C,C1*%
X154123319Y-121355657D02*
X154123319Y-121688990D01*
X154004271Y-121165180D02*
X153885223Y-121522323D01*
X154194747Y-121522323D01*
X154385223Y-121641371D02*
X154409033Y-121665180D01*
X154385223Y-121688990D01*
X154361414Y-121665180D01*
X154385223Y-121641371D01*
X154385223Y-121688990D01*
X154575700Y-121188990D02*
X154909033Y-121188990D01*
X154694747Y-121688990D01*
X155313795Y-121355657D02*
X155313795Y-121688990D01*
X155099509Y-121355657D02*
X155099509Y-121617561D01*
X155123319Y-121665180D01*
X155170938Y-121688990D01*
X155242366Y-121688990D01*
X155289985Y-121665180D01*
X155313795Y-121641371D01*
X155718557Y-121427085D02*
X155551890Y-121427085D01*
X155551890Y-121688990D02*
X155551890Y-121188990D01*
X155789985Y-121188990D01*
X154856666Y-121717571D02*
X154832857Y-121741380D01*
X154761428Y-121765190D01*
X154713809Y-121765190D01*
X154642380Y-121741380D01*
X154594761Y-121693761D01*
X154570952Y-121646142D01*
X154547142Y-121550904D01*
X154547142Y-121479476D01*
X154570952Y-121384238D01*
X154594761Y-121336619D01*
X154642380Y-121289000D01*
X154713809Y-121265190D01*
X154761428Y-121265190D01*
X154832857Y-121289000D01*
X154856666Y-121312809D01*
X155332857Y-121765190D02*
X155047142Y-121765190D01*
X155190000Y-121765190D02*
X155190000Y-121265190D01*
X155142380Y-121336619D01*
X155094761Y-121384238D01*
X155047142Y-121408047D01*
%TO.C,R9*%
X153562880Y-125371990D02*
X153277166Y-125371990D01*
X153420023Y-125371990D02*
X153420023Y-124871990D01*
X153372404Y-124943419D01*
X153324785Y-124991038D01*
X153277166Y-125014847D01*
X153872404Y-124871990D02*
X153920023Y-124871990D01*
X153967642Y-124895800D01*
X153991452Y-124919609D01*
X154015261Y-124967228D01*
X154039071Y-125062466D01*
X154039071Y-125181514D01*
X154015261Y-125276752D01*
X153991452Y-125324371D01*
X153967642Y-125348180D01*
X153920023Y-125371990D01*
X153872404Y-125371990D01*
X153824785Y-125348180D01*
X153800976Y-125324371D01*
X153777166Y-125276752D01*
X153753357Y-125181514D01*
X153753357Y-125062466D01*
X153777166Y-124967228D01*
X153800976Y-124919609D01*
X153824785Y-124895800D01*
X153872404Y-124871990D01*
X154253357Y-125371990D02*
X154253357Y-124871990D01*
X154300976Y-125181514D02*
X154443833Y-125371990D01*
X154443833Y-125038657D02*
X154253357Y-125229133D01*
X153777166Y-125308490D02*
X153610500Y-125070395D01*
X153491452Y-125308490D02*
X153491452Y-124808490D01*
X153681928Y-124808490D01*
X153729547Y-124832300D01*
X153753357Y-124856109D01*
X153777166Y-124903728D01*
X153777166Y-124975157D01*
X153753357Y-125022776D01*
X153729547Y-125046585D01*
X153681928Y-125070395D01*
X153491452Y-125070395D01*
X154015261Y-125308490D02*
X154110500Y-125308490D01*
X154158119Y-125284680D01*
X154181928Y-125260871D01*
X154229547Y-125189442D01*
X154253357Y-125094204D01*
X154253357Y-124903728D01*
X154229547Y-124856109D01*
X154205738Y-124832300D01*
X154158119Y-124808490D01*
X154062880Y-124808490D01*
X154015261Y-124832300D01*
X153991452Y-124856109D01*
X153967642Y-124903728D01*
X153967642Y-125022776D01*
X153991452Y-125070395D01*
X154015261Y-125094204D01*
X154062880Y-125118014D01*
X154158119Y-125118014D01*
X154205738Y-125094204D01*
X154229547Y-125070395D01*
X154253357Y-125022776D01*
%TO.C,R8*%
X165818380Y-126738490D02*
X165532666Y-126738490D01*
X165675523Y-126738490D02*
X165675523Y-126238490D01*
X165627904Y-126309919D01*
X165580285Y-126357538D01*
X165532666Y-126381347D01*
X166127904Y-126238490D02*
X166175523Y-126238490D01*
X166223142Y-126262300D01*
X166246952Y-126286109D01*
X166270761Y-126333728D01*
X166294571Y-126428966D01*
X166294571Y-126548014D01*
X166270761Y-126643252D01*
X166246952Y-126690871D01*
X166223142Y-126714680D01*
X166175523Y-126738490D01*
X166127904Y-126738490D01*
X166080285Y-126714680D01*
X166056476Y-126690871D01*
X166032666Y-126643252D01*
X166008857Y-126548014D01*
X166008857Y-126428966D01*
X166032666Y-126333728D01*
X166056476Y-126286109D01*
X166080285Y-126262300D01*
X166127904Y-126238490D01*
X166508857Y-126738490D02*
X166508857Y-126238490D01*
X166556476Y-126548014D02*
X166699333Y-126738490D01*
X166699333Y-126405157D02*
X166508857Y-126595633D01*
X166032666Y-125308490D02*
X165866000Y-125070395D01*
X165746952Y-125308490D02*
X165746952Y-124808490D01*
X165937428Y-124808490D01*
X165985047Y-124832300D01*
X166008857Y-124856109D01*
X166032666Y-124903728D01*
X166032666Y-124975157D01*
X166008857Y-125022776D01*
X165985047Y-125046585D01*
X165937428Y-125070395D01*
X165746952Y-125070395D01*
X166318380Y-125022776D02*
X166270761Y-124998966D01*
X166246952Y-124975157D01*
X166223142Y-124927538D01*
X166223142Y-124903728D01*
X166246952Y-124856109D01*
X166270761Y-124832300D01*
X166318380Y-124808490D01*
X166413619Y-124808490D01*
X166461238Y-124832300D01*
X166485047Y-124856109D01*
X166508857Y-124903728D01*
X166508857Y-124927538D01*
X166485047Y-124975157D01*
X166461238Y-124998966D01*
X166413619Y-125022776D01*
X166318380Y-125022776D01*
X166270761Y-125046585D01*
X166246952Y-125070395D01*
X166223142Y-125118014D01*
X166223142Y-125213252D01*
X166246952Y-125260871D01*
X166270761Y-125284680D01*
X166318380Y-125308490D01*
X166413619Y-125308490D01*
X166461238Y-125284680D01*
X166485047Y-125260871D01*
X166508857Y-125213252D01*
X166508857Y-125118014D01*
X166485047Y-125070395D01*
X166461238Y-125046585D01*
X166413619Y-125022776D01*
%TO.C,U5*%
X158677142Y-132563690D02*
X158677142Y-132968452D01*
X158700952Y-133016071D01*
X158724761Y-133039880D01*
X158772380Y-133063690D01*
X158867619Y-133063690D01*
X158915238Y-133039880D01*
X158939047Y-133016071D01*
X158962857Y-132968452D01*
X158962857Y-132563690D01*
X159177142Y-133039880D02*
X159248571Y-133063690D01*
X159367619Y-133063690D01*
X159415238Y-133039880D01*
X159439047Y-133016071D01*
X159462857Y-132968452D01*
X159462857Y-132920833D01*
X159439047Y-132873214D01*
X159415238Y-132849404D01*
X159367619Y-132825595D01*
X159272380Y-132801785D01*
X159224761Y-132777976D01*
X159200952Y-132754166D01*
X159177142Y-132706547D01*
X159177142Y-132658928D01*
X159200952Y-132611309D01*
X159224761Y-132587500D01*
X159272380Y-132563690D01*
X159391428Y-132563690D01*
X159462857Y-132587500D01*
X159843809Y-132801785D02*
X159915238Y-132825595D01*
X159939047Y-132849404D01*
X159962857Y-132897023D01*
X159962857Y-132968452D01*
X159939047Y-133016071D01*
X159915238Y-133039880D01*
X159867619Y-133063690D01*
X159677142Y-133063690D01*
X159677142Y-132563690D01*
X159843809Y-132563690D01*
X159891428Y-132587500D01*
X159915238Y-132611309D01*
X159939047Y-132658928D01*
X159939047Y-132706547D01*
X159915238Y-132754166D01*
X159891428Y-132777976D01*
X159843809Y-132801785D01*
X159677142Y-132801785D01*
X160177142Y-132873214D02*
X160558095Y-132873214D01*
X160891428Y-132563690D02*
X160986666Y-132563690D01*
X161034285Y-132587500D01*
X161081904Y-132635119D01*
X161105714Y-132730357D01*
X161105714Y-132897023D01*
X161081904Y-132992261D01*
X161034285Y-133039880D01*
X160986666Y-133063690D01*
X160891428Y-133063690D01*
X160843809Y-133039880D01*
X160796190Y-132992261D01*
X160772380Y-132897023D01*
X160772380Y-132730357D01*
X160796190Y-132635119D01*
X160843809Y-132587500D01*
X160891428Y-132563690D01*
X161248571Y-132563690D02*
X161534285Y-132563690D01*
X161391428Y-133063690D02*
X161391428Y-132563690D01*
X161962857Y-132587500D02*
X161915238Y-132563690D01*
X161843809Y-132563690D01*
X161772380Y-132587500D01*
X161724761Y-132635119D01*
X161700952Y-132682738D01*
X161677142Y-132777976D01*
X161677142Y-132849404D01*
X161700952Y-132944642D01*
X161724761Y-132992261D01*
X161772380Y-133039880D01*
X161843809Y-133063690D01*
X161891428Y-133063690D01*
X161962857Y-133039880D01*
X161986666Y-133016071D01*
X161986666Y-132849404D01*
X161891428Y-132849404D01*
X159639047Y-129113690D02*
X159639047Y-129518452D01*
X159662857Y-129566071D01*
X159686666Y-129589880D01*
X159734285Y-129613690D01*
X159829523Y-129613690D01*
X159877142Y-129589880D01*
X159900952Y-129566071D01*
X159924761Y-129518452D01*
X159924761Y-129113690D01*
X160400952Y-129113690D02*
X160162857Y-129113690D01*
X160139047Y-129351785D01*
X160162857Y-129327976D01*
X160210476Y-129304166D01*
X160329523Y-129304166D01*
X160377142Y-129327976D01*
X160400952Y-129351785D01*
X160424761Y-129399404D01*
X160424761Y-129518452D01*
X160400952Y-129566071D01*
X160377142Y-129589880D01*
X160329523Y-129613690D01*
X160210476Y-129613690D01*
X160162857Y-129589880D01*
X160139047Y-129566071D01*
%TD*%
M02*
