%TF.GenerationSoftware,KiCad,Pcbnew,5.1.5+dfsg1-2~bpo10+1*%
%TF.CreationDate,Date%
%TF.ProjectId,osw,6f73772e-6b69-4636-9164-5f7063625858,3.0*%
%TF.SameCoordinates,Original*%
%TF.FileFunction,Legend,Top*%
%TF.FilePolarity,Positive*%
%FSLAX46Y46*%
G04 Gerber Fmt 4.6, Leading zero omitted, Abs format (unit mm)*
G04 Created by KiCad*
%MOMM*%
%LPD*%
G04 APERTURE LIST*
%ADD10C,0.100000*%
%ADD11C,0.050000*%
%ADD12C,0.150000*%
%ADD13C,0.120000*%
G04 APERTURE END LIST*
D10*
X141736000Y-119951452D02*
X141712190Y-119999071D01*
X141712190Y-120070500D01*
X141736000Y-120141928D01*
X141783619Y-120189547D01*
X141831238Y-120213357D01*
X141926476Y-120237166D01*
X141997904Y-120237166D01*
X142093142Y-120213357D01*
X142140761Y-120189547D01*
X142188380Y-120141928D01*
X142212190Y-120070500D01*
X142212190Y-120022880D01*
X142188380Y-119951452D01*
X142164571Y-119927642D01*
X141997904Y-119927642D01*
X141997904Y-120022880D01*
X142212190Y-119713357D02*
X141712190Y-119713357D01*
X142212190Y-119427642D01*
X141712190Y-119427642D01*
X142212190Y-119189547D02*
X141712190Y-119189547D01*
X141712190Y-119070500D01*
X141736000Y-118999071D01*
X141783619Y-118951452D01*
X141831238Y-118927642D01*
X141926476Y-118903833D01*
X141997904Y-118903833D01*
X142093142Y-118927642D01*
X142140761Y-118951452D01*
X142188380Y-118999071D01*
X142212190Y-119070500D01*
X142212190Y-119189547D01*
X141712190Y-123884428D02*
X142212190Y-123717761D01*
X141712190Y-123551095D01*
X141950285Y-123217761D02*
X141974095Y-123146333D01*
X141997904Y-123122523D01*
X142045523Y-123098714D01*
X142116952Y-123098714D01*
X142164571Y-123122523D01*
X142188380Y-123146333D01*
X142212190Y-123193952D01*
X142212190Y-123384428D01*
X141712190Y-123384428D01*
X141712190Y-123217761D01*
X141736000Y-123170142D01*
X141759809Y-123146333D01*
X141807428Y-123122523D01*
X141855047Y-123122523D01*
X141902666Y-123146333D01*
X141926476Y-123170142D01*
X141950285Y-123217761D01*
X141950285Y-123384428D01*
X142069333Y-122908238D02*
X142069333Y-122670142D01*
X142212190Y-122955857D02*
X141712190Y-122789190D01*
X142212190Y-122622523D01*
X141712190Y-122527285D02*
X141712190Y-122241571D01*
X142212190Y-122384428D02*
X141712190Y-122384428D01*
D11*
X137500000Y-124500000D02*
X137500000Y-93900000D01*
X182500000Y-93900000D02*
X182500000Y-124500000D01*
D12*
%TO.C,U7*%
X181847000Y-111044000D02*
X180647000Y-111044000D01*
X180647000Y-111044000D02*
X180647000Y-117775000D01*
X180647000Y-117775000D02*
X181847000Y-117775000D01*
X181847000Y-117775000D02*
X181847000Y-111044000D01*
X181937000Y-121281000D02*
G75*
G03X181937000Y-121281000I-635000J0D01*
G01*
X182064000Y-120519000D02*
X182064000Y-122043000D01*
X182064000Y-122043000D02*
X180540000Y-122043000D01*
X180540000Y-122043000D02*
X180540000Y-120519000D01*
X180540000Y-120519000D02*
X182064000Y-120519000D01*
X178943000Y-111443000D02*
X178943000Y-121983000D01*
X178943000Y-121983000D02*
X165798500Y-121983000D01*
X165798500Y-121983000D02*
X165798500Y-111443000D01*
X165798500Y-111443000D02*
X178943000Y-111443000D01*
X165047000Y-123213000D02*
X164347000Y-123213000D01*
X164347000Y-122513000D02*
X164347000Y-123213000D01*
X165047000Y-110213000D02*
X164347000Y-110213000D01*
X164347000Y-110913000D02*
X164347000Y-110213000D01*
X180597000Y-110213000D02*
X182297000Y-110213000D01*
X180597000Y-123213000D02*
X182297000Y-123213000D01*
X182297000Y-110213000D02*
X182297000Y-123213000D01*
D13*
%TO.C,C12*%
X161135279Y-111694500D02*
X160809721Y-111694500D01*
X161135279Y-112714500D02*
X160809721Y-112714500D01*
%TO.C,U3*%
X159385000Y-113391000D02*
X155935000Y-113391000D01*
X159385000Y-113391000D02*
X161335000Y-113391000D01*
X159385000Y-118511000D02*
X157435000Y-118511000D01*
X159385000Y-118511000D02*
X161335000Y-118511000D01*
%TO.C,R25*%
X176240121Y-101284732D02*
X176565679Y-101284732D01*
X176240121Y-102304732D02*
X176565679Y-102304732D01*
%TO.C,R24*%
X176240121Y-102870115D02*
X176565679Y-102870115D01*
X176240121Y-103890115D02*
X176565679Y-103890115D01*
%TO.C,R23*%
X172755779Y-103951500D02*
X172430221Y-103951500D01*
X172755779Y-102931500D02*
X172430221Y-102931500D01*
%TO.C,R20*%
X172455621Y-101344000D02*
X172781179Y-101344000D01*
X172455621Y-102364000D02*
X172781179Y-102364000D01*
%TO.C,R3*%
X172430221Y-99693000D02*
X172755779Y-99693000D01*
X172430221Y-100713000D02*
X172755779Y-100713000D01*
D12*
%TO.C,SW2*%
X171311788Y-91201537D02*
X170450630Y-92478255D01*
X169653712Y-90083152D02*
X171311788Y-91201537D01*
X168792555Y-91359870D02*
X169653712Y-90083152D01*
X167515837Y-90498712D02*
X166397452Y-92156788D01*
X171727348Y-93339412D02*
X167515837Y-90498712D01*
X170608963Y-94997488D02*
X171727348Y-93339412D01*
X166397452Y-92156788D02*
X170608963Y-94997488D01*
%TO.C,SW1*%
X150348188Y-90108552D02*
X151209345Y-91385270D01*
X148690112Y-91226937D02*
X150348188Y-90108552D01*
X149551270Y-92503655D02*
X148690112Y-91226937D01*
X148274552Y-93364812D02*
X149392937Y-95022888D01*
X152486063Y-90524112D02*
X148274552Y-93364812D01*
X153604448Y-92182188D02*
X152486063Y-90524112D01*
X149392937Y-95022888D02*
X153604448Y-92182188D01*
%TO.C,SW5*%
X148753612Y-128800563D02*
X149614770Y-127523845D01*
X150411688Y-129918948D02*
X148753612Y-128800563D01*
X151272845Y-128642230D02*
X150411688Y-129918948D01*
X152549563Y-129503388D02*
X153667948Y-127845312D01*
X148338052Y-126662688D02*
X152549563Y-129503388D01*
X149456437Y-125004612D02*
X148338052Y-126662688D01*
X153667948Y-127845312D02*
X149456437Y-125004612D01*
%TO.C,SW4*%
X169543613Y-129928862D02*
X168704868Y-128637310D01*
X171220954Y-128839584D02*
X169543613Y-129928862D01*
X170382210Y-127548032D02*
X171220954Y-128839584D01*
X171673762Y-126709287D02*
X170584484Y-125031946D01*
X167413316Y-129476054D02*
X171673762Y-126709287D01*
X166324038Y-127798713D02*
X167413316Y-129476054D01*
X170584484Y-125031946D02*
X166324038Y-127798713D01*
%TO.C,U8*%
X155200000Y-103050000D02*
X157300000Y-103050000D01*
X153702349Y-102275000D02*
G75*
G03X153702349Y-102275000I-102349J0D01*
G01*
X162700000Y-103050000D02*
X164800000Y-103050000D01*
X155200000Y-89250000D02*
X164800000Y-89250000D01*
D13*
%TO.C,R18*%
X172730379Y-98052583D02*
X172404821Y-98052583D01*
X172730379Y-99072583D02*
X172404821Y-99072583D01*
%TO.C,C11*%
X172730379Y-96467200D02*
X172404821Y-96467200D01*
X172730379Y-97487200D02*
X172404821Y-97487200D01*
%TO.C,C21*%
X168620121Y-97487200D02*
X168945679Y-97487200D01*
X168620121Y-96467200D02*
X168945679Y-96467200D01*
%TO.C,C22*%
X147601721Y-98554000D02*
X147927279Y-98554000D01*
X147601721Y-97534000D02*
X147927279Y-97534000D01*
%TO.C,C20*%
X168620121Y-99072583D02*
X168945679Y-99072583D01*
X168620121Y-98052583D02*
X168945679Y-98052583D01*
D12*
%TO.C,XS1*%
X152200000Y-110600000D02*
X152200000Y-113600000D01*
X151300000Y-110150000D02*
X151600000Y-110150000D01*
X151300000Y-109850000D02*
X151300000Y-110150000D01*
X151600000Y-109850000D02*
X151300000Y-109850000D01*
X151600000Y-110150000D02*
X151600000Y-109850000D01*
X151200000Y-115150000D02*
X144000000Y-115150000D01*
X138200000Y-115150000D02*
X141200000Y-115150000D01*
X138200000Y-112450000D02*
X138200000Y-115150000D01*
X141200000Y-100450000D02*
X138900000Y-100450000D01*
X144000000Y-100450000D02*
X151200000Y-100450000D01*
X152200000Y-110600000D02*
X153500000Y-110600000D01*
X138500000Y-111400000D02*
X138200000Y-112450000D01*
X138700000Y-110300000D02*
X138500000Y-111400000D01*
X138850000Y-109150000D02*
X138700000Y-110300000D01*
X138900000Y-107800000D02*
X138850000Y-109150000D01*
X138900000Y-100450000D02*
X138900000Y-107800000D01*
D13*
%TO.C,U13*%
X158866000Y-107972500D02*
X160666000Y-107972500D01*
X160666000Y-104752500D02*
X158216000Y-104752500D01*
%TO.C,U10*%
X172010500Y-107718500D02*
X173810500Y-107718500D01*
X173810500Y-104498500D02*
X171360500Y-104498500D01*
%TO.C,R22*%
X143601221Y-95057500D02*
X143926779Y-95057500D01*
X143601221Y-96077500D02*
X143926779Y-96077500D01*
%TO.C,R21*%
X143601221Y-96721200D02*
X143926779Y-96721200D01*
X143601221Y-97741200D02*
X143926779Y-97741200D01*
%TO.C,R12*%
X176565779Y-105475500D02*
X176240221Y-105475500D01*
X176565779Y-104455500D02*
X176240221Y-104455500D01*
%TO.C,R2*%
X168645621Y-102808732D02*
X168971179Y-102808732D01*
X168645621Y-103828732D02*
X168971179Y-103828732D01*
%TO.C,C19*%
X163095721Y-106360500D02*
X163421279Y-106360500D01*
X163095721Y-107380500D02*
X163421279Y-107380500D01*
%TO.C,C18*%
X176240221Y-107630500D02*
X176565779Y-107630500D01*
X176240221Y-108650500D02*
X176565779Y-108650500D01*
%TO.C,C17*%
X163095721Y-104773000D02*
X163421279Y-104773000D01*
X163095721Y-105793000D02*
X163421279Y-105793000D01*
%TO.C,C16*%
X176240221Y-106043000D02*
X176565779Y-106043000D01*
X176240221Y-107063000D02*
X176565779Y-107063000D01*
%TO.C,C15*%
X156525500Y-106842779D02*
X156525500Y-106517221D01*
X157545500Y-106842779D02*
X157545500Y-106517221D01*
%TO.C,C14*%
X169606500Y-106588779D02*
X169606500Y-106263221D01*
X170626500Y-106588779D02*
X170626500Y-106263221D01*
%TO.C,C6*%
X154157000Y-107472564D02*
X154157000Y-106268436D01*
X155977000Y-107472564D02*
X155977000Y-106268436D01*
%TO.C,C5*%
X167238000Y-107028064D02*
X167238000Y-105823936D01*
X169058000Y-107028064D02*
X169058000Y-105823936D01*
%TO.C,U2*%
X181194000Y-100500000D02*
X181694000Y-100500000D01*
X181694000Y-100500000D02*
X181694000Y-101000000D01*
X181694000Y-101000000D02*
X181694000Y-101000000D01*
X181694000Y-102200000D02*
X181694000Y-102700000D01*
X181694000Y-102700000D02*
X181194000Y-102700000D01*
X181194000Y-102700000D02*
X181194000Y-102700000D01*
X179994000Y-102700000D02*
X179494000Y-102700000D01*
X179494000Y-102700000D02*
X179494000Y-102200000D01*
X179494000Y-102200000D02*
X179494000Y-102200000D01*
X179994000Y-100500000D02*
X179494000Y-100500000D01*
X179494000Y-100500000D02*
X179494000Y-100500000D01*
%TO.C,U9*%
X149987000Y-116627000D02*
X147787000Y-116627000D01*
X149987000Y-116627000D02*
X152187000Y-116627000D01*
X149987000Y-119847000D02*
X147787000Y-119847000D01*
X149987000Y-119847000D02*
X153587000Y-119847000D01*
%TO.C,R19*%
X155259500Y-117891779D02*
X155259500Y-117566221D01*
X154239500Y-117891779D02*
X154239500Y-117566221D01*
%TO.C,C13*%
X176565779Y-99756500D02*
X176240221Y-99756500D01*
X176565779Y-100776500D02*
X176240221Y-100776500D01*
%TO.C,C10*%
X168620121Y-100657966D02*
X168945679Y-100657966D01*
X168620121Y-99637966D02*
X168945679Y-99637966D01*
%TO.C,C9*%
X157261779Y-119124000D02*
X156936221Y-119124000D01*
X157261779Y-120144000D02*
X156936221Y-120144000D01*
%TO.C,C8*%
X180050221Y-108587000D02*
X180375779Y-108587000D01*
X180050221Y-107567000D02*
X180375779Y-107567000D01*
%TO.C,C7*%
X147614421Y-96928400D02*
X147939979Y-96928400D01*
X147614421Y-95908400D02*
X147939979Y-95908400D01*
%TO.C,R17*%
X160809721Y-111127000D02*
X161135279Y-111127000D01*
X160809721Y-110107000D02*
X161135279Y-110107000D01*
%TO.C,R16*%
X156999721Y-111127000D02*
X157325279Y-111127000D01*
X156999721Y-110107000D02*
X157325279Y-110107000D01*
%TO.C,R7*%
X180024821Y-104400466D02*
X180350379Y-104400466D01*
X180024821Y-105420466D02*
X180350379Y-105420466D01*
%TO.C,R6*%
X180024821Y-105985849D02*
X180350379Y-105985849D01*
X180024821Y-107005849D02*
X180350379Y-107005849D01*
%TO.C,U1*%
X178689000Y-99270500D02*
X180639000Y-99270500D01*
X178689000Y-99270500D02*
X176739000Y-99270500D01*
X178689000Y-94150500D02*
X180639000Y-94150500D01*
X178689000Y-94150500D02*
X175239000Y-94150500D01*
D12*
%TO.C,U6*%
X158408500Y-120689500D02*
X158408500Y-120914500D01*
X161758500Y-120689500D02*
X161758500Y-120989500D01*
X161758500Y-124039500D02*
X161758500Y-123739500D01*
X158408500Y-124039500D02*
X158408500Y-123739500D01*
X158408500Y-120689500D02*
X161758500Y-120689500D01*
X158408500Y-124039500D02*
X161758500Y-124039500D01*
X158408500Y-120914500D02*
X157183500Y-120914500D01*
D13*
%TO.C,U11*%
X149901000Y-121147000D02*
X149901000Y-122947000D01*
X153121000Y-122947000D02*
X153121000Y-120497000D01*
%TO.C,R11*%
X168620121Y-101223349D02*
X168945679Y-101223349D01*
X168620121Y-102243349D02*
X168945679Y-102243349D01*
%TO.C,R10*%
X151373621Y-97534000D02*
X151699179Y-97534000D01*
X151373621Y-98554000D02*
X151699179Y-98554000D01*
%TO.C,R14*%
X154239500Y-114843779D02*
X154239500Y-114518221D01*
X155259500Y-114843779D02*
X155259500Y-114518221D01*
%TO.C,R4*%
X160746221Y-119124000D02*
X161071779Y-119124000D01*
X160746221Y-120144000D02*
X161071779Y-120144000D01*
%TO.C,R15*%
X154777221Y-122680000D02*
X155102779Y-122680000D01*
X154777221Y-123700000D02*
X155102779Y-123700000D01*
%TO.C,R13*%
X147284221Y-122680000D02*
X147609779Y-122680000D01*
X147284221Y-123700000D02*
X147609779Y-123700000D01*
%TO.C,R1*%
X163095721Y-107948000D02*
X163421279Y-107948000D01*
X163095721Y-108968000D02*
X163421279Y-108968000D01*
%TO.C,Q1*%
X139067000Y-94813000D02*
X139067000Y-95743000D01*
X139067000Y-97973000D02*
X139067000Y-97043000D01*
X139067000Y-97973000D02*
X141227000Y-97973000D01*
X139067000Y-94813000D02*
X140527000Y-94813000D01*
%TO.C,D1*%
X145613000Y-123428000D02*
X145613000Y-120743000D01*
X145613000Y-120743000D02*
X143693000Y-120743000D01*
X143693000Y-120743000D02*
X143693000Y-123428000D01*
%TO.C,C4*%
X144053779Y-119572500D02*
X143728221Y-119572500D01*
X144053779Y-118552500D02*
X143728221Y-118552500D01*
%TO.C,C3*%
X144040979Y-118010400D02*
X143715421Y-118010400D01*
X144040979Y-116990400D02*
X143715421Y-116990400D01*
%TO.C,C2*%
X147609779Y-122049000D02*
X147284221Y-122049000D01*
X147609779Y-121029000D02*
X147284221Y-121029000D01*
%TO.C,C1*%
X155102779Y-122049000D02*
X154777221Y-122049000D01*
X155102779Y-121029000D02*
X154777221Y-121029000D01*
%TO.C,R9*%
X154023279Y-125592300D02*
X153697721Y-125592300D01*
X154023279Y-124572300D02*
X153697721Y-124572300D01*
%TO.C,R8*%
X165953221Y-124572300D02*
X166278779Y-124572300D01*
X165953221Y-125592300D02*
X166278779Y-125592300D01*
D12*
%TO.C,U5*%
X159020000Y-125000000D02*
X158320000Y-125000000D01*
X158320000Y-125000000D02*
X158320000Y-125500000D01*
X163820000Y-127300000D02*
X163820000Y-125500000D01*
X163820000Y-125500000D02*
X163220000Y-125500000D01*
X156220000Y-127100000D02*
X156220000Y-125500000D01*
X156220000Y-125500000D02*
X156820000Y-125500000D01*
D11*
X164998400Y-130532000D02*
X154998400Y-130532000D01*
%TD*%
%TO.C,U7*%
D10*
X171966047Y-116439190D02*
X171966047Y-116843952D01*
X171989857Y-116891571D01*
X172013666Y-116915380D01*
X172061285Y-116939190D01*
X172156523Y-116939190D01*
X172204142Y-116915380D01*
X172227952Y-116891571D01*
X172251761Y-116843952D01*
X172251761Y-116439190D01*
X172442238Y-116439190D02*
X172775571Y-116439190D01*
X172561285Y-116939190D01*
%TO.C,C12*%
X163056071Y-112525928D02*
X163079880Y-112549738D01*
X163103690Y-112621166D01*
X163103690Y-112668785D01*
X163079880Y-112740214D01*
X163032261Y-112787833D01*
X162984642Y-112811642D01*
X162889404Y-112835452D01*
X162817976Y-112835452D01*
X162722738Y-112811642D01*
X162675119Y-112787833D01*
X162627500Y-112740214D01*
X162603690Y-112668785D01*
X162603690Y-112621166D01*
X162627500Y-112549738D01*
X162651309Y-112525928D01*
X163103690Y-112049738D02*
X163103690Y-112335452D01*
X163103690Y-112192595D02*
X162603690Y-112192595D01*
X162675119Y-112240214D01*
X162722738Y-112287833D01*
X162746547Y-112335452D01*
X162651309Y-111859261D02*
X162627500Y-111835452D01*
X162603690Y-111787833D01*
X162603690Y-111668785D01*
X162627500Y-111621166D01*
X162651309Y-111597357D01*
X162698928Y-111573547D01*
X162746547Y-111573547D01*
X162817976Y-111597357D01*
X163103690Y-111883071D01*
X163103690Y-111573547D01*
%TO.C,U3*%
D12*
X158623095Y-115403380D02*
X158623095Y-116212904D01*
X158670714Y-116308142D01*
X158718333Y-116355761D01*
X158813571Y-116403380D01*
X159004047Y-116403380D01*
X159099285Y-116355761D01*
X159146904Y-116308142D01*
X159194523Y-116212904D01*
X159194523Y-115403380D01*
X159575476Y-115403380D02*
X160194523Y-115403380D01*
X159861190Y-115784333D01*
X160004047Y-115784333D01*
X160099285Y-115831952D01*
X160146904Y-115879571D01*
X160194523Y-115974809D01*
X160194523Y-116212904D01*
X160146904Y-116308142D01*
X160099285Y-116355761D01*
X160004047Y-116403380D01*
X159718333Y-116403380D01*
X159623095Y-116355761D01*
X159575476Y-116308142D01*
%TO.C,R25*%
D10*
X178534090Y-102052660D02*
X178295995Y-102219327D01*
X178534090Y-102338374D02*
X178034090Y-102338374D01*
X178034090Y-102147898D01*
X178057900Y-102100279D01*
X178081709Y-102076470D01*
X178129328Y-102052660D01*
X178200757Y-102052660D01*
X178248376Y-102076470D01*
X178272185Y-102100279D01*
X178295995Y-102147898D01*
X178295995Y-102338374D01*
X178081709Y-101862184D02*
X178057900Y-101838374D01*
X178034090Y-101790755D01*
X178034090Y-101671708D01*
X178057900Y-101624089D01*
X178081709Y-101600279D01*
X178129328Y-101576470D01*
X178176947Y-101576470D01*
X178248376Y-101600279D01*
X178534090Y-101885993D01*
X178534090Y-101576470D01*
X178034090Y-101124089D02*
X178034090Y-101362184D01*
X178272185Y-101385993D01*
X178248376Y-101362184D01*
X178224566Y-101314565D01*
X178224566Y-101195517D01*
X178248376Y-101147898D01*
X178272185Y-101124089D01*
X178319804Y-101100279D01*
X178438852Y-101100279D01*
X178486471Y-101124089D01*
X178510280Y-101147898D01*
X178534090Y-101195517D01*
X178534090Y-101314565D01*
X178510280Y-101362184D01*
X178486471Y-101385993D01*
%TO.C,R24*%
X178559590Y-103701543D02*
X178321495Y-103868210D01*
X178559590Y-103987257D02*
X178059590Y-103987257D01*
X178059590Y-103796781D01*
X178083400Y-103749162D01*
X178107209Y-103725353D01*
X178154828Y-103701543D01*
X178226257Y-103701543D01*
X178273876Y-103725353D01*
X178297685Y-103749162D01*
X178321495Y-103796781D01*
X178321495Y-103987257D01*
X178107209Y-103511067D02*
X178083400Y-103487257D01*
X178059590Y-103439638D01*
X178059590Y-103320591D01*
X178083400Y-103272972D01*
X178107209Y-103249162D01*
X178154828Y-103225353D01*
X178202447Y-103225353D01*
X178273876Y-103249162D01*
X178559590Y-103534876D01*
X178559590Y-103225353D01*
X178226257Y-102796781D02*
X178559590Y-102796781D01*
X178035780Y-102915829D02*
X178392923Y-103034876D01*
X178392923Y-102725353D01*
%TO.C,R23*%
X174719110Y-103747688D02*
X174481015Y-103914355D01*
X174719110Y-104033402D02*
X174219110Y-104033402D01*
X174219110Y-103842926D01*
X174242920Y-103795307D01*
X174266729Y-103771498D01*
X174314348Y-103747688D01*
X174385777Y-103747688D01*
X174433396Y-103771498D01*
X174457205Y-103795307D01*
X174481015Y-103842926D01*
X174481015Y-104033402D01*
X174266729Y-103557212D02*
X174242920Y-103533402D01*
X174219110Y-103485783D01*
X174219110Y-103366736D01*
X174242920Y-103319117D01*
X174266729Y-103295307D01*
X174314348Y-103271498D01*
X174361967Y-103271498D01*
X174433396Y-103295307D01*
X174719110Y-103581021D01*
X174719110Y-103271498D01*
X174219110Y-103104831D02*
X174219110Y-102795307D01*
X174409586Y-102961974D01*
X174409586Y-102890545D01*
X174433396Y-102842926D01*
X174457205Y-102819117D01*
X174504824Y-102795307D01*
X174623872Y-102795307D01*
X174671491Y-102819117D01*
X174695300Y-102842926D01*
X174719110Y-102890545D01*
X174719110Y-103033402D01*
X174695300Y-103081021D01*
X174671491Y-103104831D01*
%TO.C,R20*%
X174749590Y-102111928D02*
X174511495Y-102278595D01*
X174749590Y-102397642D02*
X174249590Y-102397642D01*
X174249590Y-102207166D01*
X174273400Y-102159547D01*
X174297209Y-102135738D01*
X174344828Y-102111928D01*
X174416257Y-102111928D01*
X174463876Y-102135738D01*
X174487685Y-102159547D01*
X174511495Y-102207166D01*
X174511495Y-102397642D01*
X174297209Y-101921452D02*
X174273400Y-101897642D01*
X174249590Y-101850023D01*
X174249590Y-101730976D01*
X174273400Y-101683357D01*
X174297209Y-101659547D01*
X174344828Y-101635738D01*
X174392447Y-101635738D01*
X174463876Y-101659547D01*
X174749590Y-101945261D01*
X174749590Y-101635738D01*
X174249590Y-101326214D02*
X174249590Y-101278595D01*
X174273400Y-101230976D01*
X174297209Y-101207166D01*
X174344828Y-101183357D01*
X174440066Y-101159547D01*
X174559114Y-101159547D01*
X174654352Y-101183357D01*
X174701971Y-101207166D01*
X174725780Y-101230976D01*
X174749590Y-101278595D01*
X174749590Y-101326214D01*
X174725780Y-101373833D01*
X174701971Y-101397642D01*
X174654352Y-101421452D01*
X174559114Y-101445261D01*
X174440066Y-101445261D01*
X174344828Y-101421452D01*
X174297209Y-101397642D01*
X174273400Y-101373833D01*
X174249590Y-101326214D01*
%TO.C,R3*%
X174749590Y-100387933D02*
X174511495Y-100554600D01*
X174749590Y-100673647D02*
X174249590Y-100673647D01*
X174249590Y-100483171D01*
X174273400Y-100435552D01*
X174297209Y-100411742D01*
X174344828Y-100387933D01*
X174416257Y-100387933D01*
X174463876Y-100411742D01*
X174487685Y-100435552D01*
X174511495Y-100483171D01*
X174511495Y-100673647D01*
X174249590Y-100221266D02*
X174249590Y-99911742D01*
X174440066Y-100078409D01*
X174440066Y-100006980D01*
X174463876Y-99959361D01*
X174487685Y-99935552D01*
X174535304Y-99911742D01*
X174654352Y-99911742D01*
X174701971Y-99935552D01*
X174725780Y-99959361D01*
X174749590Y-100006980D01*
X174749590Y-100149838D01*
X174725780Y-100197457D01*
X174701971Y-100221266D01*
%TO.C,SW2*%
X167555988Y-93768367D02*
X167601891Y-93828048D01*
X167700586Y-93894619D01*
X167753378Y-93901508D01*
X167786431Y-93895083D01*
X167832798Y-93868919D01*
X167859426Y-93829441D01*
X167866315Y-93776649D01*
X167859891Y-93743596D01*
X167833727Y-93697229D01*
X167768085Y-93624233D01*
X167741921Y-93577866D01*
X167735496Y-93544813D01*
X167742385Y-93492021D01*
X167769014Y-93452543D01*
X167815381Y-93426379D01*
X167848434Y-93419954D01*
X167901226Y-93426843D01*
X167999921Y-93493414D01*
X168045824Y-93553095D01*
X168197311Y-93626555D02*
X168016409Y-94107644D01*
X168295077Y-93864816D01*
X168174321Y-94214157D01*
X168552613Y-93866209D01*
X168664157Y-93998886D02*
X168697211Y-93992461D01*
X168750003Y-93999350D01*
X168848698Y-94065921D01*
X168874861Y-94112288D01*
X168881286Y-94145341D01*
X168874397Y-94198133D01*
X168847769Y-94237611D01*
X168788088Y-94283514D01*
X168391450Y-94360613D01*
X168648057Y-94533696D01*
%TO.C,SW1*%
X151473578Y-94454477D02*
X151546109Y-94434274D01*
X151644804Y-94367703D01*
X151670968Y-94321336D01*
X151677393Y-94288283D01*
X151670503Y-94235491D01*
X151643875Y-94196013D01*
X151597508Y-94169849D01*
X151564455Y-94163424D01*
X151511663Y-94170313D01*
X151419393Y-94203831D01*
X151366600Y-94210720D01*
X151333547Y-94204295D01*
X151287180Y-94178131D01*
X151260552Y-94138653D01*
X151253663Y-94085861D01*
X151260088Y-94052808D01*
X151286251Y-94006441D01*
X151384946Y-93939870D01*
X151457477Y-93919667D01*
X151582336Y-93806729D02*
X151960628Y-94154677D01*
X151839872Y-93805336D01*
X152118540Y-94048164D01*
X151937638Y-93567075D01*
X152592275Y-93728626D02*
X152355407Y-93888395D01*
X152473841Y-93808510D02*
X152194245Y-93393992D01*
X152194709Y-93479837D01*
X152181860Y-93545943D01*
X152155696Y-93592310D01*
%TO.C,SW5*%
X151257264Y-125874564D02*
X151303167Y-125934245D01*
X151401862Y-126000816D01*
X151454654Y-126007705D01*
X151487707Y-126001280D01*
X151534074Y-125975116D01*
X151560702Y-125935638D01*
X151567591Y-125882846D01*
X151561167Y-125849793D01*
X151535003Y-125803426D01*
X151469361Y-125730430D01*
X151443197Y-125684063D01*
X151436772Y-125651010D01*
X151443661Y-125598218D01*
X151470290Y-125558740D01*
X151516657Y-125532576D01*
X151549710Y-125526151D01*
X151602502Y-125533040D01*
X151701197Y-125599611D01*
X151747100Y-125659292D01*
X151898587Y-125732752D02*
X151717685Y-126213841D01*
X151996353Y-125971013D01*
X151875597Y-126320354D01*
X152253889Y-125972406D01*
X152609191Y-126212060D02*
X152411801Y-126078919D01*
X152258921Y-126262995D01*
X152291974Y-126256570D01*
X152344766Y-126263459D01*
X152443461Y-126330030D01*
X152469625Y-126376397D01*
X152476049Y-126409450D01*
X152469160Y-126462242D01*
X152402590Y-126560937D01*
X152356222Y-126587101D01*
X152323169Y-126593526D01*
X152270377Y-126586637D01*
X152171682Y-126520066D01*
X152145518Y-126473699D01*
X152139093Y-126440646D01*
%TO.C,SW4*%
X167711810Y-126542223D02*
X167784683Y-126523289D01*
X167884525Y-126458451D01*
X167911494Y-126412547D01*
X167918495Y-126379611D01*
X167912528Y-126326707D01*
X167886593Y-126286770D01*
X167840689Y-126259801D01*
X167807753Y-126252800D01*
X167754849Y-126258767D01*
X167662008Y-126290669D01*
X167609103Y-126296636D01*
X167576168Y-126289635D01*
X167530264Y-126262666D01*
X167504329Y-126222730D01*
X167498362Y-126169825D01*
X167505363Y-126136889D01*
X167532332Y-126090986D01*
X167632174Y-126026148D01*
X167705046Y-126007213D01*
X167831857Y-125896472D02*
X168204018Y-126250969D01*
X168089378Y-125899574D01*
X168363765Y-126147228D01*
X168191287Y-125663055D01*
X168621522Y-125582384D02*
X168803069Y-125861941D01*
X168417940Y-125487476D02*
X168512612Y-125851839D01*
X168772201Y-125683260D01*
%TO.C,U8*%
X155269047Y-87576190D02*
X155269047Y-87980952D01*
X155292857Y-88028571D01*
X155316666Y-88052380D01*
X155364285Y-88076190D01*
X155459523Y-88076190D01*
X155507142Y-88052380D01*
X155530952Y-88028571D01*
X155554761Y-87980952D01*
X155554761Y-87576190D01*
X155864285Y-87790476D02*
X155816666Y-87766666D01*
X155792857Y-87742857D01*
X155769047Y-87695238D01*
X155769047Y-87671428D01*
X155792857Y-87623809D01*
X155816666Y-87600000D01*
X155864285Y-87576190D01*
X155959523Y-87576190D01*
X156007142Y-87600000D01*
X156030952Y-87623809D01*
X156054761Y-87671428D01*
X156054761Y-87695238D01*
X156030952Y-87742857D01*
X156007142Y-87766666D01*
X155959523Y-87790476D01*
X155864285Y-87790476D01*
X155816666Y-87814285D01*
X155792857Y-87838095D01*
X155769047Y-87885714D01*
X155769047Y-87980952D01*
X155792857Y-88028571D01*
X155816666Y-88052380D01*
X155864285Y-88076190D01*
X155959523Y-88076190D01*
X156007142Y-88052380D01*
X156030952Y-88028571D01*
X156054761Y-87980952D01*
X156054761Y-87885714D01*
X156030952Y-87838095D01*
X156007142Y-87814285D01*
X155959523Y-87790476D01*
%TO.C,R18*%
X174698790Y-98915011D02*
X174460695Y-99081678D01*
X174698790Y-99200725D02*
X174198790Y-99200725D01*
X174198790Y-99010249D01*
X174222600Y-98962630D01*
X174246409Y-98938821D01*
X174294028Y-98915011D01*
X174365457Y-98915011D01*
X174413076Y-98938821D01*
X174436885Y-98962630D01*
X174460695Y-99010249D01*
X174460695Y-99200725D01*
X174698790Y-98438821D02*
X174698790Y-98724535D01*
X174698790Y-98581678D02*
X174198790Y-98581678D01*
X174270219Y-98629297D01*
X174317838Y-98676916D01*
X174341647Y-98724535D01*
X174413076Y-98153106D02*
X174389266Y-98200725D01*
X174365457Y-98224535D01*
X174317838Y-98248344D01*
X174294028Y-98248344D01*
X174246409Y-98224535D01*
X174222600Y-98200725D01*
X174198790Y-98153106D01*
X174198790Y-98057868D01*
X174222600Y-98010249D01*
X174246409Y-97986440D01*
X174294028Y-97962630D01*
X174317838Y-97962630D01*
X174365457Y-97986440D01*
X174389266Y-98010249D01*
X174413076Y-98057868D01*
X174413076Y-98153106D01*
X174436885Y-98200725D01*
X174460695Y-98224535D01*
X174508314Y-98248344D01*
X174603552Y-98248344D01*
X174651171Y-98224535D01*
X174674980Y-98200725D01*
X174698790Y-98153106D01*
X174698790Y-98057868D01*
X174674980Y-98010249D01*
X174651171Y-97986440D01*
X174603552Y-97962630D01*
X174508314Y-97962630D01*
X174460695Y-97986440D01*
X174436885Y-98010249D01*
X174413076Y-98057868D01*
%TO.C,C11*%
X174625771Y-97266628D02*
X174649580Y-97290438D01*
X174673390Y-97361866D01*
X174673390Y-97409485D01*
X174649580Y-97480914D01*
X174601961Y-97528533D01*
X174554342Y-97552342D01*
X174459104Y-97576152D01*
X174387676Y-97576152D01*
X174292438Y-97552342D01*
X174244819Y-97528533D01*
X174197200Y-97480914D01*
X174173390Y-97409485D01*
X174173390Y-97361866D01*
X174197200Y-97290438D01*
X174221009Y-97266628D01*
X174673390Y-96790438D02*
X174673390Y-97076152D01*
X174673390Y-96933295D02*
X174173390Y-96933295D01*
X174244819Y-96980914D01*
X174292438Y-97028533D01*
X174316247Y-97076152D01*
X174673390Y-96314247D02*
X174673390Y-96599961D01*
X174673390Y-96457104D02*
X174173390Y-96457104D01*
X174244819Y-96504723D01*
X174292438Y-96552342D01*
X174316247Y-96599961D01*
%TO.C,C21*%
X170866571Y-97298628D02*
X170890380Y-97322438D01*
X170914190Y-97393866D01*
X170914190Y-97441485D01*
X170890380Y-97512914D01*
X170842761Y-97560533D01*
X170795142Y-97584342D01*
X170699904Y-97608152D01*
X170628476Y-97608152D01*
X170533238Y-97584342D01*
X170485619Y-97560533D01*
X170438000Y-97512914D01*
X170414190Y-97441485D01*
X170414190Y-97393866D01*
X170438000Y-97322438D01*
X170461809Y-97298628D01*
X170461809Y-97108152D02*
X170438000Y-97084342D01*
X170414190Y-97036723D01*
X170414190Y-96917676D01*
X170438000Y-96870057D01*
X170461809Y-96846247D01*
X170509428Y-96822438D01*
X170557047Y-96822438D01*
X170628476Y-96846247D01*
X170914190Y-97131961D01*
X170914190Y-96822438D01*
X170914190Y-96346247D02*
X170914190Y-96631961D01*
X170914190Y-96489104D02*
X170414190Y-96489104D01*
X170485619Y-96536723D01*
X170533238Y-96584342D01*
X170557047Y-96631961D01*
%TO.C,C22*%
X149810071Y-98492428D02*
X149833880Y-98516238D01*
X149857690Y-98587666D01*
X149857690Y-98635285D01*
X149833880Y-98706714D01*
X149786261Y-98754333D01*
X149738642Y-98778142D01*
X149643404Y-98801952D01*
X149571976Y-98801952D01*
X149476738Y-98778142D01*
X149429119Y-98754333D01*
X149381500Y-98706714D01*
X149357690Y-98635285D01*
X149357690Y-98587666D01*
X149381500Y-98516238D01*
X149405309Y-98492428D01*
X149405309Y-98301952D02*
X149381500Y-98278142D01*
X149357690Y-98230523D01*
X149357690Y-98111476D01*
X149381500Y-98063857D01*
X149405309Y-98040047D01*
X149452928Y-98016238D01*
X149500547Y-98016238D01*
X149571976Y-98040047D01*
X149857690Y-98325761D01*
X149857690Y-98016238D01*
X149405309Y-97825761D02*
X149381500Y-97801952D01*
X149357690Y-97754333D01*
X149357690Y-97635285D01*
X149381500Y-97587666D01*
X149405309Y-97563857D01*
X149452928Y-97540047D01*
X149500547Y-97540047D01*
X149571976Y-97563857D01*
X149857690Y-97849571D01*
X149857690Y-97540047D01*
%TO.C,C20*%
X170866571Y-98884011D02*
X170890380Y-98907821D01*
X170914190Y-98979249D01*
X170914190Y-99026868D01*
X170890380Y-99098297D01*
X170842761Y-99145916D01*
X170795142Y-99169725D01*
X170699904Y-99193535D01*
X170628476Y-99193535D01*
X170533238Y-99169725D01*
X170485619Y-99145916D01*
X170438000Y-99098297D01*
X170414190Y-99026868D01*
X170414190Y-98979249D01*
X170438000Y-98907821D01*
X170461809Y-98884011D01*
X170461809Y-98693535D02*
X170438000Y-98669725D01*
X170414190Y-98622106D01*
X170414190Y-98503059D01*
X170438000Y-98455440D01*
X170461809Y-98431630D01*
X170509428Y-98407821D01*
X170557047Y-98407821D01*
X170628476Y-98431630D01*
X170914190Y-98717344D01*
X170914190Y-98407821D01*
X170414190Y-98098297D02*
X170414190Y-98050678D01*
X170438000Y-98003059D01*
X170461809Y-97979249D01*
X170509428Y-97955440D01*
X170604666Y-97931630D01*
X170723714Y-97931630D01*
X170818952Y-97955440D01*
X170866571Y-97979249D01*
X170890380Y-98003059D01*
X170914190Y-98050678D01*
X170914190Y-98098297D01*
X170890380Y-98145916D01*
X170866571Y-98169725D01*
X170818952Y-98193535D01*
X170723714Y-98217344D01*
X170604666Y-98217344D01*
X170509428Y-98193535D01*
X170461809Y-98169725D01*
X170438000Y-98145916D01*
X170414190Y-98098297D01*
%TO.C,U13*%
X159492190Y-106981547D02*
X159896952Y-106981547D01*
X159944571Y-106957738D01*
X159968380Y-106933928D01*
X159992190Y-106886309D01*
X159992190Y-106791071D01*
X159968380Y-106743452D01*
X159944571Y-106719642D01*
X159896952Y-106695833D01*
X159492190Y-106695833D01*
X159992190Y-106195833D02*
X159992190Y-106481547D01*
X159992190Y-106338690D02*
X159492190Y-106338690D01*
X159563619Y-106386309D01*
X159611238Y-106433928D01*
X159635047Y-106481547D01*
X159492190Y-106029166D02*
X159492190Y-105719642D01*
X159682666Y-105886309D01*
X159682666Y-105814880D01*
X159706476Y-105767261D01*
X159730285Y-105743452D01*
X159777904Y-105719642D01*
X159896952Y-105719642D01*
X159944571Y-105743452D01*
X159968380Y-105767261D01*
X159992190Y-105814880D01*
X159992190Y-105957738D01*
X159968380Y-106005357D01*
X159944571Y-106029166D01*
%TO.C,U10*%
X172329552Y-108008990D02*
X172329552Y-108413752D01*
X172353361Y-108461371D01*
X172377171Y-108485180D01*
X172424790Y-108508990D01*
X172520028Y-108508990D01*
X172567647Y-108485180D01*
X172591457Y-108461371D01*
X172615266Y-108413752D01*
X172615266Y-108008990D01*
X173115266Y-108508990D02*
X172829552Y-108508990D01*
X172972409Y-108508990D02*
X172972409Y-108008990D01*
X172924790Y-108080419D01*
X172877171Y-108128038D01*
X172829552Y-108151847D01*
X173424790Y-108008990D02*
X173472409Y-108008990D01*
X173520028Y-108032800D01*
X173543838Y-108056609D01*
X173567647Y-108104228D01*
X173591457Y-108199466D01*
X173591457Y-108318514D01*
X173567647Y-108413752D01*
X173543838Y-108461371D01*
X173520028Y-108485180D01*
X173472409Y-108508990D01*
X173424790Y-108508990D01*
X173377171Y-108485180D01*
X173353361Y-108461371D01*
X173329552Y-108413752D01*
X173305742Y-108318514D01*
X173305742Y-108199466D01*
X173329552Y-108104228D01*
X173353361Y-108056609D01*
X173377171Y-108032800D01*
X173424790Y-108008990D01*
%TO.C,R22*%
X145895190Y-95952428D02*
X145657095Y-96119095D01*
X145895190Y-96238142D02*
X145395190Y-96238142D01*
X145395190Y-96047666D01*
X145419000Y-96000047D01*
X145442809Y-95976238D01*
X145490428Y-95952428D01*
X145561857Y-95952428D01*
X145609476Y-95976238D01*
X145633285Y-96000047D01*
X145657095Y-96047666D01*
X145657095Y-96238142D01*
X145442809Y-95761952D02*
X145419000Y-95738142D01*
X145395190Y-95690523D01*
X145395190Y-95571476D01*
X145419000Y-95523857D01*
X145442809Y-95500047D01*
X145490428Y-95476238D01*
X145538047Y-95476238D01*
X145609476Y-95500047D01*
X145895190Y-95785761D01*
X145895190Y-95476238D01*
X145442809Y-95285761D02*
X145419000Y-95261952D01*
X145395190Y-95214333D01*
X145395190Y-95095285D01*
X145419000Y-95047666D01*
X145442809Y-95023857D01*
X145490428Y-95000047D01*
X145538047Y-95000047D01*
X145609476Y-95023857D01*
X145895190Y-95309571D01*
X145895190Y-95000047D01*
%TO.C,R21*%
X145895190Y-97552628D02*
X145657095Y-97719295D01*
X145895190Y-97838342D02*
X145395190Y-97838342D01*
X145395190Y-97647866D01*
X145419000Y-97600247D01*
X145442809Y-97576438D01*
X145490428Y-97552628D01*
X145561857Y-97552628D01*
X145609476Y-97576438D01*
X145633285Y-97600247D01*
X145657095Y-97647866D01*
X145657095Y-97838342D01*
X145442809Y-97362152D02*
X145419000Y-97338342D01*
X145395190Y-97290723D01*
X145395190Y-97171676D01*
X145419000Y-97124057D01*
X145442809Y-97100247D01*
X145490428Y-97076438D01*
X145538047Y-97076438D01*
X145609476Y-97100247D01*
X145895190Y-97385961D01*
X145895190Y-97076438D01*
X145895190Y-96600247D02*
X145895190Y-96885961D01*
X145895190Y-96743104D02*
X145395190Y-96743104D01*
X145466619Y-96790723D01*
X145514238Y-96838342D01*
X145538047Y-96885961D01*
%TO.C,R12*%
X178501190Y-105286928D02*
X178263095Y-105453595D01*
X178501190Y-105572642D02*
X178001190Y-105572642D01*
X178001190Y-105382166D01*
X178025000Y-105334547D01*
X178048809Y-105310738D01*
X178096428Y-105286928D01*
X178167857Y-105286928D01*
X178215476Y-105310738D01*
X178239285Y-105334547D01*
X178263095Y-105382166D01*
X178263095Y-105572642D01*
X178501190Y-104810738D02*
X178501190Y-105096452D01*
X178501190Y-104953595D02*
X178001190Y-104953595D01*
X178072619Y-105001214D01*
X178120238Y-105048833D01*
X178144047Y-105096452D01*
X178048809Y-104620261D02*
X178025000Y-104596452D01*
X178001190Y-104548833D01*
X178001190Y-104429785D01*
X178025000Y-104382166D01*
X178048809Y-104358357D01*
X178096428Y-104334547D01*
X178144047Y-104334547D01*
X178215476Y-104358357D01*
X178501190Y-104644071D01*
X178501190Y-104334547D01*
%TO.C,R2*%
X170914190Y-103402065D02*
X170676095Y-103568732D01*
X170914190Y-103687779D02*
X170414190Y-103687779D01*
X170414190Y-103497303D01*
X170438000Y-103449684D01*
X170461809Y-103425874D01*
X170509428Y-103402065D01*
X170580857Y-103402065D01*
X170628476Y-103425874D01*
X170652285Y-103449684D01*
X170676095Y-103497303D01*
X170676095Y-103687779D01*
X170461809Y-103211589D02*
X170438000Y-103187779D01*
X170414190Y-103140160D01*
X170414190Y-103021112D01*
X170438000Y-102973493D01*
X170461809Y-102949684D01*
X170509428Y-102925874D01*
X170557047Y-102925874D01*
X170628476Y-102949684D01*
X170914190Y-103235398D01*
X170914190Y-102925874D01*
%TO.C,C19*%
X165367571Y-107191928D02*
X165391380Y-107215738D01*
X165415190Y-107287166D01*
X165415190Y-107334785D01*
X165391380Y-107406214D01*
X165343761Y-107453833D01*
X165296142Y-107477642D01*
X165200904Y-107501452D01*
X165129476Y-107501452D01*
X165034238Y-107477642D01*
X164986619Y-107453833D01*
X164939000Y-107406214D01*
X164915190Y-107334785D01*
X164915190Y-107287166D01*
X164939000Y-107215738D01*
X164962809Y-107191928D01*
X165415190Y-106715738D02*
X165415190Y-107001452D01*
X165415190Y-106858595D02*
X164915190Y-106858595D01*
X164986619Y-106906214D01*
X165034238Y-106953833D01*
X165058047Y-107001452D01*
X165415190Y-106477642D02*
X165415190Y-106382404D01*
X165391380Y-106334785D01*
X165367571Y-106310976D01*
X165296142Y-106263357D01*
X165200904Y-106239547D01*
X165010428Y-106239547D01*
X164962809Y-106263357D01*
X164939000Y-106287166D01*
X164915190Y-106334785D01*
X164915190Y-106430023D01*
X164939000Y-106477642D01*
X164962809Y-106501452D01*
X165010428Y-106525261D01*
X165129476Y-106525261D01*
X165177095Y-106501452D01*
X165200904Y-106477642D01*
X165224714Y-106430023D01*
X165224714Y-106334785D01*
X165200904Y-106287166D01*
X165177095Y-106263357D01*
X165129476Y-106239547D01*
%TO.C,C18*%
X178486671Y-108500028D02*
X178510480Y-108523838D01*
X178534290Y-108595266D01*
X178534290Y-108642885D01*
X178510480Y-108714314D01*
X178462861Y-108761933D01*
X178415242Y-108785742D01*
X178320004Y-108809552D01*
X178248576Y-108809552D01*
X178153338Y-108785742D01*
X178105719Y-108761933D01*
X178058100Y-108714314D01*
X178034290Y-108642885D01*
X178034290Y-108595266D01*
X178058100Y-108523838D01*
X178081909Y-108500028D01*
X178534290Y-108023838D02*
X178534290Y-108309552D01*
X178534290Y-108166695D02*
X178034290Y-108166695D01*
X178105719Y-108214314D01*
X178153338Y-108261933D01*
X178177147Y-108309552D01*
X178248576Y-107738123D02*
X178224766Y-107785742D01*
X178200957Y-107809552D01*
X178153338Y-107833361D01*
X178129528Y-107833361D01*
X178081909Y-107809552D01*
X178058100Y-107785742D01*
X178034290Y-107738123D01*
X178034290Y-107642885D01*
X178058100Y-107595266D01*
X178081909Y-107571457D01*
X178129528Y-107547647D01*
X178153338Y-107547647D01*
X178200957Y-107571457D01*
X178224766Y-107595266D01*
X178248576Y-107642885D01*
X178248576Y-107738123D01*
X178272385Y-107785742D01*
X178296195Y-107809552D01*
X178343814Y-107833361D01*
X178439052Y-107833361D01*
X178486671Y-107809552D01*
X178510480Y-107785742D01*
X178534290Y-107738123D01*
X178534290Y-107642885D01*
X178510480Y-107595266D01*
X178486671Y-107571457D01*
X178439052Y-107547647D01*
X178343814Y-107547647D01*
X178296195Y-107571457D01*
X178272385Y-107595266D01*
X178248576Y-107642885D01*
%TO.C,C17*%
X165342071Y-105604428D02*
X165365880Y-105628238D01*
X165389690Y-105699666D01*
X165389690Y-105747285D01*
X165365880Y-105818714D01*
X165318261Y-105866333D01*
X165270642Y-105890142D01*
X165175404Y-105913952D01*
X165103976Y-105913952D01*
X165008738Y-105890142D01*
X164961119Y-105866333D01*
X164913500Y-105818714D01*
X164889690Y-105747285D01*
X164889690Y-105699666D01*
X164913500Y-105628238D01*
X164937309Y-105604428D01*
X165389690Y-105128238D02*
X165389690Y-105413952D01*
X165389690Y-105271095D02*
X164889690Y-105271095D01*
X164961119Y-105318714D01*
X165008738Y-105366333D01*
X165032547Y-105413952D01*
X164889690Y-104961571D02*
X164889690Y-104628238D01*
X165389690Y-104842523D01*
%TO.C,C16*%
X178486671Y-106899828D02*
X178510480Y-106923638D01*
X178534290Y-106995066D01*
X178534290Y-107042685D01*
X178510480Y-107114114D01*
X178462861Y-107161733D01*
X178415242Y-107185542D01*
X178320004Y-107209352D01*
X178248576Y-107209352D01*
X178153338Y-107185542D01*
X178105719Y-107161733D01*
X178058100Y-107114114D01*
X178034290Y-107042685D01*
X178034290Y-106995066D01*
X178058100Y-106923638D01*
X178081909Y-106899828D01*
X178534290Y-106423638D02*
X178534290Y-106709352D01*
X178534290Y-106566495D02*
X178034290Y-106566495D01*
X178105719Y-106614114D01*
X178153338Y-106661733D01*
X178177147Y-106709352D01*
X178034290Y-105995066D02*
X178034290Y-106090304D01*
X178058100Y-106137923D01*
X178081909Y-106161733D01*
X178153338Y-106209352D01*
X178248576Y-106233161D01*
X178439052Y-106233161D01*
X178486671Y-106209352D01*
X178510480Y-106185542D01*
X178534290Y-106137923D01*
X178534290Y-106042685D01*
X178510480Y-105995066D01*
X178486671Y-105971257D01*
X178439052Y-105947447D01*
X178320004Y-105947447D01*
X178272385Y-105971257D01*
X178248576Y-105995066D01*
X178224766Y-106042685D01*
X178224766Y-106137923D01*
X178248576Y-106185542D01*
X178272385Y-106209352D01*
X178320004Y-106233161D01*
%TO.C,C15*%
X156688671Y-108763571D02*
X156664861Y-108787380D01*
X156593433Y-108811190D01*
X156545814Y-108811190D01*
X156474385Y-108787380D01*
X156426766Y-108739761D01*
X156402957Y-108692142D01*
X156379147Y-108596904D01*
X156379147Y-108525476D01*
X156402957Y-108430238D01*
X156426766Y-108382619D01*
X156474385Y-108335000D01*
X156545814Y-108311190D01*
X156593433Y-108311190D01*
X156664861Y-108335000D01*
X156688671Y-108358809D01*
X157164861Y-108811190D02*
X156879147Y-108811190D01*
X157022004Y-108811190D02*
X157022004Y-108311190D01*
X156974385Y-108382619D01*
X156926766Y-108430238D01*
X156879147Y-108454047D01*
X157617242Y-108311190D02*
X157379147Y-108311190D01*
X157355338Y-108549285D01*
X157379147Y-108525476D01*
X157426766Y-108501666D01*
X157545814Y-108501666D01*
X157593433Y-108525476D01*
X157617242Y-108549285D01*
X157641052Y-108596904D01*
X157641052Y-108715952D01*
X157617242Y-108763571D01*
X157593433Y-108787380D01*
X157545814Y-108811190D01*
X157426766Y-108811190D01*
X157379147Y-108787380D01*
X157355338Y-108763571D01*
%TO.C,C14*%
X169795071Y-108509571D02*
X169771261Y-108533380D01*
X169699833Y-108557190D01*
X169652214Y-108557190D01*
X169580785Y-108533380D01*
X169533166Y-108485761D01*
X169509357Y-108438142D01*
X169485547Y-108342904D01*
X169485547Y-108271476D01*
X169509357Y-108176238D01*
X169533166Y-108128619D01*
X169580785Y-108081000D01*
X169652214Y-108057190D01*
X169699833Y-108057190D01*
X169771261Y-108081000D01*
X169795071Y-108104809D01*
X170271261Y-108557190D02*
X169985547Y-108557190D01*
X170128404Y-108557190D02*
X170128404Y-108057190D01*
X170080785Y-108128619D01*
X170033166Y-108176238D01*
X169985547Y-108200047D01*
X170699833Y-108223857D02*
X170699833Y-108557190D01*
X170580785Y-108033380D02*
X170461738Y-108390523D01*
X170771261Y-108390523D01*
%TO.C,C6*%
X154983666Y-109792271D02*
X154959857Y-109816080D01*
X154888428Y-109839890D01*
X154840809Y-109839890D01*
X154769380Y-109816080D01*
X154721761Y-109768461D01*
X154697952Y-109720842D01*
X154674142Y-109625604D01*
X154674142Y-109554176D01*
X154697952Y-109458938D01*
X154721761Y-109411319D01*
X154769380Y-109363700D01*
X154840809Y-109339890D01*
X154888428Y-109339890D01*
X154959857Y-109363700D01*
X154983666Y-109387509D01*
X155412238Y-109339890D02*
X155317000Y-109339890D01*
X155269380Y-109363700D01*
X155245571Y-109387509D01*
X155197952Y-109458938D01*
X155174142Y-109554176D01*
X155174142Y-109744652D01*
X155197952Y-109792271D01*
X155221761Y-109816080D01*
X155269380Y-109839890D01*
X155364619Y-109839890D01*
X155412238Y-109816080D01*
X155436047Y-109792271D01*
X155459857Y-109744652D01*
X155459857Y-109625604D01*
X155436047Y-109577985D01*
X155412238Y-109554176D01*
X155364619Y-109530366D01*
X155269380Y-109530366D01*
X155221761Y-109554176D01*
X155197952Y-109577985D01*
X155174142Y-109625604D01*
%TO.C,C5*%
X168001166Y-109271571D02*
X167977357Y-109295380D01*
X167905928Y-109319190D01*
X167858309Y-109319190D01*
X167786880Y-109295380D01*
X167739261Y-109247761D01*
X167715452Y-109200142D01*
X167691642Y-109104904D01*
X167691642Y-109033476D01*
X167715452Y-108938238D01*
X167739261Y-108890619D01*
X167786880Y-108843000D01*
X167858309Y-108819190D01*
X167905928Y-108819190D01*
X167977357Y-108843000D01*
X168001166Y-108866809D01*
X168453547Y-108819190D02*
X168215452Y-108819190D01*
X168191642Y-109057285D01*
X168215452Y-109033476D01*
X168263071Y-109009666D01*
X168382119Y-109009666D01*
X168429738Y-109033476D01*
X168453547Y-109057285D01*
X168477357Y-109104904D01*
X168477357Y-109223952D01*
X168453547Y-109271571D01*
X168429738Y-109295380D01*
X168382119Y-109319190D01*
X168263071Y-109319190D01*
X168215452Y-109295380D01*
X168191642Y-109271571D01*
%TO.C,U2*%
X180213047Y-101326190D02*
X180213047Y-101730952D01*
X180236857Y-101778571D01*
X180260666Y-101802380D01*
X180308285Y-101826190D01*
X180403523Y-101826190D01*
X180451142Y-101802380D01*
X180474952Y-101778571D01*
X180498761Y-101730952D01*
X180498761Y-101326190D01*
X180713047Y-101373809D02*
X180736857Y-101350000D01*
X180784476Y-101326190D01*
X180903523Y-101326190D01*
X180951142Y-101350000D01*
X180974952Y-101373809D01*
X180998761Y-101421428D01*
X180998761Y-101469047D01*
X180974952Y-101540476D01*
X180689238Y-101826190D01*
X180998761Y-101826190D01*
%TO.C,U9*%
X149606047Y-117963190D02*
X149606047Y-118367952D01*
X149629857Y-118415571D01*
X149653666Y-118439380D01*
X149701285Y-118463190D01*
X149796523Y-118463190D01*
X149844142Y-118439380D01*
X149867952Y-118415571D01*
X149891761Y-118367952D01*
X149891761Y-117963190D01*
X150153666Y-118463190D02*
X150248904Y-118463190D01*
X150296523Y-118439380D01*
X150320333Y-118415571D01*
X150367952Y-118344142D01*
X150391761Y-118248904D01*
X150391761Y-118058428D01*
X150367952Y-118010809D01*
X150344142Y-117987000D01*
X150296523Y-117963190D01*
X150201285Y-117963190D01*
X150153666Y-117987000D01*
X150129857Y-118010809D01*
X150106047Y-118058428D01*
X150106047Y-118177476D01*
X150129857Y-118225095D01*
X150153666Y-118248904D01*
X150201285Y-118272714D01*
X150296523Y-118272714D01*
X150344142Y-118248904D01*
X150367952Y-118225095D01*
X150391761Y-118177476D01*
%TO.C,R19*%
X154466171Y-119857750D02*
X154299504Y-119619655D01*
X154180457Y-119857750D02*
X154180457Y-119357750D01*
X154370933Y-119357750D01*
X154418552Y-119381560D01*
X154442361Y-119405369D01*
X154466171Y-119452988D01*
X154466171Y-119524417D01*
X154442361Y-119572036D01*
X154418552Y-119595845D01*
X154370933Y-119619655D01*
X154180457Y-119619655D01*
X154942361Y-119857750D02*
X154656647Y-119857750D01*
X154799504Y-119857750D02*
X154799504Y-119357750D01*
X154751885Y-119429179D01*
X154704266Y-119476798D01*
X154656647Y-119500607D01*
X155180457Y-119857750D02*
X155275695Y-119857750D01*
X155323314Y-119833940D01*
X155347123Y-119810131D01*
X155394742Y-119738702D01*
X155418552Y-119643464D01*
X155418552Y-119452988D01*
X155394742Y-119405369D01*
X155370933Y-119381560D01*
X155323314Y-119357750D01*
X155228076Y-119357750D01*
X155180457Y-119381560D01*
X155156647Y-119405369D01*
X155132838Y-119452988D01*
X155132838Y-119572036D01*
X155156647Y-119619655D01*
X155180457Y-119643464D01*
X155228076Y-119667274D01*
X155323314Y-119667274D01*
X155370933Y-119643464D01*
X155394742Y-119619655D01*
X155418552Y-119572036D01*
%TO.C,C13*%
X178458771Y-100589428D02*
X178482580Y-100613238D01*
X178506390Y-100684666D01*
X178506390Y-100732285D01*
X178482580Y-100803714D01*
X178434961Y-100851333D01*
X178387342Y-100875142D01*
X178292104Y-100898952D01*
X178220676Y-100898952D01*
X178125438Y-100875142D01*
X178077819Y-100851333D01*
X178030200Y-100803714D01*
X178006390Y-100732285D01*
X178006390Y-100684666D01*
X178030200Y-100613238D01*
X178054009Y-100589428D01*
X178506390Y-100113238D02*
X178506390Y-100398952D01*
X178506390Y-100256095D02*
X178006390Y-100256095D01*
X178077819Y-100303714D01*
X178125438Y-100351333D01*
X178149247Y-100398952D01*
X178006390Y-99946571D02*
X178006390Y-99637047D01*
X178196866Y-99803714D01*
X178196866Y-99732285D01*
X178220676Y-99684666D01*
X178244485Y-99660857D01*
X178292104Y-99637047D01*
X178411152Y-99637047D01*
X178458771Y-99660857D01*
X178482580Y-99684666D01*
X178506390Y-99732285D01*
X178506390Y-99875142D01*
X178482580Y-99922761D01*
X178458771Y-99946571D01*
%TO.C,C10*%
X170866571Y-100418594D02*
X170890380Y-100442404D01*
X170914190Y-100513832D01*
X170914190Y-100561451D01*
X170890380Y-100632880D01*
X170842761Y-100680499D01*
X170795142Y-100704308D01*
X170699904Y-100728118D01*
X170628476Y-100728118D01*
X170533238Y-100704308D01*
X170485619Y-100680499D01*
X170438000Y-100632880D01*
X170414190Y-100561451D01*
X170414190Y-100513832D01*
X170438000Y-100442404D01*
X170461809Y-100418594D01*
X170914190Y-99942404D02*
X170914190Y-100228118D01*
X170914190Y-100085261D02*
X170414190Y-100085261D01*
X170485619Y-100132880D01*
X170533238Y-100180499D01*
X170557047Y-100228118D01*
X170414190Y-99632880D02*
X170414190Y-99585261D01*
X170438000Y-99537642D01*
X170461809Y-99513832D01*
X170509428Y-99490023D01*
X170604666Y-99466213D01*
X170723714Y-99466213D01*
X170818952Y-99490023D01*
X170866571Y-99513832D01*
X170890380Y-99537642D01*
X170914190Y-99585261D01*
X170914190Y-99632880D01*
X170890380Y-99680499D01*
X170866571Y-99704308D01*
X170818952Y-99728118D01*
X170723714Y-99751927D01*
X170604666Y-99751927D01*
X170509428Y-99728118D01*
X170461809Y-99704308D01*
X170438000Y-99680499D01*
X170414190Y-99632880D01*
%TO.C,C9*%
X159157171Y-119768133D02*
X159180980Y-119791942D01*
X159204790Y-119863371D01*
X159204790Y-119910990D01*
X159180980Y-119982419D01*
X159133361Y-120030038D01*
X159085742Y-120053847D01*
X158990504Y-120077657D01*
X158919076Y-120077657D01*
X158823838Y-120053847D01*
X158776219Y-120030038D01*
X158728600Y-119982419D01*
X158704790Y-119910990D01*
X158704790Y-119863371D01*
X158728600Y-119791942D01*
X158752409Y-119768133D01*
X159204790Y-119530038D02*
X159204790Y-119434800D01*
X159180980Y-119387180D01*
X159157171Y-119363371D01*
X159085742Y-119315752D01*
X158990504Y-119291942D01*
X158800028Y-119291942D01*
X158752409Y-119315752D01*
X158728600Y-119339561D01*
X158704790Y-119387180D01*
X158704790Y-119482419D01*
X158728600Y-119530038D01*
X158752409Y-119553847D01*
X158800028Y-119577657D01*
X158919076Y-119577657D01*
X158966695Y-119553847D01*
X158990504Y-119530038D01*
X159014314Y-119482419D01*
X159014314Y-119387180D01*
X158990504Y-119339561D01*
X158966695Y-119315752D01*
X158919076Y-119291942D01*
%TO.C,C8*%
X182360071Y-108109533D02*
X182383880Y-108133342D01*
X182407690Y-108204771D01*
X182407690Y-108252390D01*
X182383880Y-108323819D01*
X182336261Y-108371438D01*
X182288642Y-108395247D01*
X182193404Y-108419057D01*
X182121976Y-108419057D01*
X182026738Y-108395247D01*
X181979119Y-108371438D01*
X181931500Y-108323819D01*
X181907690Y-108252390D01*
X181907690Y-108204771D01*
X181931500Y-108133342D01*
X181955309Y-108109533D01*
X182121976Y-107823819D02*
X182098166Y-107871438D01*
X182074357Y-107895247D01*
X182026738Y-107919057D01*
X182002928Y-107919057D01*
X181955309Y-107895247D01*
X181931500Y-107871438D01*
X181907690Y-107823819D01*
X181907690Y-107728580D01*
X181931500Y-107680961D01*
X181955309Y-107657152D01*
X182002928Y-107633342D01*
X182026738Y-107633342D01*
X182074357Y-107657152D01*
X182098166Y-107680961D01*
X182121976Y-107728580D01*
X182121976Y-107823819D01*
X182145785Y-107871438D01*
X182169595Y-107895247D01*
X182217214Y-107919057D01*
X182312452Y-107919057D01*
X182360071Y-107895247D01*
X182383880Y-107871438D01*
X182407690Y-107823819D01*
X182407690Y-107728580D01*
X182383880Y-107680961D01*
X182360071Y-107657152D01*
X182312452Y-107633342D01*
X182217214Y-107633342D01*
X182169595Y-107657152D01*
X182145785Y-107680961D01*
X182121976Y-107728580D01*
%TO.C,C7*%
X149846271Y-96483733D02*
X149870080Y-96507542D01*
X149893890Y-96578971D01*
X149893890Y-96626590D01*
X149870080Y-96698019D01*
X149822461Y-96745638D01*
X149774842Y-96769447D01*
X149679604Y-96793257D01*
X149608176Y-96793257D01*
X149512938Y-96769447D01*
X149465319Y-96745638D01*
X149417700Y-96698019D01*
X149393890Y-96626590D01*
X149393890Y-96578971D01*
X149417700Y-96507542D01*
X149441509Y-96483733D01*
X149393890Y-96317066D02*
X149393890Y-95983733D01*
X149893890Y-96198019D01*
%TO.C,R17*%
X163078290Y-110938428D02*
X162840195Y-111105095D01*
X163078290Y-111224142D02*
X162578290Y-111224142D01*
X162578290Y-111033666D01*
X162602100Y-110986047D01*
X162625909Y-110962238D01*
X162673528Y-110938428D01*
X162744957Y-110938428D01*
X162792576Y-110962238D01*
X162816385Y-110986047D01*
X162840195Y-111033666D01*
X162840195Y-111224142D01*
X163078290Y-110462238D02*
X163078290Y-110747952D01*
X163078290Y-110605095D02*
X162578290Y-110605095D01*
X162649719Y-110652714D01*
X162697338Y-110700333D01*
X162721147Y-110747952D01*
X162578290Y-110295571D02*
X162578290Y-109962238D01*
X163078290Y-110176523D01*
%TO.C,R16*%
X159293690Y-110938428D02*
X159055595Y-111105095D01*
X159293690Y-111224142D02*
X158793690Y-111224142D01*
X158793690Y-111033666D01*
X158817500Y-110986047D01*
X158841309Y-110962238D01*
X158888928Y-110938428D01*
X158960357Y-110938428D01*
X159007976Y-110962238D01*
X159031785Y-110986047D01*
X159055595Y-111033666D01*
X159055595Y-111224142D01*
X159293690Y-110462238D02*
X159293690Y-110747952D01*
X159293690Y-110605095D02*
X158793690Y-110605095D01*
X158865119Y-110652714D01*
X158912738Y-110700333D01*
X158936547Y-110747952D01*
X158793690Y-110033666D02*
X158793690Y-110128904D01*
X158817500Y-110176523D01*
X158841309Y-110200333D01*
X158912738Y-110247952D01*
X159007976Y-110271761D01*
X159198452Y-110271761D01*
X159246071Y-110247952D01*
X159269880Y-110224142D01*
X159293690Y-110176523D01*
X159293690Y-110081285D01*
X159269880Y-110033666D01*
X159246071Y-110009857D01*
X159198452Y-109986047D01*
X159079404Y-109986047D01*
X159031785Y-110009857D01*
X159007976Y-110033666D01*
X158984166Y-110081285D01*
X158984166Y-110176523D01*
X159007976Y-110224142D01*
X159031785Y-110247952D01*
X159079404Y-110271761D01*
%TO.C,R7*%
X182293390Y-104930299D02*
X182055295Y-105096966D01*
X182293390Y-105216013D02*
X181793390Y-105216013D01*
X181793390Y-105025537D01*
X181817200Y-104977918D01*
X181841009Y-104954108D01*
X181888628Y-104930299D01*
X181960057Y-104930299D01*
X182007676Y-104954108D01*
X182031485Y-104977918D01*
X182055295Y-105025537D01*
X182055295Y-105216013D01*
X181793390Y-104763632D02*
X181793390Y-104430299D01*
X182293390Y-104644585D01*
%TO.C,R6*%
X182293390Y-106515682D02*
X182055295Y-106682349D01*
X182293390Y-106801396D02*
X181793390Y-106801396D01*
X181793390Y-106610920D01*
X181817200Y-106563301D01*
X181841009Y-106539491D01*
X181888628Y-106515682D01*
X181960057Y-106515682D01*
X182007676Y-106539491D01*
X182031485Y-106563301D01*
X182055295Y-106610920D01*
X182055295Y-106801396D01*
X181793390Y-106087110D02*
X181793390Y-106182349D01*
X181817200Y-106229968D01*
X181841009Y-106253777D01*
X181912438Y-106301396D01*
X182007676Y-106325206D01*
X182198152Y-106325206D01*
X182245771Y-106301396D01*
X182269580Y-106277587D01*
X182293390Y-106229968D01*
X182293390Y-106134729D01*
X182269580Y-106087110D01*
X182245771Y-106063301D01*
X182198152Y-106039491D01*
X182079104Y-106039491D01*
X182031485Y-106063301D01*
X182007676Y-106087110D01*
X181983866Y-106134729D01*
X181983866Y-106229968D01*
X182007676Y-106277587D01*
X182031485Y-106301396D01*
X182079104Y-106325206D01*
%TO.C,U1*%
X182483990Y-96716252D02*
X182888752Y-96716252D01*
X182936371Y-96692442D01*
X182960180Y-96668633D01*
X182983990Y-96621014D01*
X182983990Y-96525776D01*
X182960180Y-96478157D01*
X182936371Y-96454347D01*
X182888752Y-96430538D01*
X182483990Y-96430538D01*
X182983990Y-95930538D02*
X182983990Y-96216252D01*
X182983990Y-96073395D02*
X182483990Y-96073395D01*
X182555419Y-96121014D01*
X182603038Y-96168633D01*
X182626847Y-96216252D01*
%TO.C,U6*%
X159702547Y-123106690D02*
X159702547Y-123511452D01*
X159726357Y-123559071D01*
X159750166Y-123582880D01*
X159797785Y-123606690D01*
X159893023Y-123606690D01*
X159940642Y-123582880D01*
X159964452Y-123559071D01*
X159988261Y-123511452D01*
X159988261Y-123106690D01*
X160440642Y-123106690D02*
X160345404Y-123106690D01*
X160297785Y-123130500D01*
X160273976Y-123154309D01*
X160226357Y-123225738D01*
X160202547Y-123320976D01*
X160202547Y-123511452D01*
X160226357Y-123559071D01*
X160250166Y-123582880D01*
X160297785Y-123606690D01*
X160393023Y-123606690D01*
X160440642Y-123582880D01*
X160464452Y-123559071D01*
X160488261Y-123511452D01*
X160488261Y-123392404D01*
X160464452Y-123344785D01*
X160440642Y-123320976D01*
X160393023Y-123297166D01*
X160297785Y-123297166D01*
X160250166Y-123320976D01*
X160226357Y-123344785D01*
X160202547Y-123392404D01*
%TO.C,U11*%
X150891952Y-121760490D02*
X150891952Y-122165252D01*
X150915761Y-122212871D01*
X150939571Y-122236680D01*
X150987190Y-122260490D01*
X151082428Y-122260490D01*
X151130047Y-122236680D01*
X151153857Y-122212871D01*
X151177666Y-122165252D01*
X151177666Y-121760490D01*
X151677666Y-122260490D02*
X151391952Y-122260490D01*
X151534809Y-122260490D02*
X151534809Y-121760490D01*
X151487190Y-121831919D01*
X151439571Y-121879538D01*
X151391952Y-121903347D01*
X152153857Y-122260490D02*
X151868142Y-122260490D01*
X152011000Y-122260490D02*
X152011000Y-121760490D01*
X151963380Y-121831919D01*
X151915761Y-121879538D01*
X151868142Y-121903347D01*
%TO.C,R11*%
X170914190Y-102003977D02*
X170676095Y-102170644D01*
X170914190Y-102289691D02*
X170414190Y-102289691D01*
X170414190Y-102099215D01*
X170438000Y-102051596D01*
X170461809Y-102027787D01*
X170509428Y-102003977D01*
X170580857Y-102003977D01*
X170628476Y-102027787D01*
X170652285Y-102051596D01*
X170676095Y-102099215D01*
X170676095Y-102289691D01*
X170914190Y-101527787D02*
X170914190Y-101813501D01*
X170914190Y-101670644D02*
X170414190Y-101670644D01*
X170485619Y-101718263D01*
X170533238Y-101765882D01*
X170557047Y-101813501D01*
X170914190Y-101051596D02*
X170914190Y-101337310D01*
X170914190Y-101194453D02*
X170414190Y-101194453D01*
X170485619Y-101242072D01*
X170533238Y-101289691D01*
X170557047Y-101337310D01*
%TO.C,R10*%
X153642190Y-98314628D02*
X153404095Y-98481295D01*
X153642190Y-98600342D02*
X153142190Y-98600342D01*
X153142190Y-98409866D01*
X153166000Y-98362247D01*
X153189809Y-98338438D01*
X153237428Y-98314628D01*
X153308857Y-98314628D01*
X153356476Y-98338438D01*
X153380285Y-98362247D01*
X153404095Y-98409866D01*
X153404095Y-98600342D01*
X153642190Y-97838438D02*
X153642190Y-98124152D01*
X153642190Y-97981295D02*
X153142190Y-97981295D01*
X153213619Y-98028914D01*
X153261238Y-98076533D01*
X153285047Y-98124152D01*
X153142190Y-97528914D02*
X153142190Y-97481295D01*
X153166000Y-97433676D01*
X153189809Y-97409866D01*
X153237428Y-97386057D01*
X153332666Y-97362247D01*
X153451714Y-97362247D01*
X153546952Y-97386057D01*
X153594571Y-97409866D01*
X153618380Y-97433676D01*
X153642190Y-97481295D01*
X153642190Y-97528914D01*
X153618380Y-97576533D01*
X153594571Y-97600342D01*
X153546952Y-97624152D01*
X153451714Y-97647961D01*
X153332666Y-97647961D01*
X153237428Y-97624152D01*
X153189809Y-97600342D01*
X153166000Y-97576533D01*
X153142190Y-97528914D01*
%TO.C,R14*%
X154428071Y-113002190D02*
X154261404Y-112764095D01*
X154142357Y-113002190D02*
X154142357Y-112502190D01*
X154332833Y-112502190D01*
X154380452Y-112526000D01*
X154404261Y-112549809D01*
X154428071Y-112597428D01*
X154428071Y-112668857D01*
X154404261Y-112716476D01*
X154380452Y-112740285D01*
X154332833Y-112764095D01*
X154142357Y-112764095D01*
X154904261Y-113002190D02*
X154618547Y-113002190D01*
X154761404Y-113002190D02*
X154761404Y-112502190D01*
X154713785Y-112573619D01*
X154666166Y-112621238D01*
X154618547Y-112645047D01*
X155332833Y-112668857D02*
X155332833Y-113002190D01*
X155213785Y-112478380D02*
X155094738Y-112835523D01*
X155404261Y-112835523D01*
%TO.C,R4*%
X163014790Y-119666533D02*
X162776695Y-119833200D01*
X163014790Y-119952247D02*
X162514790Y-119952247D01*
X162514790Y-119761771D01*
X162538600Y-119714152D01*
X162562409Y-119690342D01*
X162610028Y-119666533D01*
X162681457Y-119666533D01*
X162729076Y-119690342D01*
X162752885Y-119714152D01*
X162776695Y-119761771D01*
X162776695Y-119952247D01*
X162681457Y-119237961D02*
X163014790Y-119237961D01*
X162490980Y-119357009D02*
X162848123Y-119476057D01*
X162848123Y-119166533D01*
%TO.C,R15*%
X157045790Y-123511428D02*
X156807695Y-123678095D01*
X157045790Y-123797142D02*
X156545790Y-123797142D01*
X156545790Y-123606666D01*
X156569600Y-123559047D01*
X156593409Y-123535238D01*
X156641028Y-123511428D01*
X156712457Y-123511428D01*
X156760076Y-123535238D01*
X156783885Y-123559047D01*
X156807695Y-123606666D01*
X156807695Y-123797142D01*
X157045790Y-123035238D02*
X157045790Y-123320952D01*
X157045790Y-123178095D02*
X156545790Y-123178095D01*
X156617219Y-123225714D01*
X156664838Y-123273333D01*
X156688647Y-123320952D01*
X156545790Y-122582857D02*
X156545790Y-122820952D01*
X156783885Y-122844761D01*
X156760076Y-122820952D01*
X156736266Y-122773333D01*
X156736266Y-122654285D01*
X156760076Y-122606666D01*
X156783885Y-122582857D01*
X156831504Y-122559047D01*
X156950552Y-122559047D01*
X156998171Y-122582857D01*
X157021980Y-122606666D01*
X157045790Y-122654285D01*
X157045790Y-122773333D01*
X157021980Y-122820952D01*
X156998171Y-122844761D01*
%TO.C,R13*%
X149552790Y-123511428D02*
X149314695Y-123678095D01*
X149552790Y-123797142D02*
X149052790Y-123797142D01*
X149052790Y-123606666D01*
X149076600Y-123559047D01*
X149100409Y-123535238D01*
X149148028Y-123511428D01*
X149219457Y-123511428D01*
X149267076Y-123535238D01*
X149290885Y-123559047D01*
X149314695Y-123606666D01*
X149314695Y-123797142D01*
X149552790Y-123035238D02*
X149552790Y-123320952D01*
X149552790Y-123178095D02*
X149052790Y-123178095D01*
X149124219Y-123225714D01*
X149171838Y-123273333D01*
X149195647Y-123320952D01*
X149052790Y-122868571D02*
X149052790Y-122559047D01*
X149243266Y-122725714D01*
X149243266Y-122654285D01*
X149267076Y-122606666D01*
X149290885Y-122582857D01*
X149338504Y-122559047D01*
X149457552Y-122559047D01*
X149505171Y-122582857D01*
X149528980Y-122606666D01*
X149552790Y-122654285D01*
X149552790Y-122797142D01*
X149528980Y-122844761D01*
X149505171Y-122868571D01*
%TO.C,R1*%
X165389690Y-108414333D02*
X165151595Y-108581000D01*
X165389690Y-108700047D02*
X164889690Y-108700047D01*
X164889690Y-108509571D01*
X164913500Y-108461952D01*
X164937309Y-108438142D01*
X164984928Y-108414333D01*
X165056357Y-108414333D01*
X165103976Y-108438142D01*
X165127785Y-108461952D01*
X165151595Y-108509571D01*
X165151595Y-108700047D01*
X165389690Y-107938142D02*
X165389690Y-108223857D01*
X165389690Y-108081000D02*
X164889690Y-108081000D01*
X164961119Y-108128619D01*
X165008738Y-108176238D01*
X165032547Y-108223857D01*
%TO.C,Q1*%
X141967709Y-96466019D02*
X141943900Y-96513638D01*
X141896280Y-96561257D01*
X141824852Y-96632685D01*
X141801042Y-96680304D01*
X141801042Y-96727923D01*
X141920090Y-96704114D02*
X141896280Y-96751733D01*
X141848661Y-96799352D01*
X141753423Y-96823161D01*
X141586757Y-96823161D01*
X141491519Y-96799352D01*
X141443900Y-96751733D01*
X141420090Y-96704114D01*
X141420090Y-96608876D01*
X141443900Y-96561257D01*
X141491519Y-96513638D01*
X141586757Y-96489828D01*
X141753423Y-96489828D01*
X141848661Y-96513638D01*
X141896280Y-96561257D01*
X141920090Y-96608876D01*
X141920090Y-96704114D01*
X141920090Y-96013638D02*
X141920090Y-96299352D01*
X141920090Y-96156495D02*
X141420090Y-96156495D01*
X141491519Y-96204114D01*
X141539138Y-96251733D01*
X141562947Y-96299352D01*
%TO.C,D1*%
X145934952Y-124432190D02*
X145934952Y-123932190D01*
X146054000Y-123932190D01*
X146125428Y-123956000D01*
X146173047Y-124003619D01*
X146196857Y-124051238D01*
X146220666Y-124146476D01*
X146220666Y-124217904D01*
X146196857Y-124313142D01*
X146173047Y-124360761D01*
X146125428Y-124408380D01*
X146054000Y-124432190D01*
X145934952Y-124432190D01*
X146696857Y-124432190D02*
X146411142Y-124432190D01*
X146554000Y-124432190D02*
X146554000Y-123932190D01*
X146506380Y-124003619D01*
X146458761Y-124051238D01*
X146411142Y-124075047D01*
%TO.C,C4*%
X145974571Y-119082333D02*
X145998380Y-119106142D01*
X146022190Y-119177571D01*
X146022190Y-119225190D01*
X145998380Y-119296619D01*
X145950761Y-119344238D01*
X145903142Y-119368047D01*
X145807904Y-119391857D01*
X145736476Y-119391857D01*
X145641238Y-119368047D01*
X145593619Y-119344238D01*
X145546000Y-119296619D01*
X145522190Y-119225190D01*
X145522190Y-119177571D01*
X145546000Y-119106142D01*
X145569809Y-119082333D01*
X145688857Y-118653761D02*
X146022190Y-118653761D01*
X145498380Y-118772809D02*
X145855523Y-118891857D01*
X145855523Y-118582333D01*
%TO.C,C3*%
X145946631Y-117639613D02*
X145970440Y-117663422D01*
X145994250Y-117734851D01*
X145994250Y-117782470D01*
X145970440Y-117853899D01*
X145922821Y-117901518D01*
X145875202Y-117925327D01*
X145779964Y-117949137D01*
X145708536Y-117949137D01*
X145613298Y-117925327D01*
X145565679Y-117901518D01*
X145518060Y-117853899D01*
X145494250Y-117782470D01*
X145494250Y-117734851D01*
X145518060Y-117663422D01*
X145541869Y-117639613D01*
X145494250Y-117472946D02*
X145494250Y-117163422D01*
X145684726Y-117330089D01*
X145684726Y-117258660D01*
X145708536Y-117211041D01*
X145732345Y-117187232D01*
X145779964Y-117163422D01*
X145899012Y-117163422D01*
X145946631Y-117187232D01*
X145970440Y-117211041D01*
X145994250Y-117258660D01*
X145994250Y-117401518D01*
X145970440Y-117449137D01*
X145946631Y-117472946D01*
%TO.C,C2*%
X149558511Y-121523273D02*
X149582320Y-121547082D01*
X149606130Y-121618511D01*
X149606130Y-121666130D01*
X149582320Y-121737559D01*
X149534701Y-121785178D01*
X149487082Y-121808987D01*
X149391844Y-121832797D01*
X149320416Y-121832797D01*
X149225178Y-121808987D01*
X149177559Y-121785178D01*
X149129940Y-121737559D01*
X149106130Y-121666130D01*
X149106130Y-121618511D01*
X149129940Y-121547082D01*
X149153749Y-121523273D01*
X149153749Y-121332797D02*
X149129940Y-121308987D01*
X149106130Y-121261368D01*
X149106130Y-121142320D01*
X149129940Y-121094701D01*
X149153749Y-121070892D01*
X149201368Y-121047082D01*
X149248987Y-121047082D01*
X149320416Y-121070892D01*
X149606130Y-121356606D01*
X149606130Y-121047082D01*
%TO.C,C1*%
X156985471Y-121596933D02*
X157009280Y-121620742D01*
X157033090Y-121692171D01*
X157033090Y-121739790D01*
X157009280Y-121811219D01*
X156961661Y-121858838D01*
X156914042Y-121882647D01*
X156818804Y-121906457D01*
X156747376Y-121906457D01*
X156652138Y-121882647D01*
X156604519Y-121858838D01*
X156556900Y-121811219D01*
X156533090Y-121739790D01*
X156533090Y-121692171D01*
X156556900Y-121620742D01*
X156580709Y-121596933D01*
X157033090Y-121120742D02*
X157033090Y-121406457D01*
X157033090Y-121263600D02*
X156533090Y-121263600D01*
X156604519Y-121311219D01*
X156652138Y-121358838D01*
X156675947Y-121406457D01*
%TO.C,R9*%
X152207090Y-125140233D02*
X151968995Y-125306900D01*
X152207090Y-125425947D02*
X151707090Y-125425947D01*
X151707090Y-125235471D01*
X151730900Y-125187852D01*
X151754709Y-125164042D01*
X151802328Y-125140233D01*
X151873757Y-125140233D01*
X151921376Y-125164042D01*
X151945185Y-125187852D01*
X151968995Y-125235471D01*
X151968995Y-125425947D01*
X152207090Y-124902138D02*
X152207090Y-124806900D01*
X152183280Y-124759280D01*
X152159471Y-124735471D01*
X152088042Y-124687852D01*
X151992804Y-124664042D01*
X151802328Y-124664042D01*
X151754709Y-124687852D01*
X151730900Y-124711661D01*
X151707090Y-124759280D01*
X151707090Y-124854519D01*
X151730900Y-124902138D01*
X151754709Y-124925947D01*
X151802328Y-124949757D01*
X151921376Y-124949757D01*
X151968995Y-124925947D01*
X151992804Y-124902138D01*
X152016614Y-124854519D01*
X152016614Y-124759280D01*
X151992804Y-124711661D01*
X151968995Y-124687852D01*
X151921376Y-124664042D01*
%TO.C,R8*%
X168272590Y-125165633D02*
X168034495Y-125332300D01*
X168272590Y-125451347D02*
X167772590Y-125451347D01*
X167772590Y-125260871D01*
X167796400Y-125213252D01*
X167820209Y-125189442D01*
X167867828Y-125165633D01*
X167939257Y-125165633D01*
X167986876Y-125189442D01*
X168010685Y-125213252D01*
X168034495Y-125260871D01*
X168034495Y-125451347D01*
X167986876Y-124879919D02*
X167963066Y-124927538D01*
X167939257Y-124951347D01*
X167891638Y-124975157D01*
X167867828Y-124975157D01*
X167820209Y-124951347D01*
X167796400Y-124927538D01*
X167772590Y-124879919D01*
X167772590Y-124784680D01*
X167796400Y-124737061D01*
X167820209Y-124713252D01*
X167867828Y-124689442D01*
X167891638Y-124689442D01*
X167939257Y-124713252D01*
X167963066Y-124737061D01*
X167986876Y-124784680D01*
X167986876Y-124879919D01*
X168010685Y-124927538D01*
X168034495Y-124951347D01*
X168082114Y-124975157D01*
X168177352Y-124975157D01*
X168224971Y-124951347D01*
X168248780Y-124927538D01*
X168272590Y-124879919D01*
X168272590Y-124784680D01*
X168248780Y-124737061D01*
X168224971Y-124713252D01*
X168177352Y-124689442D01*
X168082114Y-124689442D01*
X168034495Y-124713252D01*
X168010685Y-124737061D01*
X167986876Y-124784680D01*
%TO.C,U5*%
X159575547Y-130004190D02*
X159575547Y-130408952D01*
X159599357Y-130456571D01*
X159623166Y-130480380D01*
X159670785Y-130504190D01*
X159766023Y-130504190D01*
X159813642Y-130480380D01*
X159837452Y-130456571D01*
X159861261Y-130408952D01*
X159861261Y-130004190D01*
X160337452Y-130004190D02*
X160099357Y-130004190D01*
X160075547Y-130242285D01*
X160099357Y-130218476D01*
X160146976Y-130194666D01*
X160266023Y-130194666D01*
X160313642Y-130218476D01*
X160337452Y-130242285D01*
X160361261Y-130289904D01*
X160361261Y-130408952D01*
X160337452Y-130456571D01*
X160313642Y-130480380D01*
X160266023Y-130504190D01*
X160146976Y-130504190D01*
X160099357Y-130480380D01*
X160075547Y-130456571D01*
%TD*%
M02*
